<?xml version="1.0" encoding="utf-8"?>
<svg xmlns="http://www.w3.org/2000/svg" xmlns:xlink="http://www.w3.org/1999/xlink" width="800" height="600" viewBox="0 0 3200 2400">
<defs>
  <clipPath id="clip390">
    <rect x="0" y="0" width="3200" height="2400"/>
  </clipPath>
</defs>
<path clip-path="url(#clip390)" d="
M0 2400 L3200 2400 L3200 0 L0 0  Z
  " fill="#ffffff" fill-rule="evenodd" fill-opacity="1"/>
<defs>
  <clipPath id="clip391">
    <rect x="640" y="0" width="2241" height="2241"/>
  </clipPath>
</defs>
<defs>
  <clipPath id="clip392">
    <rect x="228" y="1210" width="2925" height="991"/>
  </clipPath>
</defs>
<path clip-path="url(#clip390)" d="
M228.299 1037.09 L3152.76 1037.09 L3152.76 47.2441 L228.299 47.2441  Z
  " fill="#ffffff" fill-rule="evenodd" fill-opacity="1"/>
<defs>
  <clipPath id="clip393">
    <rect x="228" y="47" width="2925" height="991"/>
  </clipPath>
</defs>
<polyline clip-path="url(#clip393)" style="stroke:#000000; stroke-linecap:butt; stroke-linejoin:round; stroke-width:2; stroke-opacity:0.1; fill:none" points="
  297.133,1037.09 297.133,47.2441 
  "/>
<polyline clip-path="url(#clip393)" style="stroke:#000000; stroke-linecap:butt; stroke-linejoin:round; stroke-width:2; stroke-opacity:0.1; fill:none" points="
  993.83,1037.09 993.83,47.2441 
  "/>
<polyline clip-path="url(#clip393)" style="stroke:#000000; stroke-linecap:butt; stroke-linejoin:round; stroke-width:2; stroke-opacity:0.1; fill:none" points="
  1690.53,1037.09 1690.53,47.2441 
  "/>
<polyline clip-path="url(#clip393)" style="stroke:#000000; stroke-linecap:butt; stroke-linejoin:round; stroke-width:2; stroke-opacity:0.1; fill:none" points="
  2387.22,1037.09 2387.22,47.2441 
  "/>
<polyline clip-path="url(#clip393)" style="stroke:#000000; stroke-linecap:butt; stroke-linejoin:round; stroke-width:2; stroke-opacity:0.1; fill:none" points="
  3083.92,1037.09 3083.92,47.2441 
  "/>
<polyline clip-path="url(#clip390)" style="stroke:#000000; stroke-linecap:butt; stroke-linejoin:round; stroke-width:4; stroke-opacity:1; fill:none" points="
  228.299,1037.09 3152.76,1037.09 
  "/>
<polyline clip-path="url(#clip390)" style="stroke:#000000; stroke-linecap:butt; stroke-linejoin:round; stroke-width:4; stroke-opacity:1; fill:none" points="
  297.133,1037.09 297.133,1018.2 
  "/>
<polyline clip-path="url(#clip390)" style="stroke:#000000; stroke-linecap:butt; stroke-linejoin:round; stroke-width:4; stroke-opacity:1; fill:none" points="
  993.83,1037.09 993.83,1018.2 
  "/>
<polyline clip-path="url(#clip390)" style="stroke:#000000; stroke-linecap:butt; stroke-linejoin:round; stroke-width:4; stroke-opacity:1; fill:none" points="
  1690.53,1037.09 1690.53,1018.2 
  "/>
<polyline clip-path="url(#clip390)" style="stroke:#000000; stroke-linecap:butt; stroke-linejoin:round; stroke-width:4; stroke-opacity:1; fill:none" points="
  2387.22,1037.09 2387.22,1018.2 
  "/>
<polyline clip-path="url(#clip390)" style="stroke:#000000; stroke-linecap:butt; stroke-linejoin:round; stroke-width:4; stroke-opacity:1; fill:none" points="
  3083.92,1037.09 3083.92,1018.2 
  "/>
<path clip-path="url(#clip390)" d="M286.485 1089.71 Q286.485 1082.28 288.363 1078.23 Q290.981 1072.2 297.157 1072.2 Q298.467 1072.2 299.825 1072.57 Q301.209 1072.91 302.938 1074.27 Q304.692 1075.63 305.754 1077.86 Q307.78 1082.15 307.78 1089.71 Q307.78 1097.1 305.902 1101.13 Q303.16 1107.01 297.108 1107.01 Q294.835 1107.01 292.513 1105.84 Q290.216 1104.68 288.758 1101.89 Q286.485 1097.72 286.485 1089.71 M290.685 1089.1 Q290.685 1096.73 291.228 1099.77 Q291.846 1103.05 293.526 1104.49 Q295.23 1105.89 297.108 1105.89 Q299.133 1105.89 300.813 1104.39 Q302.518 1102.86 303.037 1099.57 Q303.605 1096.33 303.58 1089.1 Q303.58 1082.06 303.086 1079.24 Q302.419 1075.95 300.64 1074.64 Q298.886 1073.31 297.108 1073.31 Q296.441 1073.31 295.724 1073.51 Q295.033 1073.71 294.02 1074.27 Q293.007 1074.84 292.217 1076.25 Q291.451 1077.66 291.08 1079.78 Q290.685 1082.52 290.685 1089.1 Z" fill="#000000" fill-rule="evenodd" fill-opacity="1" /><path clip-path="url(#clip390)" d="M958.158 1105.89 Q958.158 1104.98 958.232 1104.71 Q958.331 1104.44 958.726 1104.02 L968.435 1093.2 Q973.746 1087.22 973.746 1082.01 Q973.746 1078.62 971.967 1076.2 Q970.214 1073.78 966.977 1073.78 Q964.754 1073.78 962.877 1075.14 Q960.999 1076.5 960.135 1078.92 Q960.283 1078.87 960.802 1078.87 Q962.061 1078.87 962.753 1079.66 Q963.47 1080.45 963.47 1081.51 Q963.47 1082.87 962.58 1083.54 Q961.716 1084.18 960.851 1084.18 Q960.505 1084.18 960.036 1084.11 Q959.591 1084.03 958.875 1083.34 Q958.158 1082.62 958.158 1081.36 Q958.158 1077.83 960.826 1075.01 Q963.519 1072.2 967.62 1072.2 Q972.264 1072.2 975.302 1074.97 Q978.366 1077.71 978.366 1082.01 Q978.366 1083.51 977.896 1084.9 Q977.452 1086.25 976.834 1087.32 Q976.241 1088.38 974.611 1090.08 Q972.98 1091.79 971.671 1093 Q970.362 1094.21 967.422 1096.78 L962.061 1101.99 L971.177 1101.99 Q975.624 1101.99 975.969 1101.6 Q976.463 1100.88 977.081 1097.1 L978.366 1097.1 L976.933 1105.89 L958.158 1105.89 Z" fill="#000000" fill-rule="evenodd" fill-opacity="1" /><path clip-path="url(#clip390)" d="M983.455 1097.74 Q983.455 1096.23 984.27 1095.67 Q985.085 1095.07 985.95 1095.07 Q987.111 1095.07 987.778 1095.81 Q988.469 1096.53 988.469 1097.54 Q988.469 1098.56 987.778 1099.3 Q987.111 1100.01 985.95 1100.01 Q985.381 1100.01 985.085 1099.92 Q985.752 1102.24 987.778 1103.92 Q989.828 1105.6 992.521 1105.6 Q995.905 1105.6 997.931 1102.31 Q999.141 1100.19 999.141 1095.37 Q999.141 1091.12 998.227 1089 Q996.819 1085.76 993.929 1085.76 Q989.828 1085.76 987.407 1089.29 Q987.111 1089.74 986.765 1089.76 Q986.271 1089.76 986.147 1089.49 Q986.048 1089.19 986.048 1088.43 L986.048 1073.46 Q986.048 1072.25 986.542 1072.25 Q986.74 1072.25 987.16 1072.4 Q990.347 1073.8 993.879 1073.83 Q997.511 1073.83 1000.77 1072.35 Q1001.02 1072.2 1001.17 1072.2 Q1001.66 1072.2 1001.69 1072.77 Q1001.69 1072.96 1001.27 1073.56 Q1000.87 1074.13 1000.01 1074.89 Q999.141 1075.63 998.03 1076.35 Q996.918 1077.07 995.287 1077.56 Q993.682 1078.03 991.903 1078.03 Q989.779 1078.03 987.605 1077.36 L987.605 1087.22 Q990.223 1084.65 994.028 1084.65 Q998.079 1084.65 1000.87 1087.91 Q1003.66 1091.17 1003.66 1095.72 Q1003.66 1100.48 1000.35 1103.74 Q997.066 1107.01 992.619 1107.01 Q988.568 1107.01 985.999 1104.12 Q983.455 1101.22 983.455 1097.74 Z" fill="#000000" fill-rule="evenodd" fill-opacity="1" /><path clip-path="url(#clip390)" d="M1008.21 1089.71 Q1008.21 1082.28 1010.08 1078.23 Q1012.7 1072.2 1018.88 1072.2 Q1020.19 1072.2 1021.55 1072.57 Q1022.93 1072.91 1024.66 1074.27 Q1026.41 1075.63 1027.48 1077.86 Q1029.5 1082.15 1029.5 1089.71 Q1029.5 1097.1 1027.62 1101.13 Q1024.88 1107.01 1018.83 1107.01 Q1016.56 1107.01 1014.23 1105.84 Q1011.94 1104.68 1010.48 1101.89 Q1008.21 1097.72 1008.21 1089.71 M1012.41 1089.1 Q1012.41 1096.73 1012.95 1099.77 Q1013.57 1103.05 1015.25 1104.49 Q1016.95 1105.89 1018.83 1105.89 Q1020.86 1105.89 1022.54 1104.39 Q1024.24 1102.86 1024.76 1099.57 Q1025.33 1096.33 1025.3 1089.1 Q1025.3 1082.06 1024.81 1079.24 Q1024.14 1075.95 1022.36 1074.64 Q1020.61 1073.31 1018.83 1073.31 Q1018.16 1073.31 1017.45 1073.51 Q1016.75 1073.71 1015.74 1074.27 Q1014.73 1074.84 1013.94 1076.25 Q1013.17 1077.66 1012.8 1079.78 Q1012.41 1082.52 1012.41 1089.1 Z" fill="#000000" fill-rule="evenodd" fill-opacity="1" /><path clip-path="url(#clip390)" d="M1654.86 1097.74 Q1654.86 1096.23 1655.67 1095.67 Q1656.49 1095.07 1657.35 1095.07 Q1658.51 1095.07 1659.18 1095.81 Q1659.87 1096.53 1659.87 1097.54 Q1659.87 1098.56 1659.18 1099.3 Q1658.51 1100.01 1657.35 1100.01 Q1656.78 1100.01 1656.49 1099.92 Q1657.15 1102.24 1659.18 1103.92 Q1661.23 1105.6 1663.92 1105.6 Q1667.31 1105.6 1669.33 1102.31 Q1670.54 1100.19 1670.54 1095.37 Q1670.54 1091.12 1669.63 1089 Q1668.22 1085.76 1665.33 1085.76 Q1661.23 1085.76 1658.81 1089.29 Q1658.51 1089.74 1658.17 1089.76 Q1657.67 1089.76 1657.55 1089.49 Q1657.45 1089.19 1657.45 1088.43 L1657.45 1073.46 Q1657.45 1072.25 1657.94 1072.25 Q1658.14 1072.25 1658.56 1072.4 Q1661.75 1073.8 1665.28 1073.83 Q1668.91 1073.83 1672.17 1072.35 Q1672.42 1072.2 1672.57 1072.2 Q1673.06 1072.2 1673.09 1072.77 Q1673.09 1072.96 1672.67 1073.56 Q1672.27 1074.13 1671.41 1074.89 Q1670.54 1075.63 1669.43 1076.35 Q1668.32 1077.07 1666.69 1077.56 Q1665.08 1078.03 1663.3 1078.03 Q1661.18 1078.03 1659.01 1077.36 L1659.01 1087.22 Q1661.62 1084.65 1665.43 1084.65 Q1669.48 1084.65 1672.27 1087.91 Q1675.06 1091.17 1675.06 1095.72 Q1675.06 1100.48 1671.75 1103.74 Q1668.47 1107.01 1664.02 1107.01 Q1659.97 1107.01 1657.4 1104.12 Q1654.86 1101.22 1654.86 1097.74 Z" fill="#000000" fill-rule="evenodd" fill-opacity="1" /><path clip-path="url(#clip390)" d="M1679.61 1089.71 Q1679.61 1082.28 1681.49 1078.23 Q1684.1 1072.2 1690.28 1072.2 Q1691.59 1072.2 1692.95 1072.57 Q1694.33 1072.91 1696.06 1074.27 Q1697.81 1075.63 1698.88 1077.86 Q1700.9 1082.15 1700.9 1089.71 Q1700.9 1097.1 1699.03 1101.13 Q1696.28 1107.01 1690.23 1107.01 Q1687.96 1107.01 1685.64 1105.84 Q1683.34 1104.68 1681.88 1101.89 Q1679.61 1097.72 1679.61 1089.71 M1683.81 1089.1 Q1683.81 1096.73 1684.35 1099.77 Q1684.97 1103.05 1686.65 1104.49 Q1688.35 1105.89 1690.23 1105.89 Q1692.26 1105.89 1693.94 1104.39 Q1695.64 1102.86 1696.16 1099.57 Q1696.73 1096.33 1696.7 1089.1 Q1696.7 1082.06 1696.21 1079.24 Q1695.54 1075.95 1693.76 1074.64 Q1692.01 1073.31 1690.23 1073.31 Q1689.56 1073.31 1688.85 1073.51 Q1688.16 1073.71 1687.14 1074.27 Q1686.13 1074.84 1685.34 1076.25 Q1684.57 1077.66 1684.2 1079.78 Q1683.81 1082.52 1683.81 1089.1 Z" fill="#000000" fill-rule="evenodd" fill-opacity="1" /><path clip-path="url(#clip390)" d="M1704.9 1089.71 Q1704.9 1082.28 1706.78 1078.23 Q1709.4 1072.2 1715.58 1072.2 Q1716.89 1072.2 1718.24 1072.57 Q1719.63 1072.91 1721.36 1074.27 Q1723.11 1075.63 1724.17 1077.86 Q1726.2 1082.15 1726.2 1089.71 Q1726.2 1097.1 1724.32 1101.13 Q1721.58 1107.01 1715.53 1107.01 Q1713.25 1107.01 1710.93 1105.84 Q1708.63 1104.68 1707.18 1101.89 Q1704.9 1097.72 1704.9 1089.71 M1709.1 1089.1 Q1709.1 1096.73 1709.65 1099.77 Q1710.27 1103.05 1711.95 1104.49 Q1713.65 1105.89 1715.53 1105.89 Q1717.55 1105.89 1719.23 1104.39 Q1720.94 1102.86 1721.46 1099.57 Q1722.02 1096.33 1722 1089.1 Q1722 1082.06 1721.51 1079.24 Q1720.84 1075.95 1719.06 1074.64 Q1717.31 1073.31 1715.53 1073.31 Q1714.86 1073.31 1714.14 1073.51 Q1713.45 1073.71 1712.44 1074.27 Q1711.43 1074.84 1710.64 1076.25 Q1709.87 1077.66 1709.5 1079.78 Q1709.1 1082.52 1709.1 1089.1 Z" fill="#000000" fill-rule="evenodd" fill-opacity="1" /><path clip-path="url(#clip390)" d="M2351.71 1082.1 L2353.37 1071.7 L2354.63 1071.7 Q2354.78 1072.32 2355.02 1072.59 Q2355.3 1072.87 2356.73 1073.09 Q2358.19 1073.31 2361.13 1073.31 L2373.4 1073.31 Q2373.4 1074.47 2372.96 1075.09 L2366.12 1084.7 Q2363.94 1087.74 2362.98 1093.34 Q2362.41 1097.1 2362.43 1101.64 L2362.43 1104.21 Q2362.43 1107.01 2360.09 1107.01 Q2357.77 1107.01 2357.77 1104.21 Q2357.77 1094.56 2363.99 1085.19 Q2364.66 1084.23 2367.1 1080.8 Q2369.57 1077.36 2369.67 1077.21 L2359.2 1077.21 Q2354.6 1077.21 2354.23 1077.51 Q2353.74 1077.95 2352.97 1082.1 L2351.71 1082.1 Z" fill="#000000" fill-rule="evenodd" fill-opacity="1" /><path clip-path="url(#clip390)" d="M2376.69 1097.74 Q2376.69 1096.23 2377.5 1095.67 Q2378.32 1095.07 2379.18 1095.07 Q2380.34 1095.07 2381.01 1095.81 Q2381.7 1096.53 2381.7 1097.54 Q2381.7 1098.56 2381.01 1099.3 Q2380.34 1100.01 2379.18 1100.01 Q2378.62 1100.01 2378.32 1099.92 Q2378.99 1102.24 2381.01 1103.92 Q2383.06 1105.6 2385.75 1105.6 Q2389.14 1105.6 2391.16 1102.31 Q2392.38 1100.19 2392.38 1095.37 Q2392.38 1091.12 2391.46 1089 Q2390.05 1085.76 2387.16 1085.76 Q2383.06 1085.76 2380.64 1089.29 Q2380.34 1089.74 2380 1089.76 Q2379.5 1089.76 2379.38 1089.49 Q2379.28 1089.19 2379.28 1088.43 L2379.28 1073.46 Q2379.28 1072.25 2379.78 1072.25 Q2379.97 1072.25 2380.39 1072.4 Q2383.58 1073.8 2387.11 1073.83 Q2390.75 1073.83 2394.01 1072.35 Q2394.25 1072.2 2394.4 1072.2 Q2394.9 1072.2 2394.92 1072.77 Q2394.92 1072.96 2394.5 1073.56 Q2394.1 1074.13 2393.24 1074.89 Q2392.38 1075.63 2391.26 1076.35 Q2390.15 1077.07 2388.52 1077.56 Q2386.92 1078.03 2385.14 1078.03 Q2383.01 1078.03 2380.84 1077.36 L2380.84 1087.22 Q2383.46 1084.65 2387.26 1084.65 Q2391.31 1084.65 2394.1 1087.91 Q2396.9 1091.17 2396.9 1095.72 Q2396.9 1100.48 2393.59 1103.74 Q2390.3 1107.01 2385.85 1107.01 Q2381.8 1107.01 2379.23 1104.12 Q2376.69 1101.22 2376.69 1097.74 Z" fill="#000000" fill-rule="evenodd" fill-opacity="1" /><path clip-path="url(#clip390)" d="M2401.44 1089.71 Q2401.44 1082.28 2403.32 1078.23 Q2405.94 1072.2 2412.11 1072.2 Q2413.42 1072.2 2414.78 1072.57 Q2416.16 1072.91 2417.89 1074.27 Q2419.65 1075.63 2420.71 1077.86 Q2422.74 1082.15 2422.74 1089.71 Q2422.74 1097.1 2420.86 1101.13 Q2418.12 1107.01 2412.06 1107.01 Q2409.79 1107.01 2407.47 1105.84 Q2405.17 1104.68 2403.71 1101.89 Q2401.44 1097.72 2401.44 1089.71 M2405.64 1089.1 Q2405.64 1096.73 2406.18 1099.77 Q2406.8 1103.05 2408.48 1104.49 Q2410.19 1105.89 2412.06 1105.89 Q2414.09 1105.89 2415.77 1104.39 Q2417.47 1102.86 2417.99 1099.57 Q2418.56 1096.33 2418.54 1089.1 Q2418.54 1082.06 2418.04 1079.24 Q2417.38 1075.95 2415.6 1074.64 Q2413.84 1073.31 2412.06 1073.31 Q2411.4 1073.31 2410.68 1073.51 Q2409.99 1073.71 2408.98 1074.27 Q2407.96 1074.84 2407.17 1076.25 Q2406.41 1077.66 2406.04 1079.78 Q2405.64 1082.52 2405.64 1089.1 Z" fill="#000000" fill-rule="evenodd" fill-opacity="1" /><path clip-path="url(#clip390)" d="M3036.59 1077.02 L3036.59 1075.43 Q3042.67 1075.43 3045.8 1072.2 Q3046.67 1072.2 3046.82 1072.4 Q3046.97 1072.59 3046.97 1073.51 L3046.97 1101.89 Q3046.97 1103.4 3047.71 1103.87 Q3048.45 1104.34 3051.68 1104.34 L3053.29 1104.34 L3053.29 1105.89 Q3051.51 1105.75 3045.09 1105.75 Q3038.67 1105.75 3036.91 1105.89 L3036.91 1104.34 L3038.52 1104.34 Q3041.7 1104.34 3042.47 1103.89 Q3043.24 1103.42 3043.24 1101.89 L3043.24 1075.68 Q3040.59 1077.02 3036.59 1077.02 Z" fill="#000000" fill-rule="evenodd" fill-opacity="1" /><path clip-path="url(#clip390)" d="M3059.37 1089.71 Q3059.37 1082.28 3061.24 1078.23 Q3063.86 1072.2 3070.04 1072.2 Q3071.35 1072.2 3072.71 1072.57 Q3074.09 1072.91 3075.82 1074.27 Q3077.57 1075.63 3078.64 1077.86 Q3080.66 1082.15 3080.66 1089.71 Q3080.66 1097.1 3078.78 1101.13 Q3076.04 1107.01 3069.99 1107.01 Q3067.72 1107.01 3065.39 1105.84 Q3063.1 1104.68 3061.64 1101.89 Q3059.37 1097.72 3059.37 1089.71 M3063.57 1089.1 Q3063.57 1096.73 3064.11 1099.77 Q3064.73 1103.05 3066.41 1104.49 Q3068.11 1105.89 3069.99 1105.89 Q3072.02 1105.89 3073.7 1104.39 Q3075.4 1102.86 3075.92 1099.57 Q3076.49 1096.33 3076.46 1089.1 Q3076.46 1082.06 3075.97 1079.24 Q3075.3 1075.95 3073.52 1074.64 Q3071.77 1073.31 3069.99 1073.31 Q3069.32 1073.31 3068.61 1073.51 Q3067.91 1073.71 3066.9 1074.27 Q3065.89 1074.84 3065.1 1076.25 Q3064.33 1077.66 3063.96 1079.78 Q3063.57 1082.52 3063.57 1089.1 Z" fill="#000000" fill-rule="evenodd" fill-opacity="1" /><path clip-path="url(#clip390)" d="M3084.66 1089.71 Q3084.66 1082.28 3086.54 1078.23 Q3089.16 1072.2 3095.34 1072.2 Q3096.64 1072.2 3098 1072.57 Q3099.39 1072.91 3101.12 1074.27 Q3102.87 1075.63 3103.93 1077.86 Q3105.96 1082.15 3105.96 1089.71 Q3105.96 1097.1 3104.08 1101.13 Q3101.34 1107.01 3095.29 1107.01 Q3093.01 1107.01 3090.69 1105.84 Q3088.39 1104.68 3086.94 1101.89 Q3084.66 1097.72 3084.66 1089.71 M3088.86 1089.1 Q3088.86 1096.73 3089.41 1099.77 Q3090.02 1103.05 3091.7 1104.49 Q3093.41 1105.89 3095.29 1105.89 Q3097.31 1105.89 3098.99 1104.39 Q3100.7 1102.86 3101.21 1099.57 Q3101.78 1096.33 3101.76 1089.1 Q3101.76 1082.06 3101.26 1079.24 Q3100.6 1075.95 3098.82 1074.64 Q3097.06 1073.31 3095.29 1073.31 Q3094.62 1073.31 3093.9 1073.51 Q3093.21 1073.71 3092.2 1074.27 Q3091.18 1074.84 3090.39 1076.25 Q3089.63 1077.66 3089.26 1079.78 Q3088.86 1082.52 3088.86 1089.1 Z" fill="#000000" fill-rule="evenodd" fill-opacity="1" /><path clip-path="url(#clip390)" d="M3109.96 1089.71 Q3109.96 1082.28 3111.84 1078.23 Q3114.46 1072.2 3120.63 1072.2 Q3121.94 1072.2 3123.3 1072.57 Q3124.68 1072.91 3126.41 1074.27 Q3128.17 1075.63 3129.23 1077.86 Q3131.25 1082.15 3131.25 1089.71 Q3131.25 1097.1 3129.38 1101.13 Q3126.63 1107.01 3120.58 1107.01 Q3118.31 1107.01 3115.99 1105.84 Q3113.69 1104.68 3112.23 1101.89 Q3109.96 1097.72 3109.96 1089.71 M3114.16 1089.1 Q3114.16 1096.73 3114.7 1099.77 Q3115.32 1103.05 3117 1104.49 Q3118.7 1105.89 3120.58 1105.89 Q3122.61 1105.89 3124.29 1104.39 Q3125.99 1102.86 3126.51 1099.57 Q3127.08 1096.33 3127.05 1089.1 Q3127.05 1082.06 3126.56 1079.24 Q3125.89 1075.95 3124.11 1074.64 Q3122.36 1073.31 3120.58 1073.31 Q3119.91 1073.31 3119.2 1073.51 Q3118.51 1073.71 3117.49 1074.27 Q3116.48 1074.84 3115.69 1076.25 Q3114.92 1077.66 3114.55 1079.78 Q3114.16 1082.52 3114.16 1089.1 Z" fill="#000000" fill-rule="evenodd" fill-opacity="1" /><polyline clip-path="url(#clip393)" style="stroke:#000000; stroke-linecap:butt; stroke-linejoin:round; stroke-width:2; stroke-opacity:0.1; fill:none" points="
  228.299,907.114 3152.76,907.114 
  "/>
<polyline clip-path="url(#clip393)" style="stroke:#000000; stroke-linecap:butt; stroke-linejoin:round; stroke-width:2; stroke-opacity:0.1; fill:none" points="
  228.299,681.539 3152.76,681.539 
  "/>
<polyline clip-path="url(#clip393)" style="stroke:#000000; stroke-linecap:butt; stroke-linejoin:round; stroke-width:2; stroke-opacity:0.1; fill:none" points="
  228.299,455.963 3152.76,455.963 
  "/>
<polyline clip-path="url(#clip393)" style="stroke:#000000; stroke-linecap:butt; stroke-linejoin:round; stroke-width:2; stroke-opacity:0.1; fill:none" points="
  228.299,230.388 3152.76,230.388 
  "/>
<polyline clip-path="url(#clip390)" style="stroke:#000000; stroke-linecap:butt; stroke-linejoin:round; stroke-width:4; stroke-opacity:1; fill:none" points="
  228.299,1037.09 228.299,47.2441 
  "/>
<polyline clip-path="url(#clip390)" style="stroke:#000000; stroke-linecap:butt; stroke-linejoin:round; stroke-width:4; stroke-opacity:1; fill:none" points="
  228.299,907.114 247.196,907.114 
  "/>
<polyline clip-path="url(#clip390)" style="stroke:#000000; stroke-linecap:butt; stroke-linejoin:round; stroke-width:4; stroke-opacity:1; fill:none" points="
  228.299,681.539 247.196,681.539 
  "/>
<polyline clip-path="url(#clip390)" style="stroke:#000000; stroke-linecap:butt; stroke-linejoin:round; stroke-width:4; stroke-opacity:1; fill:none" points="
  228.299,455.963 247.196,455.963 
  "/>
<polyline clip-path="url(#clip390)" style="stroke:#000000; stroke-linecap:butt; stroke-linejoin:round; stroke-width:4; stroke-opacity:1; fill:none" points="
  228.299,230.388 247.196,230.388 
  "/>
<path clip-path="url(#clip390)" d="M154.459 911.03 Q154.756 911.326 154.756 911.746 Q154.756 912.166 154.459 912.463 Q154.163 912.759 153.743 912.759 L122.073 912.759 Q121.653 912.759 121.357 912.463 Q121.06 912.166 121.06 911.746 Q121.06 911.326 121.357 911.03 Q121.653 910.733 122.073 910.733 L153.743 910.733 Q154.163 910.733 154.459 911.03 Z" fill="#000000" fill-rule="evenodd" fill-opacity="1" /><path clip-path="url(#clip390)" d="M160.091 924.394 Q160.091 923.48 160.166 923.208 Q160.264 922.937 160.66 922.517 L170.368 911.697 Q175.679 905.719 175.679 900.506 Q175.679 897.122 173.901 894.701 Q172.147 892.28 168.911 892.28 Q166.687 892.28 164.81 893.639 Q162.932 894.997 162.068 897.418 Q162.216 897.369 162.735 897.369 Q163.995 897.369 164.686 898.159 Q165.403 898.95 165.403 900.012 Q165.403 901.371 164.513 902.038 Q163.649 902.68 162.784 902.68 Q162.438 902.68 161.969 902.606 Q161.524 902.532 160.808 901.84 Q160.091 901.124 160.091 899.864 Q160.091 896.331 162.759 893.515 Q165.452 890.699 169.553 890.699 Q174.197 890.699 177.236 893.466 Q180.299 896.208 180.299 900.506 Q180.299 902.013 179.829 903.396 Q179.385 904.755 178.767 905.817 Q178.174 906.88 176.544 908.584 Q174.913 910.289 173.604 911.499 Q172.295 912.71 169.355 915.279 L163.995 920.491 L173.11 920.491 Q177.557 920.491 177.903 920.096 Q178.397 919.379 179.014 915.6 L180.299 915.6 L178.866 924.394 L160.091 924.394 Z" fill="#000000" fill-rule="evenodd" fill-opacity="1" /><path clip-path="url(#clip390)" d="M155.991 685.454 Q156.287 685.751 156.287 686.171 Q156.287 686.591 155.991 686.887 Q155.694 687.184 155.274 687.184 L123.605 687.184 Q123.185 687.184 122.888 686.887 Q122.592 686.591 122.592 686.171 Q122.592 685.751 122.888 685.454 Q123.185 685.158 123.605 685.158 L155.274 685.158 Q155.694 685.158 155.991 685.454 Z" fill="#000000" fill-rule="evenodd" fill-opacity="1" /><path clip-path="url(#clip390)" d="M163.599 669.941 L163.599 668.36 Q169.676 668.36 172.814 665.123 Q173.678 665.123 173.827 665.321 Q173.975 665.519 173.975 666.433 L173.975 694.817 Q173.975 696.324 174.716 696.793 Q175.457 697.263 178.693 697.263 L180.299 697.263 L180.299 698.819 Q178.52 698.671 172.097 698.671 Q165.674 698.671 163.92 698.819 L163.92 697.263 L165.526 697.263 Q168.713 697.263 169.479 696.818 Q170.245 696.349 170.245 694.817 L170.245 668.607 Q167.601 669.941 163.599 669.941 Z" fill="#000000" fill-rule="evenodd" fill-opacity="1" /><path clip-path="url(#clip390)" d="M159.005 457.063 Q159.005 449.627 160.882 445.576 Q163.501 439.548 169.676 439.548 Q170.986 439.548 172.344 439.919 Q173.728 440.265 175.457 441.623 Q177.211 442.982 178.273 445.205 Q180.299 449.504 180.299 457.063 Q180.299 464.449 178.421 468.476 Q175.679 474.355 169.627 474.355 Q167.354 474.355 165.032 473.194 Q162.735 472.033 161.277 469.242 Q159.005 465.067 159.005 457.063 M163.204 456.445 Q163.204 464.079 163.748 467.117 Q164.365 470.403 166.045 471.835 Q167.75 473.243 169.627 473.243 Q171.653 473.243 173.332 471.737 Q175.037 470.205 175.556 466.919 Q176.124 463.683 176.099 456.445 Q176.099 449.405 175.605 446.589 Q174.938 443.303 173.16 441.994 Q171.406 440.66 169.627 440.66 Q168.96 440.66 168.244 440.857 Q167.552 441.055 166.539 441.623 Q165.526 442.191 164.736 443.599 Q163.97 445.008 163.599 447.132 Q163.204 449.874 163.204 456.445 Z" fill="#000000" fill-rule="evenodd" fill-opacity="1" /><path clip-path="url(#clip390)" d="M163.599 218.79 L163.599 217.209 Q169.676 217.209 172.814 213.973 Q173.678 213.973 173.827 214.17 Q173.975 214.368 173.975 215.282 L173.975 243.666 Q173.975 245.173 174.716 245.642 Q175.457 246.112 178.693 246.112 L180.299 246.112 L180.299 247.668 Q178.52 247.52 172.097 247.52 Q165.674 247.52 163.92 247.668 L163.92 246.112 L165.526 246.112 Q168.713 246.112 169.479 245.667 Q170.245 245.198 170.245 243.666 L170.245 217.456 Q167.601 218.79 163.599 218.79 Z" fill="#000000" fill-rule="evenodd" fill-opacity="1" /><path clip-path="url(#clip390)" d="M35.3077 567.756 Q37.2752 567.756 38.3995 568.986 Q39.4886 570.216 39.4886 571.621 Q39.4886 572.956 38.7157 573.659 Q37.9428 574.362 36.959 574.362 Q35.6239 574.362 34.4645 573.378 Q33.3051 572.394 33.0592 570.918 Q32.1457 572.359 32.1457 574.502 Q32.1457 575.907 32.8835 577.137 Q33.6213 578.332 34.5699 579.069 Q35.5185 579.772 36.8887 580.405 Q38.2238 581.002 39.0319 581.248 Q39.8048 581.459 40.6481 581.634 L50.4855 584.094 Q55.1583 585.288 56.8095 585.288 Q58.8473 585.288 60.2175 584.304 Q61.5526 583.321 61.5526 581.353 Q61.5526 580.58 61.3418 579.702 Q61.0958 578.824 60.4634 577.699 Q59.7959 576.54 58.8122 575.521 Q57.7933 574.467 56.0717 573.448 Q54.3502 572.429 52.1368 571.762 Q51.3638 571.551 51.3638 570.848 Q51.3638 569.97 52.0665 569.97 Q52.6638 569.97 53.9286 570.462 Q55.1583 570.918 56.7744 571.937 Q58.3554 572.921 59.7959 574.221 Q61.2012 575.521 62.185 577.453 Q63.1687 579.386 63.1687 581.494 Q63.1687 584.515 61.5526 586.518 Q59.9364 588.52 57.6879 589.258 Q58.0041 589.434 58.4257 589.68 Q58.8473 589.926 59.7959 590.664 Q60.7094 591.366 61.412 592.174 Q62.0796 592.982 62.6066 594.247 Q63.1687 595.477 63.1687 596.812 Q63.1687 598.498 62.6769 600.009 Q62.185 601.485 61.0607 602.539 Q59.9364 603.593 58.3906 603.593 Q56.669 603.593 55.4745 602.433 Q54.2448 601.239 54.2448 599.623 Q54.2448 598.604 54.8421 597.796 Q55.4393 596.952 56.7393 596.952 Q58.1798 596.952 59.2689 597.936 Q60.358 598.92 60.6391 600.325 Q61.5526 598.885 61.5526 596.742 Q61.5526 594.423 59.5148 592.596 Q57.4771 590.769 54.0691 589.891 Q45.883 587.712 42.2291 586.869 Q38.54 586.026 36.959 586.026 Q35.4834 586.026 34.4645 586.412 Q33.4456 586.799 32.9889 587.466 Q32.497 588.099 32.3214 588.696 Q32.1457 589.258 32.1457 589.891 Q32.1457 590.945 32.5673 592.139 Q32.9889 593.299 33.9727 594.704 Q34.9213 596.074 36.8887 597.374 Q38.8562 598.674 41.5615 599.552 Q42.3696 599.728 42.3696 600.501 Q42.3345 601.344 41.6318 601.344 Q41.0345 601.344 39.8048 600.887 Q38.54 600.396 36.959 599.412 Q35.378 598.393 33.9727 597.093 Q32.5322 595.758 31.5484 593.826 Q30.5647 591.858 30.5647 589.75 Q30.5647 588.801 30.7755 587.888 Q30.9512 586.939 31.4782 585.815 Q32.0052 584.656 33.1646 583.637 Q34.324 582.618 36.0104 581.986 Q35.2023 581.564 34.4294 581.002 Q33.6565 580.405 32.7078 579.491 Q31.7241 578.542 31.162 577.243 Q30.5647 575.907 30.5647 574.432 Q30.5647 572.991 30.9512 571.586 Q31.3025 570.181 32.4619 568.986 Q33.5862 567.756 35.3077 567.756 Z" fill="#000000" fill-rule="evenodd" fill-opacity="1" /><path clip-path="url(#clip390)" d="M44.3722 558.246 Q32.216 558.246 22.4137 553.713 Q18.303 551.781 14.8599 549.076 Q11.4168 546.37 9.90609 544.579 Q8.39535 542.787 8.39535 542.295 Q8.39535 541.592 9.09802 541.557 Q9.44936 541.557 10.3277 542.506 Q22.1326 554.1 44.3722 554.065 Q66.6821 554.065 78.0303 542.787 Q79.26 541.557 79.6464 541.557 Q80.3491 541.557 80.3491 542.295 Q80.3491 542.787 78.9086 544.508 Q77.4681 546.23 74.1656 548.9 Q70.863 551.57 66.8226 553.503 Q57.0203 558.246 44.3722 558.246 Z" fill="#000000" fill-rule="evenodd" fill-opacity="1" /><path clip-path="url(#clip390)" d="M32.1457 513.995 Q33.1294 513.995 33.3754 514.452 Q33.5862 514.909 33.5862 516.174 L33.5862 522.919 L54.8069 528.26 Q56.669 528.681 58.25 528.681 Q60.0067 528.681 60.7796 528.154 Q61.5526 527.592 61.5526 526.433 Q61.5526 524.149 59.4797 521.69 Q57.4068 519.195 52.3476 517.087 Q51.68 516.806 51.5395 516.665 Q51.3638 516.49 51.3638 516.033 Q51.3638 515.155 52.0665 515.155 Q52.3124 515.155 53.4367 515.647 Q54.561 516.103 56.2123 517.122 Q57.8635 518.106 59.4094 519.406 Q60.9553 520.671 62.0796 522.603 Q63.1687 524.535 63.1687 526.608 Q63.1687 529.524 61.3066 531.386 Q59.4446 533.213 56.5285 533.213 Q55.5799 533.213 52.5584 532.476 Q49.5017 531.738 33.5862 527.733 L33.5862 534.092 Q33.5862 534.97 33.5511 535.321 Q33.5159 535.638 33.3402 535.884 Q33.1294 536.094 32.7078 536.094 Q32.0403 536.094 31.7592 535.813 Q31.443 535.532 31.4079 535.181 Q31.3376 534.794 31.3376 533.916 L31.3376 527.17 L19.9192 524.36 Q18.7949 524.079 18.1625 523.376 Q17.495 522.638 17.4247 522.217 Q17.3193 521.795 17.3193 521.479 Q17.3193 520.53 17.8463 519.968 Q18.3382 519.406 19.2516 519.406 Q19.7435 519.406 31.3376 522.357 L31.3376 516.033 Q31.3376 515.225 31.3728 514.909 Q31.4079 514.557 31.5836 514.276 Q31.7592 513.995 32.1457 513.995 Z" fill="#000000" fill-rule="evenodd" fill-opacity="1" /><path clip-path="url(#clip390)" d="M79.6464 508.368 Q79.2951 508.368 78.4167 507.455 Q66.6118 495.861 44.3722 495.861 Q22.0623 495.861 10.7844 506.998 Q9.48449 508.368 9.09802 508.368 Q8.39535 508.368 8.39535 507.666 Q8.39535 507.174 9.83583 505.452 Q11.2763 503.696 14.5789 501.061 Q17.8814 498.391 21.9218 496.423 Q31.7241 491.68 44.3722 491.68 Q56.5285 491.68 66.3308 496.212 Q70.4414 498.145 73.8845 500.85 Q77.3276 503.555 78.8383 505.347 Q80.3491 507.139 80.3491 507.666 Q80.3491 508.368 79.6464 508.368 Z" fill="#000000" fill-rule="evenodd" fill-opacity="1" /><circle clip-path="url(#clip393)" cx="311.066" cy="357.347" r="10" fill="#000000" fill-rule="evenodd" fill-opacity="1" stroke="none"/>
<circle clip-path="url(#clip393)" cx="338.934" cy="369.418" r="10" fill="#000000" fill-rule="evenodd" fill-opacity="1" stroke="none"/>
<circle clip-path="url(#clip393)" cx="366.802" cy="379.395" r="10" fill="#000000" fill-rule="evenodd" fill-opacity="1" stroke="none"/>
<circle clip-path="url(#clip393)" cx="394.67" cy="305.626" r="10" fill="#000000" fill-rule="evenodd" fill-opacity="1" stroke="none"/>
<circle clip-path="url(#clip393)" cx="422.538" cy="314.598" r="10" fill="#000000" fill-rule="evenodd" fill-opacity="1" stroke="none"/>
<circle clip-path="url(#clip393)" cx="450.406" cy="355.858" r="10" fill="#000000" fill-rule="evenodd" fill-opacity="1" stroke="none"/>
<circle clip-path="url(#clip393)" cx="478.274" cy="389.43" r="10" fill="#000000" fill-rule="evenodd" fill-opacity="1" stroke="none"/>
<circle clip-path="url(#clip393)" cx="506.142" cy="546.533" r="10" fill="#000000" fill-rule="evenodd" fill-opacity="1" stroke="none"/>
<circle clip-path="url(#clip393)" cx="534.01" cy="590.808" r="10" fill="#000000" fill-rule="evenodd" fill-opacity="1" stroke="none"/>
<circle clip-path="url(#clip393)" cx="561.878" cy="559.283" r="10" fill="#000000" fill-rule="evenodd" fill-opacity="1" stroke="none"/>
<circle clip-path="url(#clip393)" cx="589.745" cy="701.681" r="10" fill="#000000" fill-rule="evenodd" fill-opacity="1" stroke="none"/>
<circle clip-path="url(#clip393)" cx="617.613" cy="745.674" r="10" fill="#000000" fill-rule="evenodd" fill-opacity="1" stroke="none"/>
<circle clip-path="url(#clip393)" cx="645.481" cy="763.089" r="10" fill="#000000" fill-rule="evenodd" fill-opacity="1" stroke="none"/>
<circle clip-path="url(#clip393)" cx="673.349" cy="814.833" r="10" fill="#000000" fill-rule="evenodd" fill-opacity="1" stroke="none"/>
<circle clip-path="url(#clip393)" cx="701.217" cy="816.908" r="10" fill="#000000" fill-rule="evenodd" fill-opacity="1" stroke="none"/>
<circle clip-path="url(#clip393)" cx="729.085" cy="775.885" r="10" fill="#000000" fill-rule="evenodd" fill-opacity="1" stroke="none"/>
<circle clip-path="url(#clip393)" cx="756.953" cy="498.012" r="10" fill="#000000" fill-rule="evenodd" fill-opacity="1" stroke="none"/>
<circle clip-path="url(#clip393)" cx="784.821" cy="424.717" r="10" fill="#000000" fill-rule="evenodd" fill-opacity="1" stroke="none"/>
<circle clip-path="url(#clip393)" cx="812.689" cy="391.246" r="10" fill="#000000" fill-rule="evenodd" fill-opacity="1" stroke="none"/>
<circle clip-path="url(#clip393)" cx="840.557" cy="364.869" r="10" fill="#000000" fill-rule="evenodd" fill-opacity="1" stroke="none"/>
<circle clip-path="url(#clip393)" cx="868.424" cy="352.978" r="10" fill="#000000" fill-rule="evenodd" fill-opacity="1" stroke="none"/>
<circle clip-path="url(#clip393)" cx="896.292" cy="390.237" r="10" fill="#000000" fill-rule="evenodd" fill-opacity="1" stroke="none"/>
<circle clip-path="url(#clip393)" cx="924.16" cy="403.591" r="10" fill="#000000" fill-rule="evenodd" fill-opacity="1" stroke="none"/>
<circle clip-path="url(#clip393)" cx="952.028" cy="459.565" r="10" fill="#000000" fill-rule="evenodd" fill-opacity="1" stroke="none"/>
<circle clip-path="url(#clip393)" cx="979.896" cy="477.806" r="10" fill="#000000" fill-rule="evenodd" fill-opacity="1" stroke="none"/>
<circle clip-path="url(#clip393)" cx="1007.76" cy="467.008" r="10" fill="#000000" fill-rule="evenodd" fill-opacity="1" stroke="none"/>
<circle clip-path="url(#clip393)" cx="1035.63" cy="493.185" r="10" fill="#000000" fill-rule="evenodd" fill-opacity="1" stroke="none"/>
<circle clip-path="url(#clip393)" cx="1063.5" cy="515.664" r="10" fill="#000000" fill-rule="evenodd" fill-opacity="1" stroke="none"/>
<circle clip-path="url(#clip393)" cx="1091.37" cy="786.355" r="10" fill="#000000" fill-rule="evenodd" fill-opacity="1" stroke="none"/>
<circle clip-path="url(#clip393)" cx="1119.24" cy="806.505" r="10" fill="#000000" fill-rule="evenodd" fill-opacity="1" stroke="none"/>
<circle clip-path="url(#clip393)" cx="1147.1" cy="754.587" r="10" fill="#000000" fill-rule="evenodd" fill-opacity="1" stroke="none"/>
<circle clip-path="url(#clip393)" cx="1174.97" cy="827.325" r="10" fill="#000000" fill-rule="evenodd" fill-opacity="1" stroke="none"/>
<circle clip-path="url(#clip393)" cx="1202.84" cy="753.515" r="10" fill="#000000" fill-rule="evenodd" fill-opacity="1" stroke="none"/>
<circle clip-path="url(#clip393)" cx="1230.71" cy="735.339" r="10" fill="#000000" fill-rule="evenodd" fill-opacity="1" stroke="none"/>
<circle clip-path="url(#clip393)" cx="1258.57" cy="783.984" r="10" fill="#000000" fill-rule="evenodd" fill-opacity="1" stroke="none"/>
<circle clip-path="url(#clip393)" cx="1286.44" cy="794.59" r="10" fill="#000000" fill-rule="evenodd" fill-opacity="1" stroke="none"/>
<circle clip-path="url(#clip393)" cx="1314.31" cy="738.393" r="10" fill="#000000" fill-rule="evenodd" fill-opacity="1" stroke="none"/>
<circle clip-path="url(#clip393)" cx="1342.18" cy="677.198" r="10" fill="#000000" fill-rule="evenodd" fill-opacity="1" stroke="none"/>
<circle clip-path="url(#clip393)" cx="1370.05" cy="728.604" r="10" fill="#000000" fill-rule="evenodd" fill-opacity="1" stroke="none"/>
<circle clip-path="url(#clip393)" cx="1397.91" cy="737.128" r="10" fill="#000000" fill-rule="evenodd" fill-opacity="1" stroke="none"/>
<circle clip-path="url(#clip393)" cx="1425.78" cy="766.847" r="10" fill="#000000" fill-rule="evenodd" fill-opacity="1" stroke="none"/>
<circle clip-path="url(#clip393)" cx="1453.65" cy="800.255" r="10" fill="#000000" fill-rule="evenodd" fill-opacity="1" stroke="none"/>
<circle clip-path="url(#clip393)" cx="1481.52" cy="849.701" r="10" fill="#000000" fill-rule="evenodd" fill-opacity="1" stroke="none"/>
<circle clip-path="url(#clip393)" cx="1509.39" cy="818.301" r="10" fill="#000000" fill-rule="evenodd" fill-opacity="1" stroke="none"/>
<circle clip-path="url(#clip393)" cx="1537.25" cy="857.302" r="10" fill="#000000" fill-rule="evenodd" fill-opacity="1" stroke="none"/>
<circle clip-path="url(#clip393)" cx="1565.12" cy="873.983" r="10" fill="#000000" fill-rule="evenodd" fill-opacity="1" stroke="none"/>
<circle clip-path="url(#clip393)" cx="1592.99" cy="856.031" r="10" fill="#000000" fill-rule="evenodd" fill-opacity="1" stroke="none"/>
<circle clip-path="url(#clip393)" cx="1620.86" cy="745.938" r="10" fill="#000000" fill-rule="evenodd" fill-opacity="1" stroke="none"/>
<circle clip-path="url(#clip393)" cx="1648.73" cy="733.23" r="10" fill="#000000" fill-rule="evenodd" fill-opacity="1" stroke="none"/>
<circle clip-path="url(#clip393)" cx="1676.59" cy="723.226" r="10" fill="#000000" fill-rule="evenodd" fill-opacity="1" stroke="none"/>
<circle clip-path="url(#clip393)" cx="1704.46" cy="726.113" r="10" fill="#000000" fill-rule="evenodd" fill-opacity="1" stroke="none"/>
<circle clip-path="url(#clip393)" cx="1732.33" cy="744.043" r="10" fill="#000000" fill-rule="evenodd" fill-opacity="1" stroke="none"/>
<circle clip-path="url(#clip393)" cx="1760.2" cy="789.369" r="10" fill="#000000" fill-rule="evenodd" fill-opacity="1" stroke="none"/>
<circle clip-path="url(#clip393)" cx="1788.06" cy="870.918" r="10" fill="#000000" fill-rule="evenodd" fill-opacity="1" stroke="none"/>
<circle clip-path="url(#clip393)" cx="1815.93" cy="849.8" r="10" fill="#000000" fill-rule="evenodd" fill-opacity="1" stroke="none"/>
<circle clip-path="url(#clip393)" cx="1843.8" cy="786.211" r="10" fill="#000000" fill-rule="evenodd" fill-opacity="1" stroke="none"/>
<circle clip-path="url(#clip393)" cx="1871.67" cy="691.181" r="10" fill="#000000" fill-rule="evenodd" fill-opacity="1" stroke="none"/>
<circle clip-path="url(#clip393)" cx="1899.54" cy="659.16" r="10" fill="#000000" fill-rule="evenodd" fill-opacity="1" stroke="none"/>
<circle clip-path="url(#clip393)" cx="1927.4" cy="603.235" r="10" fill="#000000" fill-rule="evenodd" fill-opacity="1" stroke="none"/>
<circle clip-path="url(#clip393)" cx="1955.27" cy="582.705" r="10" fill="#000000" fill-rule="evenodd" fill-opacity="1" stroke="none"/>
<circle clip-path="url(#clip393)" cx="1983.14" cy="562.861" r="10" fill="#000000" fill-rule="evenodd" fill-opacity="1" stroke="none"/>
<circle clip-path="url(#clip393)" cx="2011.01" cy="532.63" r="10" fill="#000000" fill-rule="evenodd" fill-opacity="1" stroke="none"/>
<circle clip-path="url(#clip393)" cx="2038.88" cy="474.852" r="10" fill="#000000" fill-rule="evenodd" fill-opacity="1" stroke="none"/>
<circle clip-path="url(#clip393)" cx="2066.74" cy="426.607" r="10" fill="#000000" fill-rule="evenodd" fill-opacity="1" stroke="none"/>
<circle clip-path="url(#clip393)" cx="2094.61" cy="432.452" r="10" fill="#000000" fill-rule="evenodd" fill-opacity="1" stroke="none"/>
<circle clip-path="url(#clip393)" cx="2122.48" cy="400.484" r="10" fill="#000000" fill-rule="evenodd" fill-opacity="1" stroke="none"/>
<circle clip-path="url(#clip393)" cx="2150.35" cy="400.228" r="10" fill="#000000" fill-rule="evenodd" fill-opacity="1" stroke="none"/>
<circle clip-path="url(#clip393)" cx="2178.22" cy="399.883" r="10" fill="#000000" fill-rule="evenodd" fill-opacity="1" stroke="none"/>
<circle clip-path="url(#clip393)" cx="2206.08" cy="409.697" r="10" fill="#000000" fill-rule="evenodd" fill-opacity="1" stroke="none"/>
<circle clip-path="url(#clip393)" cx="2233.95" cy="416.781" r="10" fill="#000000" fill-rule="evenodd" fill-opacity="1" stroke="none"/>
<circle clip-path="url(#clip393)" cx="2261.82" cy="380.629" r="10" fill="#000000" fill-rule="evenodd" fill-opacity="1" stroke="none"/>
<circle clip-path="url(#clip393)" cx="2289.69" cy="371.904" r="10" fill="#000000" fill-rule="evenodd" fill-opacity="1" stroke="none"/>
<circle clip-path="url(#clip393)" cx="2317.56" cy="309.851" r="10" fill="#000000" fill-rule="evenodd" fill-opacity="1" stroke="none"/>
<circle clip-path="url(#clip393)" cx="2345.42" cy="305.811" r="10" fill="#000000" fill-rule="evenodd" fill-opacity="1" stroke="none"/>
<circle clip-path="url(#clip393)" cx="2373.29" cy="307.396" r="10" fill="#000000" fill-rule="evenodd" fill-opacity="1" stroke="none"/>
<circle clip-path="url(#clip393)" cx="2401.16" cy="308.82" r="10" fill="#000000" fill-rule="evenodd" fill-opacity="1" stroke="none"/>
<circle clip-path="url(#clip393)" cx="2429.03" cy="339.391" r="10" fill="#000000" fill-rule="evenodd" fill-opacity="1" stroke="none"/>
<circle clip-path="url(#clip393)" cx="2456.89" cy="349.966" r="10" fill="#000000" fill-rule="evenodd" fill-opacity="1" stroke="none"/>
<circle clip-path="url(#clip393)" cx="2484.76" cy="295.304" r="10" fill="#000000" fill-rule="evenodd" fill-opacity="1" stroke="none"/>
<circle clip-path="url(#clip393)" cx="2512.63" cy="278.492" r="10" fill="#000000" fill-rule="evenodd" fill-opacity="1" stroke="none"/>
<circle clip-path="url(#clip393)" cx="2540.5" cy="337.369" r="10" fill="#000000" fill-rule="evenodd" fill-opacity="1" stroke="none"/>
<circle clip-path="url(#clip393)" cx="2568.37" cy="398.527" r="10" fill="#000000" fill-rule="evenodd" fill-opacity="1" stroke="none"/>
<circle clip-path="url(#clip393)" cx="2596.23" cy="424.542" r="10" fill="#000000" fill-rule="evenodd" fill-opacity="1" stroke="none"/>
<circle clip-path="url(#clip393)" cx="2624.1" cy="447.177" r="10" fill="#000000" fill-rule="evenodd" fill-opacity="1" stroke="none"/>
<circle clip-path="url(#clip393)" cx="2651.97" cy="467.11" r="10" fill="#000000" fill-rule="evenodd" fill-opacity="1" stroke="none"/>
<circle clip-path="url(#clip393)" cx="2679.84" cy="532.636" r="10" fill="#000000" fill-rule="evenodd" fill-opacity="1" stroke="none"/>
<circle clip-path="url(#clip393)" cx="2707.71" cy="590.233" r="10" fill="#000000" fill-rule="evenodd" fill-opacity="1" stroke="none"/>
<circle clip-path="url(#clip393)" cx="2735.57" cy="590.559" r="10" fill="#000000" fill-rule="evenodd" fill-opacity="1" stroke="none"/>
<circle clip-path="url(#clip393)" cx="2763.44" cy="518.344" r="10" fill="#000000" fill-rule="evenodd" fill-opacity="1" stroke="none"/>
<circle clip-path="url(#clip393)" cx="2791.31" cy="503.146" r="10" fill="#000000" fill-rule="evenodd" fill-opacity="1" stroke="none"/>
<circle clip-path="url(#clip393)" cx="2819.18" cy="562.105" r="10" fill="#000000" fill-rule="evenodd" fill-opacity="1" stroke="none"/>
<circle clip-path="url(#clip393)" cx="2847.05" cy="603.283" r="10" fill="#000000" fill-rule="evenodd" fill-opacity="1" stroke="none"/>
<circle clip-path="url(#clip393)" cx="2874.91" cy="645.26" r="10" fill="#000000" fill-rule="evenodd" fill-opacity="1" stroke="none"/>
<circle clip-path="url(#clip393)" cx="2902.78" cy="662.202" r="10" fill="#000000" fill-rule="evenodd" fill-opacity="1" stroke="none"/>
<circle clip-path="url(#clip393)" cx="2930.65" cy="711.845" r="10" fill="#000000" fill-rule="evenodd" fill-opacity="1" stroke="none"/>
<circle clip-path="url(#clip393)" cx="2958.52" cy="701.06" r="10" fill="#000000" fill-rule="evenodd" fill-opacity="1" stroke="none"/>
<circle clip-path="url(#clip393)" cx="2986.38" cy="615.083" r="10" fill="#000000" fill-rule="evenodd" fill-opacity="1" stroke="none"/>
<circle clip-path="url(#clip393)" cx="3014.25" cy="569.34" r="10" fill="#000000" fill-rule="evenodd" fill-opacity="1" stroke="none"/>
<circle clip-path="url(#clip393)" cx="3042.12" cy="525.911" r="10" fill="#000000" fill-rule="evenodd" fill-opacity="1" stroke="none"/>
<circle clip-path="url(#clip393)" cx="3069.99" cy="376.94" r="10" fill="#000000" fill-rule="evenodd" fill-opacity="1" stroke="none"/>
<path clip-path="url(#clip393)" d="
M311.066 420.468 L338.934 479.791 L366.802 488.401 L394.67 450.228 L422.538 398.167 L450.406 450.325 L478.274 471.586 L506.142 662.524 L534.01 665.353 L561.878 763.567 
  L589.745 806.135 L617.613 844.74 L645.481 873.533 L673.349 879.919 L701.217 884.669 L729.085 898.411 L756.953 837.959 L784.821 647.936 L812.689 608.39 L840.557 459.853 
  L868.424 420.384 L896.292 460.903 L924.16 483.482 L952.028 586.95 L979.896 577.903 L1007.76 564.476 L1035.63 727.361 L1063.5 764.318 L1091.37 872.486 L1119.24 868.061 
  L1147.1 863.841 L1174.97 868.865 L1202.84 874.62 L1230.71 857.604 L1258.57 874.647 L1286.44 874.321 L1314.31 864.537 L1342.18 836.963 L1370.05 819.721 L1397.91 821.75 
  L1425.78 836.992 L1453.65 953.095 L1481.52 957.707 L1509.39 916.573 L1537.25 920.441 L1565.12 915.708 L1592.99 924.085 L1620.86 912.866 L1648.73 884.898 L1676.59 802.258 
  L1704.46 797.793 L1732.33 908.4 L1760.2 939.903 L1788.06 945.197 L1815.93 934.873 L1843.8 898.29 L1871.67 857.106 L1899.54 843.591 L1927.4 813.932 L1955.27 679.081 
  L1983.14 637.481 L2011.01 622.096 L2038.88 601.103 L2066.74 513.802 L2094.61 504.404 L2122.48 491.973 L2150.35 489.425 L2178.22 551.736 L2206.08 606.606 L2233.95 608.408 
  L2261.82 579.556 L2289.69 414.148 L2317.56 410.639 L2345.42 393.886 L2373.29 391.348 L2401.16 380.442 L2429.03 399.451 L2456.89 399.921 L2484.76 394.094 L2512.63 408.635 
  L2540.5 462.674 L2568.37 495.848 L2596.23 519.592 L2624.1 582.06 L2651.97 616.933 L2679.84 673.84 L2707.71 701.011 L2735.57 706.087 L2763.44 685.968 L2791.31 638.326 
  L2819.18 679.53 L2847.05 744.914 L2874.91 754.693 L2902.78 773.68 L2930.65 785.727 L2958.52 790.523 L2986.38 770.391 L3014.25 691.512 L3042.12 676.141 L3069.99 659.171 
  L3069.99 268.682 L3042.12 286.693 L3014.25 304.789 L2986.38 329.557 L2958.52 535.436 L2930.65 571.843 L2902.78 567.628 L2874.91 498.226 L2847.05 422.517 L2819.18 377.748 
  L2791.31 362.626 L2763.44 353.381 L2735.57 403.021 L2707.71 451.167 L2679.84 410.721 L2651.97 392.314 L2624.1 354.297 L2596.23 282.836 L2568.37 242.257 L2540.5 220.493 
  L2512.63 203.746 L2484.76 205.842 L2456.89 270.825 L2429.03 255.604 L2401.16 251.069 L2373.29 239.646 L2345.42 228.202 L2317.56 226.849 L2289.69 240.044 L2261.82 254.732 
  L2233.95 265.954 L2206.08 334.135 L2178.22 334.72 L2150.35 334.449 L2122.48 344.216 L2094.61 349.592 L2066.74 346.286 L2038.88 346.948 L2011.01 373.58 L1983.14 421.322 
  L1955.27 489.258 L1927.4 531.295 L1899.54 545.532 L1871.67 558.968 L1843.8 577.199 L1815.93 708.537 L1788.06 736.287 L1760.2 702.205 L1732.33 665.364 L1704.46 660.504 
  L1676.59 645.295 L1648.73 647.53 L1620.86 651.831 L1592.99 666.916 L1565.12 685.655 L1537.25 691.068 L1509.39 684.208 L1481.52 693.279 L1453.65 699.975 L1425.78 687.876 
  L1397.91 683.682 L1370.05 594.836 L1342.18 574.834 L1314.31 575.065 L1286.44 605.013 L1258.57 703.181 L1230.71 661.842 L1202.84 660.432 L1174.97 711.641 L1147.1 684.044 
  L1119.24 685.556 L1091.37 624.925 L1063.5 443.551 L1035.63 407.416 L1007.76 385.555 L979.896 373.478 L952.028 344.368 L924.16 336.509 L896.292 324.196 L868.424 317.927 
  L840.557 311.242 L812.689 286.445 L784.821 292.712 L756.953 328.256 L729.085 423.477 L701.217 485.495 L673.349 597.607 L645.481 525.893 L617.613 516.983 L589.745 493.631 
  L561.878 459.713 L534.01 429.059 L506.142 362.567 L478.274 283.123 L450.406 271.474 L422.538 268.142 L394.67 280.523 L366.802 272.364 L338.934 301.07 L311.066 290.748 
   Z
  " fill="#000000" fill-rule="evenodd" fill-opacity="0.2"/>
<polyline clip-path="url(#clip393)" style="stroke:#000000; stroke-linecap:butt; stroke-linejoin:round; stroke-width:4; stroke-opacity:1; fill:none" points="
  311.066,357.347 338.934,369.418 366.802,379.395 394.67,305.626 422.538,314.598 450.406,355.858 478.274,389.43 506.142,546.533 534.01,590.808 561.878,559.283 
  589.745,701.681 617.613,745.674 645.481,763.089 673.349,814.833 701.217,816.908 729.085,775.885 756.953,498.012 784.821,424.717 812.689,391.246 840.557,364.869 
  868.424,352.978 896.292,390.237 924.16,403.591 952.028,459.565 979.896,477.806 1007.76,467.008 1035.63,493.185 1063.5,515.664 1091.37,786.355 1119.24,806.505 
  1147.1,754.587 1174.97,827.325 1202.84,753.515 1230.71,735.339 1258.57,783.984 1286.44,794.59 1314.31,738.393 1342.18,677.198 1370.05,728.604 1397.91,737.128 
  1425.78,766.847 1453.65,800.255 1481.52,849.701 1509.39,818.301 1537.25,857.302 1565.12,873.983 1592.99,856.031 1620.86,745.938 1648.73,733.23 1676.59,723.226 
  1704.46,726.113 1732.33,744.043 1760.2,789.369 1788.06,870.918 1815.93,849.8 1843.8,786.211 1871.67,691.181 1899.54,659.16 1927.4,603.235 1955.27,582.705 
  1983.14,562.861 2011.01,532.63 2038.88,474.852 2066.74,426.607 2094.61,432.452 2122.48,400.484 2150.35,400.228 2178.22,399.883 2206.08,409.697 2233.95,416.781 
  2261.82,380.629 2289.69,371.904 2317.56,309.851 2345.42,305.811 2373.29,307.396 2401.16,308.82 2429.03,339.391 2456.89,349.966 2484.76,295.304 2512.63,278.492 
  2540.5,337.369 2568.37,398.527 2596.23,424.542 2624.1,447.177 2651.97,467.11 2679.84,532.636 2707.71,590.233 2735.57,590.559 2763.44,518.344 2791.31,503.146 
  2819.18,562.105 2847.05,603.283 2874.91,645.26 2902.78,662.202 2930.65,711.845 2958.52,701.06 2986.38,615.083 3014.25,569.34 3042.12,525.911 3069.99,376.94 
  
  "/>
<path clip-path="url(#clip390)" d="
M228.299 2200.06 L3152.76 2200.06 L3152.76 1210.21 L228.299 1210.21  Z
  " fill="#ffffff" fill-rule="evenodd" fill-opacity="1"/>
<polyline clip-path="url(#clip392)" style="stroke:#000000; stroke-linecap:butt; stroke-linejoin:round; stroke-width:2; stroke-opacity:0.1; fill:none" points="
  297.133,2200.06 297.133,1210.21 
  "/>
<polyline clip-path="url(#clip392)" style="stroke:#000000; stroke-linecap:butt; stroke-linejoin:round; stroke-width:2; stroke-opacity:0.1; fill:none" points="
  993.83,2200.06 993.83,1210.21 
  "/>
<polyline clip-path="url(#clip392)" style="stroke:#000000; stroke-linecap:butt; stroke-linejoin:round; stroke-width:2; stroke-opacity:0.1; fill:none" points="
  1690.53,2200.06 1690.53,1210.21 
  "/>
<polyline clip-path="url(#clip392)" style="stroke:#000000; stroke-linecap:butt; stroke-linejoin:round; stroke-width:2; stroke-opacity:0.1; fill:none" points="
  2387.22,2200.06 2387.22,1210.21 
  "/>
<polyline clip-path="url(#clip392)" style="stroke:#000000; stroke-linecap:butt; stroke-linejoin:round; stroke-width:2; stroke-opacity:0.1; fill:none" points="
  3083.92,2200.06 3083.92,1210.21 
  "/>
<polyline clip-path="url(#clip390)" style="stroke:#000000; stroke-linecap:butt; stroke-linejoin:round; stroke-width:4; stroke-opacity:1; fill:none" points="
  228.299,2200.06 3152.76,2200.06 
  "/>
<polyline clip-path="url(#clip390)" style="stroke:#000000; stroke-linecap:butt; stroke-linejoin:round; stroke-width:4; stroke-opacity:1; fill:none" points="
  297.133,2200.06 297.133,2181.16 
  "/>
<polyline clip-path="url(#clip390)" style="stroke:#000000; stroke-linecap:butt; stroke-linejoin:round; stroke-width:4; stroke-opacity:1; fill:none" points="
  993.83,2200.06 993.83,2181.16 
  "/>
<polyline clip-path="url(#clip390)" style="stroke:#000000; stroke-linecap:butt; stroke-linejoin:round; stroke-width:4; stroke-opacity:1; fill:none" points="
  1690.53,2200.06 1690.53,2181.16 
  "/>
<polyline clip-path="url(#clip390)" style="stroke:#000000; stroke-linecap:butt; stroke-linejoin:round; stroke-width:4; stroke-opacity:1; fill:none" points="
  2387.22,2200.06 2387.22,2181.16 
  "/>
<polyline clip-path="url(#clip390)" style="stroke:#000000; stroke-linecap:butt; stroke-linejoin:round; stroke-width:4; stroke-opacity:1; fill:none" points="
  3083.92,2200.06 3083.92,2181.16 
  "/>
<path clip-path="url(#clip390)" d="M286.485 2252.68 Q286.485 2245.24 288.363 2241.19 Q290.981 2235.16 297.157 2235.16 Q298.467 2235.16 299.825 2235.54 Q301.209 2235.88 302.938 2237.24 Q304.692 2238.6 305.754 2240.82 Q307.78 2245.12 307.78 2252.68 Q307.78 2260.07 305.902 2264.09 Q303.16 2269.97 297.108 2269.97 Q294.835 2269.97 292.513 2268.81 Q290.216 2267.65 288.758 2264.86 Q286.485 2260.68 286.485 2252.68 M290.685 2252.06 Q290.685 2259.69 291.228 2262.73 Q291.846 2266.02 293.526 2267.45 Q295.23 2268.86 297.108 2268.86 Q299.133 2268.86 300.813 2267.35 Q302.518 2265.82 303.037 2262.54 Q303.605 2259.3 303.58 2252.06 Q303.58 2245.02 303.086 2242.2 Q302.419 2238.92 300.64 2237.61 Q298.886 2236.28 297.108 2236.28 Q296.441 2236.28 295.724 2236.47 Q295.033 2236.67 294.02 2237.24 Q293.007 2237.81 292.217 2239.22 Q291.451 2240.62 291.08 2242.75 Q290.685 2245.49 290.685 2252.06 Z" fill="#000000" fill-rule="evenodd" fill-opacity="1" /><path clip-path="url(#clip390)" d="M958.158 2268.86 Q958.158 2267.95 958.232 2267.67 Q958.331 2267.4 958.726 2266.98 L968.435 2256.16 Q973.746 2250.18 973.746 2244.97 Q973.746 2241.59 971.967 2239.17 Q970.214 2236.75 966.977 2236.75 Q964.754 2236.75 962.877 2238.1 Q960.999 2239.46 960.135 2241.88 Q960.283 2241.83 960.802 2241.83 Q962.061 2241.83 962.753 2242.62 Q963.47 2243.42 963.47 2244.48 Q963.47 2245.84 962.58 2246.5 Q961.716 2247.15 960.851 2247.15 Q960.505 2247.15 960.036 2247.07 Q959.591 2247 958.875 2246.31 Q958.158 2245.59 958.158 2244.33 Q958.158 2240.8 960.826 2237.98 Q963.519 2235.16 967.62 2235.16 Q972.264 2235.16 975.302 2237.93 Q978.366 2240.67 978.366 2244.97 Q978.366 2246.48 977.896 2247.86 Q977.452 2249.22 976.834 2250.28 Q976.241 2251.35 974.611 2253.05 Q972.98 2254.75 971.671 2255.96 Q970.362 2257.18 967.422 2259.74 L962.061 2264.96 L971.177 2264.96 Q975.624 2264.96 975.969 2264.56 Q976.463 2263.85 977.081 2260.07 L978.366 2260.07 L976.933 2268.86 L958.158 2268.86 Z" fill="#000000" fill-rule="evenodd" fill-opacity="1" /><path clip-path="url(#clip390)" d="M983.455 2260.71 Q983.455 2259.2 984.27 2258.63 Q985.085 2258.04 985.95 2258.04 Q987.111 2258.04 987.778 2258.78 Q988.469 2259.5 988.469 2260.51 Q988.469 2261.52 987.778 2262.26 Q987.111 2262.98 985.95 2262.98 Q985.381 2262.98 985.085 2262.88 Q985.752 2265.2 987.778 2266.88 Q989.828 2268.56 992.521 2268.56 Q995.905 2268.56 997.931 2265.28 Q999.141 2263.15 999.141 2258.34 Q999.141 2254.09 998.227 2251.96 Q996.819 2248.73 993.929 2248.73 Q989.828 2248.73 987.407 2252.26 Q987.111 2252.7 986.765 2252.73 Q986.271 2252.73 986.147 2252.46 Q986.048 2252.16 986.048 2251.39 L986.048 2236.42 Q986.048 2235.21 986.542 2235.21 Q986.74 2235.21 987.16 2235.36 Q990.347 2236.77 993.879 2236.79 Q997.511 2236.79 1000.77 2235.31 Q1001.02 2235.16 1001.17 2235.16 Q1001.66 2235.16 1001.69 2235.73 Q1001.69 2235.93 1001.27 2236.52 Q1000.87 2237.09 1000.01 2237.86 Q999.141 2238.6 998.03 2239.31 Q996.918 2240.03 995.287 2240.53 Q993.682 2240.99 991.903 2240.99 Q989.779 2240.99 987.605 2240.33 L987.605 2250.18 Q990.223 2247.61 994.028 2247.61 Q998.079 2247.61 1000.87 2250.88 Q1003.66 2254.14 1003.66 2258.68 Q1003.66 2263.45 1000.35 2266.71 Q997.066 2269.97 992.619 2269.97 Q988.568 2269.97 985.999 2267.08 Q983.455 2264.19 983.455 2260.71 Z" fill="#000000" fill-rule="evenodd" fill-opacity="1" /><path clip-path="url(#clip390)" d="M1008.21 2252.68 Q1008.21 2245.24 1010.08 2241.19 Q1012.7 2235.16 1018.88 2235.16 Q1020.19 2235.16 1021.55 2235.54 Q1022.93 2235.88 1024.66 2237.24 Q1026.41 2238.6 1027.48 2240.82 Q1029.5 2245.12 1029.5 2252.68 Q1029.5 2260.07 1027.62 2264.09 Q1024.88 2269.97 1018.83 2269.97 Q1016.56 2269.97 1014.23 2268.81 Q1011.94 2267.65 1010.48 2264.86 Q1008.21 2260.68 1008.21 2252.68 M1012.41 2252.06 Q1012.41 2259.69 1012.95 2262.73 Q1013.57 2266.02 1015.25 2267.45 Q1016.95 2268.86 1018.83 2268.86 Q1020.86 2268.86 1022.54 2267.35 Q1024.24 2265.82 1024.76 2262.54 Q1025.33 2259.3 1025.3 2252.06 Q1025.3 2245.02 1024.81 2242.2 Q1024.14 2238.92 1022.36 2237.61 Q1020.61 2236.28 1018.83 2236.28 Q1018.16 2236.28 1017.45 2236.47 Q1016.75 2236.67 1015.74 2237.24 Q1014.73 2237.81 1013.94 2239.22 Q1013.17 2240.62 1012.8 2242.75 Q1012.41 2245.49 1012.41 2252.06 Z" fill="#000000" fill-rule="evenodd" fill-opacity="1" /><path clip-path="url(#clip390)" d="M1654.86 2260.71 Q1654.86 2259.2 1655.67 2258.63 Q1656.49 2258.04 1657.35 2258.04 Q1658.51 2258.04 1659.18 2258.78 Q1659.87 2259.5 1659.87 2260.51 Q1659.87 2261.52 1659.18 2262.26 Q1658.51 2262.98 1657.35 2262.98 Q1656.78 2262.98 1656.49 2262.88 Q1657.15 2265.2 1659.18 2266.88 Q1661.23 2268.56 1663.92 2268.56 Q1667.31 2268.56 1669.33 2265.28 Q1670.54 2263.15 1670.54 2258.34 Q1670.54 2254.09 1669.63 2251.96 Q1668.22 2248.73 1665.33 2248.73 Q1661.23 2248.73 1658.81 2252.26 Q1658.51 2252.7 1658.17 2252.73 Q1657.67 2252.73 1657.55 2252.46 Q1657.45 2252.16 1657.45 2251.39 L1657.45 2236.42 Q1657.45 2235.21 1657.94 2235.21 Q1658.14 2235.21 1658.56 2235.36 Q1661.75 2236.77 1665.28 2236.79 Q1668.91 2236.79 1672.17 2235.31 Q1672.42 2235.16 1672.57 2235.16 Q1673.06 2235.16 1673.09 2235.73 Q1673.09 2235.93 1672.67 2236.52 Q1672.27 2237.09 1671.41 2237.86 Q1670.54 2238.6 1669.43 2239.31 Q1668.32 2240.03 1666.69 2240.53 Q1665.08 2240.99 1663.3 2240.99 Q1661.18 2240.99 1659.01 2240.33 L1659.01 2250.18 Q1661.62 2247.61 1665.43 2247.61 Q1669.48 2247.61 1672.27 2250.88 Q1675.06 2254.14 1675.06 2258.68 Q1675.06 2263.45 1671.75 2266.71 Q1668.47 2269.97 1664.02 2269.97 Q1659.97 2269.97 1657.4 2267.08 Q1654.86 2264.19 1654.86 2260.71 Z" fill="#000000" fill-rule="evenodd" fill-opacity="1" /><path clip-path="url(#clip390)" d="M1679.61 2252.68 Q1679.61 2245.24 1681.49 2241.19 Q1684.1 2235.16 1690.28 2235.16 Q1691.59 2235.16 1692.95 2235.54 Q1694.33 2235.88 1696.06 2237.24 Q1697.81 2238.6 1698.88 2240.82 Q1700.9 2245.12 1700.9 2252.68 Q1700.9 2260.07 1699.03 2264.09 Q1696.28 2269.97 1690.23 2269.97 Q1687.96 2269.97 1685.64 2268.81 Q1683.34 2267.65 1681.88 2264.86 Q1679.61 2260.68 1679.61 2252.68 M1683.81 2252.06 Q1683.81 2259.69 1684.35 2262.73 Q1684.97 2266.02 1686.65 2267.45 Q1688.35 2268.86 1690.23 2268.86 Q1692.26 2268.86 1693.94 2267.35 Q1695.64 2265.82 1696.16 2262.54 Q1696.73 2259.3 1696.7 2252.06 Q1696.7 2245.02 1696.21 2242.2 Q1695.54 2238.92 1693.76 2237.61 Q1692.01 2236.28 1690.23 2236.28 Q1689.56 2236.28 1688.85 2236.47 Q1688.16 2236.67 1687.14 2237.24 Q1686.13 2237.81 1685.34 2239.22 Q1684.57 2240.62 1684.2 2242.75 Q1683.81 2245.49 1683.81 2252.06 Z" fill="#000000" fill-rule="evenodd" fill-opacity="1" /><path clip-path="url(#clip390)" d="M1704.9 2252.68 Q1704.9 2245.24 1706.78 2241.19 Q1709.4 2235.16 1715.58 2235.16 Q1716.89 2235.16 1718.24 2235.54 Q1719.63 2235.88 1721.36 2237.24 Q1723.11 2238.6 1724.17 2240.82 Q1726.2 2245.12 1726.2 2252.68 Q1726.2 2260.07 1724.32 2264.09 Q1721.58 2269.97 1715.53 2269.97 Q1713.25 2269.97 1710.93 2268.81 Q1708.63 2267.65 1707.18 2264.86 Q1704.9 2260.68 1704.9 2252.68 M1709.1 2252.06 Q1709.1 2259.69 1709.65 2262.73 Q1710.27 2266.02 1711.95 2267.45 Q1713.65 2268.86 1715.53 2268.86 Q1717.55 2268.86 1719.23 2267.35 Q1720.94 2265.82 1721.46 2262.54 Q1722.02 2259.3 1722 2252.06 Q1722 2245.02 1721.51 2242.2 Q1720.84 2238.92 1719.06 2237.61 Q1717.31 2236.28 1715.53 2236.28 Q1714.86 2236.28 1714.14 2236.47 Q1713.45 2236.67 1712.44 2237.24 Q1711.43 2237.81 1710.64 2239.22 Q1709.87 2240.62 1709.5 2242.75 Q1709.1 2245.49 1709.1 2252.06 Z" fill="#000000" fill-rule="evenodd" fill-opacity="1" /><path clip-path="url(#clip390)" d="M2351.71 2245.07 L2353.37 2234.67 L2354.63 2234.67 Q2354.78 2235.29 2355.02 2235.56 Q2355.3 2235.83 2356.73 2236.05 Q2358.19 2236.28 2361.13 2236.28 L2373.4 2236.28 Q2373.4 2237.44 2372.96 2238.05 L2366.12 2247.66 Q2363.94 2250.7 2362.98 2256.31 Q2362.41 2260.07 2362.43 2264.61 L2362.43 2267.18 Q2362.43 2269.97 2360.09 2269.97 Q2357.77 2269.97 2357.77 2267.18 Q2357.77 2257.52 2363.99 2248.16 Q2364.66 2247.19 2367.1 2243.76 Q2369.57 2240.33 2369.67 2240.18 L2359.2 2240.18 Q2354.6 2240.18 2354.23 2240.48 Q2353.74 2240.92 2352.97 2245.07 L2351.71 2245.07 Z" fill="#000000" fill-rule="evenodd" fill-opacity="1" /><path clip-path="url(#clip390)" d="M2376.69 2260.71 Q2376.69 2259.2 2377.5 2258.63 Q2378.32 2258.04 2379.18 2258.04 Q2380.34 2258.04 2381.01 2258.78 Q2381.7 2259.5 2381.7 2260.51 Q2381.7 2261.52 2381.01 2262.26 Q2380.34 2262.98 2379.18 2262.98 Q2378.62 2262.98 2378.32 2262.88 Q2378.99 2265.2 2381.01 2266.88 Q2383.06 2268.56 2385.75 2268.56 Q2389.14 2268.56 2391.16 2265.28 Q2392.38 2263.15 2392.38 2258.34 Q2392.38 2254.09 2391.46 2251.96 Q2390.05 2248.73 2387.16 2248.73 Q2383.06 2248.73 2380.64 2252.26 Q2380.34 2252.7 2380 2252.73 Q2379.5 2252.73 2379.38 2252.46 Q2379.28 2252.16 2379.28 2251.39 L2379.28 2236.42 Q2379.28 2235.21 2379.78 2235.21 Q2379.97 2235.21 2380.39 2235.36 Q2383.58 2236.77 2387.11 2236.79 Q2390.75 2236.79 2394.01 2235.31 Q2394.25 2235.16 2394.4 2235.16 Q2394.9 2235.16 2394.92 2235.73 Q2394.92 2235.93 2394.5 2236.52 Q2394.1 2237.09 2393.24 2237.86 Q2392.38 2238.6 2391.26 2239.31 Q2390.15 2240.03 2388.52 2240.53 Q2386.92 2240.99 2385.14 2240.99 Q2383.01 2240.99 2380.84 2240.33 L2380.84 2250.18 Q2383.46 2247.61 2387.26 2247.61 Q2391.31 2247.61 2394.1 2250.88 Q2396.9 2254.14 2396.9 2258.68 Q2396.9 2263.45 2393.59 2266.71 Q2390.3 2269.97 2385.85 2269.97 Q2381.8 2269.97 2379.23 2267.08 Q2376.69 2264.19 2376.69 2260.71 Z" fill="#000000" fill-rule="evenodd" fill-opacity="1" /><path clip-path="url(#clip390)" d="M2401.44 2252.68 Q2401.44 2245.24 2403.32 2241.19 Q2405.94 2235.16 2412.11 2235.16 Q2413.42 2235.16 2414.78 2235.54 Q2416.16 2235.88 2417.89 2237.24 Q2419.65 2238.6 2420.71 2240.82 Q2422.74 2245.12 2422.74 2252.68 Q2422.74 2260.07 2420.86 2264.09 Q2418.12 2269.97 2412.06 2269.97 Q2409.79 2269.97 2407.47 2268.81 Q2405.17 2267.65 2403.71 2264.86 Q2401.44 2260.68 2401.44 2252.68 M2405.64 2252.06 Q2405.64 2259.69 2406.18 2262.73 Q2406.8 2266.02 2408.48 2267.45 Q2410.19 2268.86 2412.06 2268.86 Q2414.09 2268.86 2415.77 2267.35 Q2417.47 2265.82 2417.99 2262.54 Q2418.56 2259.3 2418.54 2252.06 Q2418.54 2245.02 2418.04 2242.2 Q2417.38 2238.92 2415.6 2237.61 Q2413.84 2236.28 2412.06 2236.28 Q2411.4 2236.28 2410.68 2236.47 Q2409.99 2236.67 2408.98 2237.24 Q2407.96 2237.81 2407.17 2239.22 Q2406.41 2240.62 2406.04 2242.75 Q2405.64 2245.49 2405.64 2252.06 Z" fill="#000000" fill-rule="evenodd" fill-opacity="1" /><path clip-path="url(#clip390)" d="M3036.59 2239.98 L3036.59 2238.4 Q3042.67 2238.4 3045.8 2235.16 Q3046.67 2235.16 3046.82 2235.36 Q3046.97 2235.56 3046.97 2236.47 L3046.97 2264.86 Q3046.97 2266.36 3047.71 2266.83 Q3048.45 2267.3 3051.68 2267.3 L3053.29 2267.3 L3053.29 2268.86 Q3051.51 2268.71 3045.09 2268.71 Q3038.67 2268.71 3036.91 2268.86 L3036.91 2267.3 L3038.52 2267.3 Q3041.7 2267.3 3042.47 2266.86 Q3043.24 2266.39 3043.24 2264.86 L3043.24 2238.65 Q3040.59 2239.98 3036.59 2239.98 Z" fill="#000000" fill-rule="evenodd" fill-opacity="1" /><path clip-path="url(#clip390)" d="M3059.37 2252.68 Q3059.37 2245.24 3061.24 2241.19 Q3063.86 2235.16 3070.04 2235.16 Q3071.35 2235.16 3072.71 2235.54 Q3074.09 2235.88 3075.82 2237.24 Q3077.57 2238.6 3078.64 2240.82 Q3080.66 2245.12 3080.66 2252.68 Q3080.66 2260.07 3078.78 2264.09 Q3076.04 2269.97 3069.99 2269.97 Q3067.72 2269.97 3065.39 2268.81 Q3063.1 2267.65 3061.64 2264.86 Q3059.37 2260.68 3059.37 2252.68 M3063.57 2252.06 Q3063.57 2259.69 3064.11 2262.73 Q3064.73 2266.02 3066.41 2267.45 Q3068.11 2268.86 3069.99 2268.86 Q3072.02 2268.86 3073.7 2267.35 Q3075.4 2265.82 3075.92 2262.54 Q3076.49 2259.3 3076.46 2252.06 Q3076.46 2245.02 3075.97 2242.2 Q3075.3 2238.92 3073.52 2237.61 Q3071.77 2236.28 3069.99 2236.28 Q3069.32 2236.28 3068.61 2236.47 Q3067.91 2236.67 3066.9 2237.24 Q3065.89 2237.81 3065.1 2239.22 Q3064.33 2240.62 3063.96 2242.75 Q3063.57 2245.49 3063.57 2252.06 Z" fill="#000000" fill-rule="evenodd" fill-opacity="1" /><path clip-path="url(#clip390)" d="M3084.66 2252.68 Q3084.66 2245.24 3086.54 2241.19 Q3089.16 2235.16 3095.34 2235.16 Q3096.64 2235.16 3098 2235.54 Q3099.39 2235.88 3101.12 2237.24 Q3102.87 2238.6 3103.93 2240.82 Q3105.96 2245.12 3105.96 2252.68 Q3105.96 2260.07 3104.08 2264.09 Q3101.34 2269.97 3095.29 2269.97 Q3093.01 2269.97 3090.69 2268.81 Q3088.39 2267.65 3086.94 2264.86 Q3084.66 2260.68 3084.66 2252.68 M3088.86 2252.06 Q3088.86 2259.69 3089.41 2262.73 Q3090.02 2266.02 3091.7 2267.45 Q3093.41 2268.86 3095.29 2268.86 Q3097.31 2268.86 3098.99 2267.35 Q3100.7 2265.82 3101.21 2262.54 Q3101.78 2259.3 3101.76 2252.06 Q3101.76 2245.02 3101.26 2242.2 Q3100.6 2238.92 3098.82 2237.61 Q3097.06 2236.28 3095.29 2236.28 Q3094.62 2236.28 3093.9 2236.47 Q3093.21 2236.67 3092.2 2237.24 Q3091.18 2237.81 3090.39 2239.22 Q3089.63 2240.62 3089.26 2242.75 Q3088.86 2245.49 3088.86 2252.06 Z" fill="#000000" fill-rule="evenodd" fill-opacity="1" /><path clip-path="url(#clip390)" d="M3109.96 2252.68 Q3109.96 2245.24 3111.84 2241.19 Q3114.46 2235.16 3120.63 2235.16 Q3121.94 2235.16 3123.3 2235.54 Q3124.68 2235.88 3126.41 2237.24 Q3128.17 2238.6 3129.23 2240.82 Q3131.25 2245.12 3131.25 2252.68 Q3131.25 2260.07 3129.38 2264.09 Q3126.63 2269.97 3120.58 2269.97 Q3118.31 2269.97 3115.99 2268.81 Q3113.69 2267.65 3112.23 2264.86 Q3109.96 2260.68 3109.96 2252.68 M3114.16 2252.06 Q3114.16 2259.69 3114.7 2262.73 Q3115.32 2266.02 3117 2267.45 Q3118.7 2268.86 3120.58 2268.86 Q3122.61 2268.86 3124.29 2267.35 Q3125.99 2265.82 3126.51 2262.54 Q3127.08 2259.3 3127.05 2252.06 Q3127.05 2245.02 3126.56 2242.2 Q3125.89 2238.92 3124.11 2237.61 Q3122.36 2236.28 3120.58 2236.28 Q3119.91 2236.28 3119.2 2236.47 Q3118.51 2236.67 3117.49 2237.24 Q3116.48 2237.81 3115.69 2239.22 Q3114.92 2240.62 3114.55 2242.75 Q3114.16 2245.49 3114.16 2252.06 Z" fill="#000000" fill-rule="evenodd" fill-opacity="1" /><path clip-path="url(#clip390)" d="M1699.77 2340.84 Q1699.77 2341.82 1699.31 2342.07 Q1698.86 2342.28 1697.59 2342.28 L1690.85 2342.28 L1685.51 2363.5 Q1685.09 2365.36 1685.09 2366.94 Q1685.09 2368.7 1685.61 2369.47 Q1686.17 2370.25 1687.33 2370.25 Q1689.62 2370.25 1692.08 2368.17 Q1694.57 2366.1 1696.68 2361.04 Q1696.96 2360.37 1697.1 2360.23 Q1697.28 2360.06 1697.73 2360.06 Q1698.61 2360.06 1698.61 2360.76 Q1698.61 2361.01 1698.12 2362.13 Q1697.66 2363.25 1696.64 2364.91 Q1695.66 2366.56 1694.36 2368.1 Q1693.1 2369.65 1691.16 2370.77 Q1689.23 2371.86 1687.16 2371.86 Q1684.24 2371.86 1682.38 2370 Q1680.55 2368.14 1680.55 2365.22 Q1680.55 2364.27 1681.29 2361.25 Q1682.03 2358.2 1686.03 2342.28 L1679.68 2342.28 Q1678.8 2342.28 1678.45 2342.24 Q1678.13 2342.21 1677.88 2342.03 Q1677.67 2341.82 1677.67 2341.4 Q1677.67 2340.73 1677.95 2340.45 Q1678.23 2340.14 1678.59 2340.1 Q1678.97 2340.03 1679.85 2340.03 L1686.6 2340.03 L1689.41 2328.61 Q1689.69 2327.49 1690.39 2326.86 Q1691.13 2326.19 1691.55 2326.12 Q1691.97 2326.01 1692.29 2326.01 Q1693.24 2326.01 1693.8 2326.54 Q1694.36 2327.03 1694.36 2327.95 Q1694.36 2328.44 1691.41 2340.03 L1697.73 2340.03 Q1698.54 2340.03 1698.86 2340.07 Q1699.21 2340.1 1699.49 2340.28 Q1699.77 2340.45 1699.77 2340.84 Z" fill="#000000" fill-rule="evenodd" fill-opacity="1" /><polyline clip-path="url(#clip392)" style="stroke:#000000; stroke-linecap:butt; stroke-linejoin:round; stroke-width:2; stroke-opacity:0.1; fill:none" points="
  228.299,2070.08 3152.76,2070.08 
  "/>
<polyline clip-path="url(#clip392)" style="stroke:#000000; stroke-linecap:butt; stroke-linejoin:round; stroke-width:2; stroke-opacity:0.1; fill:none" points="
  228.299,1844.5 3152.76,1844.5 
  "/>
<polyline clip-path="url(#clip392)" style="stroke:#000000; stroke-linecap:butt; stroke-linejoin:round; stroke-width:2; stroke-opacity:0.1; fill:none" points="
  228.299,1618.93 3152.76,1618.93 
  "/>
<polyline clip-path="url(#clip392)" style="stroke:#000000; stroke-linecap:butt; stroke-linejoin:round; stroke-width:2; stroke-opacity:0.1; fill:none" points="
  228.299,1393.35 3152.76,1393.35 
  "/>
<polyline clip-path="url(#clip390)" style="stroke:#000000; stroke-linecap:butt; stroke-linejoin:round; stroke-width:4; stroke-opacity:1; fill:none" points="
  228.299,2200.06 228.299,1210.21 
  "/>
<polyline clip-path="url(#clip390)" style="stroke:#000000; stroke-linecap:butt; stroke-linejoin:round; stroke-width:4; stroke-opacity:1; fill:none" points="
  228.299,2070.08 247.196,2070.08 
  "/>
<polyline clip-path="url(#clip390)" style="stroke:#000000; stroke-linecap:butt; stroke-linejoin:round; stroke-width:4; stroke-opacity:1; fill:none" points="
  228.299,1844.5 247.196,1844.5 
  "/>
<polyline clip-path="url(#clip390)" style="stroke:#000000; stroke-linecap:butt; stroke-linejoin:round; stroke-width:4; stroke-opacity:1; fill:none" points="
  228.299,1618.93 247.196,1618.93 
  "/>
<polyline clip-path="url(#clip390)" style="stroke:#000000; stroke-linecap:butt; stroke-linejoin:round; stroke-width:4; stroke-opacity:1; fill:none" points="
  228.299,1393.35 247.196,1393.35 
  "/>
<path clip-path="url(#clip390)" d="M154.459 2074 Q154.756 2074.29 154.756 2074.71 Q154.756 2075.13 154.459 2075.43 Q154.163 2075.72 153.743 2075.72 L122.073 2075.72 Q121.653 2075.72 121.357 2075.43 Q121.06 2075.13 121.06 2074.71 Q121.06 2074.29 121.357 2074 Q121.653 2073.7 122.073 2073.7 L153.743 2073.7 Q154.163 2073.7 154.459 2074 Z" fill="#000000" fill-rule="evenodd" fill-opacity="1" /><path clip-path="url(#clip390)" d="M160.091 2087.36 Q160.091 2086.45 160.166 2086.17 Q160.264 2085.9 160.66 2085.48 L170.368 2074.66 Q175.679 2068.68 175.679 2063.47 Q175.679 2060.09 173.901 2057.67 Q172.147 2055.25 168.911 2055.25 Q166.687 2055.25 164.81 2056.6 Q162.932 2057.96 162.068 2060.38 Q162.216 2060.33 162.735 2060.33 Q163.995 2060.33 164.686 2061.13 Q165.403 2061.92 165.403 2062.98 Q165.403 2064.34 164.513 2065 Q163.649 2065.65 162.784 2065.65 Q162.438 2065.65 161.969 2065.57 Q161.524 2065.5 160.808 2064.81 Q160.091 2064.09 160.091 2062.83 Q160.091 2059.3 162.759 2056.48 Q165.452 2053.66 169.553 2053.66 Q174.197 2053.66 177.236 2056.43 Q180.299 2059.17 180.299 2063.47 Q180.299 2064.98 179.829 2066.36 Q179.385 2067.72 178.767 2068.78 Q178.174 2069.85 176.544 2071.55 Q174.913 2073.25 173.604 2074.47 Q172.295 2075.68 169.355 2078.24 L163.995 2083.46 L173.11 2083.46 Q177.557 2083.46 177.903 2083.06 Q178.397 2082.35 179.014 2078.57 L180.299 2078.57 L178.866 2087.36 L160.091 2087.36 Z" fill="#000000" fill-rule="evenodd" fill-opacity="1" /><path clip-path="url(#clip390)" d="M155.991 1848.42 Q156.287 1848.72 156.287 1849.14 Q156.287 1849.56 155.991 1849.85 Q155.694 1850.15 155.274 1850.15 L123.605 1850.15 Q123.185 1850.15 122.888 1849.85 Q122.592 1849.56 122.592 1849.14 Q122.592 1848.72 122.888 1848.42 Q123.185 1848.12 123.605 1848.12 L155.274 1848.12 Q155.694 1848.12 155.991 1848.42 Z" fill="#000000" fill-rule="evenodd" fill-opacity="1" /><path clip-path="url(#clip390)" d="M163.599 1832.91 L163.599 1831.33 Q169.676 1831.33 172.814 1828.09 Q173.678 1828.09 173.827 1828.29 Q173.975 1828.48 173.975 1829.4 L173.975 1857.78 Q173.975 1859.29 174.716 1859.76 Q175.457 1860.23 178.693 1860.23 L180.299 1860.23 L180.299 1861.78 Q178.52 1861.64 172.097 1861.64 Q165.674 1861.64 163.92 1861.78 L163.92 1860.23 L165.526 1860.23 Q168.713 1860.23 169.479 1859.78 Q170.245 1859.31 170.245 1857.78 L170.245 1831.57 Q167.601 1832.91 163.599 1832.91 Z" fill="#000000" fill-rule="evenodd" fill-opacity="1" /><path clip-path="url(#clip390)" d="M159.005 1620.03 Q159.005 1612.59 160.882 1608.54 Q163.501 1602.51 169.676 1602.51 Q170.986 1602.51 172.344 1602.88 Q173.728 1603.23 175.457 1604.59 Q177.211 1605.95 178.273 1608.17 Q180.299 1612.47 180.299 1620.03 Q180.299 1627.42 178.421 1631.44 Q175.679 1637.32 169.627 1637.32 Q167.354 1637.32 165.032 1636.16 Q162.735 1635 161.277 1632.21 Q159.005 1628.03 159.005 1620.03 M163.204 1619.41 Q163.204 1627.04 163.748 1630.08 Q164.365 1633.37 166.045 1634.8 Q167.75 1636.21 169.627 1636.21 Q171.653 1636.21 173.332 1634.7 Q175.037 1633.17 175.556 1629.89 Q176.124 1626.65 176.099 1619.41 Q176.099 1612.37 175.605 1609.55 Q174.938 1606.27 173.16 1604.96 Q171.406 1603.63 169.627 1603.63 Q168.96 1603.63 168.244 1603.82 Q167.552 1604.02 166.539 1604.59 Q165.526 1605.16 164.736 1606.57 Q163.97 1607.97 163.599 1610.1 Q163.204 1612.84 163.204 1619.41 Z" fill="#000000" fill-rule="evenodd" fill-opacity="1" /><path clip-path="url(#clip390)" d="M163.599 1381.76 L163.599 1380.17 Q169.676 1380.17 172.814 1376.94 Q173.678 1376.94 173.827 1377.14 Q173.975 1377.33 173.975 1378.25 L173.975 1406.63 Q173.975 1408.14 174.716 1408.61 Q175.457 1409.08 178.693 1409.08 L180.299 1409.08 L180.299 1410.63 Q178.52 1410.49 172.097 1410.49 Q165.674 1410.49 163.92 1410.63 L163.92 1409.08 L165.526 1409.08 Q168.713 1409.08 169.479 1408.63 Q170.245 1408.16 170.245 1406.63 L170.245 1380.42 Q167.601 1381.76 163.599 1381.76 Z" fill="#000000" fill-rule="evenodd" fill-opacity="1" /><path clip-path="url(#clip390)" d="M33.3051 1732.16 Q33.797 1732.16 34.9564 1732.48 L62.4309 1739.37 Q68.5442 1740.88 72.8305 1745.79 Q77.1168 1750.68 77.1168 1756.23 Q77.1168 1759.57 75.325 1761.71 Q73.5683 1763.85 70.863 1763.85 Q68.4739 1763.85 67.3145 1762.59 Q66.1902 1761.32 66.1902 1759.81 Q66.1902 1759.32 66.3308 1758.79 Q66.4713 1758.27 67.0686 1757.71 Q67.6658 1757.14 68.6847 1757.14 Q70.336 1757.14 71.6359 1758.58 Q72.2332 1759.29 72.3738 1759.95 Q72.5143 1760.59 72.5143 1761.68 Q73.498 1761.25 74.1656 1760.48 Q74.8331 1759.71 75.079 1758.83 Q75.3601 1757.95 75.4304 1757.39 Q75.5358 1756.79 75.5358 1756.23 Q75.5358 1751.73 71.0035 1748.29 Q69.6333 1747.27 68.2631 1746.53 Q66.928 1745.76 65.2768 1745.2 Q63.6606 1744.64 62.7823 1744.39 Q61.9039 1744.11 59.9013 1743.62 Q63.1687 1746.88 63.1687 1750.89 Q63.1687 1752.58 62.712 1754.09 Q62.2553 1755.56 61.3066 1756.86 Q60.3229 1758.16 58.6014 1758.93 Q56.8798 1759.67 54.5961 1759.67 Q52.1719 1759.67 48.8693 1758.72 Q45.5668 1757.78 39.4886 1755.49 Q36.0807 1754.26 34.4294 1754.26 Q33.6213 1754.26 33.1294 1754.44 Q32.6024 1754.61 32.4268 1754.96 Q32.216 1755.32 32.1808 1755.53 Q32.1457 1755.7 32.1457 1756.05 Q32.1457 1758.13 34.2537 1760.06 Q36.3617 1761.99 41.0697 1763.33 Q41.948 1763.61 42.1588 1763.78 Q42.3696 1763.96 42.3696 1764.49 Q42.3345 1765.36 41.6318 1765.36 Q41.3507 1765.36 40.2616 1765.05 Q39.1373 1764.73 37.486 1763.99 Q35.7996 1763.22 34.2889 1762.17 Q32.743 1761.11 31.6538 1759.46 Q30.5647 1757.78 30.5647 1755.84 Q30.5647 1753.21 32.2862 1751.59 Q33.9727 1749.94 36.4671 1749.94 Q37.486 1749.94 38.3995 1750.22 Q39.2778 1750.47 41.6318 1751.38 Q51.1179 1755.07 55.7555 1755.07 Q56.8798 1755.07 57.8284 1754.89 Q58.7419 1754.68 59.6554 1754.23 Q60.5337 1753.77 61.0607 1752.86 Q61.5526 1751.91 61.5526 1750.61 Q61.5526 1748.96 60.7796 1747.41 Q59.9716 1745.83 58.8824 1744.85 Q57.7933 1743.83 56.8798 1743.23 Q55.9312 1742.6 55.4393 1742.46 L42.5101 1739.22 L36.7482 1737.78 Q33.6213 1737.12 32.8484 1736.8 Q32.1106 1736.38 31.7241 1735.64 Q31.3376 1734.9 31.3376 1734.27 Q31.3376 1733.39 31.8646 1732.8 Q32.3916 1732.16 33.3051 1732.16 Z" fill="#000000" fill-rule="evenodd" fill-opacity="1" /><path clip-path="url(#clip390)" d="M44.3722 1722.41 Q32.216 1722.41 22.4137 1717.87 Q18.303 1715.94 14.8599 1713.24 Q11.4168 1710.53 9.90609 1708.74 Q8.39535 1706.95 8.39535 1706.46 Q8.39535 1705.75 9.09802 1705.72 Q9.44936 1705.72 10.3277 1706.67 Q22.1326 1718.26 44.3722 1718.23 Q66.6821 1718.23 78.0303 1706.95 Q79.26 1705.72 79.6464 1705.72 Q80.3491 1705.72 80.3491 1706.46 Q80.3491 1706.95 78.9086 1708.67 Q77.4681 1710.39 74.1656 1713.06 Q70.863 1715.73 66.8226 1717.66 Q57.0203 1722.41 44.3722 1722.41 Z" fill="#000000" fill-rule="evenodd" fill-opacity="1" /><path clip-path="url(#clip390)" d="M32.1457 1678.16 Q33.1294 1678.16 33.3754 1678.61 Q33.5862 1679.07 33.5862 1680.33 L33.5862 1687.08 L54.8069 1692.42 Q56.669 1692.84 58.25 1692.84 Q60.0067 1692.84 60.7796 1692.31 Q61.5526 1691.75 61.5526 1690.59 Q61.5526 1688.31 59.4797 1685.85 Q57.4068 1683.36 52.3476 1681.25 Q51.68 1680.97 51.5395 1680.83 Q51.3638 1680.65 51.3638 1680.19 Q51.3638 1679.32 52.0665 1679.32 Q52.3124 1679.32 53.4367 1679.81 Q54.561 1680.26 56.2123 1681.28 Q57.8635 1682.27 59.4094 1683.57 Q60.9553 1684.83 62.0796 1686.76 Q63.1687 1688.7 63.1687 1690.77 Q63.1687 1693.68 61.3066 1695.55 Q59.4446 1697.37 56.5285 1697.37 Q55.5799 1697.37 52.5584 1696.64 Q49.5017 1695.9 33.5862 1691.89 L33.5862 1698.25 Q33.5862 1699.13 33.5511 1699.48 Q33.5159 1699.8 33.3402 1700.04 Q33.1294 1700.25 32.7078 1700.25 Q32.0403 1700.25 31.7592 1699.97 Q31.443 1699.69 31.4079 1699.34 Q31.3376 1698.95 31.3376 1698.08 L31.3376 1691.33 L19.9192 1688.52 Q18.7949 1688.24 18.1625 1687.54 Q17.495 1686.8 17.4247 1686.38 Q17.3193 1685.96 17.3193 1685.64 Q17.3193 1684.69 17.8463 1684.13 Q18.3382 1683.57 19.2516 1683.57 Q19.7435 1683.57 31.3376 1686.52 L31.3376 1680.19 Q31.3376 1679.39 31.3728 1679.07 Q31.4079 1678.72 31.5836 1678.44 Q31.7592 1678.16 32.1457 1678.16 Z" fill="#000000" fill-rule="evenodd" fill-opacity="1" /><path clip-path="url(#clip390)" d="M79.6464 1672.53 Q79.2951 1672.53 78.4167 1671.62 Q66.6118 1660.02 44.3722 1660.02 Q22.0623 1660.02 10.7844 1671.16 Q9.48449 1672.53 9.09802 1672.53 Q8.39535 1672.53 8.39535 1671.83 Q8.39535 1671.33 9.83583 1669.61 Q11.2763 1667.86 14.5789 1665.22 Q17.8814 1662.55 21.9218 1660.58 Q31.7241 1655.84 44.3722 1655.84 Q56.5285 1655.84 66.3308 1660.37 Q70.4414 1662.3 73.8845 1665.01 Q77.3276 1667.72 78.8383 1669.51 Q80.3491 1671.3 80.3491 1671.83 Q80.3491 1672.53 79.6464 1672.53 Z" fill="#000000" fill-rule="evenodd" fill-opacity="1" /><circle clip-path="url(#clip392)" cx="311.066" cy="1403.48" r="10" fill="#ff0000" fill-rule="evenodd" fill-opacity="1" stroke="none"/>
<circle clip-path="url(#clip392)" cx="338.934" cy="1481.42" r="10" fill="#ff0000" fill-rule="evenodd" fill-opacity="1" stroke="none"/>
<circle clip-path="url(#clip392)" cx="366.802" cy="1544.61" r="10" fill="#ff0000" fill-rule="evenodd" fill-opacity="1" stroke="none"/>
<circle clip-path="url(#clip392)" cx="394.67" cy="1542.47" r="10" fill="#ff0000" fill-rule="evenodd" fill-opacity="1" stroke="none"/>
<circle clip-path="url(#clip392)" cx="422.538" cy="1496.45" r="10" fill="#ff0000" fill-rule="evenodd" fill-opacity="1" stroke="none"/>
<circle clip-path="url(#clip392)" cx="450.406" cy="1414.3" r="10" fill="#ff0000" fill-rule="evenodd" fill-opacity="1" stroke="none"/>
<circle clip-path="url(#clip392)" cx="478.274" cy="1445.89" r="10" fill="#ff0000" fill-rule="evenodd" fill-opacity="1" stroke="none"/>
<circle clip-path="url(#clip392)" cx="506.142" cy="1605.14" r="10" fill="#ff0000" fill-rule="evenodd" fill-opacity="1" stroke="none"/>
<circle clip-path="url(#clip392)" cx="534.01" cy="1620.45" r="10" fill="#ff0000" fill-rule="evenodd" fill-opacity="1" stroke="none"/>
<circle clip-path="url(#clip392)" cx="561.878" cy="1645.57" r="10" fill="#ff0000" fill-rule="evenodd" fill-opacity="1" stroke="none"/>
<circle clip-path="url(#clip392)" cx="589.745" cy="1675.84" r="10" fill="#ff0000" fill-rule="evenodd" fill-opacity="1" stroke="none"/>
<circle clip-path="url(#clip392)" cx="617.613" cy="1715.48" r="10" fill="#ff0000" fill-rule="evenodd" fill-opacity="1" stroke="none"/>
<circle clip-path="url(#clip392)" cx="645.481" cy="1760.41" r="10" fill="#ff0000" fill-rule="evenodd" fill-opacity="1" stroke="none"/>
<circle clip-path="url(#clip392)" cx="673.349" cy="1850.43" r="10" fill="#ff0000" fill-rule="evenodd" fill-opacity="1" stroke="none"/>
<circle clip-path="url(#clip392)" cx="701.217" cy="1853.24" r="10" fill="#ff0000" fill-rule="evenodd" fill-opacity="1" stroke="none"/>
<circle clip-path="url(#clip392)" cx="729.085" cy="1855.14" r="10" fill="#ff0000" fill-rule="evenodd" fill-opacity="1" stroke="none"/>
<circle clip-path="url(#clip392)" cx="756.953" cy="1850.73" r="10" fill="#ff0000" fill-rule="evenodd" fill-opacity="1" stroke="none"/>
<circle clip-path="url(#clip392)" cx="784.821" cy="1842.21" r="10" fill="#ff0000" fill-rule="evenodd" fill-opacity="1" stroke="none"/>
<circle clip-path="url(#clip392)" cx="812.689" cy="1849.98" r="10" fill="#ff0000" fill-rule="evenodd" fill-opacity="1" stroke="none"/>
<circle clip-path="url(#clip392)" cx="840.557" cy="1815.61" r="10" fill="#ff0000" fill-rule="evenodd" fill-opacity="1" stroke="none"/>
<circle clip-path="url(#clip392)" cx="868.424" cy="1549.55" r="10" fill="#ff0000" fill-rule="evenodd" fill-opacity="1" stroke="none"/>
<circle clip-path="url(#clip392)" cx="896.292" cy="1554.82" r="10" fill="#ff0000" fill-rule="evenodd" fill-opacity="1" stroke="none"/>
<circle clip-path="url(#clip392)" cx="924.16" cy="1562.61" r="10" fill="#ff0000" fill-rule="evenodd" fill-opacity="1" stroke="none"/>
<circle clip-path="url(#clip392)" cx="952.028" cy="1543.92" r="10" fill="#ff0000" fill-rule="evenodd" fill-opacity="1" stroke="none"/>
<circle clip-path="url(#clip392)" cx="979.896" cy="1595.43" r="10" fill="#ff0000" fill-rule="evenodd" fill-opacity="1" stroke="none"/>
<circle clip-path="url(#clip392)" cx="1007.76" cy="1731.4" r="10" fill="#ff0000" fill-rule="evenodd" fill-opacity="1" stroke="none"/>
<circle clip-path="url(#clip392)" cx="1035.63" cy="1677.44" r="10" fill="#ff0000" fill-rule="evenodd" fill-opacity="1" stroke="none"/>
<circle clip-path="url(#clip392)" cx="1063.5" cy="1692.25" r="10" fill="#ff0000" fill-rule="evenodd" fill-opacity="1" stroke="none"/>
<circle clip-path="url(#clip392)" cx="1091.37" cy="1701.11" r="10" fill="#ff0000" fill-rule="evenodd" fill-opacity="1" stroke="none"/>
<circle clip-path="url(#clip392)" cx="1119.24" cy="1770.83" r="10" fill="#ff0000" fill-rule="evenodd" fill-opacity="1" stroke="none"/>
<circle clip-path="url(#clip392)" cx="1147.1" cy="1873.96" r="10" fill="#ff0000" fill-rule="evenodd" fill-opacity="1" stroke="none"/>
<circle clip-path="url(#clip392)" cx="1174.97" cy="1871.71" r="10" fill="#ff0000" fill-rule="evenodd" fill-opacity="1" stroke="none"/>
<circle clip-path="url(#clip392)" cx="1202.84" cy="1884.55" r="10" fill="#ff0000" fill-rule="evenodd" fill-opacity="1" stroke="none"/>
<circle clip-path="url(#clip392)" cx="1230.71" cy="1985.67" r="10" fill="#ff0000" fill-rule="evenodd" fill-opacity="1" stroke="none"/>
<circle clip-path="url(#clip392)" cx="1258.57" cy="1957.55" r="10" fill="#ff0000" fill-rule="evenodd" fill-opacity="1" stroke="none"/>
<circle clip-path="url(#clip392)" cx="1286.44" cy="1846.63" r="10" fill="#ff0000" fill-rule="evenodd" fill-opacity="1" stroke="none"/>
<circle clip-path="url(#clip392)" cx="1314.31" cy="1870.76" r="10" fill="#ff0000" fill-rule="evenodd" fill-opacity="1" stroke="none"/>
<circle clip-path="url(#clip392)" cx="1342.18" cy="2005.9" r="10" fill="#ff0000" fill-rule="evenodd" fill-opacity="1" stroke="none"/>
<circle clip-path="url(#clip392)" cx="1370.05" cy="2005.43" r="10" fill="#ff0000" fill-rule="evenodd" fill-opacity="1" stroke="none"/>
<circle clip-path="url(#clip392)" cx="1397.91" cy="2025.72" r="10" fill="#ff0000" fill-rule="evenodd" fill-opacity="1" stroke="none"/>
<circle clip-path="url(#clip392)" cx="1425.78" cy="2012.52" r="10" fill="#ff0000" fill-rule="evenodd" fill-opacity="1" stroke="none"/>
<circle clip-path="url(#clip392)" cx="1453.65" cy="1901.93" r="10" fill="#ff0000" fill-rule="evenodd" fill-opacity="1" stroke="none"/>
<circle clip-path="url(#clip392)" cx="1481.52" cy="1808.31" r="10" fill="#ff0000" fill-rule="evenodd" fill-opacity="1" stroke="none"/>
<circle clip-path="url(#clip392)" cx="1509.39" cy="1810.18" r="10" fill="#ff0000" fill-rule="evenodd" fill-opacity="1" stroke="none"/>
<circle clip-path="url(#clip392)" cx="1537.25" cy="1835.97" r="10" fill="#ff0000" fill-rule="evenodd" fill-opacity="1" stroke="none"/>
<circle clip-path="url(#clip392)" cx="1565.12" cy="1908.69" r="10" fill="#ff0000" fill-rule="evenodd" fill-opacity="1" stroke="none"/>
<circle clip-path="url(#clip392)" cx="1592.99" cy="2013.75" r="10" fill="#ff0000" fill-rule="evenodd" fill-opacity="1" stroke="none"/>
<circle clip-path="url(#clip392)" cx="1620.86" cy="2006.63" r="10" fill="#ff0000" fill-rule="evenodd" fill-opacity="1" stroke="none"/>
<circle clip-path="url(#clip392)" cx="1648.73" cy="1837.66" r="10" fill="#ff0000" fill-rule="evenodd" fill-opacity="1" stroke="none"/>
<circle clip-path="url(#clip392)" cx="1676.59" cy="1890.21" r="10" fill="#ff0000" fill-rule="evenodd" fill-opacity="1" stroke="none"/>
<circle clip-path="url(#clip392)" cx="1704.46" cy="1878.49" r="10" fill="#ff0000" fill-rule="evenodd" fill-opacity="1" stroke="none"/>
<circle clip-path="url(#clip392)" cx="1732.33" cy="2006.48" r="10" fill="#ff0000" fill-rule="evenodd" fill-opacity="1" stroke="none"/>
<circle clip-path="url(#clip392)" cx="1760.2" cy="2059.15" r="10" fill="#ff0000" fill-rule="evenodd" fill-opacity="1" stroke="none"/>
<circle clip-path="url(#clip392)" cx="1788.06" cy="1834.24" r="10" fill="#ff0000" fill-rule="evenodd" fill-opacity="1" stroke="none"/>
<circle clip-path="url(#clip392)" cx="1815.93" cy="1810.86" r="10" fill="#ff0000" fill-rule="evenodd" fill-opacity="1" stroke="none"/>
<circle clip-path="url(#clip392)" cx="1843.8" cy="1911.82" r="10" fill="#ff0000" fill-rule="evenodd" fill-opacity="1" stroke="none"/>
<circle clip-path="url(#clip392)" cx="1871.67" cy="1954.34" r="10" fill="#ff0000" fill-rule="evenodd" fill-opacity="1" stroke="none"/>
<circle clip-path="url(#clip392)" cx="1899.54" cy="1893.63" r="10" fill="#ff0000" fill-rule="evenodd" fill-opacity="1" stroke="none"/>
<circle clip-path="url(#clip392)" cx="1927.4" cy="1830.09" r="10" fill="#ff0000" fill-rule="evenodd" fill-opacity="1" stroke="none"/>
<circle clip-path="url(#clip392)" cx="1955.27" cy="1903.17" r="10" fill="#ff0000" fill-rule="evenodd" fill-opacity="1" stroke="none"/>
<circle clip-path="url(#clip392)" cx="1983.14" cy="1878.34" r="10" fill="#ff0000" fill-rule="evenodd" fill-opacity="1" stroke="none"/>
<circle clip-path="url(#clip392)" cx="2011.01" cy="1832.98" r="10" fill="#ff0000" fill-rule="evenodd" fill-opacity="1" stroke="none"/>
<circle clip-path="url(#clip392)" cx="2038.88" cy="1763.12" r="10" fill="#ff0000" fill-rule="evenodd" fill-opacity="1" stroke="none"/>
<circle clip-path="url(#clip392)" cx="2066.74" cy="1728.79" r="10" fill="#ff0000" fill-rule="evenodd" fill-opacity="1" stroke="none"/>
<circle clip-path="url(#clip392)" cx="2094.61" cy="1676.25" r="10" fill="#ff0000" fill-rule="evenodd" fill-opacity="1" stroke="none"/>
<circle clip-path="url(#clip392)" cx="2122.48" cy="1632.05" r="10" fill="#ff0000" fill-rule="evenodd" fill-opacity="1" stroke="none"/>
<circle clip-path="url(#clip392)" cx="2150.35" cy="1589.15" r="10" fill="#ff0000" fill-rule="evenodd" fill-opacity="1" stroke="none"/>
<circle clip-path="url(#clip392)" cx="2178.22" cy="1552.1" r="10" fill="#ff0000" fill-rule="evenodd" fill-opacity="1" stroke="none"/>
<circle clip-path="url(#clip392)" cx="2206.08" cy="1540.45" r="10" fill="#ff0000" fill-rule="evenodd" fill-opacity="1" stroke="none"/>
<circle clip-path="url(#clip392)" cx="2233.95" cy="1506.31" r="10" fill="#ff0000" fill-rule="evenodd" fill-opacity="1" stroke="none"/>
<circle clip-path="url(#clip392)" cx="2261.82" cy="1552.72" r="10" fill="#ff0000" fill-rule="evenodd" fill-opacity="1" stroke="none"/>
<circle clip-path="url(#clip392)" cx="2289.69" cy="1548.38" r="10" fill="#ff0000" fill-rule="evenodd" fill-opacity="1" stroke="none"/>
<circle clip-path="url(#clip392)" cx="2317.56" cy="1521.13" r="10" fill="#ff0000" fill-rule="evenodd" fill-opacity="1" stroke="none"/>
<circle clip-path="url(#clip392)" cx="2345.42" cy="1465.48" r="10" fill="#ff0000" fill-rule="evenodd" fill-opacity="1" stroke="none"/>
<circle clip-path="url(#clip392)" cx="2373.29" cy="1464.25" r="10" fill="#ff0000" fill-rule="evenodd" fill-opacity="1" stroke="none"/>
<circle clip-path="url(#clip392)" cx="2401.16" cy="1450.87" r="10" fill="#ff0000" fill-rule="evenodd" fill-opacity="1" stroke="none"/>
<circle clip-path="url(#clip392)" cx="2429.03" cy="1441" r="10" fill="#ff0000" fill-rule="evenodd" fill-opacity="1" stroke="none"/>
<circle clip-path="url(#clip392)" cx="2456.89" cy="1466.76" r="10" fill="#ff0000" fill-rule="evenodd" fill-opacity="1" stroke="none"/>
<circle clip-path="url(#clip392)" cx="2484.76" cy="1477.67" r="10" fill="#ff0000" fill-rule="evenodd" fill-opacity="1" stroke="none"/>
<circle clip-path="url(#clip392)" cx="2512.63" cy="1472.03" r="10" fill="#ff0000" fill-rule="evenodd" fill-opacity="1" stroke="none"/>
<circle clip-path="url(#clip392)" cx="2540.5" cy="1486.62" r="10" fill="#ff0000" fill-rule="evenodd" fill-opacity="1" stroke="none"/>
<circle clip-path="url(#clip392)" cx="2568.37" cy="1530.7" r="10" fill="#ff0000" fill-rule="evenodd" fill-opacity="1" stroke="none"/>
<circle clip-path="url(#clip392)" cx="2596.23" cy="1524.97" r="10" fill="#ff0000" fill-rule="evenodd" fill-opacity="1" stroke="none"/>
<circle clip-path="url(#clip392)" cx="2624.1" cy="1519.09" r="10" fill="#ff0000" fill-rule="evenodd" fill-opacity="1" stroke="none"/>
<circle clip-path="url(#clip392)" cx="2651.97" cy="1584.84" r="10" fill="#ff0000" fill-rule="evenodd" fill-opacity="1" stroke="none"/>
<circle clip-path="url(#clip392)" cx="2679.84" cy="1682.86" r="10" fill="#ff0000" fill-rule="evenodd" fill-opacity="1" stroke="none"/>
<circle clip-path="url(#clip392)" cx="2707.71" cy="1692.29" r="10" fill="#ff0000" fill-rule="evenodd" fill-opacity="1" stroke="none"/>
<circle clip-path="url(#clip392)" cx="2735.57" cy="1657.05" r="10" fill="#ff0000" fill-rule="evenodd" fill-opacity="1" stroke="none"/>
<circle clip-path="url(#clip392)" cx="2763.44" cy="1590.42" r="10" fill="#ff0000" fill-rule="evenodd" fill-opacity="1" stroke="none"/>
<circle clip-path="url(#clip392)" cx="2791.31" cy="1448.81" r="10" fill="#ff0000" fill-rule="evenodd" fill-opacity="1" stroke="none"/>
<circle clip-path="url(#clip392)" cx="2819.18" cy="1612.5" r="10" fill="#ff0000" fill-rule="evenodd" fill-opacity="1" stroke="none"/>
<circle clip-path="url(#clip392)" cx="2847.05" cy="1683.43" r="10" fill="#ff0000" fill-rule="evenodd" fill-opacity="1" stroke="none"/>
<circle clip-path="url(#clip392)" cx="2874.91" cy="1704.33" r="10" fill="#ff0000" fill-rule="evenodd" fill-opacity="1" stroke="none"/>
<circle clip-path="url(#clip392)" cx="2902.78" cy="1724.4" r="10" fill="#ff0000" fill-rule="evenodd" fill-opacity="1" stroke="none"/>
<circle clip-path="url(#clip392)" cx="2930.65" cy="1793.94" r="10" fill="#ff0000" fill-rule="evenodd" fill-opacity="1" stroke="none"/>
<circle clip-path="url(#clip392)" cx="2958.52" cy="1865.99" r="10" fill="#ff0000" fill-rule="evenodd" fill-opacity="1" stroke="none"/>
<circle clip-path="url(#clip392)" cx="2986.38" cy="1921.3" r="10" fill="#ff0000" fill-rule="evenodd" fill-opacity="1" stroke="none"/>
<circle clip-path="url(#clip392)" cx="3014.25" cy="1932.22" r="10" fill="#ff0000" fill-rule="evenodd" fill-opacity="1" stroke="none"/>
<circle clip-path="url(#clip392)" cx="3042.12" cy="1927.87" r="10" fill="#ff0000" fill-rule="evenodd" fill-opacity="1" stroke="none"/>
<circle clip-path="url(#clip392)" cx="3069.99" cy="1821.84" r="10" fill="#ff0000" fill-rule="evenodd" fill-opacity="1" stroke="none"/>
<path clip-path="url(#clip392)" d="
M311.066 1590.25 L338.934 1611.22 L366.802 1603.85 L394.67 1596.18 L422.538 1592.02 L450.406 1609.09 L478.274 1647.34 L506.142 1831.58 L534.01 1849.19 L561.878 1872.74 
  L589.745 1899.85 L617.613 1939.97 L645.481 1949.28 L673.349 1936.61 L701.217 1978.78 L729.085 2004.26 L756.953 2007.61 L784.821 1987.05 L812.689 1906.91 L840.557 1928.49 
  L868.424 1879.99 L896.292 1839.8 L924.16 1643.04 L952.028 1620.87 L979.896 1891.43 L1007.76 1879.98 L1035.63 1743.68 L1063.5 1918.06 L1091.37 1964.57 L1119.24 2006.23 
  L1147.1 2045.92 L1174.97 2059.11 L1202.84 2087.5 L1230.71 2101.53 L1258.57 2084.26 L1286.44 2068.22 L1314.31 2076.62 L1342.18 2094.55 L1370.05 2094.95 L1397.91 2094.98 
  L1425.78 2082.85 L1453.65 2063.66 L1481.52 2008.83 L1509.39 1972.14 L1537.25 2050.72 L1565.12 2074.31 L1592.99 2081.33 L1620.86 2082.97 L1648.73 2032.31 L1676.59 1989.02 
  L1704.46 2021.74 L1732.33 2148.81 L1760.2 2172.05 L1788.06 1891.64 L1815.93 1886.11 L1843.8 2086.62 L1871.67 2073.55 L1899.54 1978.84 L1927.4 1989.13 L1955.27 1995.11 
  L1983.14 1974.12 L2011.01 1935.57 L2038.88 1884.77 L2066.74 1855.65 L2094.61 1813.24 L2122.48 1729 L2150.35 1707.65 L2178.22 1685.03 L2206.08 1630.17 L2233.95 1693.23 
  L2261.82 1720.66 L2289.69 1732.95 L2317.56 1743.41 L2345.42 1726.51 L2373.29 1700.17 L2401.16 1647.53 L2429.03 1604.1 L2456.89 1564.1 L2484.76 1557.11 L2512.63 1553.24 
  L2540.5 1591.15 L2568.37 1622.78 L2596.23 1621.56 L2624.1 1646.38 L2651.97 1860.48 L2679.84 1902.6 L2707.71 1898.84 L2735.57 1859.04 L2763.44 1703.79 L2791.31 1689.88 
  L2819.18 1717 L2847.05 1810.29 L2874.91 1849.16 L2902.78 1894.47 L2930.65 2127.27 L2958.52 2152.13 L2986.38 2159.18 L3014.25 2120.18 L3042.12 2019.65 L3069.99 1901.41 
  L3069.99 1752.13 L3042.12 1768.08 L3014.25 1772.33 L2986.38 1643.39 L2958.52 1622.2 L2930.65 1609.57 L2902.78 1621.21 L2874.91 1517.82 L2847.05 1502.84 L2819.18 1478.6 
  L2791.31 1311.48 L2763.44 1317.56 L2735.57 1514.66 L2707.71 1537.3 L2679.84 1493.56 L2651.97 1476.12 L2624.1 1489.04 L2596.23 1483.64 L2568.37 1403.08 L2540.5 1386.02 
  L2512.63 1386.9 L2484.76 1395.98 L2456.89 1362.48 L2429.03 1307.58 L2401.16 1308.09 L2373.29 1342.79 L2345.42 1358.96 L2317.56 1357.55 L2289.69 1366.56 L2261.82 1398.33 
  L2233.95 1359.38 L2206.08 1377.92 L2178.22 1464.53 L2150.35 1465.92 L2122.48 1499.31 L2094.61 1538.73 L2066.74 1542.94 L2038.88 1554.62 L2011.01 1574.88 L1983.14 1753.49 
  L1955.27 1789.1 L1927.4 1768.5 L1899.54 1764.17 L1871.67 1747.15 L1843.8 1720.31 L1815.93 1744.29 L1788.06 1746.53 L1760.2 1755.01 L1732.33 1833.24 L1704.46 1803.37 
  L1676.59 1803.8 L1648.73 1781.67 L1620.86 1777.03 L1592.99 1721.69 L1565.12 1695.71 L1537.25 1684.09 L1509.39 1691.71 L1481.52 1702.09 L1453.65 1750.26 L1425.78 1790.67 
  L1397.91 1819.77 L1370.05 1953.17 L1342.18 1931.48 L1314.31 1767.55 L1286.44 1779.6 L1258.57 1811.98 L1230.71 1826.17 L1202.84 1774.42 L1174.97 1724.75 L1147.1 1635.82 
  L1119.24 1591.9 L1091.37 1574.38 L1063.5 1583.34 L1035.63 1544.23 L1007.76 1514.59 L979.896 1483.23 L952.028 1512.19 L924.16 1501 L896.292 1506.35 L868.424 1521.48 
  L840.557 1495.19 L812.689 1542.29 L784.821 1763.88 L756.953 1762.82 L729.085 1767.48 L701.217 1711.32 L673.349 1540.64 L645.481 1505.34 L617.613 1479.88 L589.745 1477.03 
  L561.878 1491.72 L534.01 1524.6 L506.142 1397.49 L478.274 1337.62 L450.406 1344.98 L422.538 1371.84 L394.67 1389.11 L366.802 1283.26 L338.934 1253.58 L311.066 1238.22 
   Z
  " fill="#ff0000" fill-rule="evenodd" fill-opacity="0.2"/>
<polyline clip-path="url(#clip392)" style="stroke:#ff0000; stroke-linecap:butt; stroke-linejoin:round; stroke-width:4; stroke-opacity:1; fill:none" points="
  311.066,1403.48 338.934,1481.42 366.802,1544.61 394.67,1542.47 422.538,1496.45 450.406,1414.3 478.274,1445.89 506.142,1605.14 534.01,1620.45 561.878,1645.57 
  589.745,1675.84 617.613,1715.48 645.481,1760.41 673.349,1850.43 701.217,1853.24 729.085,1855.14 756.953,1850.73 784.821,1842.21 812.689,1849.98 840.557,1815.61 
  868.424,1549.55 896.292,1554.82 924.16,1562.61 952.028,1543.92 979.896,1595.43 1007.76,1731.4 1035.63,1677.44 1063.5,1692.25 1091.37,1701.11 1119.24,1770.83 
  1147.1,1873.96 1174.97,1871.71 1202.84,1884.55 1230.71,1985.67 1258.57,1957.55 1286.44,1846.63 1314.31,1870.76 1342.18,2005.9 1370.05,2005.43 1397.91,2025.72 
  1425.78,2012.52 1453.65,1901.93 1481.52,1808.31 1509.39,1810.18 1537.25,1835.97 1565.12,1908.69 1592.99,2013.75 1620.86,2006.63 1648.73,1837.66 1676.59,1890.21 
  1704.46,1878.49 1732.33,2006.48 1760.2,2059.15 1788.06,1834.24 1815.93,1810.86 1843.8,1911.82 1871.67,1954.34 1899.54,1893.63 1927.4,1830.09 1955.27,1903.17 
  1983.14,1878.34 2011.01,1832.98 2038.88,1763.12 2066.74,1728.79 2094.61,1676.25 2122.48,1632.05 2150.35,1589.15 2178.22,1552.1 2206.08,1540.45 2233.95,1506.31 
  2261.82,1552.72 2289.69,1548.38 2317.56,1521.13 2345.42,1465.48 2373.29,1464.25 2401.16,1450.87 2429.03,1441 2456.89,1466.76 2484.76,1477.67 2512.63,1472.03 
  2540.5,1486.62 2568.37,1530.7 2596.23,1524.97 2624.1,1519.09 2651.97,1584.84 2679.84,1682.86 2707.71,1692.29 2735.57,1657.05 2763.44,1590.42 2791.31,1448.81 
  2819.18,1612.5 2847.05,1683.43 2874.91,1704.33 2902.78,1724.4 2930.65,1793.94 2958.52,1865.99 2986.38,1921.3 3014.25,1932.22 3042.12,1927.87 3069.99,1821.84 
  
  "/>
</svg>
