<?xml version="1.0" encoding="utf-8"?>
<svg xmlns="http://www.w3.org/2000/svg" xmlns:xlink="http://www.w3.org/1999/xlink" width="600" height="400" viewBox="0 0 2400 1600">
<defs>
  <clipPath id="clip960">
    <rect x="0" y="0" width="2400" height="1600"/>
  </clipPath>
</defs>
<path clip-path="url(#clip960)" d="
M0 1600 L2400 1600 L2400 0 L0 0  Z
  " fill="#ffffff" fill-rule="evenodd" fill-opacity="1"/>
<defs>
  <clipPath id="clip961">
    <rect x="480" y="0" width="1681" height="1600"/>
  </clipPath>
</defs>
<defs>
  <clipPath id="clip962">
    <rect x="215" y="813" width="2138" height="606"/>
  </clipPath>
</defs>
<path clip-path="url(#clip960)" d="
M215.795 652.654 L2352.76 652.654 L2352.76 47.2441 L215.795 47.2441  Z
  " fill="#ffffff" fill-rule="evenodd" fill-opacity="1"/>
<defs>
  <clipPath id="clip963">
    <rect x="215" y="47" width="2138" height="606"/>
  </clipPath>
</defs>
<polyline clip-path="url(#clip963)" style="stroke:#000000; stroke-linecap:butt; stroke-linejoin:round; stroke-width:2; stroke-opacity:0.1; fill:none" points="
  276.275,652.654 276.275,47.2441 
  "/>
<polyline clip-path="url(#clip963)" style="stroke:#000000; stroke-linecap:butt; stroke-linejoin:round; stroke-width:2; stroke-opacity:0.1; fill:none" points="
  948.275,652.654 948.275,47.2441 
  "/>
<polyline clip-path="url(#clip963)" style="stroke:#000000; stroke-linecap:butt; stroke-linejoin:round; stroke-width:2; stroke-opacity:0.1; fill:none" points="
  1620.28,652.654 1620.28,47.2441 
  "/>
<polyline clip-path="url(#clip963)" style="stroke:#000000; stroke-linecap:butt; stroke-linejoin:round; stroke-width:2; stroke-opacity:0.1; fill:none" points="
  2292.28,652.654 2292.28,47.2441 
  "/>
<polyline clip-path="url(#clip960)" style="stroke:#000000; stroke-linecap:butt; stroke-linejoin:round; stroke-width:4; stroke-opacity:1; fill:none" points="
  215.795,652.654 2352.76,652.654 
  "/>
<polyline clip-path="url(#clip960)" style="stroke:#000000; stroke-linecap:butt; stroke-linejoin:round; stroke-width:4; stroke-opacity:1; fill:none" points="
  276.275,652.654 276.275,633.756 
  "/>
<polyline clip-path="url(#clip960)" style="stroke:#000000; stroke-linecap:butt; stroke-linejoin:round; stroke-width:4; stroke-opacity:1; fill:none" points="
  948.275,652.654 948.275,633.756 
  "/>
<polyline clip-path="url(#clip960)" style="stroke:#000000; stroke-linecap:butt; stroke-linejoin:round; stroke-width:4; stroke-opacity:1; fill:none" points="
  1620.28,652.654 1620.28,633.756 
  "/>
<polyline clip-path="url(#clip960)" style="stroke:#000000; stroke-linecap:butt; stroke-linejoin:round; stroke-width:4; stroke-opacity:1; fill:none" points="
  2292.28,652.654 2292.28,633.756 
  "/>
<path clip-path="url(#clip960)" d="M265.628 698.873 Q265.628 691.437 267.505 687.386 Q270.124 681.358 276.3 681.358 Q277.609 681.358 278.968 681.729 Q280.351 682.075 282.08 683.434 Q283.834 684.792 284.897 687.016 Q286.922 691.314 286.922 698.873 Q286.922 706.259 285.045 710.286 Q282.303 716.166 276.25 716.166 Q273.978 716.166 271.656 715.004 Q269.358 713.843 267.901 711.052 Q265.628 706.877 265.628 698.873 M269.828 698.256 Q269.828 705.889 270.371 708.927 Q270.989 712.213 272.668 713.646 Q274.373 715.054 276.25 715.054 Q278.276 715.054 279.956 713.547 Q281.66 712.015 282.179 708.73 Q282.747 705.494 282.723 698.256 Q282.723 691.215 282.229 688.399 Q281.562 685.113 279.783 683.804 Q278.029 682.47 276.25 682.47 Q275.583 682.47 274.867 682.668 Q274.175 682.865 273.162 683.434 Q272.15 684.002 271.359 685.41 Q270.593 686.818 270.223 688.942 Q269.828 691.684 269.828 698.256 Z" fill="#000000" fill-rule="evenodd" fill-opacity="1" /><path clip-path="url(#clip960)" d="M913.592 686.176 L913.592 684.595 Q919.669 684.595 922.806 681.358 Q923.671 681.358 923.819 681.556 Q923.967 681.754 923.967 682.668 L923.967 711.052 Q923.967 712.559 924.708 713.028 Q925.449 713.498 928.686 713.498 L930.291 713.498 L930.291 715.054 Q928.513 714.906 922.09 714.906 Q915.667 714.906 913.913 715.054 L913.913 713.498 L915.519 713.498 Q918.705 713.498 919.471 713.053 Q920.237 712.584 920.237 711.052 L920.237 684.842 Q917.594 686.176 913.592 686.176 Z" fill="#000000" fill-rule="evenodd" fill-opacity="1" /><path clip-path="url(#clip960)" d="M936.368 698.873 Q936.368 691.437 938.246 687.386 Q940.864 681.358 947.04 681.358 Q948.349 681.358 949.708 681.729 Q951.092 682.075 952.821 683.434 Q954.575 684.792 955.637 687.016 Q957.663 691.314 957.663 698.873 Q957.663 706.259 955.785 710.286 Q953.043 716.166 946.991 716.166 Q944.718 716.166 942.396 715.004 Q940.099 713.843 938.641 711.052 Q936.368 706.877 936.368 698.873 M940.568 698.256 Q940.568 705.889 941.111 708.927 Q941.729 712.213 943.409 713.646 Q945.113 715.054 946.991 715.054 Q949.016 715.054 950.696 713.547 Q952.401 712.015 952.92 708.73 Q953.488 705.494 953.463 698.256 Q953.463 691.215 952.969 688.399 Q952.302 685.113 950.523 683.804 Q948.769 682.47 946.991 682.47 Q946.324 682.47 945.607 682.668 Q944.916 682.865 943.903 683.434 Q942.89 684.002 942.1 685.41 Q941.334 686.818 940.963 688.942 Q940.568 691.684 940.568 698.256 Z" fill="#000000" fill-rule="evenodd" fill-opacity="1" /><path clip-path="url(#clip960)" d="M961.665 698.873 Q961.665 691.437 963.542 687.386 Q966.161 681.358 972.336 681.358 Q973.646 681.358 975.004 681.729 Q976.388 682.075 978.117 683.434 Q979.871 684.792 980.933 687.016 Q982.959 691.314 982.959 698.873 Q982.959 706.259 981.081 710.286 Q978.339 716.166 972.287 716.166 Q970.014 716.166 967.692 715.004 Q965.395 713.843 963.937 711.052 Q961.665 706.877 961.665 698.873 M965.864 698.256 Q965.864 705.889 966.408 708.927 Q967.025 712.213 968.705 713.646 Q970.41 715.054 972.287 715.054 Q974.313 715.054 975.993 713.547 Q977.697 712.015 978.216 708.73 Q978.784 705.494 978.759 698.256 Q978.759 691.215 978.265 688.399 Q977.598 685.113 975.82 683.804 Q974.066 682.47 972.287 682.47 Q971.62 682.47 970.904 682.668 Q970.212 682.865 969.199 683.434 Q968.186 684.002 967.396 685.41 Q966.63 686.818 966.259 688.942 Q965.864 691.684 965.864 698.256 Z" fill="#000000" fill-rule="evenodd" fill-opacity="1" /><path clip-path="url(#clip960)" d="M1584.6 715.054 Q1584.6 714.14 1584.68 713.868 Q1584.78 713.596 1585.17 713.176 L1594.88 702.356 Q1600.19 696.378 1600.19 691.166 Q1600.19 687.781 1598.41 685.36 Q1596.66 682.939 1593.42 682.939 Q1591.2 682.939 1589.32 684.298 Q1587.44 685.657 1586.58 688.078 Q1586.73 688.028 1587.25 688.028 Q1588.51 688.028 1589.2 688.819 Q1589.92 689.609 1589.92 690.672 Q1589.92 692.03 1589.03 692.697 Q1588.16 693.34 1587.3 693.34 Q1586.95 693.34 1586.48 693.265 Q1586.04 693.191 1585.32 692.5 Q1584.6 691.783 1584.6 690.523 Q1584.6 686.991 1587.27 684.175 Q1589.96 681.358 1594.07 681.358 Q1598.71 681.358 1601.75 684.125 Q1604.81 686.867 1604.81 691.166 Q1604.81 692.673 1604.34 694.056 Q1603.9 695.415 1603.28 696.477 Q1602.69 697.539 1601.06 699.244 Q1599.43 700.948 1598.12 702.159 Q1596.81 703.369 1593.87 705.938 L1588.51 711.151 L1597.62 711.151 Q1602.07 711.151 1602.42 710.755 Q1602.91 710.039 1603.53 706.259 L1604.81 706.259 L1603.38 715.054 L1584.6 715.054 Z" fill="#000000" fill-rule="evenodd" fill-opacity="1" /><path clip-path="url(#clip960)" d="M1609.36 698.873 Q1609.36 691.437 1611.23 687.386 Q1613.85 681.358 1620.03 681.358 Q1621.34 681.358 1622.7 681.729 Q1624.08 682.075 1625.81 683.434 Q1627.56 684.792 1628.63 687.016 Q1630.65 691.314 1630.65 698.873 Q1630.65 706.259 1628.77 710.286 Q1626.03 716.166 1619.98 716.166 Q1617.71 716.166 1615.38 715.004 Q1613.09 713.843 1611.63 711.052 Q1609.36 706.877 1609.36 698.873 M1613.56 698.256 Q1613.56 705.889 1614.1 708.927 Q1614.72 712.213 1616.4 713.646 Q1618.1 715.054 1619.98 715.054 Q1622 715.054 1623.68 713.547 Q1625.39 712.015 1625.91 708.73 Q1626.48 705.494 1626.45 698.256 Q1626.45 691.215 1625.96 688.399 Q1625.29 685.113 1623.51 683.804 Q1621.76 682.47 1619.98 682.47 Q1619.31 682.47 1618.6 682.668 Q1617.9 682.865 1616.89 683.434 Q1615.88 684.002 1615.09 685.41 Q1614.32 686.818 1613.95 688.942 Q1613.56 691.684 1613.56 698.256 Z" fill="#000000" fill-rule="evenodd" fill-opacity="1" /><path clip-path="url(#clip960)" d="M1634.65 698.873 Q1634.65 691.437 1636.53 687.386 Q1639.15 681.358 1645.32 681.358 Q1646.63 681.358 1647.99 681.729 Q1649.38 682.075 1651.11 683.434 Q1652.86 684.792 1653.92 687.016 Q1655.95 691.314 1655.95 698.873 Q1655.95 706.259 1654.07 710.286 Q1651.33 716.166 1645.28 716.166 Q1643 716.166 1640.68 715.004 Q1638.38 713.843 1636.93 711.052 Q1634.65 706.877 1634.65 698.873 M1638.85 698.256 Q1638.85 705.889 1639.4 708.927 Q1640.01 712.213 1641.69 713.646 Q1643.4 715.054 1645.28 715.054 Q1647.3 715.054 1648.98 713.547 Q1650.69 712.015 1651.2 708.73 Q1651.77 705.494 1651.75 698.256 Q1651.75 691.215 1651.25 688.399 Q1650.59 685.113 1648.81 683.804 Q1647.05 682.47 1645.28 682.47 Q1644.61 682.47 1643.89 682.668 Q1643.2 682.865 1642.19 683.434 Q1641.17 684.002 1640.38 685.41 Q1639.62 686.818 1639.25 688.942 Q1638.85 691.684 1638.85 698.256 Z" fill="#000000" fill-rule="evenodd" fill-opacity="1" /><path clip-path="url(#clip960)" d="M2256.41 708.236 Q2256.41 706.729 2257.27 706.012 Q2258.14 705.296 2259.25 705.296 Q2260.41 705.296 2261.22 706.062 Q2262.06 706.803 2262.06 708.112 Q2262.06 709.52 2261.08 710.311 Q2260.11 711.101 2258.73 710.904 Q2259.94 712.929 2262.16 713.843 Q2264.41 714.757 2266.49 714.757 Q2268.66 714.757 2270.41 712.88 Q2272.19 711.003 2272.19 706.408 Q2272.19 702.505 2270.66 700.257 Q2269.15 698.009 2266.16 698.009 L2263.94 698.009 Q2263.18 698.009 2262.95 697.934 Q2262.73 697.86 2262.73 697.44 Q2262.73 696.946 2263.5 696.847 Q2264.26 696.847 2265.47 696.699 Q2268.41 696.6 2269.97 694.056 Q2271.38 691.684 2271.38 688.3 Q2271.38 685.212 2269.89 683.928 Q2268.44 682.618 2266.53 682.618 Q2264.76 682.618 2262.8 683.359 Q2260.85 684.101 2259.79 685.756 Q2262.93 685.756 2262.93 688.3 Q2262.93 689.412 2262.21 690.153 Q2261.52 690.869 2260.36 690.869 Q2259.25 690.869 2258.51 690.178 Q2257.77 689.461 2257.77 688.251 Q2257.77 685.36 2260.33 683.359 Q2262.93 681.358 2266.73 681.358 Q2270.49 681.358 2273.25 683.335 Q2276.05 685.311 2276.05 688.35 Q2276.05 691.339 2274.07 693.784 Q2272.09 696.23 2268.96 697.243 Q2272.81 698.009 2275.11 700.627 Q2277.4 703.221 2277.4 706.408 Q2277.4 710.36 2274.29 713.275 Q2271.18 716.166 2266.63 716.166 Q2262.43 716.166 2259.42 713.893 Q2256.41 711.62 2256.41 708.236 Z" fill="#000000" fill-rule="evenodd" fill-opacity="1" /><path clip-path="url(#clip960)" d="M2281.55 698.873 Q2281.55 691.437 2283.43 687.386 Q2286.05 681.358 2292.23 681.358 Q2293.54 681.358 2294.89 681.729 Q2296.28 682.075 2298.01 683.434 Q2299.76 684.792 2300.82 687.016 Q2302.85 691.314 2302.85 698.873 Q2302.85 706.259 2300.97 710.286 Q2298.23 716.166 2292.18 716.166 Q2289.9 716.166 2287.58 715.004 Q2285.28 713.843 2283.83 711.052 Q2281.55 706.877 2281.55 698.873 M2285.75 698.256 Q2285.75 705.889 2286.3 708.927 Q2286.92 712.213 2288.6 713.646 Q2290.3 715.054 2292.18 715.054 Q2294.2 715.054 2295.88 713.547 Q2297.59 712.015 2298.11 708.73 Q2298.67 705.494 2298.65 698.256 Q2298.65 691.215 2298.16 688.399 Q2297.49 685.113 2295.71 683.804 Q2293.96 682.47 2292.18 682.47 Q2291.51 682.47 2290.79 682.668 Q2290.1 682.865 2289.09 683.434 Q2288.08 684.002 2287.29 685.41 Q2286.52 686.818 2286.15 688.942 Q2285.75 691.684 2285.75 698.256 Z" fill="#000000" fill-rule="evenodd" fill-opacity="1" /><path clip-path="url(#clip960)" d="M2306.85 698.873 Q2306.85 691.437 2308.73 687.386 Q2311.35 681.358 2317.52 681.358 Q2318.83 681.358 2320.19 681.729 Q2321.57 682.075 2323.3 683.434 Q2325.06 684.792 2326.12 687.016 Q2328.15 691.314 2328.15 698.873 Q2328.15 706.259 2326.27 710.286 Q2323.53 716.166 2317.47 716.166 Q2315.2 716.166 2312.88 715.004 Q2310.58 713.843 2309.12 711.052 Q2306.85 706.877 2306.85 698.873 M2311.05 698.256 Q2311.05 705.889 2311.59 708.927 Q2312.21 712.213 2313.89 713.646 Q2315.6 715.054 2317.47 715.054 Q2319.5 715.054 2321.18 713.547 Q2322.88 712.015 2323.4 708.73 Q2323.97 705.494 2323.95 698.256 Q2323.95 691.215 2323.45 688.399 Q2322.78 685.113 2321.01 683.804 Q2319.25 682.47 2317.47 682.47 Q2316.81 682.47 2316.09 682.668 Q2315.4 682.865 2314.39 683.434 Q2313.37 684.002 2312.58 685.41 Q2311.82 686.818 2311.45 688.942 Q2311.05 691.684 2311.05 698.256 Z" fill="#000000" fill-rule="evenodd" fill-opacity="1" /><polyline clip-path="url(#clip963)" style="stroke:#000000; stroke-linecap:butt; stroke-linejoin:round; stroke-width:2; stroke-opacity:0.1; fill:none" points="
  215.795,632.927 2352.76,632.927 
  "/>
<polyline clip-path="url(#clip963)" style="stroke:#000000; stroke-linecap:butt; stroke-linejoin:round; stroke-width:2; stroke-opacity:0.1; fill:none" points="
  215.795,480.288 2352.76,480.288 
  "/>
<polyline clip-path="url(#clip963)" style="stroke:#000000; stroke-linecap:butt; stroke-linejoin:round; stroke-width:2; stroke-opacity:0.1; fill:none" points="
  215.795,327.649 2352.76,327.649 
  "/>
<polyline clip-path="url(#clip963)" style="stroke:#000000; stroke-linecap:butt; stroke-linejoin:round; stroke-width:2; stroke-opacity:0.1; fill:none" points="
  215.795,175.01 2352.76,175.01 
  "/>
<polyline clip-path="url(#clip960)" style="stroke:#000000; stroke-linecap:butt; stroke-linejoin:round; stroke-width:4; stroke-opacity:1; fill:none" points="
  215.795,652.654 215.795,47.2441 
  "/>
<polyline clip-path="url(#clip960)" style="stroke:#000000; stroke-linecap:butt; stroke-linejoin:round; stroke-width:4; stroke-opacity:1; fill:none" points="
  215.795,632.927 234.693,632.927 
  "/>
<polyline clip-path="url(#clip960)" style="stroke:#000000; stroke-linecap:butt; stroke-linejoin:round; stroke-width:4; stroke-opacity:1; fill:none" points="
  215.795,480.288 234.693,480.288 
  "/>
<polyline clip-path="url(#clip960)" style="stroke:#000000; stroke-linecap:butt; stroke-linejoin:round; stroke-width:4; stroke-opacity:1; fill:none" points="
  215.795,327.649 234.693,327.649 
  "/>
<polyline clip-path="url(#clip960)" style="stroke:#000000; stroke-linecap:butt; stroke-linejoin:round; stroke-width:4; stroke-opacity:1; fill:none" points="
  215.795,175.01 234.693,175.01 
  "/>
<path clip-path="url(#clip960)" d="M119.692 634.026 Q119.692 626.591 121.569 622.539 Q124.188 616.512 130.364 616.512 Q131.673 616.512 133.032 616.882 Q134.415 617.228 136.144 618.587 Q137.898 619.946 138.96 622.169 Q140.986 626.467 140.986 634.026 Q140.986 641.413 139.109 645.439 Q136.367 651.319 130.314 651.319 Q128.042 651.319 125.719 650.158 Q123.422 648.997 121.965 646.205 Q119.692 642.03 119.692 634.026 M123.891 633.409 Q123.891 641.042 124.435 644.081 Q125.052 647.366 126.732 648.799 Q128.437 650.207 130.314 650.207 Q132.34 650.207 134.02 648.7 Q135.724 647.169 136.243 643.883 Q136.811 640.647 136.787 633.409 Q136.787 626.368 136.292 623.552 Q135.625 620.267 133.847 618.957 Q132.093 617.623 130.314 617.623 Q129.647 617.623 128.931 617.821 Q128.239 618.019 127.226 618.587 Q126.213 619.155 125.423 620.563 Q124.657 621.971 124.287 624.096 Q123.891 626.838 123.891 633.409 Z" fill="#000000" fill-rule="evenodd" fill-opacity="1" /><path clip-path="url(#clip960)" d="M148.076 649.392 Q147.31 648.577 147.31 647.514 Q147.31 646.452 148.076 645.686 Q148.842 644.896 150.003 644.896 Q151.114 644.896 151.856 645.637 Q152.621 646.353 152.621 647.539 Q152.621 648.7 151.806 649.466 Q151.016 650.207 150.003 650.207 Q148.842 650.207 148.076 649.392 Z" fill="#000000" fill-rule="evenodd" fill-opacity="1" /><path clip-path="url(#clip960)" d="M159.588 650.207 Q159.588 649.293 159.662 649.021 Q159.761 648.75 160.156 648.33 L169.864 637.51 Q175.176 631.531 175.176 626.319 Q175.176 622.935 173.397 620.514 Q171.643 618.093 168.407 618.093 Q166.184 618.093 164.306 619.451 Q162.429 620.81 161.564 623.231 Q161.712 623.182 162.231 623.182 Q163.491 623.182 164.183 623.972 Q164.899 624.763 164.899 625.825 Q164.899 627.184 164.01 627.851 Q163.145 628.493 162.28 628.493 Q161.935 628.493 161.465 628.419 Q161.021 628.345 160.304 627.653 Q159.588 626.937 159.588 625.677 Q159.588 622.144 162.256 619.328 Q164.948 616.512 169.049 616.512 Q173.693 616.512 176.732 619.279 Q179.795 622.021 179.795 626.319 Q179.795 627.826 179.326 629.209 Q178.881 630.568 178.263 631.63 Q177.671 632.692 176.04 634.397 Q174.41 636.102 173.1 637.312 Q171.791 638.522 168.851 641.092 L163.491 646.304 L172.606 646.304 Q177.053 646.304 177.399 645.909 Q177.893 645.192 178.511 641.413 L179.795 641.413 L178.362 650.207 L159.588 650.207 Z" fill="#000000" fill-rule="evenodd" fill-opacity="1" /><path clip-path="url(#clip960)" d="M118.58 481.387 Q118.58 473.952 120.458 469.9 Q123.076 463.873 129.252 463.873 Q130.561 463.873 131.92 464.243 Q133.303 464.589 135.033 465.948 Q136.787 467.307 137.849 469.53 Q139.874 473.828 139.874 481.387 Q139.874 488.774 137.997 492.8 Q135.255 498.68 129.203 498.68 Q126.93 498.68 124.608 497.519 Q122.31 496.358 120.853 493.566 Q118.58 489.391 118.58 481.387 M122.78 480.77 Q122.78 488.403 123.323 491.442 Q123.941 494.727 125.621 496.16 Q127.325 497.568 129.203 497.568 Q131.228 497.568 132.908 496.061 Q134.613 494.53 135.131 491.244 Q135.7 488.008 135.675 480.77 Q135.675 473.729 135.181 470.913 Q134.514 467.628 132.735 466.318 Q130.981 464.984 129.203 464.984 Q128.536 464.984 127.819 465.182 Q127.128 465.38 126.115 465.948 Q125.102 466.516 124.311 467.924 Q123.546 469.332 123.175 471.457 Q122.78 474.199 122.78 480.77 Z" fill="#000000" fill-rule="evenodd" fill-opacity="1" /><path clip-path="url(#clip960)" d="M146.964 496.753 Q146.199 495.938 146.199 494.876 Q146.199 493.813 146.964 493.047 Q147.73 492.257 148.891 492.257 Q150.003 492.257 150.744 492.998 Q151.51 493.714 151.51 494.9 Q151.51 496.061 150.695 496.827 Q149.904 497.568 148.891 497.568 Q147.73 497.568 146.964 496.753 Z" fill="#000000" fill-rule="evenodd" fill-opacity="1" /><path clip-path="url(#clip960)" d="M157.364 489.218 L157.364 487.662 L172.903 463.922 Q173.298 463.305 173.916 463.329 Q174.484 463.329 174.607 463.552 Q174.731 463.774 174.731 464.639 L174.731 487.662 L179.795 487.662 L179.795 489.218 L174.731 489.218 L174.731 493.616 Q174.731 495.073 175.324 495.543 Q175.941 496.012 178.56 496.012 L179.622 496.012 L179.622 497.568 Q177.547 497.42 172.755 497.42 Q167.987 497.42 165.912 497.568 L165.912 496.012 L166.974 496.012 Q169.593 496.012 170.21 495.567 Q170.828 495.098 170.828 493.616 L170.828 489.218 L157.364 489.218 M158.797 487.662 L171.124 487.662 L171.124 468.789 L158.797 487.662 Z" fill="#000000" fill-rule="evenodd" fill-opacity="1" /><path clip-path="url(#clip960)" d="M119.297 328.749 Q119.297 321.313 121.174 317.262 Q123.793 311.234 129.968 311.234 Q131.278 311.234 132.636 311.604 Q134.02 311.95 135.749 313.309 Q137.503 314.668 138.565 316.891 Q140.591 321.189 140.591 328.749 Q140.591 336.135 138.713 340.162 Q135.971 346.041 129.919 346.041 Q127.646 346.041 125.324 344.88 Q123.027 343.719 121.569 340.927 Q119.297 336.752 119.297 328.749 M123.496 328.131 Q123.496 335.764 124.04 338.803 Q124.657 342.088 126.337 343.521 Q128.042 344.929 129.919 344.929 Q131.945 344.929 133.625 343.422 Q135.329 341.891 135.848 338.605 Q136.416 335.369 136.391 328.131 Q136.391 321.091 135.897 318.274 Q135.23 314.989 133.452 313.68 Q131.698 312.346 129.919 312.346 Q129.252 312.346 128.536 312.543 Q127.844 312.741 126.831 313.309 Q125.818 313.877 125.028 315.285 Q124.262 316.693 123.891 318.818 Q123.496 321.56 123.496 328.131 Z" fill="#000000" fill-rule="evenodd" fill-opacity="1" /><path clip-path="url(#clip960)" d="M147.681 344.114 Q146.915 343.299 146.915 342.237 Q146.915 341.174 147.681 340.409 Q148.447 339.618 149.608 339.618 Q150.719 339.618 151.46 340.359 Q152.226 341.076 152.226 342.261 Q152.226 343.422 151.411 344.188 Q150.62 344.929 149.608 344.929 Q148.447 344.929 147.681 344.114 Z" fill="#000000" fill-rule="evenodd" fill-opacity="1" /><path clip-path="url(#clip960)" d="M158.797 328.946 Q158.797 320.992 162.849 316.125 Q166.9 311.234 172.112 311.234 Q175.151 311.234 176.831 312.79 Q178.535 314.322 178.535 316.693 Q178.535 318.003 177.769 318.571 Q177.004 319.139 176.213 319.139 Q175.299 319.139 174.583 318.521 Q173.866 317.904 173.866 316.792 Q173.866 314.519 176.658 314.519 Q175.348 312.494 172.211 312.494 Q171.248 312.494 170.26 312.79 Q169.271 313.062 167.987 314.001 Q166.702 314.939 165.714 316.422 Q164.726 317.904 164.034 320.695 Q163.343 323.487 163.343 327.118 L163.343 328.329 Q165.418 323.314 169.667 323.339 Q173.916 323.339 176.855 326.575 Q179.795 329.811 179.795 334.603 Q179.795 339.519 176.732 342.78 Q173.669 346.041 169.37 346.041 Q167.443 346.041 165.689 345.226 Q163.96 344.435 162.33 342.607 Q160.724 340.779 159.761 337.271 Q158.797 333.763 158.797 328.946 M163.441 333.492 Q163.441 338.457 164.355 340.829 Q164.504 341.224 164.825 341.767 Q165.171 342.311 165.739 343.027 Q166.332 343.719 167.295 344.188 Q168.259 344.633 169.37 344.633 Q172.755 344.633 174.385 341.347 Q175.25 339.519 175.25 334.554 Q175.25 329.49 174.336 327.637 Q172.779 324.5 169.617 324.5 Q167.493 324.5 166.011 325.957 Q164.553 327.415 163.985 329.366 Q163.441 331.318 163.441 333.492 Z" fill="#000000" fill-rule="evenodd" fill-opacity="1" /><path clip-path="url(#clip960)" d="M119.297 176.11 Q119.297 168.674 121.174 164.623 Q123.793 158.595 129.968 158.595 Q131.278 158.595 132.636 158.966 Q134.02 159.311 135.749 160.67 Q137.503 162.029 138.565 164.252 Q140.591 168.55 140.591 176.11 Q140.591 183.496 138.713 187.523 Q135.971 193.402 129.919 193.402 Q127.646 193.402 125.324 192.241 Q123.027 191.08 121.569 188.288 Q119.297 184.114 119.297 176.11 M123.496 175.492 Q123.496 183.125 124.04 186.164 Q124.657 189.449 126.337 190.882 Q128.042 192.29 129.919 192.29 Q131.945 192.29 133.625 190.783 Q135.329 189.252 135.848 185.966 Q136.416 182.73 136.391 175.492 Q136.391 168.452 135.897 165.635 Q135.23 162.35 133.452 161.041 Q131.698 159.707 129.919 159.707 Q129.252 159.707 128.536 159.904 Q127.844 160.102 126.831 160.67 Q125.818 161.238 125.028 162.646 Q124.262 164.054 123.891 166.179 Q123.496 168.921 123.496 175.492 Z" fill="#000000" fill-rule="evenodd" fill-opacity="1" /><path clip-path="url(#clip960)" d="M147.681 191.475 Q146.915 190.66 146.915 189.598 Q146.915 188.535 147.681 187.77 Q148.447 186.979 149.608 186.979 Q150.719 186.979 151.46 187.72 Q152.226 188.437 152.226 189.622 Q152.226 190.783 151.411 191.549 Q150.62 192.29 149.608 192.29 Q148.447 192.29 147.681 191.475 Z" fill="#000000" fill-rule="evenodd" fill-opacity="1" /><path clip-path="url(#clip960)" d="M158.797 184.657 Q158.797 179 166.085 175.344 Q162.947 173.219 162.379 172.602 Q160.156 170.131 160.156 167.044 Q160.156 163.511 162.824 161.065 Q165.517 158.595 169.321 158.595 Q172.952 158.595 175.694 160.695 Q178.436 162.795 178.436 166.129 Q178.436 170.823 172.31 173.985 Q176.361 176.505 177.325 177.567 Q179.795 180.309 179.795 183.792 Q179.795 187.844 176.682 190.635 Q173.57 193.402 169.271 193.402 Q165.072 193.402 161.935 190.956 Q158.797 188.511 158.797 184.657 M161.317 184.657 Q161.317 187.794 163.664 189.894 Q166.035 191.994 169.321 191.994 Q172.508 191.994 174.879 190.166 Q177.275 188.338 177.275 185.62 Q177.275 184.558 176.905 183.644 Q176.559 182.73 175.843 182.014 Q175.151 181.273 174.706 180.951 Q174.286 180.606 173.471 180.037 L167.246 176.11 Q161.317 179.395 161.317 184.657 M162.379 165.067 Q162.379 167.488 164.924 169.168 L171.198 173.219 Q176.213 170.28 176.213 166.129 Q176.213 163.437 174.163 161.658 Q172.112 159.855 169.271 159.855 Q166.48 159.855 164.43 161.337 Q162.379 162.795 162.379 165.067 Z" fill="#000000" fill-rule="evenodd" fill-opacity="1" /><path clip-path="url(#clip960)" d="M44.8355 375.55 Q46.803 375.55 47.9273 376.779 Q49.0165 378.009 49.0165 379.414 Q49.0165 380.75 48.2435 381.452 Q47.4706 382.155 46.4868 382.155 Q45.1517 382.155 43.9923 381.171 Q42.8329 380.187 42.587 378.712 Q41.6735 380.152 41.6735 382.295 Q41.6735 383.701 42.4113 384.93 Q43.1491 386.125 44.0977 386.863 Q45.0463 387.565 46.4166 388.198 Q47.7516 388.795 48.5597 389.041 Q49.3327 389.252 50.1759 389.428 L60.0133 391.887 Q64.6861 393.081 66.3374 393.081 Q68.3751 393.081 69.7453 392.098 Q71.0804 391.114 71.0804 389.146 Q71.0804 388.374 70.8696 387.495 Q70.6237 386.617 69.9913 385.493 Q69.3237 384.333 68.34 383.314 Q67.3211 382.26 65.5995 381.241 Q63.878 380.223 61.6646 379.555 Q60.8916 379.344 60.8916 378.642 Q60.8916 377.763 61.5943 377.763 Q62.1916 377.763 63.4564 378.255 Q64.6861 378.712 66.3022 379.731 Q67.8832 380.714 69.3237 382.014 Q70.7291 383.314 71.7128 385.247 Q72.6965 387.179 72.6965 389.287 Q72.6965 392.309 71.0804 394.311 Q69.4642 396.314 67.2157 397.052 Q67.5319 397.227 67.9535 397.473 Q68.3751 397.719 69.3237 398.457 Q70.2372 399.16 70.9399 399.968 Q71.6074 400.776 72.1344 402.041 Q72.6965 403.27 72.6965 404.605 Q72.6965 406.292 72.2047 407.802 Q71.7128 409.278 70.5885 410.332 Q69.4642 411.386 67.9184 411.386 Q66.1968 411.386 65.0023 410.227 Q63.7726 409.032 63.7726 407.416 Q63.7726 406.397 64.3699 405.589 Q64.9671 404.746 66.2671 404.746 Q67.7076 404.746 68.7967 405.73 Q69.8859 406.713 70.1669 408.119 Q71.0804 406.678 71.0804 404.535 Q71.0804 402.216 69.0426 400.389 Q67.0049 398.562 63.5969 397.684 Q55.4108 395.506 51.7569 394.662 Q48.0678 393.819 46.4868 393.819 Q45.0112 393.819 43.9923 394.206 Q42.9735 394.592 42.5167 395.26 Q42.0249 395.892 41.8492 396.489 Q41.6735 397.052 41.6735 397.684 Q41.6735 398.738 42.0951 399.933 Q42.5167 401.092 43.5005 402.497 Q44.4491 403.867 46.4166 405.167 Q48.384 406.467 51.0893 407.346 Q51.8974 407.521 51.8974 408.294 Q51.8623 409.138 51.1596 409.138 Q50.5623 409.138 49.3327 408.681 Q48.0678 408.189 46.4868 407.205 Q44.9058 406.186 43.5005 404.886 Q42.06 403.551 41.0762 401.619 Q40.0925 399.651 40.0925 397.543 Q40.0925 396.595 40.3033 395.681 Q40.479 394.733 41.006 393.608 Q41.533 392.449 42.6924 391.43 Q43.8518 390.411 45.5382 389.779 Q44.7301 389.357 43.9572 388.795 Q43.1843 388.198 42.2357 387.284 Q41.2519 386.336 40.6898 385.036 Q40.0925 383.701 40.0925 382.225 Q40.0925 380.785 40.479 379.379 Q40.8303 377.974 41.9897 376.779 Q43.114 375.55 44.8355 375.55 Z" fill="#000000" fill-rule="evenodd" fill-opacity="1" /><path clip-path="url(#clip960)" d="M53.9 366.03 Q41.7438 366.03 31.9415 361.498 Q27.8309 359.565 24.3878 356.86 Q20.9447 354.155 19.4339 352.363 Q17.9232 350.571 17.9232 350.079 Q17.9232 349.377 18.6258 349.342 Q18.9772 349.342 19.8555 350.29 Q31.6604 361.884 53.9 361.849 Q76.2099 361.849 87.5581 350.571 Q88.7878 349.342 89.1742 349.342 Q89.8769 349.342 89.8769 350.079 Q89.8769 350.571 88.4364 352.293 Q86.9959 354.014 83.6934 356.684 Q80.3908 359.355 76.3504 361.287 Q66.5482 366.03 53.9 366.03 Z" fill="#000000" fill-rule="evenodd" fill-opacity="1" /><path clip-path="url(#clip960)" d="M41.6735 321.774 Q42.6573 321.774 42.9032 322.23 Q43.114 322.687 43.114 323.952 L43.114 330.698 L64.3347 336.038 Q66.1968 336.459 67.7778 336.459 Q69.5345 336.459 70.3075 335.932 Q71.0804 335.37 71.0804 334.211 Q71.0804 331.927 69.0075 329.468 Q66.9346 326.973 61.8754 324.865 Q61.2078 324.584 61.0673 324.444 Q60.8916 324.268 60.8916 323.811 Q60.8916 322.933 61.5943 322.933 Q61.8402 322.933 62.9645 323.425 Q64.0888 323.882 65.7401 324.901 Q67.3914 325.884 68.9372 327.184 Q70.4831 328.449 71.6074 330.381 Q72.6965 332.314 72.6965 334.387 Q72.6965 337.303 70.8345 339.165 Q68.9724 340.992 66.0563 340.992 Q65.1077 340.992 62.0862 340.254 Q59.0295 339.516 43.114 335.511 L43.114 341.87 Q43.114 342.748 43.0789 343.1 Q43.0437 343.416 42.8681 343.662 Q42.6573 343.873 42.2357 343.873 Q41.5681 343.873 41.287 343.592 Q40.9708 343.311 40.9357 342.959 Q40.8654 342.573 40.8654 341.694 L40.8654 334.949 L29.447 332.138 Q28.3227 331.857 27.6903 331.154 Q27.0228 330.416 26.9525 329.995 Q26.8471 329.573 26.8471 329.257 Q26.8471 328.308 27.3741 327.746 Q27.866 327.184 28.7795 327.184 Q29.2713 327.184 40.8654 330.135 L40.8654 323.811 Q40.8654 323.003 40.9006 322.687 Q40.9357 322.336 41.1114 322.055 Q41.287 321.774 41.6735 321.774 Z" fill="#000000" fill-rule="evenodd" fill-opacity="1" /><path clip-path="url(#clip960)" d="M89.1742 316.141 Q88.8229 316.141 87.9446 315.228 Q76.1396 303.634 53.9 303.634 Q31.5902 303.634 20.3122 314.771 Q19.0123 316.141 18.6258 316.141 Q17.9232 316.141 17.9232 315.439 Q17.9232 314.947 19.3636 313.225 Q20.8041 311.468 24.1067 308.833 Q27.4092 306.163 31.4496 304.196 Q41.2519 299.453 53.9 299.453 Q66.0563 299.453 75.8586 303.985 Q79.9692 305.917 83.4123 308.623 Q86.8554 311.328 88.3662 313.12 Q89.8769 314.912 89.8769 315.439 Q89.8769 316.141 89.1742 316.141 Z" fill="#000000" fill-rule="evenodd" fill-opacity="1" /><polyline clip-path="url(#clip963)" style="stroke:#000000; stroke-linecap:butt; stroke-linejoin:round; stroke-width:4; stroke-opacity:1; fill:none" points="
  276.275,542.125 282.995,158.883 289.715,361.852 296.435,73.1327 303.155,606.45 309.875,267.409 316.595,156.711 323.315,367.147 330.035,71.0623 336.755,613.257 
  343.475,281.29 350.195,138.888 356.915,412.374 363.635,64.697 370.355,634.448 377.075,327.447 383.795,93.3489 390.515,542.223 397.235,159.017 403.955,361.526 
  410.675,73.2692 417.395,606.003 424.115,266.513 430.835,157.927 437.555,364.175 444.275,72.19 450.995,609.544 457.715,273.661 464.435,148.447 471.155,387.727 
  477.875,65.6537 484.595,631.237 491.315,320.168 498.035,99.1289 504.755,524.604 511.475,136.425 518.195,418.872 524.915,65.4471 531.635,631.93 538.355,321.729 
  545.075,97.845 551.795,528.489 558.515,141.142 565.235,406.479 571.955,64.3783 578.675,635.52 585.395,329.899 592.115,91.5202 598.835,547.866 605.555,166.903 
  612.275,342.698 618.995,82.9408 625.715,574.784 632.435,208.861 639.155,252.887 645.875,177.399 652.595,318.597 659.315,100.446 666.035,520.636 672.755,131.762 
  679.475,431.338 686.195,68.0571 692.915,623.212 699.635,302.419 706.355,115.423 713.075,476.716 719.795,90.5586 726.515,550.847 733.235,171.196 739.955,332.708 
  746.675,89.4979 753.395,554.145 760.115,176.049 766.835,321.635 773.555,97.9215 780.275,528.257 786.995,140.856 793.715,407.225 800.435,64.3996 807.155,635.448 
  813.875,329.735 820.595,91.6408 827.315,547.493 834.035,166.372 840.755,343.947 847.475,82.1905 854.195,577.173 860.915,212.931 867.635,245.103 874.355,189.349 
  881.075,292.484 887.795,125.905 894.515,447.299 901.235,73.646 907.955,604.77 914.675,264.052 921.395,161.308 928.115,355.992 934.835,75.7475 941.555,597.915 
  948.275,250.65 954.995,180.772 961.715,311.083 968.435,107.079 975.155,500.91 981.875,110.892 988.595,489.769 995.315,100.809 1002.04,519.545 1008.76,130.507 
  1015.48,434.728 1022.2,69.0332 1028.92,619.968 1035.64,295.427 1042.36,122.698 1049.08,456.185 1055.8,77.8511 1062.52,591.098 1069.24,237.783 1075.96,201.134 
  1082.68,268.118 1089.4,155.755 1096.12,369.495 1102.84,70.2334 1109.56,615.994 1116.28,287.001 1123,132.11 1129.72,430.4 1136.44,67.8072 1143.16,624.043 
  1149.88,304.229 1156.6,113.619 1163.32,481.889 1170.04,94.4189 1176.76,538.936 1183.48,154.569 1190.2,372.415 1196.92,69.2783 1203.64,619.156 1210.36,293.692 
  1217.08,124.579 1223.8,450.961 1230.52,75.2842 1237.24,599.423 1243.96,253.557 1250.68,176.399 1257.4,320.847 1264.12,98.5678 1270.84,526.3 1277.56,138.466 
  1284.28,413.483 1291,64.7955 1297.72,634.117 1304.44,326.692 1311.16,93.9241 1317.88,540.455 1324.6,156.611 1331.32,367.392 1338.04,70.9733 1344.76,613.55 
  1351.48,281.899 1358.2,138.15 1364.92,414.315 1371.64,64.8773 1378.36,633.842 1385.08,326.066 1391.8,94.4052 1398.52,538.978 1405.24,154.626 1411.96,372.277 
  1418.68,69.3217 1425.4,619.012 1432.12,293.385 1438.84,124.914 1445.56,450.033 1452.28,74.8569 1459,600.815 1465.72,256.263 1472.44,172.404 1479.16,329.93 
  1485.88,91.4975 1492.6,547.936 1499.32,167.004 1506.04,342.463 1512.76,83.0838 1519.48,574.329 1526.2,208.093 1532.92,254.375 1539.64,175.183 1546.36,323.594 
  1553.08,96.3429 1559.8,533.055 1566.52,146.878 1573.24,391.71 1579.96,65.0914 1586.68,633.124 1593.4,324.432 1600.12,95.6798 1606.84,535.078 1613.56,149.485 
  1620.28,385.105 1627,66.1095 1633.72,629.711 1640.44,316.743 1647.16,102.03 1653.88,515.885 1660.6,126.383 1667.32,445.985 1674.04,73.0908 1680.76,606.588 
  1687.48,267.684 1694.2,156.339 1700.92,368.06 1707.64,70.7337 1714.36,614.341 1721.08,283.543 1727.8,136.175 1734.52,419.535 1741.24,65.5472 1747.96,631.594 
  1754.68,320.972 1761.4,98.4647 1768.12,526.611 1774.84,138.844 1781.56,412.489 1788.28,64.7067 1795,634.416 1801.72,327.373 1808.44,93.4052 1815.16,542.05 
  1821.88,158.78 1828.6,362.101 1835.32,73.029 1842.04,606.79 1848.76,268.091 1855.48,155.79 1862.2,369.407 1868.92,70.2634 1875.64,615.895 1882.36,286.793 
  1889.08,132.351 1895.8,429.751 1902.52,67.6395 1909.24,624.602 1915.96,305.448 1922.68,112.421 1929.4,485.34 1936.12,97.1412 1942.84,530.625 1949.56,143.801 
  1956.28,399.594 1963,64.4419 1969.72,635.306 1976.44,329.409 1983.16,91.881 1989.88,546.75 1996.6,165.319 2003.32,346.432 2010.04,80.7436 2016.76,581.795 
  2023.48,220.968 2030.2,230.215 2036.92,213.876 2043.64,243.321 2050.36,192.169 2057.08,286.528 2063.8,132.659 2070.52,428.922 2077.24,67.4312 2083.96,625.296 
  2090.68,306.968 2097.4,110.95 2104.12,489.601 2110.84,100.666 2117.56,519.975 2124.28,131 2131,433.396 2137.72,68.6361 2144.44,621.287 2151.16,298.257 
  2157.88,119.696 2164.6,464.594 2171.32,82.551 2178.04,576.025 2184.76,210.968 2191.48,248.838 2198.2,183.54 2204.92,305.001 2211.64,112.858 2218.36,484.079 
  2225.08,96.1325 2231.8,533.696 2238.52,147.7 2245.24,389.62 2251.96,65.3668 2258.68,632.199 2265.4,322.338 2272.12,97.3508 2278.84,529.989 2285.56,143.003 
  2292.28,401.651 
  "/>
<path clip-path="url(#clip960)" d="
M215.795 1418.86 L2352.76 1418.86 L2352.76 813.45 L215.795 813.45  Z
  " fill="#ffffff" fill-rule="evenodd" fill-opacity="1"/>
<polyline clip-path="url(#clip962)" style="stroke:#000000; stroke-linecap:butt; stroke-linejoin:round; stroke-width:2; stroke-opacity:0.1; fill:none" points="
  276.275,1418.86 276.275,813.45 
  "/>
<polyline clip-path="url(#clip962)" style="stroke:#000000; stroke-linecap:butt; stroke-linejoin:round; stroke-width:2; stroke-opacity:0.1; fill:none" points="
  948.275,1418.86 948.275,813.45 
  "/>
<polyline clip-path="url(#clip962)" style="stroke:#000000; stroke-linecap:butt; stroke-linejoin:round; stroke-width:2; stroke-opacity:0.1; fill:none" points="
  1620.28,1418.86 1620.28,813.45 
  "/>
<polyline clip-path="url(#clip962)" style="stroke:#000000; stroke-linecap:butt; stroke-linejoin:round; stroke-width:2; stroke-opacity:0.1; fill:none" points="
  2292.28,1418.86 2292.28,813.45 
  "/>
<polyline clip-path="url(#clip960)" style="stroke:#000000; stroke-linecap:butt; stroke-linejoin:round; stroke-width:4; stroke-opacity:1; fill:none" points="
  215.795,1418.86 2352.76,1418.86 
  "/>
<polyline clip-path="url(#clip960)" style="stroke:#000000; stroke-linecap:butt; stroke-linejoin:round; stroke-width:4; stroke-opacity:1; fill:none" points="
  276.275,1418.86 276.275,1399.96 
  "/>
<polyline clip-path="url(#clip960)" style="stroke:#000000; stroke-linecap:butt; stroke-linejoin:round; stroke-width:4; stroke-opacity:1; fill:none" points="
  948.275,1418.86 948.275,1399.96 
  "/>
<polyline clip-path="url(#clip960)" style="stroke:#000000; stroke-linecap:butt; stroke-linejoin:round; stroke-width:4; stroke-opacity:1; fill:none" points="
  1620.28,1418.86 1620.28,1399.96 
  "/>
<polyline clip-path="url(#clip960)" style="stroke:#000000; stroke-linecap:butt; stroke-linejoin:round; stroke-width:4; stroke-opacity:1; fill:none" points="
  2292.28,1418.86 2292.28,1399.96 
  "/>
<path clip-path="url(#clip960)" d="M265.628 1465.08 Q265.628 1457.64 267.505 1453.59 Q270.124 1447.56 276.3 1447.56 Q277.609 1447.56 278.968 1447.94 Q280.351 1448.28 282.08 1449.64 Q283.834 1451 284.897 1453.22 Q286.922 1457.52 286.922 1465.08 Q286.922 1472.47 285.045 1476.49 Q282.303 1482.37 276.25 1482.37 Q273.978 1482.37 271.656 1481.21 Q269.358 1480.05 267.901 1477.26 Q265.628 1473.08 265.628 1465.08 M269.828 1464.46 Q269.828 1472.09 270.371 1475.13 Q270.989 1478.42 272.668 1479.85 Q274.373 1481.26 276.25 1481.26 Q278.276 1481.26 279.956 1479.75 Q281.66 1478.22 282.179 1474.94 Q282.747 1471.7 282.723 1464.46 Q282.723 1457.42 282.229 1454.6 Q281.562 1451.32 279.783 1450.01 Q278.029 1448.68 276.25 1448.68 Q275.583 1448.68 274.867 1448.87 Q274.175 1449.07 273.162 1449.64 Q272.15 1450.21 271.359 1451.62 Q270.593 1453.02 270.223 1455.15 Q269.828 1457.89 269.828 1464.46 Z" fill="#000000" fill-rule="evenodd" fill-opacity="1" /><path clip-path="url(#clip960)" d="M913.592 1452.38 L913.592 1450.8 Q919.669 1450.8 922.806 1447.56 Q923.671 1447.56 923.819 1447.76 Q923.967 1447.96 923.967 1448.87 L923.967 1477.26 Q923.967 1478.76 924.708 1479.23 Q925.449 1479.7 928.686 1479.7 L930.291 1479.7 L930.291 1481.26 Q928.513 1481.11 922.09 1481.11 Q915.667 1481.11 913.913 1481.26 L913.913 1479.7 L915.519 1479.7 Q918.705 1479.7 919.471 1479.26 Q920.237 1478.79 920.237 1477.26 L920.237 1451.05 Q917.594 1452.38 913.592 1452.38 Z" fill="#000000" fill-rule="evenodd" fill-opacity="1" /><path clip-path="url(#clip960)" d="M936.368 1465.08 Q936.368 1457.64 938.246 1453.59 Q940.864 1447.56 947.04 1447.56 Q948.349 1447.56 949.708 1447.94 Q951.092 1448.28 952.821 1449.64 Q954.575 1451 955.637 1453.22 Q957.663 1457.52 957.663 1465.08 Q957.663 1472.47 955.785 1476.49 Q953.043 1482.37 946.991 1482.37 Q944.718 1482.37 942.396 1481.21 Q940.099 1480.05 938.641 1477.26 Q936.368 1473.08 936.368 1465.08 M940.568 1464.46 Q940.568 1472.09 941.111 1475.13 Q941.729 1478.42 943.409 1479.85 Q945.113 1481.26 946.991 1481.26 Q949.016 1481.26 950.696 1479.75 Q952.401 1478.22 952.92 1474.94 Q953.488 1471.7 953.463 1464.46 Q953.463 1457.42 952.969 1454.6 Q952.302 1451.32 950.523 1450.01 Q948.769 1448.68 946.991 1448.68 Q946.324 1448.68 945.607 1448.87 Q944.916 1449.07 943.903 1449.64 Q942.89 1450.21 942.1 1451.62 Q941.334 1453.02 940.963 1455.15 Q940.568 1457.89 940.568 1464.46 Z" fill="#000000" fill-rule="evenodd" fill-opacity="1" /><path clip-path="url(#clip960)" d="M961.665 1465.08 Q961.665 1457.64 963.542 1453.59 Q966.161 1447.56 972.336 1447.56 Q973.646 1447.56 975.004 1447.94 Q976.388 1448.28 978.117 1449.64 Q979.871 1451 980.933 1453.22 Q982.959 1457.52 982.959 1465.08 Q982.959 1472.47 981.081 1476.49 Q978.339 1482.37 972.287 1482.37 Q970.014 1482.37 967.692 1481.21 Q965.395 1480.05 963.937 1477.26 Q961.665 1473.08 961.665 1465.08 M965.864 1464.46 Q965.864 1472.09 966.408 1475.13 Q967.025 1478.42 968.705 1479.85 Q970.41 1481.26 972.287 1481.26 Q974.313 1481.26 975.993 1479.75 Q977.697 1478.22 978.216 1474.94 Q978.784 1471.7 978.759 1464.46 Q978.759 1457.42 978.265 1454.6 Q977.598 1451.32 975.82 1450.01 Q974.066 1448.68 972.287 1448.68 Q971.62 1448.68 970.904 1448.87 Q970.212 1449.07 969.199 1449.64 Q968.186 1450.21 967.396 1451.62 Q966.63 1453.02 966.259 1455.15 Q965.864 1457.89 965.864 1464.46 Z" fill="#000000" fill-rule="evenodd" fill-opacity="1" /><path clip-path="url(#clip960)" d="M1584.6 1481.26 Q1584.6 1480.35 1584.68 1480.07 Q1584.78 1479.8 1585.17 1479.38 L1594.88 1468.56 Q1600.19 1462.58 1600.19 1457.37 Q1600.19 1453.99 1598.41 1451.57 Q1596.66 1449.15 1593.42 1449.15 Q1591.2 1449.15 1589.32 1450.5 Q1587.44 1451.86 1586.58 1454.28 Q1586.73 1454.23 1587.25 1454.23 Q1588.51 1454.23 1589.2 1455.02 Q1589.92 1455.82 1589.92 1456.88 Q1589.92 1458.24 1589.03 1458.9 Q1588.16 1459.55 1587.3 1459.55 Q1586.95 1459.55 1586.48 1459.47 Q1586.04 1459.4 1585.32 1458.71 Q1584.6 1457.99 1584.6 1456.73 Q1584.6 1453.2 1587.27 1450.38 Q1589.96 1447.56 1594.07 1447.56 Q1598.71 1447.56 1601.75 1450.33 Q1604.81 1453.07 1604.81 1457.37 Q1604.81 1458.88 1604.34 1460.26 Q1603.9 1461.62 1603.28 1462.68 Q1602.69 1463.75 1601.06 1465.45 Q1599.43 1467.15 1598.12 1468.36 Q1596.81 1469.58 1593.87 1472.14 L1588.51 1477.36 L1597.62 1477.36 Q1602.07 1477.36 1602.42 1476.96 Q1602.91 1476.25 1603.53 1472.47 L1604.81 1472.47 L1603.38 1481.26 L1584.6 1481.26 Z" fill="#000000" fill-rule="evenodd" fill-opacity="1" /><path clip-path="url(#clip960)" d="M1609.36 1465.08 Q1609.36 1457.64 1611.23 1453.59 Q1613.85 1447.56 1620.03 1447.56 Q1621.34 1447.56 1622.7 1447.94 Q1624.08 1448.28 1625.81 1449.64 Q1627.56 1451 1628.63 1453.22 Q1630.65 1457.52 1630.65 1465.08 Q1630.65 1472.47 1628.77 1476.49 Q1626.03 1482.37 1619.98 1482.37 Q1617.71 1482.37 1615.38 1481.21 Q1613.09 1480.05 1611.63 1477.26 Q1609.36 1473.08 1609.36 1465.08 M1613.56 1464.46 Q1613.56 1472.09 1614.1 1475.13 Q1614.72 1478.42 1616.4 1479.85 Q1618.1 1481.26 1619.98 1481.26 Q1622 1481.26 1623.68 1479.75 Q1625.39 1478.22 1625.91 1474.94 Q1626.48 1471.7 1626.45 1464.46 Q1626.45 1457.42 1625.96 1454.6 Q1625.29 1451.32 1623.51 1450.01 Q1621.76 1448.68 1619.98 1448.68 Q1619.31 1448.68 1618.6 1448.87 Q1617.9 1449.07 1616.89 1449.64 Q1615.88 1450.21 1615.09 1451.62 Q1614.32 1453.02 1613.95 1455.15 Q1613.56 1457.89 1613.56 1464.46 Z" fill="#000000" fill-rule="evenodd" fill-opacity="1" /><path clip-path="url(#clip960)" d="M1634.65 1465.08 Q1634.65 1457.64 1636.53 1453.59 Q1639.15 1447.56 1645.32 1447.56 Q1646.63 1447.56 1647.99 1447.94 Q1649.38 1448.28 1651.11 1449.64 Q1652.86 1451 1653.92 1453.22 Q1655.95 1457.52 1655.95 1465.08 Q1655.95 1472.47 1654.07 1476.49 Q1651.33 1482.37 1645.28 1482.37 Q1643 1482.37 1640.68 1481.21 Q1638.38 1480.05 1636.93 1477.26 Q1634.65 1473.08 1634.65 1465.08 M1638.85 1464.46 Q1638.85 1472.09 1639.4 1475.13 Q1640.01 1478.42 1641.69 1479.85 Q1643.4 1481.26 1645.28 1481.26 Q1647.3 1481.26 1648.98 1479.75 Q1650.69 1478.22 1651.2 1474.94 Q1651.77 1471.7 1651.75 1464.46 Q1651.75 1457.42 1651.25 1454.6 Q1650.59 1451.32 1648.81 1450.01 Q1647.05 1448.68 1645.28 1448.68 Q1644.61 1448.68 1643.89 1448.87 Q1643.2 1449.07 1642.19 1449.64 Q1641.17 1450.21 1640.38 1451.62 Q1639.62 1453.02 1639.25 1455.15 Q1638.85 1457.89 1638.85 1464.46 Z" fill="#000000" fill-rule="evenodd" fill-opacity="1" /><path clip-path="url(#clip960)" d="M2256.41 1474.44 Q2256.41 1472.93 2257.27 1472.22 Q2258.14 1471.5 2259.25 1471.5 Q2260.41 1471.5 2261.22 1472.27 Q2262.06 1473.01 2262.06 1474.32 Q2262.06 1475.73 2261.08 1476.52 Q2260.11 1477.31 2258.73 1477.11 Q2259.94 1479.14 2262.16 1480.05 Q2264.41 1480.96 2266.49 1480.96 Q2268.66 1480.96 2270.41 1479.09 Q2272.19 1477.21 2272.19 1472.61 Q2272.19 1468.71 2270.66 1466.46 Q2269.15 1464.21 2266.16 1464.21 L2263.94 1464.21 Q2263.18 1464.21 2262.95 1464.14 Q2262.73 1464.07 2262.73 1463.65 Q2262.73 1463.15 2263.5 1463.05 Q2264.26 1463.05 2265.47 1462.91 Q2268.41 1462.81 2269.97 1460.26 Q2271.38 1457.89 2271.38 1454.51 Q2271.38 1451.42 2269.89 1450.13 Q2268.44 1448.82 2266.53 1448.82 Q2264.76 1448.82 2262.8 1449.57 Q2260.85 1450.31 2259.79 1451.96 Q2262.93 1451.96 2262.93 1454.51 Q2262.93 1455.62 2262.21 1456.36 Q2261.52 1457.08 2260.36 1457.08 Q2259.25 1457.08 2258.51 1456.38 Q2257.77 1455.67 2257.77 1454.46 Q2257.77 1451.57 2260.33 1449.57 Q2262.93 1447.56 2266.73 1447.56 Q2270.49 1447.56 2273.25 1449.54 Q2276.05 1451.52 2276.05 1454.56 Q2276.05 1457.54 2274.07 1459.99 Q2272.09 1462.44 2268.96 1463.45 Q2272.81 1464.21 2275.11 1466.83 Q2277.4 1469.43 2277.4 1472.61 Q2277.4 1476.57 2274.29 1479.48 Q2271.18 1482.37 2266.63 1482.37 Q2262.43 1482.37 2259.42 1480.1 Q2256.41 1477.83 2256.41 1474.44 Z" fill="#000000" fill-rule="evenodd" fill-opacity="1" /><path clip-path="url(#clip960)" d="M2281.55 1465.08 Q2281.55 1457.64 2283.43 1453.59 Q2286.05 1447.56 2292.23 1447.56 Q2293.54 1447.56 2294.89 1447.94 Q2296.28 1448.28 2298.01 1449.64 Q2299.76 1451 2300.82 1453.22 Q2302.85 1457.52 2302.85 1465.08 Q2302.85 1472.47 2300.97 1476.49 Q2298.23 1482.37 2292.18 1482.37 Q2289.9 1482.37 2287.58 1481.21 Q2285.28 1480.05 2283.83 1477.26 Q2281.55 1473.08 2281.55 1465.08 M2285.75 1464.46 Q2285.75 1472.09 2286.3 1475.13 Q2286.92 1478.42 2288.6 1479.85 Q2290.3 1481.26 2292.18 1481.26 Q2294.2 1481.26 2295.88 1479.75 Q2297.59 1478.22 2298.11 1474.94 Q2298.67 1471.7 2298.65 1464.46 Q2298.65 1457.42 2298.16 1454.6 Q2297.49 1451.32 2295.71 1450.01 Q2293.96 1448.68 2292.18 1448.68 Q2291.51 1448.68 2290.79 1448.87 Q2290.1 1449.07 2289.09 1449.64 Q2288.08 1450.21 2287.29 1451.62 Q2286.52 1453.02 2286.15 1455.15 Q2285.75 1457.89 2285.75 1464.46 Z" fill="#000000" fill-rule="evenodd" fill-opacity="1" /><path clip-path="url(#clip960)" d="M2306.85 1465.08 Q2306.85 1457.64 2308.73 1453.59 Q2311.35 1447.56 2317.52 1447.56 Q2318.83 1447.56 2320.19 1447.94 Q2321.57 1448.28 2323.3 1449.64 Q2325.06 1451 2326.12 1453.22 Q2328.15 1457.52 2328.15 1465.08 Q2328.15 1472.47 2326.27 1476.49 Q2323.53 1482.37 2317.47 1482.37 Q2315.2 1482.37 2312.88 1481.21 Q2310.58 1480.05 2309.12 1477.26 Q2306.85 1473.08 2306.85 1465.08 M2311.05 1464.46 Q2311.05 1472.09 2311.59 1475.13 Q2312.21 1478.42 2313.89 1479.85 Q2315.6 1481.26 2317.47 1481.26 Q2319.5 1481.26 2321.18 1479.75 Q2322.88 1478.22 2323.4 1474.94 Q2323.97 1471.7 2323.95 1464.46 Q2323.95 1457.42 2323.45 1454.6 Q2322.78 1451.32 2321.01 1450.01 Q2319.25 1448.68 2317.47 1448.68 Q2316.81 1448.68 2316.09 1448.87 Q2315.4 1449.07 2314.39 1449.64 Q2313.37 1450.21 2312.58 1451.62 Q2311.82 1453.02 2311.45 1455.15 Q2311.05 1457.89 2311.05 1464.46 Z" fill="#000000" fill-rule="evenodd" fill-opacity="1" /><path clip-path="url(#clip960)" d="M1293.52 1547.64 Q1293.52 1548.62 1293.06 1548.87 Q1292.6 1549.08 1291.34 1549.08 L1284.59 1549.08 L1279.25 1570.3 Q1278.83 1572.16 1278.83 1573.74 Q1278.83 1575.5 1279.36 1576.27 Q1279.92 1577.05 1281.08 1577.05 Q1283.36 1577.05 1285.82 1574.97 Q1288.32 1572.9 1290.43 1567.84 Q1290.71 1567.17 1290.85 1567.03 Q1291.02 1566.86 1291.48 1566.86 Q1292.36 1566.86 1292.36 1567.56 Q1292.36 1567.81 1291.87 1568.93 Q1291.41 1570.05 1290.39 1571.71 Q1289.41 1573.36 1288.11 1574.9 Q1286.84 1576.45 1284.91 1577.57 Q1282.98 1578.66 1280.9 1578.66 Q1277.99 1578.66 1276.13 1576.8 Q1274.3 1574.94 1274.3 1572.02 Q1274.3 1571.07 1275.04 1568.05 Q1275.77 1565 1279.78 1549.08 L1273.42 1549.08 Q1272.54 1549.08 1272.19 1549.04 Q1271.87 1549.01 1271.63 1548.83 Q1271.42 1548.62 1271.42 1548.2 Q1271.42 1547.53 1271.7 1547.25 Q1271.98 1546.94 1272.33 1546.9 Q1272.72 1546.83 1273.6 1546.83 L1280.34 1546.83 L1283.15 1535.41 Q1283.43 1534.29 1284.14 1533.66 Q1284.87 1532.99 1285.3 1532.92 Q1285.72 1532.81 1286.03 1532.81 Q1286.98 1532.81 1287.54 1533.34 Q1288.11 1533.83 1288.11 1534.75 Q1288.11 1535.24 1285.16 1546.83 L1291.48 1546.83 Q1292.29 1546.83 1292.6 1546.87 Q1292.95 1546.9 1293.24 1547.08 Q1293.52 1547.25 1293.52 1547.64 Z" fill="#000000" fill-rule="evenodd" fill-opacity="1" /><polyline clip-path="url(#clip962)" style="stroke:#000000; stroke-linecap:butt; stroke-linejoin:round; stroke-width:2; stroke-opacity:0.1; fill:none" points="
  215.795,1399.13 2352.76,1399.13 
  "/>
<polyline clip-path="url(#clip962)" style="stroke:#000000; stroke-linecap:butt; stroke-linejoin:round; stroke-width:2; stroke-opacity:0.1; fill:none" points="
  215.795,1246.49 2352.76,1246.49 
  "/>
<polyline clip-path="url(#clip962)" style="stroke:#000000; stroke-linecap:butt; stroke-linejoin:round; stroke-width:2; stroke-opacity:0.1; fill:none" points="
  215.795,1093.86 2352.76,1093.86 
  "/>
<polyline clip-path="url(#clip962)" style="stroke:#000000; stroke-linecap:butt; stroke-linejoin:round; stroke-width:2; stroke-opacity:0.1; fill:none" points="
  215.795,941.216 2352.76,941.216 
  "/>
<polyline clip-path="url(#clip960)" style="stroke:#000000; stroke-linecap:butt; stroke-linejoin:round; stroke-width:4; stroke-opacity:1; fill:none" points="
  215.795,1418.86 215.795,813.45 
  "/>
<polyline clip-path="url(#clip960)" style="stroke:#000000; stroke-linecap:butt; stroke-linejoin:round; stroke-width:4; stroke-opacity:1; fill:none" points="
  215.795,1399.13 234.693,1399.13 
  "/>
<polyline clip-path="url(#clip960)" style="stroke:#000000; stroke-linecap:butt; stroke-linejoin:round; stroke-width:4; stroke-opacity:1; fill:none" points="
  215.795,1246.49 234.693,1246.49 
  "/>
<polyline clip-path="url(#clip960)" style="stroke:#000000; stroke-linecap:butt; stroke-linejoin:round; stroke-width:4; stroke-opacity:1; fill:none" points="
  215.795,1093.86 234.693,1093.86 
  "/>
<polyline clip-path="url(#clip960)" style="stroke:#000000; stroke-linecap:butt; stroke-linejoin:round; stroke-width:4; stroke-opacity:1; fill:none" points="
  215.795,941.216 234.693,941.216 
  "/>
<path clip-path="url(#clip960)" d="M119.692 1400.23 Q119.692 1392.8 121.569 1388.75 Q124.188 1382.72 130.364 1382.72 Q131.673 1382.72 133.032 1383.09 Q134.415 1383.43 136.144 1384.79 Q137.898 1386.15 138.96 1388.37 Q140.986 1392.67 140.986 1400.23 Q140.986 1407.62 139.109 1411.65 Q136.367 1417.52 130.314 1417.52 Q128.042 1417.52 125.719 1416.36 Q123.422 1415.2 121.965 1412.41 Q119.692 1408.24 119.692 1400.23 M123.891 1399.61 Q123.891 1407.25 124.435 1410.29 Q125.052 1413.57 126.732 1415.01 Q128.437 1416.41 130.314 1416.41 Q132.34 1416.41 134.02 1414.91 Q135.724 1413.37 136.243 1410.09 Q136.811 1406.85 136.787 1399.61 Q136.787 1392.57 136.292 1389.76 Q135.625 1386.47 133.847 1385.16 Q132.093 1383.83 130.314 1383.83 Q129.647 1383.83 128.931 1384.03 Q128.239 1384.22 127.226 1384.79 Q126.213 1385.36 125.423 1386.77 Q124.657 1388.18 124.287 1390.3 Q123.891 1393.04 123.891 1399.61 Z" fill="#000000" fill-rule="evenodd" fill-opacity="1" /><path clip-path="url(#clip960)" d="M148.076 1415.6 Q147.31 1414.78 147.31 1413.72 Q147.31 1412.66 148.076 1411.89 Q148.842 1411.1 150.003 1411.1 Q151.114 1411.1 151.856 1411.84 Q152.621 1412.56 152.621 1413.75 Q152.621 1414.91 151.806 1415.67 Q151.016 1416.41 150.003 1416.41 Q148.842 1416.41 148.076 1415.6 Z" fill="#000000" fill-rule="evenodd" fill-opacity="1" /><path clip-path="url(#clip960)" d="M159.588 1416.41 Q159.588 1415.5 159.662 1415.23 Q159.761 1414.96 160.156 1414.54 L169.864 1403.72 Q175.176 1397.74 175.176 1392.52 Q175.176 1389.14 173.397 1386.72 Q171.643 1384.3 168.407 1384.3 Q166.184 1384.3 164.306 1385.66 Q162.429 1387.02 161.564 1389.44 Q161.712 1389.39 162.231 1389.39 Q163.491 1389.39 164.183 1390.18 Q164.899 1390.97 164.899 1392.03 Q164.899 1393.39 164.01 1394.06 Q163.145 1394.7 162.28 1394.7 Q161.935 1394.7 161.465 1394.62 Q161.021 1394.55 160.304 1393.86 Q159.588 1393.14 159.588 1391.88 Q159.588 1388.35 162.256 1385.53 Q164.948 1382.72 169.049 1382.72 Q173.693 1382.72 176.732 1385.48 Q179.795 1388.23 179.795 1392.52 Q179.795 1394.03 179.326 1395.42 Q178.881 1396.77 178.263 1397.84 Q177.671 1398.9 176.04 1400.6 Q174.41 1402.31 173.1 1403.52 Q171.791 1404.73 168.851 1407.3 L163.491 1412.51 L172.606 1412.51 Q177.053 1412.51 177.399 1412.11 Q177.893 1411.4 178.511 1407.62 L179.795 1407.62 L178.362 1416.41 L159.588 1416.41 Z" fill="#000000" fill-rule="evenodd" fill-opacity="1" /><path clip-path="url(#clip960)" d="M118.58 1247.59 Q118.58 1240.16 120.458 1236.11 Q123.076 1230.08 129.252 1230.08 Q130.561 1230.08 131.92 1230.45 Q133.303 1230.8 135.033 1232.15 Q136.787 1233.51 137.849 1235.74 Q139.874 1240.03 139.874 1247.59 Q139.874 1254.98 137.997 1259.01 Q135.255 1264.89 129.203 1264.89 Q126.93 1264.89 124.608 1263.72 Q122.31 1262.56 120.853 1259.77 Q118.58 1255.6 118.58 1247.59 M122.78 1246.98 Q122.78 1254.61 123.323 1257.65 Q123.941 1260.93 125.621 1262.37 Q127.325 1263.77 129.203 1263.77 Q131.228 1263.77 132.908 1262.27 Q134.613 1260.74 135.131 1257.45 Q135.7 1254.21 135.675 1246.98 Q135.675 1239.94 135.181 1237.12 Q134.514 1233.83 132.735 1232.52 Q130.981 1231.19 129.203 1231.19 Q128.536 1231.19 127.819 1231.39 Q127.128 1231.59 126.115 1232.15 Q125.102 1232.72 124.311 1234.13 Q123.546 1235.54 123.175 1237.66 Q122.78 1240.4 122.78 1246.98 Z" fill="#000000" fill-rule="evenodd" fill-opacity="1" /><path clip-path="url(#clip960)" d="M146.964 1262.96 Q146.199 1262.14 146.199 1261.08 Q146.199 1260.02 146.964 1259.25 Q147.73 1258.46 148.891 1258.46 Q150.003 1258.46 150.744 1259.2 Q151.51 1259.92 151.51 1261.11 Q151.51 1262.27 150.695 1263.03 Q149.904 1263.77 148.891 1263.77 Q147.73 1263.77 146.964 1262.96 Z" fill="#000000" fill-rule="evenodd" fill-opacity="1" /><path clip-path="url(#clip960)" d="M157.364 1255.42 L157.364 1253.87 L172.903 1230.13 Q173.298 1229.51 173.916 1229.54 Q174.484 1229.54 174.607 1229.76 Q174.731 1229.98 174.731 1230.84 L174.731 1253.87 L179.795 1253.87 L179.795 1255.42 L174.731 1255.42 L174.731 1259.82 Q174.731 1261.28 175.324 1261.75 Q175.941 1262.22 178.56 1262.22 L179.622 1262.22 L179.622 1263.77 Q177.547 1263.63 172.755 1263.63 Q167.987 1263.63 165.912 1263.77 L165.912 1262.22 L166.974 1262.22 Q169.593 1262.22 170.21 1261.77 Q170.828 1261.3 170.828 1259.82 L170.828 1255.42 L157.364 1255.42 M158.797 1253.87 L171.124 1253.87 L171.124 1234.99 L158.797 1253.87 Z" fill="#000000" fill-rule="evenodd" fill-opacity="1" /><path clip-path="url(#clip960)" d="M119.297 1094.95 Q119.297 1087.52 121.174 1083.47 Q123.793 1077.44 129.968 1077.44 Q131.278 1077.44 132.636 1077.81 Q134.02 1078.16 135.749 1079.51 Q137.503 1080.87 138.565 1083.1 Q140.591 1087.4 140.591 1094.95 Q140.591 1102.34 138.713 1106.37 Q135.971 1112.25 129.919 1112.25 Q127.646 1112.25 125.324 1111.09 Q123.027 1109.92 121.569 1107.13 Q119.297 1102.96 119.297 1094.95 M123.496 1094.34 Q123.496 1101.97 124.04 1105.01 Q124.657 1108.29 126.337 1109.73 Q128.042 1111.14 129.919 1111.14 Q131.945 1111.14 133.625 1109.63 Q135.329 1108.1 135.848 1104.81 Q136.416 1101.58 136.391 1094.34 Q136.391 1087.3 135.897 1084.48 Q135.23 1081.19 133.452 1079.89 Q131.698 1078.55 129.919 1078.55 Q129.252 1078.55 128.536 1078.75 Q127.844 1078.95 126.831 1079.51 Q125.818 1080.08 125.028 1081.49 Q124.262 1082.9 123.891 1085.02 Q123.496 1087.77 123.496 1094.34 Z" fill="#000000" fill-rule="evenodd" fill-opacity="1" /><path clip-path="url(#clip960)" d="M147.681 1110.32 Q146.915 1109.5 146.915 1108.44 Q146.915 1107.38 147.681 1106.61 Q148.447 1105.82 149.608 1105.82 Q150.719 1105.82 151.46 1106.57 Q152.226 1107.28 152.226 1108.47 Q152.226 1109.63 151.411 1110.39 Q150.62 1111.14 149.608 1111.14 Q148.447 1111.14 147.681 1110.32 Z" fill="#000000" fill-rule="evenodd" fill-opacity="1" /><path clip-path="url(#clip960)" d="M158.797 1095.15 Q158.797 1087.2 162.849 1082.33 Q166.9 1077.44 172.112 1077.44 Q175.151 1077.44 176.831 1079 Q178.535 1080.53 178.535 1082.9 Q178.535 1084.21 177.769 1084.78 Q177.004 1085.34 176.213 1085.34 Q175.299 1085.34 174.583 1084.73 Q173.866 1084.11 173.866 1083 Q173.866 1080.73 176.658 1080.73 Q175.348 1078.7 172.211 1078.7 Q171.248 1078.7 170.26 1079 Q169.271 1079.27 167.987 1080.21 Q166.702 1081.15 165.714 1082.63 Q164.726 1084.11 164.034 1086.9 Q163.343 1089.69 163.343 1093.32 L163.343 1094.53 Q165.418 1089.52 169.667 1089.54 Q173.916 1089.54 176.855 1092.78 Q179.795 1096.02 179.795 1100.81 Q179.795 1105.73 176.732 1108.99 Q173.669 1112.25 169.37 1112.25 Q167.443 1112.25 165.689 1111.43 Q163.96 1110.64 162.33 1108.81 Q160.724 1106.99 159.761 1103.48 Q158.797 1099.97 158.797 1095.15 M163.441 1099.7 Q163.441 1104.66 164.355 1107.03 Q164.504 1107.43 164.825 1107.97 Q165.171 1108.52 165.739 1109.23 Q166.332 1109.92 167.295 1110.39 Q168.259 1110.84 169.37 1110.84 Q172.755 1110.84 174.385 1107.55 Q175.25 1105.73 175.25 1100.76 Q175.25 1095.7 174.336 1093.84 Q172.779 1090.71 169.617 1090.71 Q167.493 1090.71 166.011 1092.16 Q164.553 1093.62 163.985 1095.57 Q163.441 1097.52 163.441 1099.7 Z" fill="#000000" fill-rule="evenodd" fill-opacity="1" /><path clip-path="url(#clip960)" d="M119.297 942.316 Q119.297 934.88 121.174 930.829 Q123.793 924.801 129.968 924.801 Q131.278 924.801 132.636 925.171 Q134.02 925.517 135.749 926.876 Q137.503 928.235 138.565 930.458 Q140.591 934.756 140.591 942.316 Q140.591 949.702 138.713 953.729 Q135.971 959.608 129.919 959.608 Q127.646 959.608 125.324 958.447 Q123.027 957.286 121.569 954.494 Q119.297 950.32 119.297 942.316 M123.496 941.698 Q123.496 949.331 124.04 952.37 Q124.657 955.655 126.337 957.088 Q128.042 958.496 129.919 958.496 Q131.945 958.496 133.625 956.989 Q135.329 955.458 135.848 952.172 Q136.416 948.936 136.391 941.698 Q136.391 934.658 135.897 931.841 Q135.23 928.556 133.452 927.247 Q131.698 925.913 129.919 925.913 Q129.252 925.913 128.536 926.11 Q127.844 926.308 126.831 926.876 Q125.818 927.444 125.028 928.852 Q124.262 930.26 123.891 932.385 Q123.496 935.127 123.496 941.698 Z" fill="#000000" fill-rule="evenodd" fill-opacity="1" /><path clip-path="url(#clip960)" d="M147.681 957.681 Q146.915 956.866 146.915 955.804 Q146.915 954.741 147.681 953.976 Q148.447 953.185 149.608 953.185 Q150.719 953.185 151.46 953.926 Q152.226 954.643 152.226 955.828 Q152.226 956.989 151.411 957.755 Q150.62 958.496 149.608 958.496 Q148.447 958.496 147.681 957.681 Z" fill="#000000" fill-rule="evenodd" fill-opacity="1" /><path clip-path="url(#clip960)" d="M158.797 950.863 Q158.797 945.206 166.085 941.55 Q162.947 939.425 162.379 938.808 Q160.156 936.337 160.156 933.249 Q160.156 929.717 162.824 927.271 Q165.517 924.801 169.321 924.801 Q172.952 924.801 175.694 926.901 Q178.436 929.001 178.436 932.335 Q178.436 937.029 172.31 940.191 Q176.361 942.711 177.325 943.773 Q179.795 946.515 179.795 949.998 Q179.795 954.05 176.682 956.841 Q173.57 959.608 169.271 959.608 Q165.072 959.608 161.935 957.162 Q158.797 954.717 158.797 950.863 M161.317 950.863 Q161.317 954 163.664 956.1 Q166.035 958.2 169.321 958.2 Q172.508 958.2 174.879 956.372 Q177.275 954.544 177.275 951.826 Q177.275 950.764 176.905 949.85 Q176.559 948.936 175.843 948.22 Q175.151 947.479 174.706 947.157 Q174.286 946.812 173.471 946.243 L167.246 942.316 Q161.317 945.601 161.317 950.863 M162.379 931.273 Q162.379 933.694 164.924 935.374 L171.198 939.425 Q176.213 936.486 176.213 932.335 Q176.213 929.643 174.163 927.864 Q172.112 926.061 169.271 926.061 Q166.48 926.061 164.43 927.543 Q162.379 929.001 162.379 931.273 Z" fill="#000000" fill-rule="evenodd" fill-opacity="1" /><path clip-path="url(#clip960)" d="M42.8329 1143.2 Q43.3248 1143.2 44.4842 1143.51 L71.9587 1150.4 Q78.072 1151.91 82.3583 1156.83 Q86.6446 1161.71 86.6446 1167.26 Q86.6446 1170.6 84.8528 1172.74 Q83.0961 1174.89 80.3908 1174.89 Q78.0017 1174.89 76.8423 1173.62 Q75.718 1172.36 75.718 1170.85 Q75.718 1170.35 75.8586 1169.83 Q75.9991 1169.3 76.5964 1168.74 Q77.1937 1168.18 78.2125 1168.18 Q79.8638 1168.18 81.1638 1169.62 Q81.761 1170.32 81.9016 1170.99 Q82.0421 1171.62 82.0421 1172.71 Q83.0258 1172.29 83.6934 1171.51 Q84.3609 1170.74 84.6069 1169.86 Q84.8879 1168.98 84.9582 1168.42 Q85.0636 1167.82 85.0636 1167.26 Q85.0636 1162.77 80.5314 1159.32 Q79.1611 1158.3 77.7909 1157.57 Q76.4558 1156.79 74.8046 1156.23 Q73.1884 1155.67 72.3101 1155.42 Q71.4317 1155.14 69.4291 1154.65 Q72.6965 1157.92 72.6965 1161.92 Q72.6965 1163.61 72.2398 1165.12 Q71.7831 1166.59 70.8345 1167.89 Q69.8507 1169.19 68.1292 1169.97 Q66.4076 1170.71 64.1239 1170.71 Q61.6997 1170.71 58.3971 1169.76 Q55.0946 1168.81 49.0165 1166.52 Q45.6085 1165.29 43.9572 1165.29 Q43.1491 1165.29 42.6573 1165.47 Q42.1303 1165.65 41.9546 1166 Q41.7438 1166.35 41.7087 1166.56 Q41.6735 1166.74 41.6735 1167.09 Q41.6735 1169.16 43.7815 1171.09 Q45.8896 1173.02 50.5975 1174.36 Q51.4758 1174.64 51.6866 1174.82 Q51.8974 1174.99 51.8974 1175.52 Q51.8623 1176.4 51.1596 1176.4 Q50.8785 1176.4 49.7894 1176.08 Q48.6651 1175.76 47.0138 1175.03 Q45.3274 1174.25 43.8167 1173.2 Q42.2708 1172.15 41.1816 1170.49 Q40.0925 1168.81 40.0925 1166.88 Q40.0925 1164.24 41.8141 1162.62 Q43.5005 1160.97 45.995 1160.97 Q47.0138 1160.97 47.9273 1161.25 Q48.8057 1161.5 51.1596 1162.41 Q60.6457 1166.1 65.2833 1166.1 Q66.4076 1166.1 67.3562 1165.93 Q68.2697 1165.72 69.1832 1165.26 Q70.0615 1164.8 70.5885 1163.89 Q71.0804 1162.94 71.0804 1161.64 Q71.0804 1159.99 70.3075 1158.44 Q69.4994 1156.86 68.4102 1155.88 Q67.3211 1154.86 66.4076 1154.26 Q65.459 1153.63 64.9671 1153.49 L52.0379 1150.26 L46.276 1148.82 Q43.1491 1148.15 42.3762 1147.83 Q41.6384 1147.41 41.2519 1146.67 Q40.8654 1145.94 40.8654 1145.3 Q40.8654 1144.43 41.3924 1143.83 Q41.9195 1143.2 42.8329 1143.2 Z" fill="#000000" fill-rule="evenodd" fill-opacity="1" /><path clip-path="url(#clip960)" d="M53.9 1133.43 Q41.7438 1133.43 31.9415 1128.9 Q27.8309 1126.97 24.3878 1124.26 Q20.9447 1121.56 19.4339 1119.76 Q17.9232 1117.97 17.9232 1117.48 Q17.9232 1116.78 18.6258 1116.74 Q18.9772 1116.74 19.8555 1117.69 Q31.6604 1129.29 53.9 1129.25 Q76.2099 1129.25 87.5581 1117.97 Q88.7878 1116.74 89.1742 1116.74 Q89.8769 1116.74 89.8769 1117.48 Q89.8769 1117.97 88.4364 1119.69 Q86.9959 1121.42 83.6934 1124.09 Q80.3908 1126.76 76.3504 1128.69 Q66.5482 1133.43 53.9 1133.43 Z" fill="#000000" fill-rule="evenodd" fill-opacity="1" /><path clip-path="url(#clip960)" d="M41.6735 1089.17 Q42.6573 1089.17 42.9032 1089.63 Q43.114 1090.09 43.114 1091.35 L43.114 1098.1 L64.3347 1103.44 Q66.1968 1103.86 67.7778 1103.86 Q69.5345 1103.86 70.3075 1103.33 Q71.0804 1102.77 71.0804 1101.61 Q71.0804 1099.33 69.0075 1096.87 Q66.9346 1094.37 61.8754 1092.27 Q61.2078 1091.99 61.0673 1091.84 Q60.8916 1091.67 60.8916 1091.21 Q60.8916 1090.33 61.5943 1090.33 Q61.8402 1090.33 62.9645 1090.83 Q64.0888 1091.28 65.7401 1092.3 Q67.3914 1093.29 68.9372 1094.59 Q70.4831 1095.85 71.6074 1097.78 Q72.6965 1099.71 72.6965 1101.79 Q72.6965 1104.7 70.8345 1106.57 Q68.9724 1108.39 66.0563 1108.39 Q65.1077 1108.39 62.0862 1107.65 Q59.0295 1106.92 43.114 1102.91 L43.114 1109.27 Q43.114 1110.15 43.0789 1110.5 Q43.0437 1110.82 42.8681 1111.06 Q42.6573 1111.27 42.2357 1111.27 Q41.5681 1111.27 41.287 1110.99 Q40.9708 1110.71 40.9357 1110.36 Q40.8654 1109.97 40.8654 1109.1 L40.8654 1102.35 L29.447 1099.54 Q28.3227 1099.26 27.6903 1098.56 Q27.0228 1097.82 26.9525 1097.4 Q26.8471 1096.97 26.8471 1096.66 Q26.8471 1095.71 27.3741 1095.15 Q27.866 1094.59 28.7795 1094.59 Q29.2713 1094.59 40.8654 1097.54 L40.8654 1091.21 Q40.8654 1090.4 40.9006 1090.09 Q40.9357 1089.74 41.1114 1089.46 Q41.287 1089.17 41.6735 1089.17 Z" fill="#000000" fill-rule="evenodd" fill-opacity="1" /><path clip-path="url(#clip960)" d="M89.1742 1083.54 Q88.8229 1083.54 87.9446 1082.63 Q76.1396 1071.03 53.9 1071.03 Q31.5902 1071.03 20.3122 1082.17 Q19.0123 1083.54 18.6258 1083.54 Q17.9232 1083.54 17.9232 1082.84 Q17.9232 1082.35 19.3636 1080.63 Q20.8041 1078.87 24.1067 1076.23 Q27.4092 1073.56 31.4496 1071.6 Q41.2519 1066.85 53.9 1066.85 Q66.0563 1066.85 75.8586 1071.39 Q79.9692 1073.32 83.4123 1076.02 Q86.8554 1078.73 88.3662 1080.52 Q89.8769 1082.31 89.8769 1082.84 Q89.8769 1083.54 89.1742 1083.54 Z" fill="#000000" fill-rule="evenodd" fill-opacity="1" /><polyline clip-path="url(#clip962)" style="stroke:#ff0000; stroke-linecap:butt; stroke-linejoin:round; stroke-width:4; stroke-opacity:1; fill:none" points="
  276.275,917.212 282.995,992.777 289.715,1029.52 296.435,923.281 303.155,1172.35 309.875,862.428 316.595,1199.54 323.315,857.172 330.035,1162.81 336.755,879.579 
  343.475,1022.24 350.195,949.451 356.915,1100.99 363.635,868.727 370.355,1297.57 377.075,956.833 383.795,1011.61 390.515,1025.91 397.235,890.687 403.955,1201.97 
  410.675,854.632 417.395,1320.42 424.115,976.335 430.835,1008.54 437.555,1005.28 444.275,941.707 450.995,1149.6 457.715,857.235 464.435,1218.04 471.155,854.507 
  477.875,1152.07 484.595,887.001 491.315,1011.05 498.035,952.029 504.755,1105.79 511.475,856.145 518.195,1294.4 524.915,900.74 531.635,1221.4 538.355,890.551 
  545.075,1117.09 551.795,901.193 558.515,1020.41 565.235,993.592 571.955,947.461 578.675,1141.45 585.395,855.902 592.115,1193.46 598.835,861.4 605.555,1084.72 
  612.275,920.461 618.995,1065.36 625.715,953.84 632.435,948.487 639.155,1071.73 645.875,912.612 652.595,1150.99 659.315,857.645 666.035,1307.07 672.755,938.085 
  679.475,1128.5 686.195,856.58 692.915,1320.91 699.635,980.476 706.355,997.96 713.075,1035.94 719.795,897.178 726.515,1225.86 733.235,877.281 739.955,1228.35 
  746.675,858.137 753.395,1306.74 760.115,942.345 766.835,1103.77 773.555,876.005 780.275,1272.18 786.995,905.59 793.715,1182.27 800.435,853.687 807.155,1339.69 
  813.875,1007.65 820.595,948.157 827.315,1120.75 834.035,854.113 840.755,1277.48 847.475,878.304 854.195,1268.18 860.915,915.223 867.635,1123.38 874.355,874.632 
  881.075,1226.96 887.795,856.161 894.515,1300.35 901.235,916.373 907.955,1194.73 914.675,871.659 921.395,1194.22 928.115,857.29 934.835,1171.98 941.555,871.186 
  948.275,1035.68 954.995,946.463 961.715,1093.05 968.435,885.115 975.155,1246.83 981.875,884.631 988.595,1236.82 995.315,877.416 1002.04,1252.71 1008.76,891.556 
  1015.48,1220.8 1022.2,864.305 1028.92,1315.99 1035.64,975.304 1042.36,998.581 1049.08,1028.13 1055.8,903.011 1062.52,1216.3 1069.24,879.19 1075.96,1178.46 
  1082.68,858.545 1089.4,1204.52 1096.12,855.506 1102.84,1168.75 1109.56,876.471 1116.28,1022.41 1123,951.368 1129.72,1100.66 1136.44,865.275 1143.16,1313.61 
  1149.88,973.157 1156.6,1002.15 1163.32,1022.42 1170.04,903.904 1176.76,1199.29 1183.48,864.938 1190.2,1260.71 1196.92,876.289 1203.64,1291.5 1210.36,943.976 
  1217.08,1042.44 1223.8,965.63 1230.52,967.29 1237.24,1091.96 1243.96,856.904 1250.68,1229.59 1257.4,853.456 1264.12,1198.68 1270.84,860.531 1277.56,1083.4 
  1284.28,927.255 1291,1033.21 1297.72,1003.97 1304.44,887.566 1311.16,1129.59 1317.88,893.717 1324.6,1033.18 1331.32,977.008 1338.04,977.763 1344.76,1075.36 
  1351.48,858.756 1358.2,1198.48 1364.92,858.019 1371.64,1150 1378.36,884.789 1385.08,1009.37 1391.8,953.393 1398.52,1110.39 1405.24,855.277 1411.96,1278.67 
  1418.68,881.844 1425.4,1260.32 1432.12,918.194 1438.84,1093.34 1445.56,916.829 1452.28,1032.64 1459,1001.68 1465.72,899.086 1472.44,1139.58 1479.16,877.788 
  1485.88,1141.14 1492.6,890.655 1499.32,1026.26 1506.04,973.724 1512.76,983.311 1519.48,1062.26 1526.2,865.831 1532.92,1219.52 1539.64,853.727 1546.36,1268.81 
  1553.08,873.801 1559.8,1280.52 1566.52,912.459 1573.24,1157.83 1579.96,853.945 1586.68,1347.35 1593.4,1023.53 1600.12,940.706 1606.84,1144.85 1613.56,853.623 
  1620.28,1293.64 1627,898.556 1633.72,1231.68 1640.44,897.106 1647.16,1118.7 1653.88,904.372 1660.6,1028.45 1667.32,984.058 1674.04,943.06 1680.76,1144.45 
  1687.48,855.594 1694.2,1209.65 1700.92,854.572 1707.64,1164.24 1714.36,879.192 1721.08,1029.73 1727.8,942.278 1734.52,1111.75 1741.24,861.025 1747.96,1329.28 
  1754.68,994.521 1761.4,965.892 1768.12,1086.66 1774.84,861.911 1781.56,1280.75 1788.28,893.067 1795,1253.18 1801.72,916.584 1808.44,1075.4 1815.16,945.048 
  1821.88,965.399 1828.6,1065.24 1835.32,894.57 1842.04,1235.18 1848.76,896.468 1855.48,1132.22 1862.2,882.065 1868.92,1122.2 1875.64,908.772 1882.36,987.578 
  1889.08,993.52 1895.8,1036.28 1902.52,899.845 1909.24,1235.28 1915.96,899.899 1922.68,1107.76 1929.4,910.317 1936.12,1029.75 1942.84,998.536 1949.56,909.316 
  1956.28,1177.04 1963,853.569 1969.72,1327.69 1976.44,988.013 1983.16,971.118 1989.88,1080.35 1996.6,861.074 2003.32,1264.6 2010.04,874.909 2016.76,1271.97 
  2023.48,916.007 2030.2,1117.12 2036.92,880.167 2043.64,1198.82 2050.36,853.886 2057.08,1266.43 2063.8,868.837 2070.52,1256.79 2077.24,876.906 2083.96,1282.44 
  2090.68,933.725 2097.4,1056.43 2104.12,958.94 2110.84,962.586 2117.56,1098.02 2124.28,860.071 2131,1283.95 2137.72,898.846 2144.44,1239.67 2151.16,900.837 
  2157.88,1120.11 2164.6,896.508 2171.32,1057.2 2178.04,961.448 2184.76,936.025 2191.48,1090.16 2198.2,897.867 2204.92,1174.08 2211.64,854.852 2218.36,1316.98 
  2225.08,934.631 2231.8,1138.65 2238.52,853.451 2245.24,1290.15 2251.96,894.567 2258.68,1251.66 2265.4,909.218 2272.12,1088.11 2278.84,927.443 2285.56,991.566 
  2292.28,1036.19 
  "/>
</svg>
