<?xml version="1.0" encoding="utf-8"?>
<svg xmlns="http://www.w3.org/2000/svg" xmlns:xlink="http://www.w3.org/1999/xlink" width="600" height="400" viewBox="0 0 2400 1600">
<defs>
  <clipPath id="clip440">
    <rect x="0" y="0" width="2400" height="1600"/>
  </clipPath>
</defs>
<path clip-path="url(#clip440)" d="
M0 1600 L2400 1600 L2400 0 L0 0  Z
  " fill="#ffffff" fill-rule="evenodd" fill-opacity="1"/>
<defs>
  <clipPath id="clip441">
    <rect x="480" y="0" width="1681" height="1600"/>
  </clipPath>
</defs>
<defs>
  <clipPath id="clip442">
    <rect x="253" y="47" width="1610" height="1373"/>
  </clipPath>
</defs>
<path clip-path="url(#clip440)" d="
M253.171 1418.86 L1862.64 1418.86 L1862.64 47.2441 L253.171 47.2441  Z
  " fill="#ffffff" fill-rule="evenodd" fill-opacity="1"/>
<polyline clip-path="url(#clip442)" style="stroke:#000000; stroke-linecap:butt; stroke-linejoin:round; stroke-width:2; stroke-opacity:0.1; fill:none" points="
  618.379,1418.86 618.379,47.2441 
  "/>
<polyline clip-path="url(#clip442)" style="stroke:#000000; stroke-linecap:butt; stroke-linejoin:round; stroke-width:2; stroke-opacity:0.1; fill:none" points="
  1017.95,1418.86 1017.95,47.2441 
  "/>
<polyline clip-path="url(#clip442)" style="stroke:#000000; stroke-linecap:butt; stroke-linejoin:round; stroke-width:2; stroke-opacity:0.1; fill:none" points="
  1417.52,1418.86 1417.52,47.2441 
  "/>
<polyline clip-path="url(#clip442)" style="stroke:#000000; stroke-linecap:butt; stroke-linejoin:round; stroke-width:2; stroke-opacity:0.1; fill:none" points="
  1817.09,1418.86 1817.09,47.2441 
  "/>
<polyline clip-path="url(#clip440)" style="stroke:#000000; stroke-linecap:butt; stroke-linejoin:round; stroke-width:4; stroke-opacity:1; fill:none" points="
  253.171,1418.86 1862.64,1418.86 
  "/>
<polyline clip-path="url(#clip440)" style="stroke:#000000; stroke-linecap:butt; stroke-linejoin:round; stroke-width:4; stroke-opacity:1; fill:none" points="
  618.379,1418.86 618.379,1399.96 
  "/>
<polyline clip-path="url(#clip440)" style="stroke:#000000; stroke-linecap:butt; stroke-linejoin:round; stroke-width:4; stroke-opacity:1; fill:none" points="
  1017.95,1418.86 1017.95,1399.96 
  "/>
<polyline clip-path="url(#clip440)" style="stroke:#000000; stroke-linecap:butt; stroke-linejoin:round; stroke-width:4; stroke-opacity:1; fill:none" points="
  1417.52,1418.86 1417.52,1399.96 
  "/>
<polyline clip-path="url(#clip440)" style="stroke:#000000; stroke-linecap:butt; stroke-linejoin:round; stroke-width:4; stroke-opacity:1; fill:none" points="
  1817.09,1418.86 1817.09,1399.96 
  "/>
<path clip-path="url(#clip440)" d="M608.276 1473.11 Q608.276 1471.6 609.091 1471.03 Q609.906 1470.44 610.771 1470.44 Q611.932 1470.44 612.599 1471.18 Q613.29 1471.9 613.29 1472.91 Q613.29 1473.92 612.599 1474.66 Q611.932 1475.38 610.771 1475.38 Q610.202 1475.38 609.906 1475.28 Q610.573 1477.6 612.599 1479.28 Q614.649 1480.96 617.342 1480.96 Q620.726 1480.96 622.752 1477.68 Q623.962 1475.55 623.962 1470.74 Q623.962 1466.49 623.048 1464.36 Q621.64 1461.13 618.75 1461.13 Q614.649 1461.13 612.228 1464.66 Q611.932 1465.1 611.586 1465.13 Q611.092 1465.13 610.968 1464.86 Q610.869 1464.56 610.869 1463.79 L610.869 1448.82 Q610.869 1447.61 611.363 1447.61 Q611.561 1447.61 611.981 1447.76 Q615.168 1449.17 618.7 1449.19 Q622.332 1449.19 625.593 1447.71 Q625.84 1447.56 625.988 1447.56 Q626.482 1447.56 626.507 1448.13 Q626.507 1448.33 626.087 1448.92 Q625.691 1449.49 624.827 1450.26 Q623.962 1451 622.851 1451.71 Q621.739 1452.43 620.108 1452.93 Q618.503 1453.39 616.724 1453.39 Q614.6 1453.39 612.426 1452.73 L612.426 1462.58 Q615.044 1460.01 618.849 1460.01 Q622.9 1460.01 625.691 1463.28 Q628.483 1466.54 628.483 1471.08 Q628.483 1475.85 625.173 1479.11 Q621.887 1482.37 617.441 1482.37 Q613.389 1482.37 610.82 1479.48 Q608.276 1476.59 608.276 1473.11 Z" fill="#000000" fill-rule="evenodd" fill-opacity="1" /><path clip-path="url(#clip440)" d="M995.915 1452.38 L995.915 1450.8 Q1001.99 1450.8 1005.13 1447.56 Q1005.99 1447.56 1006.14 1447.76 Q1006.29 1447.96 1006.29 1448.87 L1006.29 1477.26 Q1006.29 1478.76 1007.03 1479.23 Q1007.77 1479.7 1011.01 1479.7 L1012.61 1479.7 L1012.61 1481.26 Q1010.84 1481.11 1004.41 1481.11 Q997.99 1481.11 996.236 1481.26 L996.236 1479.7 L997.842 1479.7 Q1001.03 1479.7 1001.79 1479.26 Q1002.56 1478.79 1002.56 1477.26 L1002.56 1451.05 Q999.917 1452.38 995.915 1452.38 Z" fill="#000000" fill-rule="evenodd" fill-opacity="1" /><path clip-path="url(#clip440)" d="M1018.69 1465.08 Q1018.69 1457.64 1020.57 1453.59 Q1023.19 1447.56 1029.36 1447.56 Q1030.67 1447.56 1032.03 1447.94 Q1033.41 1448.28 1035.14 1449.64 Q1036.9 1451 1037.96 1453.22 Q1039.99 1457.52 1039.99 1465.08 Q1039.99 1472.47 1038.11 1476.49 Q1035.37 1482.37 1029.31 1482.37 Q1027.04 1482.37 1024.72 1481.21 Q1022.42 1480.05 1020.96 1477.26 Q1018.69 1473.08 1018.69 1465.08 M1022.89 1464.46 Q1022.89 1472.09 1023.43 1475.13 Q1024.05 1478.42 1025.73 1479.85 Q1027.44 1481.26 1029.31 1481.26 Q1031.34 1481.26 1033.02 1479.75 Q1034.72 1478.22 1035.24 1474.94 Q1035.81 1471.7 1035.79 1464.46 Q1035.79 1457.42 1035.29 1454.6 Q1034.63 1451.32 1032.85 1450.01 Q1031.09 1448.68 1029.31 1448.68 Q1028.65 1448.68 1027.93 1448.87 Q1027.24 1449.07 1026.23 1449.64 Q1025.21 1450.21 1024.42 1451.62 Q1023.66 1453.02 1023.29 1455.15 Q1022.89 1457.89 1022.89 1464.46 Z" fill="#000000" fill-rule="evenodd" fill-opacity="1" /><path clip-path="url(#clip440)" d="M1395.76 1452.38 L1395.76 1450.8 Q1401.83 1450.8 1404.97 1447.56 Q1405.84 1447.56 1405.98 1447.76 Q1406.13 1447.96 1406.13 1448.87 L1406.13 1477.26 Q1406.13 1478.76 1406.87 1479.23 Q1407.62 1479.7 1410.85 1479.7 L1412.46 1479.7 L1412.46 1481.26 Q1410.68 1481.11 1404.26 1481.11 Q1397.83 1481.11 1396.08 1481.26 L1396.08 1479.7 L1397.68 1479.7 Q1400.87 1479.7 1401.64 1479.26 Q1402.4 1478.79 1402.4 1477.26 L1402.4 1451.05 Q1399.76 1452.38 1395.76 1452.38 Z" fill="#000000" fill-rule="evenodd" fill-opacity="1" /><path clip-path="url(#clip440)" d="M1419.08 1473.11 Q1419.08 1471.6 1419.89 1471.03 Q1420.71 1470.44 1421.57 1470.44 Q1422.73 1470.44 1423.4 1471.18 Q1424.09 1471.9 1424.09 1472.91 Q1424.09 1473.92 1423.4 1474.66 Q1422.73 1475.38 1421.57 1475.38 Q1421 1475.38 1420.71 1475.28 Q1421.38 1477.6 1423.4 1479.28 Q1425.45 1480.96 1428.14 1480.96 Q1431.53 1480.96 1433.55 1477.68 Q1434.76 1475.55 1434.76 1470.74 Q1434.76 1466.49 1433.85 1464.36 Q1432.44 1461.13 1429.55 1461.13 Q1425.45 1461.13 1423.03 1464.66 Q1422.73 1465.1 1422.39 1465.13 Q1421.89 1465.13 1421.77 1464.86 Q1421.67 1464.56 1421.67 1463.79 L1421.67 1448.82 Q1421.67 1447.61 1422.17 1447.61 Q1422.36 1447.61 1422.78 1447.76 Q1425.97 1449.17 1429.5 1449.19 Q1433.13 1449.19 1436.39 1447.71 Q1436.64 1447.56 1436.79 1447.56 Q1437.28 1447.56 1437.31 1448.13 Q1437.31 1448.33 1436.89 1448.92 Q1436.49 1449.49 1435.63 1450.26 Q1434.76 1451 1433.65 1451.71 Q1432.54 1452.43 1430.91 1452.93 Q1429.3 1453.39 1427.53 1453.39 Q1425.4 1453.39 1423.23 1452.73 L1423.23 1462.58 Q1425.85 1460.01 1429.65 1460.01 Q1433.7 1460.01 1436.49 1463.28 Q1439.29 1466.54 1439.29 1471.08 Q1439.29 1475.85 1435.97 1479.11 Q1432.69 1482.37 1428.24 1482.37 Q1424.19 1482.37 1421.62 1479.48 Q1419.08 1476.59 1419.08 1473.11 Z" fill="#000000" fill-rule="evenodd" fill-opacity="1" /><path clip-path="url(#clip440)" d="M1794.07 1481.26 Q1794.07 1480.35 1794.14 1480.07 Q1794.24 1479.8 1794.64 1479.38 L1804.35 1468.56 Q1809.66 1462.58 1809.66 1457.37 Q1809.66 1453.99 1807.88 1451.57 Q1806.12 1449.15 1802.89 1449.15 Q1800.66 1449.15 1798.79 1450.5 Q1796.91 1451.86 1796.05 1454.28 Q1796.19 1454.23 1796.71 1454.23 Q1797.97 1454.23 1798.66 1455.02 Q1799.38 1455.82 1799.38 1456.88 Q1799.38 1458.24 1798.49 1458.9 Q1797.63 1459.55 1796.76 1459.55 Q1796.42 1459.55 1795.95 1459.47 Q1795.5 1459.4 1794.79 1458.71 Q1794.07 1457.99 1794.07 1456.73 Q1794.07 1453.2 1796.74 1450.38 Q1799.43 1447.56 1803.53 1447.56 Q1808.17 1447.56 1811.21 1450.33 Q1814.28 1453.07 1814.28 1457.37 Q1814.28 1458.88 1813.81 1460.26 Q1813.36 1461.62 1812.74 1462.68 Q1812.15 1463.75 1810.52 1465.45 Q1808.89 1467.15 1807.58 1468.36 Q1806.27 1469.58 1803.33 1472.14 L1797.97 1477.36 L1807.09 1477.36 Q1811.53 1477.36 1811.88 1476.96 Q1812.37 1476.25 1812.99 1472.47 L1814.28 1472.47 L1812.84 1481.26 L1794.07 1481.26 Z" fill="#000000" fill-rule="evenodd" fill-opacity="1" /><path clip-path="url(#clip440)" d="M1818.82 1465.08 Q1818.82 1457.64 1820.7 1453.59 Q1823.32 1447.56 1829.49 1447.56 Q1830.8 1447.56 1832.16 1447.94 Q1833.54 1448.28 1835.27 1449.64 Q1837.03 1451 1838.09 1453.22 Q1840.12 1457.52 1840.12 1465.08 Q1840.12 1472.47 1838.24 1476.49 Q1835.5 1482.37 1829.44 1482.37 Q1827.17 1482.37 1824.85 1481.21 Q1822.55 1480.05 1821.09 1477.26 Q1818.82 1473.08 1818.82 1465.08 M1823.02 1464.46 Q1823.02 1472.09 1823.56 1475.13 Q1824.18 1478.42 1825.86 1479.85 Q1827.57 1481.26 1829.44 1481.26 Q1831.47 1481.26 1833.15 1479.75 Q1834.85 1478.22 1835.37 1474.94 Q1835.94 1471.7 1835.92 1464.46 Q1835.92 1457.42 1835.42 1454.6 Q1834.76 1451.32 1832.98 1450.01 Q1831.22 1448.68 1829.44 1448.68 Q1828.78 1448.68 1828.06 1448.87 Q1827.37 1449.07 1826.36 1449.64 Q1825.34 1450.21 1824.55 1451.62 Q1823.79 1453.02 1823.42 1455.15 Q1823.02 1457.89 1823.02 1464.46 Z" fill="#000000" fill-rule="evenodd" fill-opacity="1" /><path clip-path="url(#clip440)" d="M768.862 1573.77 L768.862 1571.43 L770.678 1571.43 Q774.791 1571.43 775.718 1570.77 Q776.681 1570.06 776.681 1567.84 L776.681 1527.86 Q776.681 1525.67 775.718 1525 Q774.754 1524.3 770.678 1524.3 L768.862 1524.3 L768.862 1521.93 L795.653 1521.93 Q803.324 1521.93 808.437 1526.15 Q813.551 1530.38 813.551 1536.05 Q813.551 1541.68 808.326 1545.75 Q803.138 1549.79 796.246 1549.79 L783.425 1549.79 L783.425 1567.84 Q783.425 1570.03 784.351 1570.73 Q785.315 1571.43 789.428 1571.43 L791.244 1571.43 L791.244 1573.77 Q788.576 1573.55 780.016 1573.55 Q771.53 1573.55 768.862 1573.77 M783.203 1547.83 L793.652 1547.83 Q797.061 1547.83 799.544 1546.87 Q802.027 1545.9 803.138 1544.75 Q804.287 1543.57 804.917 1541.68 Q805.584 1539.75 805.658 1538.71 Q805.732 1537.64 805.732 1536.05 Q805.732 1534.38 805.658 1533.34 Q805.584 1532.27 804.917 1530.38 Q804.287 1528.45 803.138 1527.3 Q802.027 1526.12 799.544 1525.23 Q797.098 1524.3 793.652 1524.3 L786.908 1524.3 Q784.314 1524.3 783.759 1524.82 Q783.203 1525.34 783.203 1527.34 L783.203 1547.83 Z" fill="#000000" fill-rule="evenodd" fill-opacity="1" /><path clip-path="url(#clip440)" d="M819.887 1573.77 L819.887 1571.43 Q823.926 1571.43 824.853 1570.95 Q825.816 1570.43 825.816 1567.99 L825.816 1547.64 Q825.816 1544.83 824.816 1544.12 Q823.852 1543.42 819.887 1543.42 L819.887 1541.05 L830.448 1540.23 L830.448 1548.57 Q831.522 1545.31 833.783 1542.79 Q836.08 1540.23 839.786 1540.23 Q842.231 1540.23 843.788 1541.6 Q845.381 1542.98 845.381 1544.87 Q845.381 1546.53 844.344 1547.38 Q843.343 1548.2 842.12 1548.2 Q840.749 1548.2 839.786 1547.35 Q838.859 1546.46 838.859 1544.94 Q838.859 1544.01 839.267 1543.31 Q839.712 1542.57 840.045 1542.31 Q840.379 1542.05 840.601 1541.97 Q840.453 1541.9 839.786 1541.9 Q835.599 1541.9 833.19 1546.09 Q830.818 1550.24 830.818 1556.17 L830.818 1567.84 Q830.818 1570.03 831.708 1570.73 Q832.634 1571.43 836.599 1571.43 L838.192 1571.43 L838.192 1573.77 Q835.154 1573.55 828.558 1573.55 Q827.632 1573.55 826.187 1573.58 Q824.741 1573.62 822.852 1573.69 Q820.962 1573.77 819.887 1573.77 Z" fill="#000000" fill-rule="evenodd" fill-opacity="1" /><path clip-path="url(#clip440)" d="M849.531 1557.06 Q849.531 1549.9 854.126 1544.83 Q858.721 1539.75 865.317 1539.75 Q871.987 1539.75 875.433 1544.09 Q878.916 1548.42 878.916 1554.65 Q878.916 1555.8 878.619 1556.02 Q878.323 1556.24 877.026 1556.24 L855.831 1556.24 Q855.831 1563.99 858.128 1567.62 Q861.315 1572.69 866.688 1572.69 Q867.429 1572.69 868.318 1572.55 Q869.207 1572.4 871.023 1571.77 Q872.839 1571.1 874.432 1569.36 Q876.026 1567.62 876.952 1564.87 Q877.174 1563.8 877.915 1563.84 Q878.916 1563.84 878.916 1564.73 Q878.916 1565.39 878.175 1566.91 Q877.471 1568.4 876.1 1570.17 Q874.729 1571.95 872.061 1573.29 Q869.43 1574.62 866.243 1574.62 Q859.573 1574.62 854.534 1569.58 Q849.531 1564.5 849.531 1557.06 M855.905 1554.65 L873.913 1554.65 Q873.913 1553.05 873.617 1551.28 Q873.358 1549.5 872.542 1547.05 Q871.764 1544.57 869.911 1543.01 Q868.059 1541.46 865.317 1541.46 Q864.094 1541.46 862.76 1541.97 Q861.463 1542.49 859.87 1543.75 Q858.276 1545.01 857.165 1547.87 Q856.053 1550.72 855.905 1554.65 Z" fill="#000000" fill-rule="evenodd" fill-opacity="1" /><path clip-path="url(#clip440)" d="M883.696 1557.46 Q883.696 1550.24 888.735 1545.24 Q893.775 1540.23 900.593 1540.23 Q906.374 1540.23 910.153 1544.94 L910.153 1528.52 Q910.153 1525.71 909.153 1525 Q908.189 1524.3 904.262 1524.3 L904.262 1521.93 L915.193 1521.11 L915.193 1567.17 Q915.193 1569.99 916.156 1570.73 Q917.157 1571.43 921.085 1571.43 L921.085 1573.77 L909.931 1574.62 L909.931 1569.58 Q906.003 1574.58 899.778 1574.62 Q893.256 1574.62 888.476 1569.62 Q883.696 1564.62 883.696 1557.46 M889.995 1557.54 Q889.995 1564.58 892.182 1568.06 Q895.22 1572.92 900.148 1572.92 Q905.781 1572.92 909.116 1567.62 Q909.968 1566.32 909.931 1564.8 L909.931 1549.24 Q909.931 1547.72 909.116 1546.46 Q906.003 1541.9 900.927 1541.9 Q895.628 1541.9 892.33 1546.76 Q889.995 1550.39 889.995 1557.54 Z" fill="#000000" fill-rule="evenodd" fill-opacity="1" /><path clip-path="url(#clip440)" d="M925.716 1573.77 L925.716 1571.43 Q929.755 1571.43 930.682 1570.95 Q931.608 1570.43 931.608 1567.99 L931.608 1547.57 Q931.608 1544.75 930.645 1544.09 Q929.718 1543.42 926.013 1543.42 L926.013 1541.05 L936.611 1540.23 L936.611 1568.06 Q936.611 1570.32 937.426 1570.88 Q938.241 1571.43 941.946 1571.43 L941.946 1573.77 Q934.202 1573.55 934.054 1573.55 Q933.016 1573.55 925.716 1573.77 M928.903 1527 Q928.903 1525.49 930.052 1524.26 Q931.238 1523 932.905 1523 Q934.573 1523 935.758 1524.15 Q936.944 1525.26 936.944 1527.04 Q936.944 1528.78 935.758 1529.93 Q934.573 1531.04 932.905 1531.04 Q931.163 1531.04 930.015 1529.82 Q928.903 1528.6 928.903 1527 Z" fill="#000000" fill-rule="evenodd" fill-opacity="1" /><path clip-path="url(#clip440)" d="M951.618 1569.62 Q946.801 1564.58 946.801 1557.39 Q946.801 1550.16 951.544 1544.98 Q956.287 1539.75 963.253 1539.75 Q967.885 1539.75 971.368 1541.97 Q974.851 1544.16 974.851 1547.9 Q974.851 1549.57 973.851 1550.53 Q972.887 1551.46 971.368 1551.46 Q969.775 1551.46 968.811 1550.5 Q967.885 1549.5 967.885 1547.98 Q967.885 1547.31 968.107 1546.64 Q968.33 1545.98 969.145 1545.27 Q969.997 1544.57 971.442 1544.46 Q968.737 1541.68 963.475 1541.68 Q963.401 1541.68 963.327 1541.68 Q959.474 1541.68 956.287 1545.31 Q953.1 1548.94 953.1 1557.24 Q953.1 1561.58 954.138 1564.76 Q955.212 1567.91 956.954 1569.54 Q958.695 1571.17 960.4 1571.95 Q962.104 1572.69 963.772 1572.69 Q971.22 1572.69 973.74 1564.73 Q973.962 1563.99 974.703 1563.99 Q975.704 1563.99 975.704 1564.73 Q975.704 1565.1 975.407 1566.06 Q975.111 1567.02 974.184 1568.54 Q973.258 1570.06 971.924 1571.4 Q970.627 1572.69 968.293 1573.66 Q965.995 1574.62 963.105 1574.62 Q956.435 1574.62 951.618 1569.62 Z" fill="#000000" fill-rule="evenodd" fill-opacity="1" /><path clip-path="url(#clip440)" d="M979.335 1543.42 L979.335 1541.75 Q982.818 1541.6 985.116 1539.16 Q987.45 1536.68 988.228 1533.64 Q989.043 1530.6 989.118 1527.08 L991.007 1527.08 L991.007 1541.05 L1001.86 1541.05 L1001.86 1543.42 L991.007 1543.42 L991.007 1564.5 Q991.007 1572.69 996.121 1572.69 Q998.307 1572.69 999.752 1570.47 Q1001.2 1568.21 1001.2 1564.21 L1001.2 1560.02 L1003.09 1560.02 L1003.09 1564.36 Q1003.09 1568.47 1001.2 1571.54 Q999.308 1574.62 995.565 1574.62 Q994.194 1574.62 992.823 1574.25 Q991.489 1573.92 989.71 1573.03 Q987.969 1572.1 986.857 1569.88 Q985.783 1567.62 985.783 1564.36 L985.783 1543.42 L979.335 1543.42 Z" fill="#000000" fill-rule="evenodd" fill-opacity="1" /><path clip-path="url(#clip440)" d="M1009.83 1573.77 L1009.83 1571.43 Q1013.87 1571.43 1014.8 1570.95 Q1015.72 1570.43 1015.72 1567.99 L1015.72 1547.57 Q1015.72 1544.75 1014.76 1544.09 Q1013.83 1543.42 1010.13 1543.42 L1010.13 1541.05 L1020.73 1540.23 L1020.73 1568.06 Q1020.73 1570.32 1021.54 1570.88 Q1022.36 1571.43 1026.06 1571.43 L1026.06 1573.77 Q1018.32 1573.55 1018.17 1573.55 Q1017.13 1573.55 1009.83 1573.77 M1013.02 1527 Q1013.02 1525.49 1014.17 1524.26 Q1015.35 1523 1017.02 1523 Q1018.69 1523 1019.87 1524.15 Q1021.06 1525.26 1021.06 1527.04 Q1021.06 1528.78 1019.87 1529.93 Q1018.69 1531.04 1017.02 1531.04 Q1015.28 1531.04 1014.13 1529.82 Q1013.02 1528.6 1013.02 1527 Z" fill="#000000" fill-rule="evenodd" fill-opacity="1" /><path clip-path="url(#clip440)" d="M1035.44 1569.69 Q1030.43 1564.73 1030.43 1557.54 Q1030.43 1550.31 1035.33 1545.05 Q1040.25 1539.75 1047.29 1539.75 Q1054.19 1539.75 1059.11 1545.01 Q1064.08 1550.24 1064.08 1557.54 Q1064.08 1564.69 1059.08 1569.66 Q1054.11 1574.62 1047.22 1574.62 Q1040.48 1574.62 1035.44 1569.69 M1036.73 1556.91 Q1036.73 1564.28 1038.66 1567.62 Q1041.62 1572.69 1047.29 1572.69 Q1050.11 1572.69 1052.44 1571.17 Q1054.82 1569.66 1056.11 1567.1 Q1057.78 1563.76 1057.78 1556.91 Q1057.78 1549.61 1055.78 1546.38 Q1052.82 1541.46 1047.22 1541.46 Q1044.77 1541.46 1042.37 1542.75 Q1039.99 1544.01 1038.55 1546.53 Q1036.73 1549.87 1036.73 1556.91 Z" fill="#000000" fill-rule="evenodd" fill-opacity="1" /><path clip-path="url(#clip440)" d="M1068.71 1573.77 L1068.71 1571.43 Q1072.75 1571.43 1073.68 1570.95 Q1074.6 1570.43 1074.6 1567.99 L1074.6 1547.64 Q1074.6 1544.83 1073.6 1544.12 Q1072.64 1543.42 1068.71 1543.42 L1068.71 1541.05 L1079.38 1540.23 L1079.38 1548.2 Q1082.94 1540.23 1090.61 1540.23 Q1096.32 1540.23 1098.58 1543.05 Q1100.25 1544.94 1100.58 1547.05 Q1100.95 1549.16 1100.95 1554.65 L1100.95 1569.14 Q1101.02 1570.73 1102.25 1571.1 Q1103.47 1571.43 1106.88 1571.43 L1106.88 1573.77 Q1099.13 1573.55 1098.36 1573.55 Q1097.76 1573.55 1089.8 1573.77 L1089.8 1571.43 Q1093.84 1571.43 1094.76 1570.95 Q1095.72 1570.43 1095.72 1567.99 L1095.72 1550.31 Q1095.72 1546.46 1094.54 1544.2 Q1093.35 1541.9 1090.09 1541.9 Q1086.16 1541.9 1083.02 1545.2 Q1079.87 1548.5 1079.87 1554.05 L1079.87 1567.99 Q1079.87 1570.43 1080.79 1570.95 Q1081.76 1571.43 1085.76 1571.43 L1085.76 1573.77 Q1078.01 1573.55 1077.27 1573.55 Q1076.68 1573.55 1068.71 1573.77 Z" fill="#000000" fill-rule="evenodd" fill-opacity="1" /><path clip-path="url(#clip440)" d="M1136.11 1573.77 L1136.11 1571.43 Q1140.15 1571.43 1141.08 1570.95 Q1142.01 1570.43 1142.01 1567.99 L1142.01 1528.52 Q1142.01 1525.71 1141.01 1525 Q1140.04 1524.3 1136.11 1524.3 L1136.11 1521.93 L1147.01 1521.11 L1147.01 1567.99 Q1147.01 1570.43 1147.97 1570.95 Q1148.94 1571.43 1152.94 1571.43 L1152.94 1573.77 Q1152.01 1573.77 1150.08 1573.69 Q1148.16 1573.62 1146.75 1573.58 Q1145.34 1573.55 1144.53 1573.55 Q1143.64 1573.55 1136.11 1573.77 Z" fill="#000000" fill-rule="evenodd" fill-opacity="1" /><path clip-path="url(#clip440)" d="M1157.79 1566.54 Q1157.79 1560.09 1165.39 1556.69 Q1169.95 1554.5 1179.36 1553.94 L1179.36 1551.16 Q1179.36 1546.46 1176.88 1543.98 Q1174.43 1541.46 1171.32 1541.46 Q1165.76 1541.46 1163.09 1544.94 Q1165.35 1545.01 1166.17 1546.16 Q1166.98 1547.27 1166.98 1548.42 Q1166.98 1549.94 1166.02 1550.94 Q1165.09 1551.91 1163.5 1551.91 Q1161.98 1551.91 1160.98 1550.98 Q1159.98 1550.02 1159.98 1548.35 Q1159.98 1544.64 1163.31 1542.2 Q1166.69 1539.75 1171.47 1539.75 Q1177.69 1539.75 1181.84 1543.94 Q1183.14 1545.24 1183.77 1546.9 Q1184.43 1548.57 1184.51 1549.68 Q1184.58 1550.76 1184.58 1552.91 L1184.58 1568.06 Q1184.58 1568.51 1184.73 1569.25 Q1184.88 1569.99 1185.55 1570.95 Q1186.25 1571.88 1187.4 1571.88 Q1190.14 1571.88 1190.1 1567.02 L1190.1 1562.76 L1192.03 1562.76 L1192.03 1567.02 Q1192.03 1571.06 1189.88 1572.66 Q1187.77 1574.21 1185.81 1574.21 Q1183.29 1574.21 1181.69 1572.36 Q1180.1 1570.51 1179.88 1567.99 Q1178.73 1570.88 1176.1 1572.77 Q1173.5 1574.62 1169.95 1574.62 Q1167.2 1574.62 1164.61 1573.92 Q1162.05 1573.25 1159.9 1571.36 Q1157.79 1569.43 1157.79 1566.54 M1163.65 1566.47 Q1163.65 1569.28 1165.65 1571.1 Q1167.65 1572.92 1170.46 1572.92 Q1173.65 1572.92 1176.5 1570.47 Q1179.36 1567.99 1179.36 1563.13 L1179.36 1555.54 Q1170.95 1555.83 1167.28 1559.21 Q1163.65 1562.54 1163.65 1566.47 Z" fill="#000000" fill-rule="evenodd" fill-opacity="1" /><path clip-path="url(#clip440)" d="M1194.66 1579.77 Q1194.66 1577.33 1196.51 1575.21 Q1198.4 1573.1 1201.67 1572.17 Q1198.33 1570.06 1198.33 1565.43 Q1198.33 1561.87 1200.66 1559.13 Q1197.11 1556.17 1197.11 1551.31 Q1197.11 1546.83 1200.66 1543.53 Q1204.22 1540.23 1209.41 1540.23 Q1213.97 1540.23 1217.45 1542.98 Q1221.08 1539.42 1225.49 1539.38 Q1227.46 1539.38 1228.38 1540.6 Q1229.35 1541.83 1229.35 1543.12 Q1229.35 1544.27 1228.6 1544.83 Q1227.9 1545.38 1227.16 1545.38 Q1226.23 1545.38 1225.57 1544.79 Q1224.94 1544.16 1224.94 1543.2 Q1224.94 1541.6 1226.16 1541.12 Q1225.94 1541.05 1225.42 1541.05 Q1221.71 1541.05 1218.56 1544.01 Q1221.67 1546.9 1221.67 1551.39 Q1221.67 1555.87 1218.12 1559.17 Q1214.56 1562.47 1209.41 1562.47 Q1205.15 1562.47 1201.89 1560.09 Q1200.59 1561.61 1200.59 1563.69 Q1200.59 1565.58 1201.74 1567.06 Q1202.89 1568.54 1204.63 1568.77 Q1205.15 1568.84 1210.3 1568.84 Q1213.34 1568.84 1215.01 1568.91 Q1216.67 1568.99 1219.04 1569.51 Q1221.45 1569.99 1223.34 1570.95 Q1228.27 1573.69 1228.31 1579.62 Q1228.31 1583.96 1223.31 1586.66 Q1218.34 1589.41 1211.45 1589.41 Q1204.48 1589.41 1199.55 1586.63 Q1194.66 1583.88 1194.66 1579.77 M1198.63 1579.77 Q1198.63 1582.88 1202.3 1585.26 Q1205.96 1587.66 1211.52 1587.66 Q1216.97 1587.66 1220.64 1585.29 Q1224.34 1582.96 1224.34 1579.77 Q1224.34 1577.51 1223.05 1576.07 Q1221.75 1574.62 1219.08 1574.03 Q1216.45 1573.47 1214.6 1573.36 Q1212.74 1573.25 1209.34 1573.25 L1204.85 1573.25 Q1202.26 1573.4 1200.44 1575.29 Q1198.63 1577.18 1198.63 1579.77 M1202.78 1551.39 Q1202.78 1560.72 1209.41 1560.72 Q1212.74 1560.72 1214.78 1557.69 Q1216.01 1555.65 1216.01 1551.31 Q1216.01 1541.97 1209.41 1541.97 Q1206.07 1541.97 1204 1545.01 Q1202.78 1547.05 1202.78 1551.39 Z" fill="#000000" fill-rule="evenodd" fill-opacity="1" /><path clip-path="url(#clip440)" d="M1255.73 1555.78 Q1255.73 1543.62 1260.26 1533.82 Q1262.19 1529.71 1264.9 1526.27 Q1267.6 1522.82 1269.4 1521.31 Q1271.19 1519.8 1271.68 1519.8 Q1272.38 1519.8 1272.42 1520.51 Q1272.42 1520.86 1271.47 1521.74 Q1259.87 1533.54 1259.91 1555.78 Q1259.91 1578.09 1271.19 1589.44 Q1272.42 1590.67 1272.42 1591.05 Q1272.42 1591.76 1271.68 1591.76 Q1271.19 1591.76 1269.47 1590.32 Q1267.74 1588.88 1265.07 1585.57 Q1262.4 1582.27 1260.47 1578.23 Q1255.73 1568.43 1255.73 1555.78 Z" fill="#000000" fill-rule="evenodd" fill-opacity="1" /><path clip-path="url(#clip440)" d="M1311.51 1549.67 Q1311.51 1551.63 1310.91 1553.85 L1302.73 1586.42 Q1301.99 1589.3 1299.77 1589.3 Q1298.86 1589.3 1298.3 1588.74 Q1297.77 1588.21 1297.77 1587.36 Q1297.77 1587.08 1297.98 1586.21 L1306.17 1553.11 Q1306.91 1550.09 1306.91 1548.58 Q1306.91 1543.55 1303.01 1543.55 Q1299.56 1543.55 1296.12 1546.08 Q1294.54 1547.35 1292.99 1549.63 Q1291.48 1551.88 1291.2 1552.69 Q1290.89 1554.51 1290.43 1555.92 Q1290.22 1556.9 1289.2 1560.73 L1287.62 1567.23 Q1286.49 1572.08 1286.25 1572.54 Q1285.9 1573.52 1285.12 1574.05 Q1284.35 1574.58 1283.58 1574.58 Q1282.7 1574.58 1282.1 1574.05 Q1281.5 1573.52 1281.5 1572.61 Q1281.5 1572.47 1281.61 1571.94 Q1281.72 1571.41 1281.89 1570.68 Q1282.07 1569.94 1282.14 1569.52 L1286.32 1552.9 Q1287.09 1549.88 1287.27 1548.93 Q1287.48 1547.94 1287.48 1546.86 Q1287.48 1544.96 1286.88 1544.26 Q1286.28 1543.55 1285.23 1543.55 Q1283.4 1543.55 1282.21 1545.73 Q1281.01 1547.91 1279.99 1552.13 Q1279.68 1553.29 1279.47 1553.53 Q1279.29 1553.78 1278.76 1553.78 Q1277.89 1553.74 1277.89 1553.04 Q1277.89 1552.86 1278.17 1551.74 Q1278.45 1550.58 1278.98 1548.89 Q1279.54 1547.17 1280.13 1546.08 Q1280.49 1545.35 1280.8 1544.85 Q1281.12 1544.36 1281.75 1543.59 Q1282.38 1542.82 1283.33 1542.39 Q1284.28 1541.97 1285.44 1541.97 Q1288 1541.97 1289.9 1543.62 Q1291.83 1545.27 1292.08 1548.23 Q1292.82 1547.14 1293.77 1546.15 Q1294.75 1545.17 1296.12 1544.19 Q1297.49 1543.17 1299.35 1542.57 Q1301.21 1541.97 1303.22 1541.97 Q1307.22 1541.97 1309.37 1544.05 Q1311.51 1546.08 1311.51 1549.67 Z" fill="#000000" fill-rule="evenodd" fill-opacity="1" /><path clip-path="url(#clip440)" d="M1319.32 1591.05 Q1319.32 1590.7 1320.24 1589.82 Q1331.83 1578.02 1331.83 1555.78 Q1331.83 1533.47 1320.69 1522.19 Q1319.32 1520.89 1319.32 1520.51 Q1319.32 1519.8 1320.03 1519.8 Q1320.52 1519.8 1322.24 1521.24 Q1324 1522.68 1326.63 1525.99 Q1329.3 1529.29 1331.27 1533.33 Q1336.01 1543.13 1336.01 1555.78 Q1336.01 1567.94 1331.48 1577.74 Q1329.55 1581.85 1326.84 1585.29 Q1324.14 1588.74 1322.34 1590.25 Q1320.55 1591.76 1320.03 1591.76 Q1319.32 1591.76 1319.32 1591.05 Z" fill="#000000" fill-rule="evenodd" fill-opacity="1" /><polyline clip-path="url(#clip442)" style="stroke:#000000; stroke-linecap:butt; stroke-linejoin:round; stroke-width:2; stroke-opacity:0.1; fill:none" points="
  253.171,1407.79 1862.64,1407.79 
  "/>
<polyline clip-path="url(#clip442)" style="stroke:#000000; stroke-linecap:butt; stroke-linejoin:round; stroke-width:2; stroke-opacity:0.1; fill:none" points="
  253.171,1047.53 1862.64,1047.53 
  "/>
<polyline clip-path="url(#clip442)" style="stroke:#000000; stroke-linecap:butt; stroke-linejoin:round; stroke-width:2; stroke-opacity:0.1; fill:none" points="
  253.171,687.268 1862.64,687.268 
  "/>
<polyline clip-path="url(#clip442)" style="stroke:#000000; stroke-linecap:butt; stroke-linejoin:round; stroke-width:2; stroke-opacity:0.1; fill:none" points="
  253.171,327.006 1862.64,327.006 
  "/>
<polyline clip-path="url(#clip440)" style="stroke:#000000; stroke-linecap:butt; stroke-linejoin:round; stroke-width:4; stroke-opacity:1; fill:none" points="
  253.171,1418.86 253.171,47.2441 
  "/>
<polyline clip-path="url(#clip440)" style="stroke:#000000; stroke-linecap:butt; stroke-linejoin:round; stroke-width:4; stroke-opacity:1; fill:none" points="
  253.171,1407.79 267.658,1407.79 
  "/>
<polyline clip-path="url(#clip440)" style="stroke:#000000; stroke-linecap:butt; stroke-linejoin:round; stroke-width:4; stroke-opacity:1; fill:none" points="
  253.171,1047.53 267.658,1047.53 
  "/>
<polyline clip-path="url(#clip440)" style="stroke:#000000; stroke-linecap:butt; stroke-linejoin:round; stroke-width:4; stroke-opacity:1; fill:none" points="
  253.171,687.268 267.658,687.268 
  "/>
<polyline clip-path="url(#clip440)" style="stroke:#000000; stroke-linecap:butt; stroke-linejoin:round; stroke-width:4; stroke-opacity:1; fill:none" points="
  253.171,327.006 267.658,327.006 
  "/>
<path clip-path="url(#clip440)" d="M151.979 1411.71 Q152.276 1412 152.276 1412.42 Q152.276 1412.84 151.979 1413.14 Q151.683 1413.44 151.263 1413.44 L119.593 1413.44 Q119.173 1413.44 118.877 1413.14 Q118.58 1412.84 118.58 1412.42 Q118.58 1412 118.877 1411.71 Q119.173 1411.41 119.593 1411.41 L151.263 1411.41 Q151.683 1411.41 151.979 1411.71 Z" fill="#000000" fill-rule="evenodd" fill-opacity="1" /><path clip-path="url(#clip440)" d="M157.068 1408.89 Q157.068 1401.46 158.945 1397.4 Q161.564 1391.38 167.74 1391.38 Q169.049 1391.38 170.408 1391.75 Q171.791 1392.09 173.52 1393.45 Q175.274 1394.81 176.337 1397.03 Q178.362 1401.33 178.362 1408.89 Q178.362 1416.28 176.485 1420.3 Q173.743 1426.18 167.69 1426.18 Q165.418 1426.18 163.096 1425.02 Q160.798 1423.86 159.341 1421.07 Q157.068 1416.9 157.068 1408.89 M161.268 1408.27 Q161.268 1415.91 161.811 1418.95 Q162.429 1422.23 164.108 1423.66 Q165.813 1425.07 167.69 1425.07 Q169.716 1425.07 171.396 1423.57 Q173.1 1422.03 173.619 1418.75 Q174.187 1415.51 174.163 1408.27 Q174.163 1401.23 173.669 1398.42 Q173.002 1395.13 171.223 1393.82 Q169.469 1392.49 167.69 1392.49 Q167.023 1392.49 166.307 1392.69 Q165.615 1392.88 164.603 1393.45 Q163.59 1394.02 162.799 1395.43 Q162.033 1396.84 161.663 1398.96 Q161.268 1401.7 161.268 1408.27 Z" fill="#000000" fill-rule="evenodd" fill-opacity="1" /><path clip-path="url(#clip440)" d="M185.452 1424.26 Q184.686 1423.44 184.686 1422.38 Q184.686 1421.32 185.452 1420.55 Q186.218 1419.76 187.379 1419.76 Q188.491 1419.76 189.232 1420.5 Q189.998 1421.22 189.998 1422.4 Q189.998 1423.57 189.182 1424.33 Q188.392 1425.07 187.379 1425.07 Q186.218 1425.07 185.452 1424.26 Z" fill="#000000" fill-rule="evenodd" fill-opacity="1" /><path clip-path="url(#clip440)" d="M196.964 1425.07 Q196.964 1424.16 197.038 1423.89 Q197.137 1423.61 197.532 1423.19 L207.241 1412.37 Q212.552 1406.4 212.552 1401.18 Q212.552 1397.8 210.773 1395.38 Q209.019 1392.96 205.783 1392.96 Q203.56 1392.96 201.682 1394.32 Q199.805 1395.68 198.94 1398.1 Q199.088 1398.05 199.607 1398.05 Q200.867 1398.05 201.559 1398.84 Q202.275 1399.63 202.275 1400.69 Q202.275 1402.05 201.386 1402.72 Q200.521 1403.36 199.657 1403.36 Q199.311 1403.36 198.841 1403.28 Q198.397 1403.21 197.68 1402.52 Q196.964 1401.8 196.964 1400.54 Q196.964 1397.01 199.632 1394.19 Q202.325 1391.38 206.425 1391.38 Q211.07 1391.38 214.108 1394.14 Q217.171 1396.89 217.171 1401.18 Q217.171 1402.69 216.702 1404.07 Q216.257 1405.43 215.64 1406.5 Q215.047 1407.56 213.416 1409.26 Q211.786 1410.97 210.477 1412.18 Q209.167 1413.39 206.228 1415.96 L200.867 1421.17 L209.983 1421.17 Q214.429 1421.17 214.775 1420.77 Q215.269 1420.06 215.887 1416.28 L217.171 1416.28 L215.738 1425.07 L196.964 1425.07 Z" fill="#000000" fill-rule="evenodd" fill-opacity="1" /><path clip-path="url(#clip440)" d="M153.511 1051.45 Q153.807 1051.74 153.807 1052.16 Q153.807 1052.58 153.511 1052.88 Q153.214 1053.17 152.794 1053.17 L121.125 1053.17 Q120.705 1053.17 120.408 1052.88 Q120.112 1052.58 120.112 1052.16 Q120.112 1051.74 120.408 1051.45 Q120.705 1051.15 121.125 1051.15 L152.794 1051.15 Q153.214 1051.15 153.511 1051.45 Z" fill="#000000" fill-rule="evenodd" fill-opacity="1" /><path clip-path="url(#clip440)" d="M158.6 1048.63 Q158.6 1041.19 160.477 1037.14 Q163.096 1031.11 169.271 1031.11 Q170.581 1031.11 171.939 1031.49 Q173.323 1031.83 175.052 1033.19 Q176.806 1034.55 177.868 1036.77 Q179.894 1041.07 179.894 1048.63 Q179.894 1056.02 178.016 1060.04 Q175.274 1065.92 169.222 1065.92 Q166.949 1065.92 164.627 1064.76 Q162.33 1063.6 160.872 1060.81 Q158.6 1056.63 158.6 1048.63 M162.799 1048.01 Q162.799 1055.65 163.343 1058.68 Q163.96 1061.97 165.64 1063.4 Q167.345 1064.81 169.222 1064.81 Q171.248 1064.81 172.928 1063.3 Q174.632 1061.77 175.151 1058.49 Q175.719 1055.25 175.694 1048.01 Q175.694 1040.97 175.2 1038.16 Q174.533 1034.87 172.755 1033.56 Q171.001 1032.23 169.222 1032.23 Q168.555 1032.23 167.839 1032.42 Q167.147 1032.62 166.134 1033.19 Q165.121 1033.76 164.331 1035.17 Q163.565 1036.57 163.194 1038.7 Q162.799 1041.44 162.799 1048.01 Z" fill="#000000" fill-rule="evenodd" fill-opacity="1" /><path clip-path="url(#clip440)" d="M186.984 1063.99 Q186.218 1063.18 186.218 1062.12 Q186.218 1061.06 186.984 1060.29 Q187.75 1059.5 188.911 1059.5 Q190.022 1059.5 190.763 1060.24 Q191.529 1060.96 191.529 1062.14 Q191.529 1063.3 190.714 1064.07 Q189.923 1064.81 188.911 1064.81 Q187.75 1064.81 186.984 1063.99 Z" fill="#000000" fill-rule="evenodd" fill-opacity="1" /><path clip-path="url(#clip440)" d="M200.472 1035.93 L200.472 1034.35 Q206.549 1034.35 209.686 1031.11 Q210.551 1031.11 210.699 1031.31 Q210.847 1031.51 210.847 1032.42 L210.847 1060.81 Q210.847 1062.32 211.588 1062.78 Q212.329 1063.25 215.566 1063.25 L217.171 1063.25 L217.171 1064.81 Q215.393 1064.66 208.97 1064.66 Q202.547 1064.66 200.793 1064.81 L200.793 1063.25 L202.399 1063.25 Q205.585 1063.25 206.351 1062.81 Q207.117 1062.34 207.117 1060.81 L207.117 1034.6 Q204.474 1035.93 200.472 1035.93 Z" fill="#000000" fill-rule="evenodd" fill-opacity="1" /><path clip-path="url(#clip440)" d="M156.525 688.367 Q156.525 680.932 158.402 676.88 Q161.021 670.853 167.196 670.853 Q168.506 670.853 169.864 671.223 Q171.248 671.569 172.977 672.928 Q174.731 674.287 175.793 676.51 Q177.819 680.808 177.819 688.367 Q177.819 695.754 175.941 699.78 Q173.199 705.66 167.147 705.66 Q164.874 705.66 162.552 704.499 Q160.255 703.338 158.797 700.546 Q156.525 696.371 156.525 688.367 M160.724 687.75 Q160.724 695.383 161.268 698.422 Q161.885 701.707 163.565 703.14 Q165.27 704.548 167.147 704.548 Q169.173 704.548 170.852 703.041 Q172.557 701.51 173.076 698.224 Q173.644 694.988 173.619 687.75 Q173.619 680.709 173.125 677.893 Q172.458 674.608 170.68 673.298 Q168.926 671.964 167.147 671.964 Q166.48 671.964 165.764 672.162 Q165.072 672.36 164.059 672.928 Q163.046 673.496 162.256 674.904 Q161.49 676.312 161.119 678.437 Q160.724 681.179 160.724 687.75 Z" fill="#000000" fill-rule="evenodd" fill-opacity="1" /><path clip-path="url(#clip440)" d="M184.909 703.733 Q184.143 702.918 184.143 701.855 Q184.143 700.793 184.909 700.027 Q185.674 699.237 186.836 699.237 Q187.947 699.237 188.688 699.978 Q189.454 700.694 189.454 701.88 Q189.454 703.041 188.639 703.807 Q187.848 704.548 186.836 704.548 Q185.674 704.548 184.909 703.733 Z" fill="#000000" fill-rule="evenodd" fill-opacity="1" /><path clip-path="url(#clip440)" d="M195.877 688.367 Q195.877 680.932 197.754 676.88 Q200.373 670.853 206.549 670.853 Q207.858 670.853 209.217 671.223 Q210.6 671.569 212.329 672.928 Q214.083 674.287 215.146 676.51 Q217.171 680.808 217.171 688.367 Q217.171 695.754 215.294 699.78 Q212.552 705.66 206.499 705.66 Q204.227 705.66 201.905 704.499 Q199.607 703.338 198.15 700.546 Q195.877 696.371 195.877 688.367 M200.077 687.75 Q200.077 695.383 200.62 698.422 Q201.238 701.707 202.917 703.14 Q204.622 704.548 206.499 704.548 Q208.525 704.548 210.205 703.041 Q211.909 701.51 212.428 698.224 Q212.996 694.988 212.972 687.75 Q212.972 680.709 212.478 677.893 Q211.811 674.608 210.032 673.298 Q208.278 671.964 206.499 671.964 Q205.832 671.964 205.116 672.162 Q204.424 672.36 203.411 672.928 Q202.399 673.496 201.608 674.904 Q200.842 676.312 200.472 678.437 Q200.077 681.179 200.077 687.75 Z" fill="#000000" fill-rule="evenodd" fill-opacity="1" /><path clip-path="url(#clip440)" d="M158.6 328.106 Q158.6 320.67 160.477 316.618 Q163.096 310.591 169.271 310.591 Q170.581 310.591 171.939 310.961 Q173.323 311.307 175.052 312.666 Q176.806 314.025 177.868 316.248 Q179.894 320.546 179.894 328.106 Q179.894 335.492 178.016 339.518 Q175.274 345.398 169.222 345.398 Q166.949 345.398 164.627 344.237 Q162.33 343.076 160.872 340.284 Q158.6 336.109 158.6 328.106 M162.799 327.488 Q162.799 335.121 163.343 338.16 Q163.96 341.445 165.64 342.878 Q167.345 344.286 169.222 344.286 Q171.248 344.286 172.928 342.779 Q174.632 341.248 175.151 337.962 Q175.719 334.726 175.694 327.488 Q175.694 320.447 175.2 317.631 Q174.533 314.346 172.755 313.036 Q171.001 311.702 169.222 311.702 Q168.555 311.702 167.839 311.9 Q167.147 312.098 166.134 312.666 Q165.121 313.234 164.331 314.642 Q163.565 316.05 163.194 318.175 Q162.799 320.917 162.799 327.488 Z" fill="#000000" fill-rule="evenodd" fill-opacity="1" /><path clip-path="url(#clip440)" d="M186.984 343.471 Q186.218 342.656 186.218 341.594 Q186.218 340.531 186.984 339.765 Q187.75 338.975 188.911 338.975 Q190.022 338.975 190.763 339.716 Q191.529 340.432 191.529 341.618 Q191.529 342.779 190.714 343.545 Q189.923 344.286 188.911 344.286 Q187.75 344.286 186.984 343.471 Z" fill="#000000" fill-rule="evenodd" fill-opacity="1" /><path clip-path="url(#clip440)" d="M200.472 315.408 L200.472 313.827 Q206.549 313.827 209.686 310.591 Q210.551 310.591 210.699 310.788 Q210.847 310.986 210.847 311.9 L210.847 340.284 Q210.847 341.791 211.588 342.261 Q212.329 342.73 215.566 342.73 L217.171 342.73 L217.171 344.286 Q215.393 344.138 208.97 344.138 Q202.547 344.138 200.793 344.286 L200.793 342.73 L202.399 342.73 Q205.585 342.73 206.351 342.285 Q207.117 341.816 207.117 340.284 L207.117 314.074 Q204.474 315.408 200.472 315.408 Z" fill="#000000" fill-rule="evenodd" fill-opacity="1" /><path clip-path="url(#clip440)" d="M70.448 842.662 Q71.0101 842.662 71.4669 843.084 Q71.8885 843.47 71.8885 844.103 Q71.8885 844.559 71.5723 844.946 Q71.2561 845.297 71.0453 845.403 Q70.8345 845.508 70.3075 845.754 L61.0322 849.443 L61.0322 866.694 L69.5696 870.137 Q71.2561 870.839 71.5723 871.261 Q71.8885 871.648 71.8885 873.088 L71.8885 880.08 Q71.8885 880.642 71.8533 880.993 Q71.8182 881.309 71.7128 881.766 Q71.6074 882.223 71.2912 882.469 Q70.975 882.68 70.448 882.68 Q70.1669 882.68 69.148 882.223 L24.3878 864.305 Q22.7365 863.742 22.7365 862.653 Q22.7365 861.951 23.1229 861.634 Q23.5094 861.318 24.3878 861.002 L69.2183 843.014 L70.448 842.662 M58.1512 850.567 L39.4952 858.051 L58.1512 865.534 L58.1512 850.567 M35.6305 859.632 L28.1471 862.653 L69.0075 879.061 L69.0075 872.948 L35.6305 859.632 Z" fill="#000000" fill-rule="evenodd" fill-opacity="1" /><path clip-path="url(#clip440)" d="M53.9 839.148 Q41.7438 839.148 31.9415 834.615 Q27.8309 832.683 24.3878 829.978 Q20.9447 827.272 19.4339 825.481 Q17.9232 823.689 17.9232 823.197 Q17.9232 822.494 18.6258 822.459 Q18.9772 822.459 19.8555 823.408 Q31.6604 835.002 53.9 834.967 Q76.2099 834.967 87.5581 823.689 Q88.7878 822.459 89.1742 822.459 Q89.8769 822.459 89.8769 823.197 Q89.8769 823.689 88.4364 825.41 Q86.9959 827.132 83.6934 829.802 Q80.3908 832.472 76.3504 834.405 Q66.5482 839.148 53.9 839.148 Z" fill="#000000" fill-rule="evenodd" fill-opacity="1" /><path clip-path="url(#clip440)" d="M47.7868 783.367 Q49.7543 783.367 51.9677 783.965 L84.5366 792.151 Q87.4176 792.889 87.4176 795.102 Q87.4176 796.016 86.8554 796.578 Q86.3284 797.105 85.4852 797.105 Q85.2041 797.105 84.3258 796.894 L51.2299 788.708 Q48.2084 787.97 46.6976 787.97 Q41.6735 787.97 41.6735 791.87 Q41.6735 795.313 44.2031 798.756 Q45.468 800.337 47.7516 801.883 Q50.0002 803.394 50.8083 803.675 Q52.6352 803.991 54.0406 804.448 Q55.0243 804.658 58.8539 805.677 L65.3536 807.258 Q70.2021 808.383 70.6588 808.628 Q71.6425 808.98 72.1695 809.753 Q72.6965 810.526 72.6965 811.299 Q72.6965 812.177 72.1695 812.774 Q71.6425 813.372 70.7291 813.372 Q70.5885 813.372 70.0615 813.266 Q69.5345 813.161 68.7967 812.985 Q68.0589 812.809 67.6373 812.739 L51.0191 808.558 Q47.9976 807.785 47.049 807.61 Q46.0652 807.399 44.9761 807.399 Q43.0789 807.399 42.3762 807.996 Q41.6735 808.593 41.6735 809.647 Q41.6735 811.474 43.8518 812.669 Q46.0301 813.863 50.2461 814.882 Q51.4055 815.198 51.6515 815.409 Q51.8974 815.585 51.8974 816.112 Q51.8623 816.99 51.1596 816.99 Q50.9839 816.99 49.8597 816.709 Q48.7002 816.428 47.0138 815.901 Q45.2923 815.339 44.2031 814.742 Q43.4653 814.39 42.9735 814.074 Q42.4816 813.758 41.7087 813.126 Q40.9357 812.493 40.5141 811.545 Q40.0925 810.596 40.0925 809.437 Q40.0925 806.872 41.7438 804.975 Q43.3951 803.042 46.3463 802.796 Q45.2572 802.058 44.2734 801.11 Q43.2897 800.126 42.3059 798.756 Q41.287 797.386 40.6898 795.524 Q40.0925 793.662 40.0925 791.659 Q40.0925 787.654 42.1654 785.511 Q44.2031 783.367 47.7868 783.367 Z" fill="#000000" fill-rule="evenodd" fill-opacity="1" /><path clip-path="url(#clip440)" d="M89.1742 775.553 Q88.8229 775.553 87.9446 774.64 Q76.1396 763.045 53.9 763.045 Q31.5902 763.045 20.3122 774.183 Q19.0123 775.553 18.6258 775.553 Q17.9232 775.553 17.9232 774.85 Q17.9232 774.359 19.3636 772.637 Q20.8041 770.88 24.1067 768.245 Q27.4092 765.575 31.4496 763.608 Q41.2519 758.865 53.9 758.865 Q66.0563 758.865 75.8586 763.397 Q79.9692 765.329 83.4123 768.034 Q86.8554 770.74 88.3662 772.532 Q89.8769 774.323 89.8769 774.85 Q89.8769 775.553 89.1742 775.553 Z" fill="#000000" fill-rule="evenodd" fill-opacity="1" /><path clip-path="url(#clip440)" d="M89.8769 728.913 L17.9232 728.913 L17.9232 718.057 L19.5744 718.057 L19.5744 724.1 L88.2256 724.1 L88.2256 718.057 L89.8769 718.057 L89.8769 728.913 Z" fill="#000000" fill-rule="evenodd" fill-opacity="1" /><path clip-path="url(#clip440)" d="M51.5812 688.67 Q56.6405 688.67 61.5943 691.235 Q66.513 693.765 69.6048 697.84 Q72.6965 701.88 72.6965 706.026 Q72.6965 710.067 69.6048 712.631 Q66.4779 715.161 61.3835 715.161 Q59.5917 715.161 58.3269 714.95 Q57.0621 714.739 54.1108 714.002 L30.6415 708.099 Q26.2498 707.08 26.2147 707.08 Q25.7931 707.08 25.5823 707.256 Q25.3364 707.396 25.1607 708.24 Q24.985 709.083 24.985 710.699 Q24.985 711.367 24.9499 711.683 Q24.9148 711.964 24.7391 712.21 Q24.5283 712.421 24.1067 712.421 Q23.5094 712.421 23.1932 712.175 Q22.8419 711.894 22.7716 711.683 Q22.7013 711.472 22.6662 711.05 Q22.6311 710.453 22.4554 708.45 Q22.2446 706.448 22.1041 704.726 Q21.9635 703.005 21.9635 702.267 Q21.9635 701.845 22.1743 701.635 Q22.35 701.389 22.5608 701.389 L22.7365 701.353 L44.4139 706.659 Q40.0925 702.478 40.0925 698.227 Q40.0925 693.975 43.3599 691.34 Q46.6274 688.67 51.5812 688.67 M48.4192 693.87 Q45.0815 693.87 43.3951 695.135 Q41.6735 696.365 41.6735 698.402 Q41.6735 700.124 42.9735 702.372 Q44.2734 704.621 47.4354 707.01 Q48.0327 707.467 48.384 707.642 Q48.7354 707.783 49.9299 708.099 L56.5702 709.68 Q61.1024 710.84 63.8429 710.84 Q67.567 710.84 69.3237 709.469 Q71.0804 708.099 71.0804 706.026 Q71.0804 703.848 69.148 701.564 Q67.2157 699.281 63.7023 697.524 Q61.3835 696.435 56.3945 695.17 Q51.3704 693.87 48.4192 693.87 Z" fill="#000000" fill-rule="evenodd" fill-opacity="1" /><path clip-path="url(#clip440)" d="M26.9174 667.962 Q28.4633 667.962 29.6227 669.227 Q30.7469 670.456 30.7469 671.791 Q30.7469 673.021 30.0091 673.794 Q29.2362 674.532 28.1471 674.532 Q26.7066 674.532 25.512 673.302 Q24.3175 672.072 24.3175 670.632 Q24.3175 669.437 25.0553 668.7 Q25.7931 667.962 26.9174 667.962 M61.5943 667.329 Q61.8754 667.329 62.9997 667.646 Q64.0888 667.962 65.7752 668.735 Q67.4265 669.472 68.9724 670.491 Q70.5183 671.51 71.6074 673.197 Q72.6965 674.848 72.6965 676.745 Q72.6965 679.31 71.0101 680.996 Q69.3237 682.648 66.7941 682.648 Q65.4239 682.648 61.0322 680.996 Q48.2435 676.218 47.7165 676.042 Q45.7139 675.234 43.9572 675.234 Q43.1491 675.234 42.6573 675.41 Q42.1303 675.586 41.9546 675.937 Q41.7438 676.288 41.7087 676.499 Q41.6735 676.675 41.6735 677.026 Q41.6735 679.099 43.7815 681.031 Q45.8896 682.964 50.5975 684.299 Q51.4758 684.58 51.6866 684.756 Q51.8974 684.931 51.8974 685.458 Q51.8623 686.337 51.1596 686.337 Q50.9488 686.337 50.1407 686.091 Q49.2975 685.845 48.0327 685.388 Q46.7328 684.931 45.3977 684.123 Q44.0275 683.315 42.8329 682.331 Q41.6384 681.313 40.8654 679.872 Q40.0925 678.432 40.0925 676.815 Q40.0925 674.18 41.8141 672.564 Q43.5005 670.913 45.995 670.913 Q47.3652 670.913 49.7894 671.862 Q52.9514 673.021 53.9703 673.443 L61.524 676.253 Q64.2645 677.272 65.1077 677.588 Q65.9157 677.869 66.8995 678.115 Q67.8481 678.326 68.7264 678.326 Q69.9561 678.326 70.5183 677.94 Q71.0804 677.518 71.0804 676.605 Q71.0804 674.075 68.5859 672.213 Q66.0563 670.351 62.1916 669.262 Q62.0862 669.227 61.9105 669.191 Q61.0322 668.91 60.9268 668.629 Q60.8916 668.489 60.8916 668.208 Q60.8916 667.329 61.5943 667.329 Z" fill="#000000" fill-rule="evenodd" fill-opacity="1" /><path clip-path="url(#clip440)" d="M41.6735 639.094 Q42.6573 639.094 42.9032 639.551 Q43.114 640.008 43.114 641.273 L43.114 648.018 L64.3347 653.359 Q66.1968 653.78 67.7778 653.78 Q69.5345 653.78 70.3075 653.253 Q71.0804 652.691 71.0804 651.532 Q71.0804 649.248 69.0075 646.789 Q66.9346 644.294 61.8754 642.186 Q61.2078 641.905 61.0673 641.765 Q60.8916 641.589 60.8916 641.132 Q60.8916 640.254 61.5943 640.254 Q61.8402 640.254 62.9645 640.746 Q64.0888 641.202 65.7401 642.221 Q67.3914 643.205 68.9372 644.505 Q70.4831 645.77 71.6074 647.702 Q72.6965 649.635 72.6965 651.707 Q72.6965 654.624 70.8345 656.486 Q68.9724 658.313 66.0563 658.313 Q65.1077 658.313 62.0862 657.575 Q59.0295 656.837 43.114 652.832 L43.114 659.191 Q43.114 660.069 43.0789 660.421 Q43.0437 660.737 42.8681 660.983 Q42.6573 661.194 42.2357 661.194 Q41.5681 661.194 41.287 660.912 Q40.9708 660.631 40.9357 660.28 Q40.8654 659.894 40.8654 659.015 L40.8654 652.27 L29.447 649.459 Q28.3227 649.178 27.6903 648.475 Q27.0228 647.737 26.9525 647.316 Q26.8471 646.894 26.8471 646.578 Q26.8471 645.629 27.3741 645.067 Q27.866 644.505 28.7795 644.505 Q29.2713 644.505 40.8654 647.456 L40.8654 641.132 Q40.8654 640.324 40.9006 640.008 Q40.9357 639.657 41.1114 639.375 Q41.287 639.094 41.6735 639.094 Z" fill="#000000" fill-rule="evenodd" fill-opacity="1" /><path clip-path="url(#clip440)" d="M46.276 608.411 Q48.2435 608.411 49.2975 609.395 Q50.3164 610.379 50.3164 611.714 Q50.3164 612.803 49.684 613.4 Q49.0516 613.962 48.2084 613.962 Q46.9787 613.962 45.995 612.979 Q45.0112 611.96 44.9761 610.484 Q43.6761 610.976 42.9032 612.276 Q42.0951 613.576 41.8843 614.735 Q41.6735 615.86 41.6735 616.984 Q41.6735 619.197 42.3762 620.884 Q43.0789 622.57 44.168 623.413 Q45.222 624.257 46.2409 624.643 Q47.2598 625.029 48.1381 625.029 Q48.9111 625.029 49.5435 624.854 Q50.1407 624.643 50.5975 624.151 Q51.0191 623.659 51.3001 623.308 Q51.5812 622.921 51.8271 622.078 Q52.0731 621.235 52.1785 620.884 Q52.2488 620.532 52.4596 619.549 Q52.8812 617.511 53.1271 616.597 Q53.3379 615.684 53.9352 614.489 Q54.5324 613.26 55.481 612.346 Q57.6945 610.133 60.7511 610.133 Q61.8754 610.133 63.2456 610.519 Q64.6158 610.871 66.3374 611.889 Q68.0589 612.908 69.4291 614.454 Q70.7993 616 71.7479 618.67 Q72.6965 621.305 72.6965 624.608 Q72.6965 629.21 70.7642 632.056 Q68.7967 634.902 65.7049 634.902 Q63.4564 634.902 62.2267 633.672 Q60.9619 632.443 60.9619 630.862 Q60.9619 629.667 61.6294 628.929 Q62.2618 628.192 63.4564 628.192 Q65.0725 628.192 66.3022 629.491 Q67.5319 630.791 67.286 632.724 Q71.0804 631.072 71.0804 624.538 Q71.0804 622.078 70.448 620.181 Q69.7804 618.249 68.867 617.195 Q67.9184 616.106 66.759 615.403 Q65.5995 614.7 64.7212 614.489 Q63.8429 614.243 63.1753 614.243 Q62.0159 614.243 61.1376 614.7 Q60.2592 615.157 59.7674 615.789 Q59.2403 616.387 58.8187 617.546 Q58.362 618.67 58.1863 619.478 Q58.0107 620.286 57.7296 621.727 Q57.5891 622.394 57.5188 622.816 Q57.4134 623.238 57.1323 624.116 Q56.8161 624.959 56.4999 625.556 Q56.1837 626.119 55.6216 626.856 Q55.0594 627.594 54.3919 628.051 Q53.7244 628.508 52.7406 628.824 Q51.7569 629.14 50.5975 629.14 Q49.5435 629.14 48.2786 628.824 Q47.0138 628.473 45.5382 627.594 Q44.0626 626.681 42.8681 625.381 Q41.6735 624.081 40.9006 621.903 Q40.0925 619.689 40.0925 616.984 Q40.0925 613.049 41.9195 610.73 Q43.7113 608.411 46.276 608.411 Z" fill="#000000" fill-rule="evenodd" fill-opacity="1" /><path clip-path="url(#clip440)" d="M88.2256 603.224 L88.2256 597.181 L19.5744 597.181 L19.5744 603.224 L17.9232 603.224 L17.9232 592.368 L89.8769 592.368 L89.8769 603.224 L88.2256 603.224 Z" fill="#000000" fill-rule="evenodd" fill-opacity="1" /><polyline clip-path="url(#clip442)" style="stroke:#000000; stroke-linecap:butt; stroke-linejoin:round; stroke-width:6; stroke-opacity:1; fill:none" points="
  298.722,223.542 378.637,86.0634 458.551,98.8669 538.465,88.2206 618.379,109.162 698.293,119.839 778.208,117.956 858.122,136.931 938.036,172.536 1017.95,191.98 
  1097.86,236.694 1177.78,257.402 1257.69,287.759 1337.61,318.826 1417.52,338.084 1497.44,359.688 1577.35,372.079 1657.26,384.358 1737.18,389.781 1817.09,400.155 
  
  "/>
<polyline clip-path="url(#clip442)" style="stroke:#ff0000; stroke-linecap:butt; stroke-linejoin:round; stroke-width:6; stroke-opacity:1; fill:none" points="
  298.722,1077.12 378.637,1128.98 458.551,1232.1 538.465,1343.89 618.379,1380.04 698.293,1354.98 778.208,1345.04 858.122,1318.48 938.036,1274.32 1017.95,1235.91 
  1097.86,1206.61 1177.78,1187.94 1257.69,1155.96 1337.61,1122.82 1417.52,1090.91 1497.44,1060.14 1577.35,1028.74 1657.26,995.931 1737.18,973.018 1817.09,947.954 
  
  "/>
<polyline clip-path="url(#clip442)" style="stroke:#000000; stroke-linecap:butt; stroke-linejoin:round; stroke-width:4; stroke-opacity:0.2; fill:none" points="
  -1356.3,687.268 3472.12,687.268 
  "/>
<path clip-path="url(#clip440)" d="
M1932.63 810.812 L2352.76 810.812 L2352.76 577.532 L1932.63 577.532  Z
  " fill="#ffffff" fill-rule="evenodd" fill-opacity="1"/>
<polyline clip-path="url(#clip440)" style="stroke:#000000; stroke-linecap:butt; stroke-linejoin:round; stroke-width:4; stroke-opacity:1; fill:none" points="
  1932.63,810.812 2352.76,810.812 2352.76,577.532 1932.63,577.532 1932.63,810.812 
  "/>
<polyline clip-path="url(#clip440)" style="stroke:#000000; stroke-linecap:butt; stroke-linejoin:round; stroke-width:6; stroke-opacity:1; fill:none" points="
  1955.96,655.292 2095.93,655.292 
  "/>
<path clip-path="url(#clip440)" d="M2155.1 649.466 Q2155.1 651.434 2153.87 652.558 Q2152.64 653.647 2151.23 653.647 Q2149.9 653.647 2149.19 652.874 Q2148.49 652.101 2148.49 651.118 Q2148.49 649.783 2149.47 648.623 Q2150.46 647.464 2151.93 647.218 Q2150.49 646.304 2148.35 646.304 Q2146.94 646.304 2145.72 647.042 Q2144.52 647.78 2143.78 648.729 Q2143.08 649.677 2142.45 651.047 Q2141.85 652.383 2141.6 653.191 Q2141.39 653.964 2141.22 654.807 L2138.76 664.644 Q2137.56 669.317 2137.56 670.968 Q2137.56 673.006 2138.55 674.376 Q2139.53 675.711 2141.5 675.711 Q2142.27 675.711 2143.15 675.5 Q2144.03 675.255 2145.15 674.622 Q2146.31 673.955 2147.33 672.971 Q2148.39 671.952 2149.4 670.23 Q2150.42 668.509 2151.09 666.295 Q2151.3 665.523 2152 665.523 Q2152.88 665.523 2152.88 666.225 Q2152.88 666.822 2152.39 668.087 Q2151.93 669.317 2150.91 670.933 Q2149.93 672.514 2148.63 673.955 Q2147.33 675.36 2145.4 676.344 Q2143.47 677.327 2141.36 677.327 Q2138.34 677.327 2136.33 675.711 Q2134.33 674.095 2133.59 671.847 Q2133.42 672.163 2133.17 672.584 Q2132.93 673.006 2132.19 673.955 Q2131.49 674.868 2130.68 675.571 Q2129.87 676.238 2128.61 676.765 Q2127.38 677.327 2126.04 677.327 Q2124.35 677.327 2122.84 676.836 Q2121.37 676.344 2120.31 675.219 Q2119.26 674.095 2119.26 672.549 Q2119.26 670.828 2120.42 669.633 Q2121.61 668.403 2123.23 668.403 Q2124.25 668.403 2125.06 669.001 Q2125.9 669.598 2125.9 670.898 Q2125.9 672.338 2124.92 673.428 Q2123.93 674.517 2122.53 674.798 Q2123.97 675.711 2126.11 675.711 Q2128.43 675.711 2130.26 673.674 Q2132.08 671.636 2132.96 668.228 Q2135.14 660.042 2135.98 656.388 Q2136.83 652.699 2136.83 651.118 Q2136.83 649.642 2136.44 648.623 Q2136.05 647.604 2135.39 647.148 Q2134.75 646.656 2134.16 646.48 Q2133.59 646.304 2132.96 646.304 Q2131.91 646.304 2130.71 646.726 Q2129.55 647.148 2128.15 648.131 Q2126.78 649.08 2125.48 651.047 Q2124.18 653.015 2123.3 655.72 Q2123.12 656.528 2122.35 656.528 Q2121.51 656.493 2121.51 655.79 Q2121.51 655.193 2121.96 653.964 Q2122.46 652.699 2123.44 651.118 Q2124.46 649.537 2125.76 648.131 Q2127.09 646.691 2129.03 645.707 Q2130.99 644.723 2133.1 644.723 Q2134.05 644.723 2134.96 644.934 Q2135.91 645.11 2137.04 645.637 Q2138.2 646.164 2139.22 647.323 Q2140.23 648.483 2140.87 650.169 Q2141.29 649.361 2141.85 648.588 Q2142.45 647.815 2143.36 646.867 Q2144.31 645.883 2145.61 645.321 Q2146.94 644.723 2148.42 644.723 Q2149.86 644.723 2151.27 645.11 Q2152.67 645.461 2153.87 646.621 Q2155.1 647.745 2155.1 649.466 Z" fill="#000000" fill-rule="evenodd" fill-opacity="1" /><path clip-path="url(#clip440)" d="M2243 657.582 Q2243.63 657.828 2243.63 658.531 Q2243.63 659.234 2243 659.48 Q2237.73 661.236 2233.13 666.963 Q2229.86 671.214 2228.95 676.098 Q2228.84 676.59 2228.45 676.906 Q2228.07 677.222 2227.54 677.222 Q2226.94 677.222 2226.52 676.8 Q2226.1 676.414 2226.1 675.817 Q2226.1 675.782 2226.13 675.676 Q2226.17 675.536 2226.17 675.5 Q2227.22 669.809 2230.91 665.136 Q2233.23 662.185 2236.53 659.971 L2181.41 659.971 Q2180.81 659.971 2180.39 659.55 Q2179.97 659.128 2179.97 658.531 Q2179.97 657.934 2180.39 657.512 Q2180.81 657.09 2181.41 657.09 L2236.53 657.09 Q2233.23 654.877 2230.91 651.926 Q2227.22 647.253 2226.17 641.561 Q2226.17 641.526 2226.13 641.421 Q2226.1 641.28 2226.1 641.245 Q2226.1 640.648 2226.52 640.261 Q2226.94 639.84 2227.54 639.84 Q2228.07 639.84 2228.45 640.156 Q2228.84 640.472 2228.95 640.964 Q2229.86 645.848 2233.13 650.099 Q2237.73 655.826 2243 657.582 Z" fill="#000000" fill-rule="evenodd" fill-opacity="1" /><path clip-path="url(#clip440)" d="M2304.4 647.464 Q2304.4 647.956 2304.08 649.115 L2297.2 676.59 Q2295.68 682.703 2290.77 686.989 Q2285.88 691.275 2280.33 691.275 Q2276.99 691.275 2274.85 689.484 Q2272.71 687.727 2272.71 685.022 Q2272.71 682.633 2273.97 681.473 Q2275.24 680.349 2276.75 680.349 Q2277.24 680.349 2277.77 680.489 Q2278.29 680.63 2278.86 681.227 Q2279.42 681.825 2279.42 682.843 Q2279.42 684.495 2277.98 685.795 Q2277.27 686.392 2276.61 686.532 Q2275.97 686.673 2274.89 686.673 Q2275.31 687.657 2276.08 688.324 Q2276.85 688.992 2277.73 689.238 Q2278.61 689.519 2279.17 689.589 Q2279.77 689.694 2280.33 689.694 Q2284.83 689.694 2288.27 685.162 Q2289.29 683.792 2290.03 682.422 Q2290.8 681.087 2291.36 679.435 Q2291.93 677.819 2292.17 676.941 Q2292.45 676.063 2292.94 674.06 Q2289.68 677.327 2285.67 677.327 Q2283.99 677.327 2282.47 676.871 Q2281 676.414 2279.7 675.465 Q2278.4 674.482 2277.63 672.76 Q2276.89 671.038 2276.89 668.755 Q2276.89 666.331 2277.84 663.028 Q2278.79 659.725 2281.07 653.647 Q2282.3 650.239 2282.3 648.588 Q2282.3 647.78 2282.12 647.288 Q2281.95 646.761 2281.6 646.585 Q2281.24 646.375 2281.03 646.34 Q2280.86 646.304 2280.51 646.304 Q2278.43 646.304 2276.5 648.412 Q2274.57 650.52 2273.23 655.228 Q2272.95 656.107 2272.78 656.317 Q2272.6 656.528 2272.07 656.528 Q2271.2 656.493 2271.2 655.79 Q2271.2 655.509 2271.51 654.42 Q2271.83 653.296 2272.57 651.645 Q2273.34 649.958 2274.39 648.448 Q2275.45 646.902 2277.1 645.813 Q2278.79 644.723 2280.72 644.723 Q2283.35 644.723 2284.97 646.445 Q2286.62 648.131 2286.62 650.626 Q2286.62 651.645 2286.34 652.558 Q2286.09 653.437 2285.18 655.79 Q2281.49 665.277 2281.49 669.914 Q2281.49 671.038 2281.67 671.987 Q2281.88 672.901 2282.33 673.814 Q2282.79 674.692 2283.7 675.219 Q2284.65 675.711 2285.95 675.711 Q2287.6 675.711 2289.15 674.938 Q2290.73 674.13 2291.71 673.041 Q2292.73 671.952 2293.33 671.038 Q2293.96 670.09 2294.1 669.598 L2297.34 656.669 L2298.78 650.907 Q2299.44 647.78 2299.76 647.007 Q2300.18 646.269 2300.92 645.883 Q2301.66 645.496 2302.29 645.496 Q2303.17 645.496 2303.77 646.023 Q2304.4 646.55 2304.4 647.464 Z" fill="#000000" fill-rule="evenodd" fill-opacity="1" /><polyline clip-path="url(#clip440)" style="stroke:#ff0000; stroke-linecap:butt; stroke-linejoin:round; stroke-width:6; stroke-opacity:1; fill:none" points="
  1955.96,733.052 2095.93,733.052 
  "/>
<path clip-path="url(#clip440)" d="M2152.46 725.224 Q2152.46 725.716 2152.14 726.875 L2145.26 754.35 Q2143.75 760.463 2138.83 764.749 Q2133.95 769.035 2128.39 769.035 Q2125.06 769.035 2122.91 767.244 Q2120.77 765.487 2120.77 762.782 Q2120.77 760.393 2122.04 759.233 Q2123.3 758.109 2124.81 758.109 Q2125.3 758.109 2125.83 758.249 Q2126.36 758.39 2126.92 758.987 Q2127.48 759.585 2127.48 760.603 Q2127.48 762.255 2126.04 763.555 Q2125.34 764.152 2124.67 764.292 Q2124.04 764.433 2122.95 764.433 Q2123.37 765.417 2124.14 766.084 Q2124.92 766.752 2125.79 766.998 Q2126.67 767.279 2127.23 767.349 Q2127.83 767.454 2128.39 767.454 Q2132.89 767.454 2136.33 762.922 Q2137.35 761.552 2138.09 760.182 Q2138.86 758.847 2139.43 757.195 Q2139.99 755.579 2140.23 754.701 Q2140.52 753.823 2141.01 751.82 Q2137.74 755.087 2133.73 755.087 Q2132.05 755.087 2130.54 754.631 Q2129.06 754.174 2127.76 753.225 Q2126.46 752.242 2125.69 750.52 Q2124.95 748.798 2124.95 746.515 Q2124.95 744.091 2125.9 740.788 Q2126.85 737.485 2129.13 731.407 Q2130.36 727.999 2130.36 726.348 Q2130.36 725.54 2130.19 725.048 Q2130.01 724.521 2129.66 724.345 Q2129.31 724.135 2129.1 724.1 Q2128.92 724.064 2128.57 724.064 Q2126.5 724.064 2124.56 726.172 Q2122.63 728.28 2121.3 732.988 Q2121.02 733.867 2120.84 734.077 Q2120.66 734.288 2120.14 734.288 Q2119.26 734.253 2119.26 733.55 Q2119.26 733.269 2119.58 732.18 Q2119.89 731.056 2120.63 729.405 Q2121.4 727.718 2122.46 726.208 Q2123.51 724.662 2125.16 723.573 Q2126.85 722.483 2128.78 722.483 Q2131.42 722.483 2133.03 724.205 Q2134.68 725.891 2134.68 728.386 Q2134.68 729.405 2134.4 730.318 Q2134.16 731.197 2133.24 733.55 Q2129.55 743.037 2129.55 747.674 Q2129.55 748.798 2129.73 749.747 Q2129.94 750.661 2130.4 751.574 Q2130.85 752.452 2131.77 752.979 Q2132.72 753.471 2134.02 753.471 Q2135.67 753.471 2137.21 752.698 Q2138.79 751.89 2139.78 750.801 Q2140.8 749.712 2141.39 748.798 Q2142.03 747.85 2142.17 747.358 L2145.4 734.429 L2146.84 728.667 Q2147.51 725.54 2147.82 724.767 Q2148.24 724.029 2148.98 723.643 Q2149.72 723.256 2150.35 723.256 Q2151.23 723.256 2151.83 723.783 Q2152.46 724.31 2152.46 725.224 Z" fill="#000000" fill-rule="evenodd" fill-opacity="1" /><path clip-path="url(#clip440)" d="M2237.15 735.342 Q2237.79 735.588 2237.79 736.291 Q2237.79 736.994 2237.15 737.24 Q2231.88 738.996 2227.28 744.723 Q2224.01 748.974 2223.1 753.858 Q2222.99 754.35 2222.61 754.666 Q2222.22 754.982 2221.69 754.982 Q2221.1 754.982 2220.68 754.56 Q2220.25 754.174 2220.25 753.577 Q2220.25 753.542 2220.29 753.436 Q2220.32 753.296 2220.32 753.26 Q2221.38 747.569 2225.07 742.896 Q2227.39 739.945 2230.69 737.731 L2175.56 737.731 Q2174.97 737.731 2174.54 737.31 Q2174.12 736.888 2174.12 736.291 Q2174.12 735.694 2174.54 735.272 Q2174.97 734.85 2175.56 734.85 L2230.69 734.85 Q2227.39 732.637 2225.07 729.686 Q2221.38 725.013 2220.32 719.321 Q2220.32 719.286 2220.29 719.181 Q2220.25 719.04 2220.25 719.005 Q2220.25 718.408 2220.68 718.021 Q2221.1 717.6 2221.69 717.6 Q2222.22 717.6 2222.61 717.916 Q2222.99 718.232 2223.1 718.724 Q2224.01 723.608 2227.28 727.859 Q2231.88 733.586 2237.15 735.342 Z" fill="#000000" fill-rule="evenodd" fill-opacity="1" /><path clip-path="url(#clip440)" d="M2301.19 727.226 Q2301.19 729.194 2299.96 730.318 Q2298.73 731.407 2297.32 731.407 Q2295.99 731.407 2295.28 730.634 Q2294.58 729.861 2294.58 728.878 Q2294.58 727.543 2295.57 726.383 Q2296.55 725.224 2298.02 724.978 Q2296.58 724.064 2294.44 724.064 Q2293.04 724.064 2291.81 724.802 Q2290.61 725.54 2289.87 726.489 Q2289.17 727.437 2288.54 728.807 Q2287.94 730.143 2287.7 730.951 Q2287.48 731.724 2287.31 732.567 L2284.85 742.404 Q2283.66 747.077 2283.66 748.728 Q2283.66 750.766 2284.64 752.136 Q2285.62 753.471 2287.59 753.471 Q2288.36 753.471 2289.24 753.26 Q2290.12 753.015 2291.24 752.382 Q2292.4 751.715 2293.42 750.731 Q2294.48 749.712 2295.5 747.99 Q2296.51 746.269 2297.18 744.055 Q2297.39 743.283 2298.09 743.283 Q2298.97 743.283 2298.97 743.985 Q2298.97 744.582 2298.48 745.847 Q2298.02 747.077 2297.01 748.693 Q2296.02 750.274 2294.72 751.715 Q2293.42 753.12 2291.49 754.104 Q2289.56 755.087 2287.45 755.087 Q2284.43 755.087 2282.43 753.471 Q2280.42 751.855 2279.68 749.607 Q2279.51 749.923 2279.26 750.344 Q2279.02 750.766 2278.28 751.715 Q2277.58 752.628 2276.77 753.331 Q2275.96 753.998 2274.7 754.525 Q2273.47 755.087 2272.13 755.087 Q2270.44 755.087 2268.93 754.596 Q2267.46 754.104 2266.4 752.979 Q2265.35 751.855 2265.35 750.309 Q2265.35 748.588 2266.51 747.393 Q2267.7 746.163 2269.32 746.163 Q2270.34 746.163 2271.15 746.761 Q2271.99 747.358 2271.99 748.658 Q2271.99 750.098 2271.01 751.188 Q2270.02 752.277 2268.62 752.558 Q2270.06 753.471 2272.2 753.471 Q2274.52 753.471 2276.35 751.434 Q2278.17 749.396 2279.05 745.988 Q2281.23 737.802 2282.07 734.148 Q2282.92 730.459 2282.92 728.878 Q2282.92 727.402 2282.53 726.383 Q2282.14 725.364 2281.48 724.908 Q2280.84 724.416 2280.25 724.24 Q2279.68 724.064 2279.05 724.064 Q2278 724.064 2276.8 724.486 Q2275.64 724.908 2274.24 725.891 Q2272.87 726.84 2271.57 728.807 Q2270.27 730.775 2269.39 733.48 Q2269.22 734.288 2268.44 734.288 Q2267.6 734.253 2267.6 733.55 Q2267.6 732.953 2268.06 731.724 Q2268.55 730.459 2269.53 728.878 Q2270.55 727.297 2271.85 725.891 Q2273.19 724.451 2275.12 723.467 Q2277.09 722.483 2279.19 722.483 Q2280.14 722.483 2281.06 722.694 Q2282 722.87 2283.13 723.397 Q2284.29 723.924 2285.31 725.083 Q2286.33 726.243 2286.96 727.929 Q2287.38 727.121 2287.94 726.348 Q2288.54 725.575 2289.45 724.627 Q2290.4 723.643 2291.7 723.081 Q2293.04 722.483 2294.51 722.483 Q2295.95 722.483 2297.36 722.87 Q2298.76 723.221 2299.96 724.381 Q2301.19 725.505 2301.19 727.226 Z" fill="#000000" fill-rule="evenodd" fill-opacity="1" /></svg>
