<?xml version="1.0" encoding="utf-8"?>
<svg xmlns="http://www.w3.org/2000/svg" xmlns:xlink="http://www.w3.org/1999/xlink" width="600" height="400" viewBox="0 0 2400 1600">
<defs>
  <clipPath id="clip360">
    <rect x="0" y="0" width="2400" height="1600"/>
  </clipPath>
</defs>
<path clip-path="url(#clip360)" d="
M0 1600 L2400 1600 L2400 0 L0 0  Z
  " fill="#ffffff" fill-rule="evenodd" fill-opacity="1"/>
<defs>
  <clipPath id="clip361">
    <rect x="480" y="0" width="1681" height="1600"/>
  </clipPath>
</defs>
<defs>
  <clipPath id="clip362">
    <rect x="241" y="47" width="1621" height="1373"/>
  </clipPath>
</defs>
<path clip-path="url(#clip360)" d="
M241.091 1418.86 L1860.9 1418.86 L1860.9 47.2441 L241.091 47.2441  Z
  " fill="#ffffff" fill-rule="evenodd" fill-opacity="1"/>
<polyline clip-path="url(#clip362)" style="stroke:#000000; stroke-linecap:butt; stroke-linejoin:round; stroke-width:2; stroke-opacity:0.1; fill:none" points="
  608.644,1418.86 608.644,47.2441 
  "/>
<polyline clip-path="url(#clip362)" style="stroke:#000000; stroke-linecap:butt; stroke-linejoin:round; stroke-width:2; stroke-opacity:0.1; fill:none" points="
  1010.78,1418.86 1010.78,47.2441 
  "/>
<polyline clip-path="url(#clip362)" style="stroke:#000000; stroke-linecap:butt; stroke-linejoin:round; stroke-width:2; stroke-opacity:0.1; fill:none" points="
  1412.92,1418.86 1412.92,47.2441 
  "/>
<polyline clip-path="url(#clip362)" style="stroke:#000000; stroke-linecap:butt; stroke-linejoin:round; stroke-width:2; stroke-opacity:0.1; fill:none" points="
  1815.06,1418.86 1815.06,47.2441 
  "/>
<polyline clip-path="url(#clip360)" style="stroke:#000000; stroke-linecap:butt; stroke-linejoin:round; stroke-width:4; stroke-opacity:1; fill:none" points="
  241.091,1418.86 1860.9,1418.86 
  "/>
<polyline clip-path="url(#clip360)" style="stroke:#000000; stroke-linecap:butt; stroke-linejoin:round; stroke-width:4; stroke-opacity:1; fill:none" points="
  608.644,1418.86 608.644,1399.96 
  "/>
<polyline clip-path="url(#clip360)" style="stroke:#000000; stroke-linecap:butt; stroke-linejoin:round; stroke-width:4; stroke-opacity:1; fill:none" points="
  1010.78,1418.86 1010.78,1399.96 
  "/>
<polyline clip-path="url(#clip360)" style="stroke:#000000; stroke-linecap:butt; stroke-linejoin:round; stroke-width:4; stroke-opacity:1; fill:none" points="
  1412.92,1418.86 1412.92,1399.96 
  "/>
<polyline clip-path="url(#clip360)" style="stroke:#000000; stroke-linecap:butt; stroke-linejoin:round; stroke-width:4; stroke-opacity:1; fill:none" points="
  1815.06,1418.86 1815.06,1399.96 
  "/>
<path clip-path="url(#clip360)" d="M598.541 1473.11 Q598.541 1471.6 599.356 1471.03 Q600.171 1470.44 601.036 1470.44 Q602.197 1470.44 602.864 1471.18 Q603.556 1471.9 603.556 1472.91 Q603.556 1473.92 602.864 1474.66 Q602.197 1475.38 601.036 1475.38 Q600.468 1475.38 600.171 1475.28 Q600.838 1477.6 602.864 1479.28 Q604.914 1480.96 607.607 1480.96 Q610.991 1480.96 613.017 1477.68 Q614.227 1475.55 614.227 1470.74 Q614.227 1466.49 613.313 1464.36 Q611.905 1461.13 609.015 1461.13 Q604.914 1461.13 602.493 1464.66 Q602.197 1465.1 601.851 1465.13 Q601.357 1465.13 601.233 1464.86 Q601.135 1464.56 601.135 1463.79 L601.135 1448.82 Q601.135 1447.61 601.629 1447.61 Q601.826 1447.61 602.246 1447.76 Q605.433 1449.17 608.966 1449.19 Q612.597 1449.19 615.858 1447.71 Q616.105 1447.56 616.253 1447.56 Q616.747 1447.56 616.772 1448.13 Q616.772 1448.33 616.352 1448.92 Q615.957 1449.49 615.092 1450.26 Q614.227 1451 613.116 1451.71 Q612.004 1452.43 610.374 1452.93 Q608.768 1453.39 606.989 1453.39 Q604.865 1453.39 602.691 1452.73 L602.691 1462.58 Q605.309 1460.01 609.114 1460.01 Q613.165 1460.01 615.957 1463.28 Q618.748 1466.54 618.748 1471.08 Q618.748 1475.85 615.438 1479.11 Q612.152 1482.37 607.706 1482.37 Q603.654 1482.37 601.085 1479.48 Q598.541 1476.59 598.541 1473.11 Z" fill="#000000" fill-rule="evenodd" fill-opacity="1" /><path clip-path="url(#clip360)" d="M988.746 1452.38 L988.746 1450.8 Q994.823 1450.8 997.96 1447.56 Q998.825 1447.56 998.973 1447.76 Q999.121 1447.96 999.121 1448.87 L999.121 1477.26 Q999.121 1478.76 999.862 1479.23 Q1000.6 1479.7 1003.84 1479.7 L1005.45 1479.7 L1005.45 1481.26 Q1003.67 1481.11 997.244 1481.11 Q990.821 1481.11 989.067 1481.26 L989.067 1479.7 L990.673 1479.7 Q993.86 1479.7 994.625 1479.26 Q995.391 1478.79 995.391 1477.26 L995.391 1451.05 Q992.748 1452.38 988.746 1452.38 Z" fill="#000000" fill-rule="evenodd" fill-opacity="1" /><path clip-path="url(#clip360)" d="M1011.52 1465.08 Q1011.52 1457.64 1013.4 1453.59 Q1016.02 1447.56 1022.19 1447.56 Q1023.5 1447.56 1024.86 1447.94 Q1026.25 1448.28 1027.97 1449.64 Q1029.73 1451 1030.79 1453.22 Q1032.82 1457.52 1032.82 1465.08 Q1032.82 1472.47 1030.94 1476.49 Q1028.2 1482.37 1022.14 1482.37 Q1019.87 1482.37 1017.55 1481.21 Q1015.25 1480.05 1013.8 1477.26 Q1011.52 1473.08 1011.52 1465.08 M1015.72 1464.46 Q1015.72 1472.09 1016.27 1475.13 Q1016.88 1478.42 1018.56 1479.85 Q1020.27 1481.26 1022.14 1481.26 Q1024.17 1481.26 1025.85 1479.75 Q1027.55 1478.22 1028.07 1474.94 Q1028.64 1471.7 1028.62 1464.46 Q1028.62 1457.42 1028.12 1454.6 Q1027.46 1451.32 1025.68 1450.01 Q1023.92 1448.68 1022.14 1448.68 Q1021.48 1448.68 1020.76 1448.87 Q1020.07 1449.07 1019.06 1449.64 Q1018.04 1450.21 1017.25 1451.62 Q1016.49 1453.02 1016.12 1455.15 Q1015.72 1457.89 1015.72 1464.46 Z" fill="#000000" fill-rule="evenodd" fill-opacity="1" /><path clip-path="url(#clip360)" d="M1391.15 1452.38 L1391.15 1450.8 Q1397.23 1450.8 1400.37 1447.56 Q1401.23 1447.56 1401.38 1447.76 Q1401.53 1447.96 1401.53 1448.87 L1401.53 1477.26 Q1401.53 1478.76 1402.27 1479.23 Q1403.01 1479.7 1406.25 1479.7 L1407.85 1479.7 L1407.85 1481.26 Q1406.08 1481.11 1399.65 1481.11 Q1393.23 1481.11 1391.48 1481.26 L1391.48 1479.7 L1393.08 1479.7 Q1396.27 1479.7 1397.03 1479.26 Q1397.8 1478.79 1397.8 1477.26 L1397.8 1451.05 Q1395.16 1452.38 1391.15 1452.38 Z" fill="#000000" fill-rule="evenodd" fill-opacity="1" /><path clip-path="url(#clip360)" d="M1414.47 1473.11 Q1414.47 1471.6 1415.29 1471.03 Q1416.1 1470.44 1416.97 1470.44 Q1418.13 1470.44 1418.8 1471.18 Q1419.49 1471.9 1419.49 1472.91 Q1419.49 1473.92 1418.8 1474.66 Q1418.13 1475.38 1416.97 1475.38 Q1416.4 1475.38 1416.1 1475.28 Q1416.77 1477.6 1418.8 1479.28 Q1420.85 1480.96 1423.54 1480.96 Q1426.93 1480.96 1428.95 1477.68 Q1430.16 1475.55 1430.16 1470.74 Q1430.16 1466.49 1429.25 1464.36 Q1427.84 1461.13 1424.95 1461.13 Q1420.85 1461.13 1418.43 1464.66 Q1418.13 1465.1 1417.78 1465.13 Q1417.29 1465.13 1417.17 1464.86 Q1417.07 1464.56 1417.07 1463.79 L1417.07 1448.82 Q1417.07 1447.61 1417.56 1447.61 Q1417.76 1447.61 1418.18 1447.76 Q1421.37 1449.17 1424.9 1449.19 Q1428.53 1449.19 1431.79 1447.71 Q1432.04 1447.56 1432.19 1447.56 Q1432.68 1447.56 1432.71 1448.13 Q1432.71 1448.33 1432.29 1448.92 Q1431.89 1449.49 1431.03 1450.26 Q1430.16 1451 1429.05 1451.71 Q1427.94 1452.43 1426.31 1452.93 Q1424.7 1453.39 1422.92 1453.39 Q1420.8 1453.39 1418.62 1452.73 L1418.62 1462.58 Q1421.24 1460.01 1425.05 1460.01 Q1429.1 1460.01 1431.89 1463.28 Q1434.68 1466.54 1434.68 1471.08 Q1434.68 1475.85 1431.37 1479.11 Q1428.09 1482.37 1423.64 1482.37 Q1419.59 1482.37 1417.02 1479.48 Q1414.47 1476.59 1414.47 1473.11 Z" fill="#000000" fill-rule="evenodd" fill-opacity="1" /><path clip-path="url(#clip360)" d="M1792.03 1481.26 Q1792.03 1480.35 1792.11 1480.07 Q1792.2 1479.8 1792.6 1479.38 L1802.31 1468.56 Q1807.62 1462.58 1807.62 1457.37 Q1807.62 1453.99 1805.84 1451.57 Q1804.09 1449.15 1800.85 1449.15 Q1798.63 1449.15 1796.75 1450.5 Q1794.87 1451.86 1794.01 1454.28 Q1794.16 1454.23 1794.67 1454.23 Q1795.93 1454.23 1796.63 1455.02 Q1797.34 1455.82 1797.34 1456.88 Q1797.34 1458.24 1796.45 1458.9 Q1795.59 1459.55 1794.72 1459.55 Q1794.38 1459.55 1793.91 1459.47 Q1793.46 1459.4 1792.75 1458.71 Q1792.03 1457.99 1792.03 1456.73 Q1792.03 1453.2 1794.7 1450.38 Q1797.39 1447.56 1801.49 1447.56 Q1806.14 1447.56 1809.18 1450.33 Q1812.24 1453.07 1812.24 1457.37 Q1812.24 1458.88 1811.77 1460.26 Q1811.32 1461.62 1810.71 1462.68 Q1810.11 1463.75 1808.48 1465.45 Q1806.85 1467.15 1805.54 1468.36 Q1804.24 1469.58 1801.3 1472.14 L1795.93 1477.36 L1805.05 1477.36 Q1809.5 1477.36 1809.84 1476.96 Q1810.34 1476.25 1810.95 1472.47 L1812.24 1472.47 L1810.81 1481.26 L1792.03 1481.26 Z" fill="#000000" fill-rule="evenodd" fill-opacity="1" /><path clip-path="url(#clip360)" d="M1816.78 1465.08 Q1816.78 1457.64 1818.66 1453.59 Q1821.28 1447.56 1827.46 1447.56 Q1828.77 1447.56 1830.12 1447.94 Q1831.51 1448.28 1833.24 1449.64 Q1834.99 1451 1836.05 1453.22 Q1838.08 1457.52 1838.08 1465.08 Q1838.08 1472.47 1836.2 1476.49 Q1833.46 1482.37 1827.41 1482.37 Q1825.13 1482.37 1822.81 1481.21 Q1820.51 1480.05 1819.06 1477.26 Q1816.78 1473.08 1816.78 1465.08 M1820.98 1464.46 Q1820.98 1472.09 1821.53 1475.13 Q1822.15 1478.42 1823.82 1479.85 Q1825.53 1481.26 1827.41 1481.26 Q1829.43 1481.26 1831.11 1479.75 Q1832.82 1478.22 1833.34 1474.94 Q1833.9 1471.7 1833.88 1464.46 Q1833.88 1457.42 1833.39 1454.6 Q1832.72 1451.32 1830.94 1450.01 Q1829.19 1448.68 1827.41 1448.68 Q1826.74 1448.68 1826.02 1448.87 Q1825.33 1449.07 1824.32 1449.64 Q1823.31 1450.21 1822.52 1451.62 Q1821.75 1453.02 1821.38 1455.15 Q1820.98 1457.89 1820.98 1464.46 Z" fill="#000000" fill-rule="evenodd" fill-opacity="1" /><path clip-path="url(#clip360)" d="M761.95 1573.77 L761.95 1571.43 L763.766 1571.43 Q767.879 1571.43 768.805 1570.77 Q769.769 1570.06 769.769 1567.84 L769.769 1527.86 Q769.769 1525.67 768.805 1525 Q767.842 1524.3 763.766 1524.3 L761.95 1524.3 L761.95 1521.93 L788.741 1521.93 Q796.411 1521.93 801.525 1526.15 Q806.638 1530.38 806.638 1536.05 Q806.638 1541.68 801.414 1545.75 Q796.226 1549.79 789.334 1549.79 L776.513 1549.79 L776.513 1567.84 Q776.513 1570.03 777.439 1570.73 Q778.402 1571.43 782.516 1571.43 L784.331 1571.43 L784.331 1573.77 Q781.663 1573.55 773.104 1573.55 Q764.618 1573.55 761.95 1573.77 M776.29 1547.83 L786.74 1547.83 Q790.149 1547.83 792.632 1546.87 Q795.114 1545.9 796.226 1544.75 Q797.375 1543.57 798.005 1541.68 Q798.672 1539.75 798.746 1538.71 Q798.82 1537.64 798.82 1536.05 Q798.82 1534.38 798.746 1533.34 Q798.672 1532.27 798.005 1530.38 Q797.375 1528.45 796.226 1527.3 Q795.114 1526.12 792.632 1525.23 Q790.186 1524.3 786.74 1524.3 L779.996 1524.3 Q777.402 1524.3 776.846 1524.82 Q776.29 1525.34 776.29 1527.34 L776.29 1547.83 Z" fill="#000000" fill-rule="evenodd" fill-opacity="1" /><path clip-path="url(#clip360)" d="M812.975 1573.77 L812.975 1571.43 Q817.014 1571.43 817.94 1570.95 Q818.904 1570.43 818.904 1567.99 L818.904 1547.64 Q818.904 1544.83 817.903 1544.12 Q816.94 1543.42 812.975 1543.42 L812.975 1541.05 L823.535 1540.23 L823.535 1548.57 Q824.61 1545.31 826.87 1542.79 Q829.168 1540.23 832.873 1540.23 Q835.319 1540.23 836.875 1541.6 Q838.469 1542.98 838.469 1544.87 Q838.469 1546.53 837.431 1547.38 Q836.431 1548.2 835.208 1548.2 Q833.837 1548.2 832.873 1547.35 Q831.947 1546.46 831.947 1544.94 Q831.947 1544.01 832.355 1543.31 Q832.799 1542.57 833.133 1542.31 Q833.466 1542.05 833.689 1541.97 Q833.54 1541.9 832.873 1541.9 Q828.686 1541.9 826.278 1546.09 Q823.906 1550.24 823.906 1556.17 L823.906 1567.84 Q823.906 1570.03 824.795 1570.73 Q825.722 1571.43 829.687 1571.43 L831.28 1571.43 L831.28 1573.77 Q828.241 1573.55 821.646 1573.55 Q820.719 1573.55 819.274 1573.58 Q817.829 1573.62 815.939 1573.69 Q814.049 1573.77 812.975 1573.77 Z" fill="#000000" fill-rule="evenodd" fill-opacity="1" /><path clip-path="url(#clip360)" d="M842.619 1557.06 Q842.619 1549.9 847.214 1544.83 Q851.808 1539.75 858.404 1539.75 Q865.074 1539.75 868.52 1544.09 Q872.003 1548.42 872.003 1554.65 Q872.003 1555.8 871.707 1556.02 Q871.411 1556.24 870.114 1556.24 L848.918 1556.24 Q848.918 1563.99 851.216 1567.62 Q854.402 1572.69 859.775 1572.69 Q860.516 1572.69 861.406 1572.55 Q862.295 1572.4 864.111 1571.77 Q865.926 1571.1 867.52 1569.36 Q869.113 1567.62 870.04 1564.87 Q870.262 1563.8 871.003 1563.84 Q872.003 1563.84 872.003 1564.73 Q872.003 1565.39 871.262 1566.91 Q870.558 1568.4 869.187 1570.17 Q867.816 1571.95 865.148 1573.29 Q862.517 1574.62 859.331 1574.62 Q852.661 1574.62 847.621 1569.58 Q842.619 1564.5 842.619 1557.06 M848.992 1554.65 L867.001 1554.65 Q867.001 1553.05 866.705 1551.28 Q866.445 1549.5 865.63 1547.05 Q864.852 1544.57 862.999 1543.01 Q861.146 1541.46 858.404 1541.46 Q857.181 1541.46 855.847 1541.97 Q854.551 1542.49 852.957 1543.75 Q851.364 1545.01 850.252 1547.87 Q849.141 1550.72 848.992 1554.65 Z" fill="#000000" fill-rule="evenodd" fill-opacity="1" /><path clip-path="url(#clip360)" d="M876.784 1557.46 Q876.784 1550.24 881.823 1545.24 Q886.863 1540.23 893.681 1540.23 Q899.461 1540.23 903.241 1544.94 L903.241 1528.52 Q903.241 1525.71 902.24 1525 Q901.277 1524.3 897.349 1524.3 L897.349 1521.93 L908.28 1521.11 L908.28 1567.17 Q908.28 1569.99 909.244 1570.73 Q910.244 1571.43 914.172 1571.43 L914.172 1573.77 L903.019 1574.62 L903.019 1569.58 Q899.091 1574.58 892.865 1574.62 Q886.344 1574.62 881.564 1569.62 Q876.784 1564.62 876.784 1557.46 M883.083 1557.54 Q883.083 1564.58 885.269 1568.06 Q888.308 1572.92 893.236 1572.92 Q898.868 1572.92 902.203 1567.62 Q903.056 1566.32 903.019 1564.8 L903.019 1549.24 Q903.019 1547.72 902.203 1546.46 Q899.091 1541.9 894.014 1541.9 Q888.715 1541.9 885.417 1546.76 Q883.083 1550.39 883.083 1557.54 Z" fill="#000000" fill-rule="evenodd" fill-opacity="1" /><path clip-path="url(#clip360)" d="M918.804 1573.77 L918.804 1571.43 Q922.843 1571.43 923.769 1570.95 Q924.696 1570.43 924.696 1567.99 L924.696 1547.57 Q924.696 1544.75 923.732 1544.09 Q922.806 1543.42 919.1 1543.42 L919.1 1541.05 L929.698 1540.23 L929.698 1568.06 Q929.698 1570.32 930.513 1570.88 Q931.329 1571.43 935.034 1571.43 L935.034 1573.77 Q927.29 1573.55 927.141 1573.55 Q926.104 1573.55 918.804 1573.77 M921.991 1527 Q921.991 1525.49 923.139 1524.26 Q924.325 1523 925.993 1523 Q927.66 1523 928.846 1524.15 Q930.032 1525.26 930.032 1527.04 Q930.032 1528.78 928.846 1529.93 Q927.66 1531.04 925.993 1531.04 Q924.251 1531.04 923.102 1529.82 Q921.991 1528.6 921.991 1527 Z" fill="#000000" fill-rule="evenodd" fill-opacity="1" /><path clip-path="url(#clip360)" d="M944.705 1569.62 Q939.888 1564.58 939.888 1557.39 Q939.888 1550.16 944.631 1544.98 Q949.374 1539.75 956.341 1539.75 Q960.973 1539.75 964.456 1541.97 Q967.939 1544.16 967.939 1547.9 Q967.939 1549.57 966.938 1550.53 Q965.975 1551.46 964.456 1551.46 Q962.862 1551.46 961.899 1550.5 Q960.973 1549.5 960.973 1547.98 Q960.973 1547.31 961.195 1546.64 Q961.417 1545.98 962.232 1545.27 Q963.085 1544.57 964.53 1544.46 Q961.825 1541.68 956.563 1541.68 Q956.489 1541.68 956.415 1541.68 Q952.561 1541.68 949.374 1545.31 Q946.188 1548.94 946.188 1557.24 Q946.188 1561.58 947.225 1564.76 Q948.3 1567.91 950.041 1569.54 Q951.783 1571.17 953.487 1571.95 Q955.192 1572.69 956.86 1572.69 Q964.308 1572.69 966.827 1564.73 Q967.05 1563.99 967.791 1563.99 Q968.791 1563.99 968.791 1564.73 Q968.791 1565.1 968.495 1566.06 Q968.198 1567.02 967.272 1568.54 Q966.346 1570.06 965.012 1571.4 Q963.715 1572.69 961.38 1573.66 Q959.083 1574.62 956.193 1574.62 Q949.523 1574.62 944.705 1569.62 Z" fill="#000000" fill-rule="evenodd" fill-opacity="1" /><path clip-path="url(#clip360)" d="M972.423 1543.42 L972.423 1541.75 Q975.906 1541.6 978.203 1539.16 Q980.538 1536.68 981.316 1533.64 Q982.131 1530.6 982.205 1527.08 L984.095 1527.08 L984.095 1541.05 L994.952 1541.05 L994.952 1543.42 L984.095 1543.42 L984.095 1564.5 Q984.095 1572.69 989.209 1572.69 Q991.395 1572.69 992.84 1570.47 Q994.285 1568.21 994.285 1564.21 L994.285 1560.02 L996.175 1560.02 L996.175 1564.36 Q996.175 1568.47 994.285 1571.54 Q992.395 1574.62 988.653 1574.62 Q987.282 1574.62 985.911 1574.25 Q984.577 1573.92 982.798 1573.03 Q981.056 1572.1 979.945 1569.88 Q978.87 1567.62 978.87 1564.36 L978.87 1543.42 L972.423 1543.42 Z" fill="#000000" fill-rule="evenodd" fill-opacity="1" /><path clip-path="url(#clip360)" d="M1002.92 1573.77 L1002.92 1571.43 Q1006.96 1571.43 1007.88 1570.95 Q1008.81 1570.43 1008.81 1567.99 L1008.81 1547.57 Q1008.81 1544.75 1007.85 1544.09 Q1006.92 1543.42 1003.22 1543.42 L1003.22 1541.05 L1013.81 1540.23 L1013.81 1568.06 Q1013.81 1570.32 1014.63 1570.88 Q1015.44 1571.43 1019.15 1571.43 L1019.15 1573.77 Q1011.4 1573.55 1011.26 1573.55 Q1010.22 1573.55 1002.92 1573.77 M1006.11 1527 Q1006.11 1525.49 1007.25 1524.26 Q1008.44 1523 1010.11 1523 Q1011.78 1523 1012.96 1524.15 Q1014.15 1525.26 1014.15 1527.04 Q1014.15 1528.78 1012.96 1529.93 Q1011.78 1531.04 1010.11 1531.04 Q1008.37 1531.04 1007.22 1529.82 Q1006.11 1528.6 1006.11 1527 Z" fill="#000000" fill-rule="evenodd" fill-opacity="1" /><path clip-path="url(#clip360)" d="M1028.52 1569.69 Q1023.52 1564.73 1023.52 1557.54 Q1023.52 1550.31 1028.41 1545.05 Q1033.34 1539.75 1040.38 1539.75 Q1047.27 1539.75 1052.2 1545.01 Q1057.17 1550.24 1057.17 1557.54 Q1057.17 1564.69 1052.17 1569.66 Q1047.2 1574.62 1040.31 1574.62 Q1033.56 1574.62 1028.52 1569.69 M1029.82 1556.91 Q1029.82 1564.28 1031.75 1567.62 Q1034.71 1572.69 1040.38 1572.69 Q1043.2 1572.69 1045.53 1571.17 Q1047.9 1569.66 1049.2 1567.1 Q1050.87 1563.76 1050.87 1556.91 Q1050.87 1549.61 1048.87 1546.38 Q1045.9 1541.46 1040.31 1541.46 Q1037.86 1541.46 1035.45 1542.75 Q1033.08 1544.01 1031.64 1546.53 Q1029.82 1549.87 1029.82 1556.91 Z" fill="#000000" fill-rule="evenodd" fill-opacity="1" /><path clip-path="url(#clip360)" d="M1061.8 1573.77 L1061.8 1571.43 Q1065.84 1571.43 1066.76 1570.95 Q1067.69 1570.43 1067.69 1567.99 L1067.69 1547.64 Q1067.69 1544.83 1066.69 1544.12 Q1065.73 1543.42 1061.8 1543.42 L1061.8 1541.05 L1072.47 1540.23 L1072.47 1548.2 Q1076.03 1540.23 1083.7 1540.23 Q1089.41 1540.23 1091.67 1543.05 Q1093.33 1544.94 1093.67 1547.05 Q1094.04 1549.16 1094.04 1554.65 L1094.04 1569.14 Q1094.11 1570.73 1095.33 1571.1 Q1096.56 1571.43 1099.97 1571.43 L1099.97 1573.77 Q1092.22 1573.55 1091.44 1573.55 Q1090.85 1573.55 1082.88 1573.77 L1082.88 1571.43 Q1086.92 1571.43 1087.85 1570.95 Q1088.81 1570.43 1088.81 1567.99 L1088.81 1550.31 Q1088.81 1546.46 1087.63 1544.2 Q1086.44 1541.9 1083.18 1541.9 Q1079.25 1541.9 1076.1 1545.2 Q1072.95 1548.5 1072.95 1554.05 L1072.95 1567.99 Q1072.95 1570.43 1073.88 1570.95 Q1074.84 1571.43 1078.84 1571.43 L1078.84 1573.77 Q1071.1 1573.55 1070.36 1573.55 Q1069.77 1573.55 1061.8 1573.77 Z" fill="#000000" fill-rule="evenodd" fill-opacity="1" /><path clip-path="url(#clip360)" d="M1129.2 1573.77 L1129.2 1571.43 Q1133.24 1571.43 1134.17 1570.95 Q1135.09 1570.43 1135.09 1567.99 L1135.09 1528.52 Q1135.09 1525.71 1134.09 1525 Q1133.13 1524.3 1129.2 1524.3 L1129.2 1521.93 L1140.1 1521.11 L1140.1 1567.99 Q1140.1 1570.43 1141.06 1570.95 Q1142.02 1571.43 1146.03 1571.43 L1146.03 1573.77 Q1145.1 1573.77 1143.17 1573.69 Q1141.25 1573.62 1139.84 1573.58 Q1138.43 1573.55 1137.61 1573.55 Q1136.72 1573.55 1129.2 1573.77 Z" fill="#000000" fill-rule="evenodd" fill-opacity="1" /><path clip-path="url(#clip360)" d="M1150.88 1566.54 Q1150.88 1560.09 1158.48 1556.69 Q1163.03 1554.5 1172.45 1553.94 L1172.45 1551.16 Q1172.45 1546.46 1169.96 1543.98 Q1167.52 1541.46 1164.4 1541.46 Q1158.85 1541.46 1156.18 1544.94 Q1158.44 1545.01 1159.25 1546.16 Q1160.07 1547.27 1160.07 1548.42 Q1160.07 1549.94 1159.11 1550.94 Q1158.18 1551.91 1156.59 1551.91 Q1155.07 1551.91 1154.07 1550.98 Q1153.07 1550.02 1153.07 1548.35 Q1153.07 1544.64 1156.4 1542.2 Q1159.77 1539.75 1164.55 1539.75 Q1170.78 1539.75 1174.93 1543.94 Q1176.23 1545.24 1176.86 1546.9 Q1177.52 1548.57 1177.6 1549.68 Q1177.67 1550.76 1177.67 1552.91 L1177.67 1568.06 Q1177.67 1568.51 1177.82 1569.25 Q1177.97 1569.99 1178.63 1570.95 Q1179.34 1571.88 1180.49 1571.88 Q1183.23 1571.88 1183.19 1567.02 L1183.19 1562.76 L1185.12 1562.76 L1185.12 1567.02 Q1185.12 1571.06 1182.97 1572.66 Q1180.86 1574.21 1178.89 1574.21 Q1176.37 1574.21 1174.78 1572.36 Q1173.19 1570.51 1172.96 1567.99 Q1171.82 1570.88 1169.18 1572.77 Q1166.59 1574.62 1163.03 1574.62 Q1160.29 1574.62 1157.7 1573.92 Q1155.14 1573.25 1152.99 1571.36 Q1150.88 1569.43 1150.88 1566.54 M1156.73 1566.47 Q1156.73 1569.28 1158.74 1571.1 Q1160.74 1572.92 1163.55 1572.92 Q1166.74 1572.92 1169.59 1570.47 Q1172.45 1567.99 1172.45 1563.13 L1172.45 1555.54 Q1164.03 1555.83 1160.37 1559.21 Q1156.73 1562.54 1156.73 1566.47 Z" fill="#000000" fill-rule="evenodd" fill-opacity="1" /><path clip-path="url(#clip360)" d="M1187.75 1579.77 Q1187.75 1577.33 1189.6 1575.21 Q1191.49 1573.1 1194.75 1572.17 Q1191.42 1570.06 1191.42 1565.43 Q1191.42 1561.87 1193.75 1559.13 Q1190.2 1556.17 1190.2 1551.31 Q1190.2 1546.83 1193.75 1543.53 Q1197.31 1540.23 1202.5 1540.23 Q1207.06 1540.23 1210.54 1542.98 Q1214.17 1539.42 1218.58 1539.38 Q1220.54 1539.38 1221.47 1540.6 Q1222.43 1541.83 1222.43 1543.12 Q1222.43 1544.27 1221.69 1544.83 Q1220.99 1545.38 1220.25 1545.38 Q1219.32 1545.38 1218.65 1544.79 Q1218.02 1544.16 1218.02 1543.2 Q1218.02 1541.6 1219.25 1541.12 Q1219.02 1541.05 1218.51 1541.05 Q1214.8 1541.05 1211.65 1544.01 Q1214.76 1546.9 1214.76 1551.39 Q1214.76 1555.87 1211.21 1559.17 Q1207.65 1562.47 1202.5 1562.47 Q1198.24 1562.47 1194.98 1560.09 Q1193.68 1561.61 1193.68 1563.69 Q1193.68 1565.58 1194.83 1567.06 Q1195.98 1568.54 1197.72 1568.77 Q1198.24 1568.84 1203.39 1568.84 Q1206.43 1568.84 1208.09 1568.91 Q1209.76 1568.99 1212.13 1569.51 Q1214.54 1569.99 1216.43 1570.95 Q1221.36 1573.69 1221.4 1579.62 Q1221.4 1583.96 1216.39 1586.66 Q1211.43 1589.41 1204.54 1589.41 Q1197.57 1589.41 1192.64 1586.63 Q1187.75 1583.88 1187.75 1579.77 M1191.71 1579.77 Q1191.71 1582.88 1195.38 1585.26 Q1199.05 1587.66 1204.61 1587.66 Q1210.06 1587.66 1213.73 1585.29 Q1217.43 1582.96 1217.43 1579.77 Q1217.43 1577.51 1216.13 1576.07 Q1214.84 1574.62 1212.17 1574.03 Q1209.54 1573.47 1207.69 1573.36 Q1205.83 1573.25 1202.42 1573.25 L1197.94 1573.25 Q1195.35 1573.4 1193.53 1575.29 Q1191.71 1577.18 1191.71 1579.77 M1195.86 1551.39 Q1195.86 1560.72 1202.5 1560.72 Q1205.83 1560.72 1207.87 1557.69 Q1209.09 1555.65 1209.09 1551.31 Q1209.09 1541.97 1202.5 1541.97 Q1199.16 1541.97 1197.09 1545.01 Q1195.86 1547.05 1195.86 1551.39 Z" fill="#000000" fill-rule="evenodd" fill-opacity="1" /><path clip-path="url(#clip360)" d="M1248.82 1555.78 Q1248.82 1543.62 1253.35 1533.82 Q1255.28 1529.71 1257.99 1526.27 Q1260.69 1522.82 1262.48 1521.31 Q1264.27 1519.8 1264.77 1519.8 Q1265.47 1519.8 1265.5 1520.51 Q1265.5 1520.86 1264.56 1521.74 Q1252.96 1533.54 1253 1555.78 Q1253 1578.09 1264.27 1589.44 Q1265.5 1590.67 1265.5 1591.05 Q1265.5 1591.76 1264.77 1591.76 Q1264.27 1591.76 1262.55 1590.32 Q1260.83 1588.88 1258.16 1585.57 Q1255.49 1582.27 1253.56 1578.23 Q1248.82 1568.43 1248.82 1555.78 Z" fill="#000000" fill-rule="evenodd" fill-opacity="1" /><path clip-path="url(#clip360)" d="M1304.6 1549.67 Q1304.6 1551.63 1304 1553.85 L1295.81 1586.42 Q1295.08 1589.3 1292.86 1589.3 Q1291.95 1589.3 1291.39 1588.74 Q1290.86 1588.21 1290.86 1587.36 Q1290.86 1587.08 1291.07 1586.21 L1299.26 1553.11 Q1299.99 1550.09 1299.99 1548.58 Q1299.99 1543.55 1296.09 1543.55 Q1292.65 1543.55 1289.21 1546.08 Q1287.63 1547.35 1286.08 1549.63 Q1284.57 1551.88 1284.29 1552.69 Q1283.97 1554.51 1283.52 1555.92 Q1283.31 1556.9 1282.29 1560.73 L1280.71 1567.23 Q1279.58 1572.08 1279.34 1572.54 Q1278.98 1573.52 1278.21 1574.05 Q1277.44 1574.58 1276.67 1574.58 Q1275.79 1574.58 1275.19 1574.05 Q1274.59 1573.52 1274.59 1572.61 Q1274.59 1572.47 1274.7 1571.94 Q1274.8 1571.41 1274.98 1570.68 Q1275.15 1569.94 1275.22 1569.52 L1279.41 1552.9 Q1280.18 1549.88 1280.35 1548.93 Q1280.56 1547.94 1280.56 1546.86 Q1280.56 1544.96 1279.97 1544.26 Q1279.37 1543.55 1278.32 1543.55 Q1276.49 1543.55 1275.29 1545.73 Q1274.1 1547.91 1273.08 1552.13 Q1272.77 1553.29 1272.55 1553.53 Q1272.38 1553.78 1271.85 1553.78 Q1270.97 1553.74 1270.97 1553.04 Q1270.97 1552.86 1271.25 1551.74 Q1271.54 1550.58 1272.06 1548.89 Q1272.62 1547.17 1273.22 1546.08 Q1273.57 1545.35 1273.89 1544.85 Q1274.21 1544.36 1274.84 1543.59 Q1275.47 1542.82 1276.42 1542.39 Q1277.37 1541.97 1278.53 1541.97 Q1281.09 1541.97 1282.99 1543.62 Q1284.92 1545.27 1285.17 1548.23 Q1285.91 1547.14 1286.85 1546.15 Q1287.84 1545.17 1289.21 1544.19 Q1290.58 1543.17 1292.44 1542.57 Q1294.3 1541.97 1296.3 1541.97 Q1300.31 1541.97 1302.45 1544.05 Q1304.6 1546.08 1304.6 1549.67 Z" fill="#000000" fill-rule="evenodd" fill-opacity="1" /><path clip-path="url(#clip360)" d="M1312.41 1591.05 Q1312.41 1590.7 1313.32 1589.82 Q1324.92 1578.02 1324.92 1555.78 Q1324.92 1533.47 1313.78 1522.19 Q1312.41 1520.89 1312.41 1520.51 Q1312.41 1519.8 1313.11 1519.8 Q1313.61 1519.8 1315.33 1521.24 Q1317.08 1522.68 1319.72 1525.99 Q1322.39 1529.29 1324.36 1533.33 Q1329.1 1543.13 1329.1 1555.78 Q1329.1 1567.94 1324.57 1577.74 Q1322.63 1581.85 1319.93 1585.29 Q1317.22 1588.74 1315.43 1590.25 Q1313.64 1591.76 1313.11 1591.76 Q1312.41 1591.76 1312.41 1591.05 Z" fill="#000000" fill-rule="evenodd" fill-opacity="1" /><polyline clip-path="url(#clip362)" style="stroke:#000000; stroke-linecap:butt; stroke-linejoin:round; stroke-width:2; stroke-opacity:0.1; fill:none" points="
  241.091,1380.04 1860.9,1380.04 
  "/>
<polyline clip-path="url(#clip362)" style="stroke:#000000; stroke-linecap:butt; stroke-linejoin:round; stroke-width:2; stroke-opacity:0.1; fill:none" points="
  241.091,1105.17 1860.9,1105.17 
  "/>
<polyline clip-path="url(#clip362)" style="stroke:#000000; stroke-linecap:butt; stroke-linejoin:round; stroke-width:2; stroke-opacity:0.1; fill:none" points="
  241.091,830.302 1860.9,830.302 
  "/>
<polyline clip-path="url(#clip362)" style="stroke:#000000; stroke-linecap:butt; stroke-linejoin:round; stroke-width:2; stroke-opacity:0.1; fill:none" points="
  241.091,555.433 1860.9,555.433 
  "/>
<polyline clip-path="url(#clip362)" style="stroke:#000000; stroke-linecap:butt; stroke-linejoin:round; stroke-width:2; stroke-opacity:0.1; fill:none" points="
  241.091,280.564 1860.9,280.564 
  "/>
<polyline clip-path="url(#clip360)" style="stroke:#000000; stroke-linecap:butt; stroke-linejoin:round; stroke-width:4; stroke-opacity:1; fill:none" points="
  241.091,1418.86 241.091,47.2441 
  "/>
<polyline clip-path="url(#clip360)" style="stroke:#000000; stroke-linecap:butt; stroke-linejoin:round; stroke-width:4; stroke-opacity:1; fill:none" points="
  241.091,1380.04 255.587,1380.04 
  "/>
<polyline clip-path="url(#clip360)" style="stroke:#000000; stroke-linecap:butt; stroke-linejoin:round; stroke-width:4; stroke-opacity:1; fill:none" points="
  241.091,1105.17 255.587,1105.17 
  "/>
<polyline clip-path="url(#clip360)" style="stroke:#000000; stroke-linecap:butt; stroke-linejoin:round; stroke-width:4; stroke-opacity:1; fill:none" points="
  241.091,830.302 255.587,830.302 
  "/>
<polyline clip-path="url(#clip360)" style="stroke:#000000; stroke-linecap:butt; stroke-linejoin:round; stroke-width:4; stroke-opacity:1; fill:none" points="
  241.091,555.433 255.587,555.433 
  "/>
<polyline clip-path="url(#clip360)" style="stroke:#000000; stroke-linecap:butt; stroke-linejoin:round; stroke-width:4; stroke-opacity:1; fill:none" points="
  241.091,280.564 255.587,280.564 
  "/>
<path clip-path="url(#clip360)" d="M119.148 1381.14 Q119.148 1373.7 121.026 1369.65 Q123.644 1363.63 129.82 1363.63 Q131.129 1363.63 132.488 1364 Q133.872 1364.34 135.601 1365.7 Q137.355 1367.06 138.417 1369.28 Q140.443 1373.58 140.443 1381.14 Q140.443 1388.53 138.565 1392.55 Q135.823 1398.43 129.771 1398.43 Q127.498 1398.43 125.176 1397.27 Q122.879 1396.11 121.421 1393.32 Q119.148 1389.14 119.148 1381.14 M123.348 1380.52 Q123.348 1388.16 123.891 1391.19 Q124.509 1394.48 126.189 1395.91 Q127.893 1397.32 129.771 1397.32 Q131.796 1397.32 133.476 1395.81 Q135.181 1394.28 135.7 1391 Q136.268 1387.76 136.243 1380.52 Q136.243 1373.48 135.749 1370.67 Q135.082 1367.38 133.303 1366.07 Q131.549 1364.74 129.771 1364.74 Q129.104 1364.74 128.387 1364.93 Q127.696 1365.13 126.683 1365.7 Q125.67 1366.27 124.88 1367.68 Q124.114 1369.08 123.743 1371.21 Q123.348 1373.95 123.348 1380.52 Z" fill="#000000" fill-rule="evenodd" fill-opacity="1" /><path clip-path="url(#clip360)" d="M147.532 1396.51 Q146.767 1395.69 146.767 1394.63 Q146.767 1393.57 147.532 1392.8 Q148.298 1392.01 149.459 1392.01 Q150.571 1392.01 151.312 1392.75 Q152.078 1393.47 152.078 1394.65 Q152.078 1395.81 151.263 1396.58 Q150.472 1397.32 149.459 1397.32 Q148.298 1397.32 147.532 1396.51 Z" fill="#000000" fill-rule="evenodd" fill-opacity="1" /><path clip-path="url(#clip360)" d="M158.501 1381.14 Q158.501 1373.7 160.378 1369.65 Q162.997 1363.63 169.173 1363.63 Q170.482 1363.63 171.841 1364 Q173.224 1364.34 174.953 1365.7 Q176.707 1367.06 177.769 1369.28 Q179.795 1373.58 179.795 1381.14 Q179.795 1388.53 177.918 1392.55 Q175.176 1398.43 169.123 1398.43 Q166.851 1398.43 164.528 1397.27 Q162.231 1396.11 160.773 1393.32 Q158.501 1389.14 158.501 1381.14 M162.7 1380.52 Q162.7 1388.16 163.244 1391.19 Q163.861 1394.48 165.541 1395.91 Q167.246 1397.32 169.123 1397.32 Q171.149 1397.32 172.829 1395.81 Q174.533 1394.28 175.052 1391 Q175.62 1387.76 175.596 1380.52 Q175.596 1373.48 175.101 1370.67 Q174.434 1367.38 172.656 1366.07 Q170.902 1364.74 169.123 1364.74 Q168.456 1364.74 167.74 1364.93 Q167.048 1365.13 166.035 1365.7 Q165.022 1366.27 164.232 1367.68 Q163.466 1369.08 163.096 1371.21 Q162.7 1373.95 162.7 1380.52 Z" fill="#000000" fill-rule="evenodd" fill-opacity="1" /><path clip-path="url(#clip360)" d="M183.797 1381.14 Q183.797 1373.7 185.674 1369.65 Q188.293 1363.63 194.469 1363.63 Q195.778 1363.63 197.137 1364 Q198.52 1364.34 200.249 1365.7 Q202.003 1367.06 203.066 1369.28 Q205.091 1373.58 205.091 1381.14 Q205.091 1388.53 203.214 1392.55 Q200.472 1398.43 194.419 1398.43 Q192.147 1398.43 189.825 1397.27 Q187.527 1396.11 186.07 1393.32 Q183.797 1389.14 183.797 1381.14 M187.997 1380.52 Q187.997 1388.16 188.54 1391.19 Q189.158 1394.48 190.837 1395.91 Q192.542 1397.32 194.419 1397.32 Q196.445 1397.32 198.125 1395.81 Q199.83 1394.28 200.348 1391 Q200.916 1387.76 200.892 1380.52 Q200.892 1373.48 200.398 1370.67 Q199.731 1367.38 197.952 1366.07 Q196.198 1364.74 194.419 1364.74 Q193.752 1364.74 193.036 1364.93 Q192.344 1365.13 191.332 1365.7 Q190.319 1366.27 189.528 1367.68 Q188.762 1369.08 188.392 1371.21 Q187.997 1373.95 187.997 1380.52 Z" fill="#000000" fill-rule="evenodd" fill-opacity="1" /><path clip-path="url(#clip360)" d="M119.692 1106.27 Q119.692 1098.84 121.569 1094.78 Q124.188 1088.76 130.364 1088.76 Q131.673 1088.76 133.032 1089.13 Q134.415 1089.47 136.144 1090.83 Q137.898 1092.19 138.96 1094.41 Q140.986 1098.71 140.986 1106.27 Q140.986 1113.66 139.109 1117.68 Q136.367 1123.56 130.314 1123.56 Q128.042 1123.56 125.719 1122.4 Q123.422 1121.24 121.965 1118.45 Q119.692 1114.27 119.692 1106.27 M123.891 1105.65 Q123.891 1113.29 124.435 1116.33 Q125.052 1119.61 126.732 1121.04 Q128.437 1122.45 130.314 1122.45 Q132.34 1122.45 134.02 1120.94 Q135.724 1119.41 136.243 1116.13 Q136.811 1112.89 136.787 1105.65 Q136.787 1098.61 136.292 1095.8 Q135.625 1092.51 133.847 1091.2 Q132.093 1089.87 130.314 1089.87 Q129.647 1089.87 128.931 1090.07 Q128.239 1090.26 127.226 1090.83 Q126.213 1091.4 125.423 1092.81 Q124.657 1094.22 124.287 1096.34 Q123.891 1099.08 123.891 1105.65 Z" fill="#000000" fill-rule="evenodd" fill-opacity="1" /><path clip-path="url(#clip360)" d="M148.076 1121.64 Q147.31 1120.82 147.31 1119.76 Q147.31 1118.7 148.076 1117.93 Q148.842 1117.14 150.003 1117.14 Q151.114 1117.14 151.856 1117.88 Q152.621 1118.6 152.621 1119.78 Q152.621 1120.94 151.806 1121.71 Q151.016 1122.45 150.003 1122.45 Q148.842 1122.45 148.076 1121.64 Z" fill="#000000" fill-rule="evenodd" fill-opacity="1" /><path clip-path="url(#clip360)" d="M159.044 1106.27 Q159.044 1098.84 160.922 1094.78 Q163.54 1088.76 169.716 1088.76 Q171.025 1088.76 172.384 1089.13 Q173.767 1089.47 175.497 1090.83 Q177.251 1092.19 178.313 1094.41 Q180.339 1098.71 180.339 1106.27 Q180.339 1113.66 178.461 1117.68 Q175.719 1123.56 169.667 1123.56 Q167.394 1123.56 165.072 1122.4 Q162.774 1121.24 161.317 1118.45 Q159.044 1114.27 159.044 1106.27 M163.244 1105.65 Q163.244 1113.29 163.787 1116.33 Q164.405 1119.61 166.085 1121.04 Q167.789 1122.45 169.667 1122.45 Q171.692 1122.45 173.372 1120.94 Q175.077 1119.41 175.596 1116.13 Q176.164 1112.89 176.139 1105.65 Q176.139 1098.61 175.645 1095.8 Q174.978 1092.51 173.199 1091.2 Q171.445 1089.87 169.667 1089.87 Q169 1089.87 168.283 1090.07 Q167.592 1090.26 166.579 1090.83 Q165.566 1091.4 164.775 1092.81 Q164.01 1094.22 163.639 1096.34 Q163.244 1099.08 163.244 1105.65 Z" fill="#000000" fill-rule="evenodd" fill-opacity="1" /><path clip-path="url(#clip360)" d="M184.884 1122.45 Q184.884 1121.54 184.958 1121.27 Q185.057 1120.99 185.452 1120.57 L195.161 1109.75 Q200.472 1103.78 200.472 1098.56 Q200.472 1095.18 198.693 1092.76 Q196.939 1090.34 193.703 1090.34 Q191.48 1090.34 189.602 1091.7 Q187.725 1093.05 186.86 1095.48 Q187.008 1095.43 187.527 1095.43 Q188.787 1095.43 189.479 1096.22 Q190.195 1097.01 190.195 1098.07 Q190.195 1099.43 189.306 1100.09 Q188.441 1100.74 187.577 1100.74 Q187.231 1100.74 186.761 1100.66 Q186.317 1100.59 185.6 1099.9 Q184.884 1099.18 184.884 1097.92 Q184.884 1094.39 187.552 1091.57 Q190.245 1088.76 194.345 1088.76 Q198.99 1088.76 202.028 1091.52 Q205.091 1094.26 205.091 1098.56 Q205.091 1100.07 204.622 1101.45 Q204.177 1102.81 203.56 1103.87 Q202.967 1104.94 201.336 1106.64 Q199.706 1108.35 198.397 1109.56 Q197.087 1110.77 194.148 1113.34 L188.787 1118.55 L197.903 1118.55 Q202.349 1118.55 202.695 1118.15 Q203.189 1117.44 203.807 1113.66 L205.091 1113.66 L203.659 1122.45 L184.884 1122.45 Z" fill="#000000" fill-rule="evenodd" fill-opacity="1" /><path clip-path="url(#clip360)" d="M118.58 831.402 Q118.58 823.966 120.458 819.915 Q123.076 813.887 129.252 813.887 Q130.561 813.887 131.92 814.258 Q133.303 814.603 135.033 815.962 Q136.787 817.321 137.849 819.544 Q139.874 823.842 139.874 831.402 Q139.874 838.788 137.997 842.815 Q135.255 848.694 129.203 848.694 Q126.93 848.694 124.608 847.533 Q122.31 846.372 120.853 843.58 Q118.58 839.406 118.58 831.402 M122.78 830.784 Q122.78 838.417 123.323 841.456 Q123.941 844.742 125.621 846.174 Q127.325 847.582 129.203 847.582 Q131.228 847.582 132.908 846.075 Q134.613 844.544 135.131 841.258 Q135.7 838.022 135.675 830.784 Q135.675 823.744 135.181 820.927 Q134.514 817.642 132.735 816.333 Q130.981 814.999 129.203 814.999 Q128.536 814.999 127.819 815.196 Q127.128 815.394 126.115 815.962 Q125.102 816.53 124.311 817.938 Q123.546 819.346 123.175 821.471 Q122.78 824.213 122.78 830.784 Z" fill="#000000" fill-rule="evenodd" fill-opacity="1" /><path clip-path="url(#clip360)" d="M146.964 846.767 Q146.199 845.952 146.199 844.89 Q146.199 843.827 146.964 843.062 Q147.73 842.271 148.891 842.271 Q150.003 842.271 150.744 843.012 Q151.51 843.729 151.51 844.914 Q151.51 846.075 150.695 846.841 Q149.904 847.582 148.891 847.582 Q147.73 847.582 146.964 846.767 Z" fill="#000000" fill-rule="evenodd" fill-opacity="1" /><path clip-path="url(#clip360)" d="M157.933 831.402 Q157.933 823.966 159.81 819.915 Q162.429 813.887 168.604 813.887 Q169.914 813.887 171.272 814.258 Q172.656 814.603 174.385 815.962 Q176.139 817.321 177.201 819.544 Q179.227 823.842 179.227 831.402 Q179.227 838.788 177.349 842.815 Q174.607 848.694 168.555 848.694 Q166.282 848.694 163.96 847.533 Q161.663 846.372 160.205 843.58 Q157.933 839.406 157.933 831.402 M162.132 830.784 Q162.132 838.417 162.676 841.456 Q163.293 844.742 164.973 846.174 Q166.678 847.582 168.555 847.582 Q170.581 847.582 172.261 846.075 Q173.965 844.544 174.484 841.258 Q175.052 838.022 175.027 830.784 Q175.027 823.744 174.533 820.927 Q173.866 817.642 172.088 816.333 Q170.334 814.999 168.555 814.999 Q167.888 814.999 167.172 815.196 Q166.48 815.394 165.467 815.962 Q164.454 816.53 163.664 817.938 Q162.898 819.346 162.527 821.471 Q162.132 824.213 162.132 830.784 Z" fill="#000000" fill-rule="evenodd" fill-opacity="1" /><path clip-path="url(#clip360)" d="M182.661 839.233 L182.661 837.676 L198.199 813.936 Q198.594 813.319 199.212 813.344 Q199.78 813.344 199.904 813.566 Q200.027 813.788 200.027 814.653 L200.027 837.676 L205.091 837.676 L205.091 839.233 L200.027 839.233 L200.027 843.63 Q200.027 845.087 200.62 845.557 Q201.238 846.026 203.856 846.026 L204.918 846.026 L204.918 847.582 Q202.843 847.434 198.051 847.434 Q193.283 847.434 191.208 847.582 L191.208 846.026 L192.27 846.026 Q194.889 846.026 195.506 845.581 Q196.124 845.112 196.124 843.63 L196.124 839.233 L182.661 839.233 M184.093 837.676 L196.42 837.676 L196.42 818.803 L184.093 837.676 Z" fill="#000000" fill-rule="evenodd" fill-opacity="1" /><path clip-path="url(#clip360)" d="M119.297 556.533 Q119.297 549.097 121.174 545.046 Q123.793 539.018 129.968 539.018 Q131.278 539.018 132.636 539.389 Q134.02 539.734 135.749 541.093 Q137.503 542.452 138.565 544.675 Q140.591 548.973 140.591 556.533 Q140.591 563.919 138.713 567.946 Q135.971 573.825 129.919 573.825 Q127.646 573.825 125.324 572.664 Q123.027 571.503 121.569 568.711 Q119.297 564.537 119.297 556.533 M123.496 555.915 Q123.496 563.548 124.04 566.587 Q124.657 569.872 126.337 571.305 Q128.042 572.713 129.919 572.713 Q131.945 572.713 133.625 571.206 Q135.329 569.675 135.848 566.389 Q136.416 563.153 136.391 555.915 Q136.391 548.875 135.897 546.058 Q135.23 542.773 133.452 541.464 Q131.698 540.13 129.919 540.13 Q129.252 540.13 128.536 540.327 Q127.844 540.525 126.831 541.093 Q125.818 541.661 125.028 543.069 Q124.262 544.477 123.891 546.602 Q123.496 549.344 123.496 555.915 Z" fill="#000000" fill-rule="evenodd" fill-opacity="1" /><path clip-path="url(#clip360)" d="M147.681 571.898 Q146.915 571.083 146.915 570.021 Q146.915 568.958 147.681 568.193 Q148.447 567.402 149.608 567.402 Q150.719 567.402 151.46 568.143 Q152.226 568.86 152.226 570.045 Q152.226 571.206 151.411 571.972 Q150.62 572.713 149.608 572.713 Q148.447 572.713 147.681 571.898 Z" fill="#000000" fill-rule="evenodd" fill-opacity="1" /><path clip-path="url(#clip360)" d="M158.649 556.533 Q158.649 549.097 160.526 545.046 Q163.145 539.018 169.321 539.018 Q170.63 539.018 171.989 539.389 Q173.372 539.734 175.101 541.093 Q176.855 542.452 177.918 544.675 Q179.943 548.973 179.943 556.533 Q179.943 563.919 178.066 567.946 Q175.324 573.825 169.271 573.825 Q166.999 573.825 164.677 572.664 Q162.379 571.503 160.922 568.711 Q158.649 564.537 158.649 556.533 M162.849 555.915 Q162.849 563.548 163.392 566.587 Q164.01 569.872 165.689 571.305 Q167.394 572.713 169.271 572.713 Q171.297 572.713 172.977 571.206 Q174.681 569.675 175.2 566.389 Q175.768 563.153 175.744 555.915 Q175.744 548.875 175.25 546.058 Q174.583 542.773 172.804 541.464 Q171.05 540.13 169.271 540.13 Q168.604 540.13 167.888 540.327 Q167.196 540.525 166.184 541.093 Q165.171 541.661 164.38 543.069 Q163.614 544.477 163.244 546.602 Q162.849 549.344 162.849 555.915 Z" fill="#000000" fill-rule="evenodd" fill-opacity="1" /><path clip-path="url(#clip360)" d="M184.093 556.73 Q184.093 548.776 188.145 543.909 Q192.196 539.018 197.409 539.018 Q200.447 539.018 202.127 540.574 Q203.831 542.106 203.831 544.477 Q203.831 545.787 203.066 546.355 Q202.3 546.923 201.509 546.923 Q200.595 546.923 199.879 546.305 Q199.163 545.688 199.163 544.576 Q199.163 542.303 201.954 542.303 Q200.645 540.278 197.507 540.278 Q196.544 540.278 195.556 540.574 Q194.568 540.846 193.283 541.785 Q191.999 542.723 191.01 544.206 Q190.022 545.688 189.331 548.479 Q188.639 551.271 188.639 554.902 L188.639 556.113 Q190.714 551.098 194.963 551.123 Q199.212 551.123 202.152 554.359 Q205.091 557.595 205.091 562.387 Q205.091 567.303 202.028 570.564 Q198.965 573.825 194.667 573.825 Q192.74 573.825 190.986 573.01 Q189.256 572.219 187.626 570.391 Q186.02 568.563 185.057 565.055 Q184.093 561.547 184.093 556.73 M188.738 561.276 Q188.738 566.241 189.652 568.613 Q189.8 569.008 190.121 569.551 Q190.467 570.095 191.035 570.811 Q191.628 571.503 192.591 571.972 Q193.555 572.417 194.667 572.417 Q198.051 572.417 199.681 569.131 Q200.546 567.303 200.546 562.338 Q200.546 557.274 199.632 555.421 Q198.076 552.284 194.914 552.284 Q192.789 552.284 191.307 553.741 Q189.849 555.199 189.281 557.15 Q188.738 559.102 188.738 561.276 Z" fill="#000000" fill-rule="evenodd" fill-opacity="1" /><path clip-path="url(#clip360)" d="M119.297 281.664 Q119.297 274.228 121.174 270.177 Q123.793 264.149 129.968 264.149 Q131.278 264.149 132.636 264.519 Q134.02 264.865 135.749 266.224 Q137.503 267.583 138.565 269.806 Q140.591 274.104 140.591 281.664 Q140.591 289.05 138.713 293.077 Q135.971 298.956 129.919 298.956 Q127.646 298.956 125.324 297.795 Q123.027 296.634 121.569 293.842 Q119.297 289.667 119.297 281.664 M123.496 281.046 Q123.496 288.679 124.04 291.718 Q124.657 295.003 126.337 296.436 Q128.042 297.844 129.919 297.844 Q131.945 297.844 133.625 296.337 Q135.329 294.806 135.848 291.52 Q136.416 288.284 136.391 281.046 Q136.391 274.006 135.897 271.189 Q135.23 267.904 133.452 266.595 Q131.698 265.261 129.919 265.261 Q129.252 265.261 128.536 265.458 Q127.844 265.656 126.831 266.224 Q125.818 266.792 125.028 268.2 Q124.262 269.608 123.891 271.733 Q123.496 274.475 123.496 281.046 Z" fill="#000000" fill-rule="evenodd" fill-opacity="1" /><path clip-path="url(#clip360)" d="M147.681 297.029 Q146.915 296.214 146.915 295.152 Q146.915 294.089 147.681 293.324 Q148.447 292.533 149.608 292.533 Q150.719 292.533 151.46 293.274 Q152.226 293.991 152.226 295.176 Q152.226 296.337 151.411 297.103 Q150.62 297.844 149.608 297.844 Q148.447 297.844 147.681 297.029 Z" fill="#000000" fill-rule="evenodd" fill-opacity="1" /><path clip-path="url(#clip360)" d="M158.649 281.664 Q158.649 274.228 160.526 270.177 Q163.145 264.149 169.321 264.149 Q170.63 264.149 171.989 264.519 Q173.372 264.865 175.101 266.224 Q176.855 267.583 177.918 269.806 Q179.943 274.104 179.943 281.664 Q179.943 289.05 178.066 293.077 Q175.324 298.956 169.271 298.956 Q166.999 298.956 164.677 297.795 Q162.379 296.634 160.922 293.842 Q158.649 289.667 158.649 281.664 M162.849 281.046 Q162.849 288.679 163.392 291.718 Q164.01 295.003 165.689 296.436 Q167.394 297.844 169.271 297.844 Q171.297 297.844 172.977 296.337 Q174.681 294.806 175.2 291.52 Q175.768 288.284 175.744 281.046 Q175.744 274.006 175.25 271.189 Q174.583 267.904 172.804 266.595 Q171.05 265.261 169.271 265.261 Q168.604 265.261 167.888 265.458 Q167.196 265.656 166.184 266.224 Q165.171 266.792 164.38 268.2 Q163.614 269.608 163.244 271.733 Q162.849 274.475 162.849 281.046 Z" fill="#000000" fill-rule="evenodd" fill-opacity="1" /><path clip-path="url(#clip360)" d="M184.093 290.211 Q184.093 284.554 191.381 280.898 Q188.244 278.773 187.675 278.156 Q185.452 275.685 185.452 272.597 Q185.452 269.065 188.12 266.619 Q190.813 264.149 194.617 264.149 Q198.248 264.149 200.991 266.249 Q203.733 268.348 203.733 271.683 Q203.733 276.377 197.606 279.539 Q201.658 282.059 202.621 283.121 Q205.091 285.863 205.091 289.346 Q205.091 293.398 201.979 296.189 Q198.866 298.956 194.568 298.956 Q190.368 298.956 187.231 296.51 Q184.093 294.065 184.093 290.211 M186.613 290.211 Q186.613 293.348 188.96 295.448 Q191.332 297.548 194.617 297.548 Q197.804 297.548 200.175 295.72 Q202.572 293.892 202.572 291.174 Q202.572 290.112 202.201 289.198 Q201.855 288.284 201.139 287.568 Q200.447 286.827 200.002 286.505 Q199.582 286.16 198.767 285.591 L192.542 281.664 Q186.613 284.949 186.613 290.211 M187.675 270.621 Q187.675 273.042 190.22 274.722 L196.495 278.773 Q201.509 275.834 201.509 271.683 Q201.509 268.991 199.459 267.212 Q197.409 265.409 194.568 265.409 Q191.776 265.409 189.726 266.891 Q187.675 268.348 187.675 270.621 Z" fill="#000000" fill-rule="evenodd" fill-opacity="1" /><path clip-path="url(#clip360)" d="M70.448 842.662 Q71.0101 842.662 71.4669 843.084 Q71.8885 843.47 71.8885 844.103 Q71.8885 844.559 71.5723 844.946 Q71.2561 845.297 71.0453 845.403 Q70.8345 845.508 70.3075 845.754 L61.0322 849.443 L61.0322 866.694 L69.5696 870.137 Q71.2561 870.839 71.5723 871.261 Q71.8885 871.648 71.8885 873.088 L71.8885 880.08 Q71.8885 880.642 71.8533 880.993 Q71.8182 881.309 71.7128 881.766 Q71.6074 882.223 71.2912 882.469 Q70.975 882.68 70.448 882.68 Q70.1669 882.68 69.148 882.223 L24.3878 864.305 Q22.7365 863.742 22.7365 862.653 Q22.7365 861.951 23.1229 861.634 Q23.5094 861.318 24.3878 861.002 L69.2183 843.014 L70.448 842.662 M58.1512 850.567 L39.4952 858.051 L58.1512 865.534 L58.1512 850.567 M35.6305 859.632 L28.1471 862.653 L69.0075 879.061 L69.0075 872.948 L35.6305 859.632 Z" fill="#000000" fill-rule="evenodd" fill-opacity="1" /><path clip-path="url(#clip360)" d="M53.9 839.148 Q41.7438 839.148 31.9415 834.615 Q27.8309 832.683 24.3878 829.978 Q20.9447 827.272 19.4339 825.481 Q17.9232 823.689 17.9232 823.197 Q17.9232 822.494 18.6258 822.459 Q18.9772 822.459 19.8555 823.408 Q31.6604 835.002 53.9 834.967 Q76.2099 834.967 87.5581 823.689 Q88.7878 822.459 89.1742 822.459 Q89.8769 822.459 89.8769 823.197 Q89.8769 823.689 88.4364 825.41 Q86.9959 827.132 83.6934 829.802 Q80.3908 832.472 76.3504 834.405 Q66.5482 839.148 53.9 839.148 Z" fill="#000000" fill-rule="evenodd" fill-opacity="1" /><path clip-path="url(#clip360)" d="M47.7868 783.367 Q49.7543 783.367 51.9677 783.965 L84.5366 792.151 Q87.4176 792.889 87.4176 795.102 Q87.4176 796.016 86.8554 796.578 Q86.3284 797.105 85.4852 797.105 Q85.2041 797.105 84.3258 796.894 L51.2299 788.708 Q48.2084 787.97 46.6976 787.97 Q41.6735 787.97 41.6735 791.87 Q41.6735 795.313 44.2031 798.756 Q45.468 800.337 47.7516 801.883 Q50.0002 803.394 50.8083 803.675 Q52.6352 803.991 54.0406 804.448 Q55.0243 804.658 58.8539 805.677 L65.3536 807.258 Q70.2021 808.383 70.6588 808.628 Q71.6425 808.98 72.1695 809.753 Q72.6965 810.526 72.6965 811.299 Q72.6965 812.177 72.1695 812.774 Q71.6425 813.372 70.7291 813.372 Q70.5885 813.372 70.0615 813.266 Q69.5345 813.161 68.7967 812.985 Q68.0589 812.809 67.6373 812.739 L51.0191 808.558 Q47.9976 807.785 47.049 807.61 Q46.0652 807.399 44.9761 807.399 Q43.0789 807.399 42.3762 807.996 Q41.6735 808.593 41.6735 809.647 Q41.6735 811.474 43.8518 812.669 Q46.0301 813.863 50.2461 814.882 Q51.4055 815.198 51.6515 815.409 Q51.8974 815.585 51.8974 816.112 Q51.8623 816.99 51.1596 816.99 Q50.9839 816.99 49.8597 816.709 Q48.7002 816.428 47.0138 815.901 Q45.2923 815.339 44.2031 814.742 Q43.4653 814.39 42.9735 814.074 Q42.4816 813.758 41.7087 813.126 Q40.9357 812.493 40.5141 811.545 Q40.0925 810.596 40.0925 809.437 Q40.0925 806.872 41.7438 804.975 Q43.3951 803.042 46.3463 802.796 Q45.2572 802.058 44.2734 801.11 Q43.2897 800.126 42.3059 798.756 Q41.287 797.386 40.6898 795.524 Q40.0925 793.662 40.0925 791.659 Q40.0925 787.654 42.1654 785.511 Q44.2031 783.367 47.7868 783.367 Z" fill="#000000" fill-rule="evenodd" fill-opacity="1" /><path clip-path="url(#clip360)" d="M89.1742 775.553 Q88.8229 775.553 87.9446 774.64 Q76.1396 763.045 53.9 763.045 Q31.5902 763.045 20.3122 774.183 Q19.0123 775.553 18.6258 775.553 Q17.9232 775.553 17.9232 774.85 Q17.9232 774.359 19.3636 772.637 Q20.8041 770.88 24.1067 768.245 Q27.4092 765.575 31.4496 763.608 Q41.2519 758.865 53.9 758.865 Q66.0563 758.865 75.8586 763.397 Q79.9692 765.329 83.4123 768.034 Q86.8554 770.74 88.3662 772.532 Q89.8769 774.323 89.8769 774.85 Q89.8769 775.553 89.1742 775.553 Z" fill="#000000" fill-rule="evenodd" fill-opacity="1" /><path clip-path="url(#clip360)" d="M89.8769 728.913 L17.9232 728.913 L17.9232 718.057 L19.5744 718.057 L19.5744 724.1 L88.2256 724.1 L88.2256 718.057 L89.8769 718.057 L89.8769 728.913 Z" fill="#000000" fill-rule="evenodd" fill-opacity="1" /><path clip-path="url(#clip360)" d="M51.5812 688.67 Q56.6405 688.67 61.5943 691.235 Q66.513 693.765 69.6048 697.84 Q72.6965 701.88 72.6965 706.026 Q72.6965 710.067 69.6048 712.631 Q66.4779 715.161 61.3835 715.161 Q59.5917 715.161 58.3269 714.95 Q57.0621 714.739 54.1108 714.002 L30.6415 708.099 Q26.2498 707.08 26.2147 707.08 Q25.7931 707.08 25.5823 707.256 Q25.3364 707.396 25.1607 708.24 Q24.985 709.083 24.985 710.699 Q24.985 711.367 24.9499 711.683 Q24.9148 711.964 24.7391 712.21 Q24.5283 712.421 24.1067 712.421 Q23.5094 712.421 23.1932 712.175 Q22.8419 711.894 22.7716 711.683 Q22.7013 711.472 22.6662 711.05 Q22.6311 710.453 22.4554 708.45 Q22.2446 706.448 22.1041 704.726 Q21.9635 703.005 21.9635 702.267 Q21.9635 701.845 22.1743 701.635 Q22.35 701.389 22.5608 701.389 L22.7365 701.353 L44.4139 706.659 Q40.0925 702.478 40.0925 698.227 Q40.0925 693.975 43.3599 691.34 Q46.6274 688.67 51.5812 688.67 M48.4192 693.87 Q45.0815 693.87 43.3951 695.135 Q41.6735 696.365 41.6735 698.402 Q41.6735 700.124 42.9735 702.372 Q44.2734 704.621 47.4354 707.01 Q48.0327 707.467 48.384 707.642 Q48.7354 707.783 49.9299 708.099 L56.5702 709.68 Q61.1024 710.84 63.8429 710.84 Q67.567 710.84 69.3237 709.469 Q71.0804 708.099 71.0804 706.026 Q71.0804 703.848 69.148 701.564 Q67.2157 699.281 63.7023 697.524 Q61.3835 696.435 56.3945 695.17 Q51.3704 693.87 48.4192 693.87 Z" fill="#000000" fill-rule="evenodd" fill-opacity="1" /><path clip-path="url(#clip360)" d="M26.9174 667.962 Q28.4633 667.962 29.6227 669.227 Q30.7469 670.456 30.7469 671.791 Q30.7469 673.021 30.0091 673.794 Q29.2362 674.532 28.1471 674.532 Q26.7066 674.532 25.512 673.302 Q24.3175 672.072 24.3175 670.632 Q24.3175 669.437 25.0553 668.7 Q25.7931 667.962 26.9174 667.962 M61.5943 667.329 Q61.8754 667.329 62.9997 667.646 Q64.0888 667.962 65.7752 668.735 Q67.4265 669.472 68.9724 670.491 Q70.5183 671.51 71.6074 673.197 Q72.6965 674.848 72.6965 676.745 Q72.6965 679.31 71.0101 680.996 Q69.3237 682.648 66.7941 682.648 Q65.4239 682.648 61.0322 680.996 Q48.2435 676.218 47.7165 676.042 Q45.7139 675.234 43.9572 675.234 Q43.1491 675.234 42.6573 675.41 Q42.1303 675.586 41.9546 675.937 Q41.7438 676.288 41.7087 676.499 Q41.6735 676.675 41.6735 677.026 Q41.6735 679.099 43.7815 681.031 Q45.8896 682.964 50.5975 684.299 Q51.4758 684.58 51.6866 684.756 Q51.8974 684.931 51.8974 685.458 Q51.8623 686.337 51.1596 686.337 Q50.9488 686.337 50.1407 686.091 Q49.2975 685.845 48.0327 685.388 Q46.7328 684.931 45.3977 684.123 Q44.0275 683.315 42.8329 682.331 Q41.6384 681.313 40.8654 679.872 Q40.0925 678.432 40.0925 676.815 Q40.0925 674.18 41.8141 672.564 Q43.5005 670.913 45.995 670.913 Q47.3652 670.913 49.7894 671.862 Q52.9514 673.021 53.9703 673.443 L61.524 676.253 Q64.2645 677.272 65.1077 677.588 Q65.9157 677.869 66.8995 678.115 Q67.8481 678.326 68.7264 678.326 Q69.9561 678.326 70.5183 677.94 Q71.0804 677.518 71.0804 676.605 Q71.0804 674.075 68.5859 672.213 Q66.0563 670.351 62.1916 669.262 Q62.0862 669.227 61.9105 669.191 Q61.0322 668.91 60.9268 668.629 Q60.8916 668.489 60.8916 668.208 Q60.8916 667.329 61.5943 667.329 Z" fill="#000000" fill-rule="evenodd" fill-opacity="1" /><path clip-path="url(#clip360)" d="M41.6735 639.094 Q42.6573 639.094 42.9032 639.551 Q43.114 640.008 43.114 641.273 L43.114 648.018 L64.3347 653.359 Q66.1968 653.78 67.7778 653.78 Q69.5345 653.78 70.3075 653.253 Q71.0804 652.691 71.0804 651.532 Q71.0804 649.248 69.0075 646.789 Q66.9346 644.294 61.8754 642.186 Q61.2078 641.905 61.0673 641.765 Q60.8916 641.589 60.8916 641.132 Q60.8916 640.254 61.5943 640.254 Q61.8402 640.254 62.9645 640.746 Q64.0888 641.202 65.7401 642.221 Q67.3914 643.205 68.9372 644.505 Q70.4831 645.77 71.6074 647.702 Q72.6965 649.635 72.6965 651.707 Q72.6965 654.624 70.8345 656.486 Q68.9724 658.313 66.0563 658.313 Q65.1077 658.313 62.0862 657.575 Q59.0295 656.837 43.114 652.832 L43.114 659.191 Q43.114 660.069 43.0789 660.421 Q43.0437 660.737 42.8681 660.983 Q42.6573 661.194 42.2357 661.194 Q41.5681 661.194 41.287 660.912 Q40.9708 660.631 40.9357 660.28 Q40.8654 659.894 40.8654 659.015 L40.8654 652.27 L29.447 649.459 Q28.3227 649.178 27.6903 648.475 Q27.0228 647.737 26.9525 647.316 Q26.8471 646.894 26.8471 646.578 Q26.8471 645.629 27.3741 645.067 Q27.866 644.505 28.7795 644.505 Q29.2713 644.505 40.8654 647.456 L40.8654 641.132 Q40.8654 640.324 40.9006 640.008 Q40.9357 639.657 41.1114 639.375 Q41.287 639.094 41.6735 639.094 Z" fill="#000000" fill-rule="evenodd" fill-opacity="1" /><path clip-path="url(#clip360)" d="M46.276 608.411 Q48.2435 608.411 49.2975 609.395 Q50.3164 610.379 50.3164 611.714 Q50.3164 612.803 49.684 613.4 Q49.0516 613.962 48.2084 613.962 Q46.9787 613.962 45.995 612.979 Q45.0112 611.96 44.9761 610.484 Q43.6761 610.976 42.9032 612.276 Q42.0951 613.576 41.8843 614.735 Q41.6735 615.86 41.6735 616.984 Q41.6735 619.197 42.3762 620.884 Q43.0789 622.57 44.168 623.413 Q45.222 624.257 46.2409 624.643 Q47.2598 625.029 48.1381 625.029 Q48.9111 625.029 49.5435 624.854 Q50.1407 624.643 50.5975 624.151 Q51.0191 623.659 51.3001 623.308 Q51.5812 622.921 51.8271 622.078 Q52.0731 621.235 52.1785 620.884 Q52.2488 620.532 52.4596 619.549 Q52.8812 617.511 53.1271 616.597 Q53.3379 615.684 53.9352 614.489 Q54.5324 613.26 55.481 612.346 Q57.6945 610.133 60.7511 610.133 Q61.8754 610.133 63.2456 610.519 Q64.6158 610.871 66.3374 611.889 Q68.0589 612.908 69.4291 614.454 Q70.7993 616 71.7479 618.67 Q72.6965 621.305 72.6965 624.608 Q72.6965 629.21 70.7642 632.056 Q68.7967 634.902 65.7049 634.902 Q63.4564 634.902 62.2267 633.672 Q60.9619 632.443 60.9619 630.862 Q60.9619 629.667 61.6294 628.929 Q62.2618 628.192 63.4564 628.192 Q65.0725 628.192 66.3022 629.491 Q67.5319 630.791 67.286 632.724 Q71.0804 631.072 71.0804 624.538 Q71.0804 622.078 70.448 620.181 Q69.7804 618.249 68.867 617.195 Q67.9184 616.106 66.759 615.403 Q65.5995 614.7 64.7212 614.489 Q63.8429 614.243 63.1753 614.243 Q62.0159 614.243 61.1376 614.7 Q60.2592 615.157 59.7674 615.789 Q59.2403 616.387 58.8187 617.546 Q58.362 618.67 58.1863 619.478 Q58.0107 620.286 57.7296 621.727 Q57.5891 622.394 57.5188 622.816 Q57.4134 623.238 57.1323 624.116 Q56.8161 624.959 56.4999 625.556 Q56.1837 626.119 55.6216 626.856 Q55.0594 627.594 54.3919 628.051 Q53.7244 628.508 52.7406 628.824 Q51.7569 629.14 50.5975 629.14 Q49.5435 629.14 48.2786 628.824 Q47.0138 628.473 45.5382 627.594 Q44.0626 626.681 42.8681 625.381 Q41.6735 624.081 40.9006 621.903 Q40.0925 619.689 40.0925 616.984 Q40.0925 613.049 41.9195 610.73 Q43.7113 608.411 46.276 608.411 Z" fill="#000000" fill-rule="evenodd" fill-opacity="1" /><path clip-path="url(#clip360)" d="M88.2256 603.224 L88.2256 597.181 L19.5744 597.181 L19.5744 603.224 L17.9232 603.224 L17.9232 592.368 L89.8769 592.368 L89.8769 603.224 L88.2256 603.224 Z" fill="#000000" fill-rule="evenodd" fill-opacity="1" /><polyline clip-path="url(#clip362)" style="stroke:#000000; stroke-linecap:butt; stroke-linejoin:round; stroke-width:6; stroke-opacity:1; fill:none" points="
  286.935,598.737 367.362,502.13 447.79,349.473 528.217,86.0634 608.644,163.483 689.072,225.544 769.499,237.901 849.927,342.759 930.354,418.667 1010.78,478.054 
  1091.21,500.309 1171.64,540.243 1252.06,598.868 1332.49,660.12 1412.92,675.264 1493.35,699.108 1573.77,735.65 1654.2,748.355 1734.63,766.946 1815.06,780.699 
  
  "/>
<polyline clip-path="url(#clip362)" style="stroke:#ff0000; stroke-linecap:butt; stroke-linejoin:round; stroke-width:6; stroke-opacity:1; fill:none" points="
  286.935,676.041 367.362,449.499 447.79,544.017 528.217,293.26 608.644,270.851 689.072,269.702 769.499,277.459 849.927,336.823 930.354,353.249 1010.78,350.88 
  1091.21,399.635 1171.64,428.58 1252.06,463.62 1332.49,525.662 1412.92,566.557 1493.35,599.046 1573.77,628.316 1654.2,652.187 1734.63,676.569 1815.06,711.257 
  
  "/>
<polyline clip-path="url(#clip362)" style="stroke:#000000; stroke-linecap:butt; stroke-linejoin:round; stroke-width:4; stroke-opacity:0.2; fill:none" points="
  -1378.72,1380.04 3480.71,1380.04 
  "/>
<path clip-path="url(#clip360)" d="
M1931.29 810.812 L2352.76 810.812 L2352.76 577.532 L1931.29 577.532  Z
  " fill="#ffffff" fill-rule="evenodd" fill-opacity="1"/>
<polyline clip-path="url(#clip360)" style="stroke:#000000; stroke-linecap:butt; stroke-linejoin:round; stroke-width:4; stroke-opacity:1; fill:none" points="
  1931.29,810.812 2352.76,810.812 2352.76,577.532 1931.29,577.532 1931.29,810.812 
  "/>
<polyline clip-path="url(#clip360)" style="stroke:#000000; stroke-linecap:butt; stroke-linejoin:round; stroke-width:6; stroke-opacity:1; fill:none" points="
  1954.75,655.292 2095.53,655.292 
  "/>
<path clip-path="url(#clip360)" d="M2154.83 649.466 Q2154.83 651.434 2153.6 652.558 Q2152.37 653.647 2150.96 653.647 Q2149.63 653.647 2148.92 652.874 Q2148.22 652.101 2148.22 651.118 Q2148.22 649.783 2149.21 648.623 Q2150.19 647.464 2151.67 647.218 Q2150.22 646.304 2148.08 646.304 Q2146.68 646.304 2145.45 647.042 Q2144.25 647.78 2143.51 648.729 Q2142.81 649.677 2142.18 651.047 Q2141.58 652.383 2141.34 653.191 Q2141.13 653.964 2140.95 654.807 L2138.49 664.644 Q2137.3 669.317 2137.3 670.968 Q2137.3 673.006 2138.28 674.376 Q2139.26 675.711 2141.23 675.711 Q2142 675.711 2142.88 675.5 Q2143.76 675.255 2144.88 674.622 Q2146.04 673.955 2147.06 672.971 Q2148.12 671.952 2149.14 670.23 Q2150.15 668.509 2150.82 666.295 Q2151.03 665.523 2151.74 665.523 Q2152.61 665.523 2152.61 666.225 Q2152.61 666.822 2152.12 668.087 Q2151.67 669.317 2150.65 670.933 Q2149.66 672.514 2148.36 673.955 Q2147.06 675.36 2145.13 676.344 Q2143.2 677.327 2141.09 677.327 Q2138.07 677.327 2136.07 675.711 Q2134.06 674.095 2133.33 671.847 Q2133.15 672.163 2132.9 672.584 Q2132.66 673.006 2131.92 673.955 Q2131.22 674.868 2130.41 675.571 Q2129.6 676.238 2128.34 676.765 Q2127.11 677.327 2125.77 677.327 Q2124.09 677.327 2122.57 676.836 Q2121.1 676.344 2120.05 675.219 Q2118.99 674.095 2118.99 672.549 Q2118.99 670.828 2120.15 669.633 Q2121.35 668.403 2122.96 668.403 Q2123.98 668.403 2124.79 669.001 Q2125.63 669.598 2125.63 670.898 Q2125.63 672.338 2124.65 673.428 Q2123.66 674.517 2122.26 674.798 Q2123.7 675.711 2125.84 675.711 Q2128.16 675.711 2129.99 673.674 Q2131.81 671.636 2132.69 668.228 Q2134.87 660.042 2135.71 656.388 Q2136.56 652.699 2136.56 651.118 Q2136.56 649.642 2136.17 648.623 Q2135.78 647.604 2135.12 647.148 Q2134.49 646.656 2133.89 646.48 Q2133.33 646.304 2132.69 646.304 Q2131.64 646.304 2130.44 646.726 Q2129.29 647.148 2127.88 648.131 Q2126.51 649.08 2125.21 651.047 Q2123.91 653.015 2123.03 655.72 Q2122.86 656.528 2122.08 656.528 Q2121.24 656.493 2121.24 655.79 Q2121.24 655.193 2121.7 653.964 Q2122.19 652.699 2123.17 651.118 Q2124.19 649.537 2125.49 648.131 Q2126.83 646.691 2128.76 645.707 Q2130.73 644.723 2132.83 644.723 Q2133.78 644.723 2134.7 644.934 Q2135.64 645.11 2136.77 645.637 Q2137.93 646.164 2138.95 647.323 Q2139.97 648.483 2140.6 650.169 Q2141.02 649.361 2141.58 648.588 Q2142.18 647.815 2143.09 646.867 Q2144.04 645.883 2145.34 645.321 Q2146.68 644.723 2148.15 644.723 Q2149.59 644.723 2151 645.11 Q2152.4 645.461 2153.6 646.621 Q2154.83 647.745 2154.83 649.466 Z" fill="#000000" fill-rule="evenodd" fill-opacity="1" /><path clip-path="url(#clip360)" d="M2242.73 657.582 Q2243.36 657.828 2243.36 658.531 Q2243.36 659.234 2242.73 659.48 Q2237.46 661.236 2232.86 666.963 Q2229.59 671.214 2228.68 676.098 Q2228.57 676.59 2228.19 676.906 Q2227.8 677.222 2227.27 677.222 Q2226.67 677.222 2226.25 676.8 Q2225.83 676.414 2225.83 675.817 Q2225.83 675.782 2225.87 675.676 Q2225.9 675.536 2225.9 675.5 Q2226.96 669.809 2230.64 665.136 Q2232.96 662.185 2236.27 659.971 L2181.14 659.971 Q2180.54 659.971 2180.12 659.55 Q2179.7 659.128 2179.7 658.531 Q2179.7 657.934 2180.12 657.512 Q2180.54 657.09 2181.14 657.09 L2236.27 657.09 Q2232.96 654.877 2230.64 651.926 Q2226.96 647.253 2225.9 641.561 Q2225.9 641.526 2225.87 641.421 Q2225.83 641.28 2225.83 641.245 Q2225.83 640.648 2226.25 640.261 Q2226.67 639.84 2227.27 639.84 Q2227.8 639.84 2228.19 640.156 Q2228.57 640.472 2228.68 640.964 Q2229.59 645.848 2232.86 650.099 Q2237.46 655.826 2242.73 657.582 Z" fill="#000000" fill-rule="evenodd" fill-opacity="1" /><path clip-path="url(#clip360)" d="M2304.13 647.464 Q2304.13 647.956 2303.81 649.115 L2296.93 676.59 Q2295.42 682.703 2290.5 686.989 Q2285.61 691.275 2280.06 691.275 Q2276.73 691.275 2274.58 689.484 Q2272.44 687.727 2272.44 685.022 Q2272.44 682.633 2273.7 681.473 Q2274.97 680.349 2276.48 680.349 Q2276.97 680.349 2277.5 680.489 Q2278.02 680.63 2278.59 681.227 Q2279.15 681.825 2279.15 682.843 Q2279.15 684.495 2277.71 685.795 Q2277.01 686.392 2276.34 686.532 Q2275.71 686.673 2274.62 686.673 Q2275.04 687.657 2275.81 688.324 Q2276.58 688.992 2277.46 689.238 Q2278.34 689.519 2278.9 689.589 Q2279.5 689.694 2280.06 689.694 Q2284.56 689.694 2288 685.162 Q2289.02 683.792 2289.76 682.422 Q2290.53 681.087 2291.09 679.435 Q2291.66 677.819 2291.9 676.941 Q2292.18 676.063 2292.68 674.06 Q2289.41 677.327 2285.4 677.327 Q2283.72 677.327 2282.21 676.871 Q2280.73 676.414 2279.43 675.465 Q2278.13 674.482 2277.36 672.76 Q2276.62 671.038 2276.62 668.755 Q2276.62 666.331 2277.57 663.028 Q2278.52 659.725 2280.8 653.647 Q2282.03 650.239 2282.03 648.588 Q2282.03 647.78 2281.85 647.288 Q2281.68 646.761 2281.33 646.585 Q2280.98 646.375 2280.77 646.34 Q2280.59 646.304 2280.24 646.304 Q2278.17 646.304 2276.23 648.412 Q2274.3 650.52 2272.97 655.228 Q2272.68 656.107 2272.51 656.317 Q2272.33 656.528 2271.81 656.528 Q2270.93 656.493 2270.93 655.79 Q2270.93 655.509 2271.24 654.42 Q2271.56 653.296 2272.3 651.645 Q2273.07 649.958 2274.13 648.448 Q2275.18 646.902 2276.83 645.813 Q2278.52 644.723 2280.45 644.723 Q2283.08 644.723 2284.7 646.445 Q2286.35 648.131 2286.35 650.626 Q2286.35 651.645 2286.07 652.558 Q2285.82 653.437 2284.91 655.79 Q2281.22 665.277 2281.22 669.914 Q2281.22 671.038 2281.4 671.987 Q2281.61 672.901 2282.07 673.814 Q2282.52 674.692 2283.44 675.219 Q2284.38 675.711 2285.68 675.711 Q2287.34 675.711 2288.88 674.938 Q2290.46 674.13 2291.45 673.041 Q2292.46 671.952 2293.06 671.038 Q2293.69 670.09 2293.84 669.598 L2297.07 656.669 L2298.51 650.907 Q2299.18 647.78 2299.49 647.007 Q2299.91 646.269 2300.65 645.883 Q2301.39 645.496 2302.02 645.496 Q2302.9 645.496 2303.5 646.023 Q2304.13 646.55 2304.13 647.464 Z" fill="#000000" fill-rule="evenodd" fill-opacity="1" /><polyline clip-path="url(#clip360)" style="stroke:#ff0000; stroke-linecap:butt; stroke-linejoin:round; stroke-width:6; stroke-opacity:1; fill:none" points="
  1954.75,733.052 2095.53,733.052 
  "/>
<path clip-path="url(#clip360)" d="M2152.19 725.224 Q2152.19 725.716 2151.88 726.875 L2144.99 754.35 Q2143.48 760.463 2138.56 764.749 Q2133.68 769.035 2128.13 769.035 Q2124.79 769.035 2122.64 767.244 Q2120.5 765.487 2120.5 762.782 Q2120.5 760.393 2121.77 759.233 Q2123.03 758.109 2124.54 758.109 Q2125.03 758.109 2125.56 758.249 Q2126.09 758.39 2126.65 758.987 Q2127.21 759.585 2127.21 760.603 Q2127.21 762.255 2125.77 763.555 Q2125.07 764.152 2124.4 764.292 Q2123.77 764.433 2122.68 764.433 Q2123.1 765.417 2123.87 766.084 Q2124.65 766.752 2125.53 766.998 Q2126.4 767.279 2126.97 767.349 Q2127.56 767.454 2128.13 767.454 Q2132.62 767.454 2136.07 762.922 Q2137.08 761.552 2137.82 760.182 Q2138.6 758.847 2139.16 757.195 Q2139.72 755.579 2139.97 754.701 Q2140.25 753.823 2140.74 751.82 Q2137.47 755.087 2133.47 755.087 Q2131.78 755.087 2130.27 754.631 Q2128.79 754.174 2127.49 753.225 Q2126.19 752.242 2125.42 750.52 Q2124.68 748.798 2124.68 746.515 Q2124.68 744.091 2125.63 740.788 Q2126.58 737.485 2128.86 731.407 Q2130.09 727.999 2130.09 726.348 Q2130.09 725.54 2129.92 725.048 Q2129.74 724.521 2129.39 724.345 Q2129.04 724.135 2128.83 724.1 Q2128.65 724.064 2128.3 724.064 Q2126.23 724.064 2124.3 726.172 Q2122.36 728.28 2121.03 732.988 Q2120.75 733.867 2120.57 734.077 Q2120.4 734.288 2119.87 734.288 Q2118.99 734.253 2118.99 733.55 Q2118.99 733.269 2119.31 732.18 Q2119.62 731.056 2120.36 729.405 Q2121.13 727.718 2122.19 726.208 Q2123.24 724.662 2124.89 723.573 Q2126.58 722.483 2128.51 722.483 Q2131.15 722.483 2132.76 724.205 Q2134.41 725.891 2134.41 728.386 Q2134.41 729.405 2134.13 730.318 Q2133.89 731.197 2132.97 733.55 Q2129.29 743.037 2129.29 747.674 Q2129.29 748.798 2129.46 749.747 Q2129.67 750.661 2130.13 751.574 Q2130.59 752.452 2131.5 752.979 Q2132.45 753.471 2133.75 753.471 Q2135.4 753.471 2136.94 752.698 Q2138.53 751.89 2139.51 750.801 Q2140.53 749.712 2141.13 748.798 Q2141.76 747.85 2141.9 747.358 L2145.13 734.429 L2146.57 728.667 Q2147.24 725.54 2147.55 724.767 Q2147.98 724.029 2148.71 723.643 Q2149.45 723.256 2150.08 723.256 Q2150.96 723.256 2151.56 723.783 Q2152.19 724.31 2152.19 725.224 Z" fill="#000000" fill-rule="evenodd" fill-opacity="1" /><path clip-path="url(#clip360)" d="M2236.88 735.342 Q2237.52 735.588 2237.52 736.291 Q2237.52 736.994 2236.88 737.24 Q2231.61 738.996 2227.01 744.723 Q2223.74 748.974 2222.83 753.858 Q2222.73 754.35 2222.34 754.666 Q2221.95 754.982 2221.43 754.982 Q2220.83 754.982 2220.41 754.56 Q2219.99 754.174 2219.99 753.577 Q2219.99 753.542 2220.02 753.436 Q2220.06 753.296 2220.06 753.26 Q2221.11 747.569 2224.8 742.896 Q2227.12 739.945 2230.42 737.731 L2175.3 737.731 Q2174.7 737.731 2174.28 737.31 Q2173.85 736.888 2173.85 736.291 Q2173.85 735.694 2174.28 735.272 Q2174.7 734.85 2175.3 734.85 L2230.42 734.85 Q2227.12 732.637 2224.8 729.686 Q2221.11 725.013 2220.06 719.321 Q2220.06 719.286 2220.02 719.181 Q2219.99 719.04 2219.99 719.005 Q2219.99 718.408 2220.41 718.021 Q2220.83 717.6 2221.43 717.6 Q2221.95 717.6 2222.34 717.916 Q2222.73 718.232 2222.83 718.724 Q2223.74 723.608 2227.01 727.859 Q2231.61 733.586 2236.88 735.342 Z" fill="#000000" fill-rule="evenodd" fill-opacity="1" /><path clip-path="url(#clip360)" d="M2300.92 727.226 Q2300.92 729.194 2299.69 730.318 Q2298.46 731.407 2297.05 731.407 Q2295.72 731.407 2295.02 730.634 Q2294.31 729.861 2294.31 728.878 Q2294.31 727.543 2295.3 726.383 Q2296.28 725.224 2297.76 724.978 Q2296.32 724.064 2294.17 724.064 Q2292.77 724.064 2291.54 724.802 Q2290.34 725.54 2289.61 726.489 Q2288.9 727.437 2288.27 728.807 Q2287.67 730.143 2287.43 730.951 Q2287.22 731.724 2287.04 732.567 L2284.58 742.404 Q2283.39 747.077 2283.39 748.728 Q2283.39 750.766 2284.37 752.136 Q2285.35 753.471 2287.32 753.471 Q2288.09 753.471 2288.97 753.26 Q2289.85 753.015 2290.98 752.382 Q2292.13 751.715 2293.15 750.731 Q2294.21 749.712 2295.23 747.99 Q2296.25 746.269 2296.91 744.055 Q2297.12 743.283 2297.83 743.283 Q2298.7 743.283 2298.7 743.985 Q2298.7 744.582 2298.21 745.847 Q2297.76 747.077 2296.74 748.693 Q2295.75 750.274 2294.45 751.715 Q2293.15 753.12 2291.22 754.104 Q2289.29 755.087 2287.18 755.087 Q2284.16 755.087 2282.16 753.471 Q2280.15 751.855 2279.42 749.607 Q2279.24 749.923 2278.99 750.344 Q2278.75 750.766 2278.01 751.715 Q2277.31 752.628 2276.5 753.331 Q2275.69 753.998 2274.43 754.525 Q2273.2 755.087 2271.86 755.087 Q2270.18 755.087 2268.67 754.596 Q2267.19 754.104 2266.14 752.979 Q2265.08 751.855 2265.08 750.309 Q2265.08 748.588 2266.24 747.393 Q2267.44 746.163 2269.05 746.163 Q2270.07 746.163 2270.88 746.761 Q2271.72 747.358 2271.72 748.658 Q2271.72 750.098 2270.74 751.188 Q2269.75 752.277 2268.35 752.558 Q2269.79 753.471 2271.93 753.471 Q2274.25 753.471 2276.08 751.434 Q2277.91 749.396 2278.78 745.988 Q2280.96 737.802 2281.81 734.148 Q2282.65 730.459 2282.65 728.878 Q2282.65 727.402 2282.26 726.383 Q2281.88 725.364 2281.21 724.908 Q2280.58 724.416 2279.98 724.24 Q2279.42 724.064 2278.78 724.064 Q2277.73 724.064 2276.54 724.486 Q2275.38 724.908 2273.97 725.891 Q2272.6 726.84 2271.3 728.807 Q2270 730.775 2269.12 733.48 Q2268.95 734.288 2268.17 734.288 Q2267.33 734.253 2267.33 733.55 Q2267.33 732.953 2267.79 731.724 Q2268.28 730.459 2269.26 728.878 Q2270.28 727.297 2271.58 725.891 Q2272.92 724.451 2274.85 723.467 Q2276.82 722.483 2278.92 722.483 Q2279.87 722.483 2280.79 722.694 Q2281.74 722.87 2282.86 723.397 Q2284.02 723.924 2285.04 725.083 Q2286.06 726.243 2286.69 727.929 Q2287.11 727.121 2287.67 726.348 Q2288.27 725.575 2289.18 724.627 Q2290.13 723.643 2291.43 723.081 Q2292.77 722.483 2294.24 722.483 Q2295.68 722.483 2297.09 722.87 Q2298.49 723.221 2299.69 724.381 Q2300.92 725.505 2300.92 727.226 Z" fill="#000000" fill-rule="evenodd" fill-opacity="1" /></svg>
