<?xml version="1.0" encoding="utf-8"?>
<svg xmlns="http://www.w3.org/2000/svg" xmlns:xlink="http://www.w3.org/1999/xlink" width="800" height="500" viewBox="0 0 3200 2000">
<defs>
  <clipPath id="clip830">
    <rect x="0" y="0" width="3200" height="2000"/>
  </clipPath>
</defs>
<path clip-path="url(#clip830)" d="
M0 2000 L3200 2000 L3200 0 L0 0  Z
  " fill="#ffffff" fill-rule="evenodd" fill-opacity="1"/>
<defs>
  <clipPath id="clip831">
    <rect x="640" y="0" width="2241" height="2000"/>
  </clipPath>
</defs>
<defs>
  <clipPath id="clip832">
    <rect x="320" y="462" width="2161" height="1331"/>
  </clipPath>
</defs>
<path clip-path="url(#clip830)" d="
M258.327 1820.26 L2547.87 1820.26 L2547.87 47.2441 L258.327 47.2441  Z
  " fill="#ffffff" fill-rule="evenodd" fill-opacity="1"/>
<defs>
  <clipPath id="clip833">
    <rect x="258" y="47" width="2291" height="1774"/>
  </clipPath>
</defs>
<polyline clip-path="url(#clip833)" style="stroke:#000000; stroke-linecap:butt; stroke-linejoin:round; stroke-width:2; stroke-opacity:0.1; fill:none" points="
  563.119,1820.26 563.119,47.2441 
  "/>
<polyline clip-path="url(#clip833)" style="stroke:#000000; stroke-linecap:butt; stroke-linejoin:round; stroke-width:2; stroke-opacity:0.1; fill:none" points="
  1043.11,1820.26 1043.11,47.2441 
  "/>
<polyline clip-path="url(#clip833)" style="stroke:#000000; stroke-linecap:butt; stroke-linejoin:round; stroke-width:2; stroke-opacity:0.1; fill:none" points="
  1523.1,1820.26 1523.1,47.2441 
  "/>
<polyline clip-path="url(#clip833)" style="stroke:#000000; stroke-linecap:butt; stroke-linejoin:round; stroke-width:2; stroke-opacity:0.1; fill:none" points="
  2003.08,1820.26 2003.08,47.2441 
  "/>
<polyline clip-path="url(#clip833)" style="stroke:#000000; stroke-linecap:butt; stroke-linejoin:round; stroke-width:2; stroke-opacity:0.1; fill:none" points="
  2483.07,1820.26 2483.07,47.2441 
  "/>
<polyline clip-path="url(#clip830)" style="stroke:#000000; stroke-linecap:butt; stroke-linejoin:round; stroke-width:4; stroke-opacity:1; fill:none" points="
  258.327,1820.26 2547.87,1820.26 
  "/>
<polyline clip-path="url(#clip830)" style="stroke:#000000; stroke-linecap:butt; stroke-linejoin:round; stroke-width:4; stroke-opacity:1; fill:none" points="
  563.119,1820.26 563.119,1801.36 
  "/>
<polyline clip-path="url(#clip830)" style="stroke:#000000; stroke-linecap:butt; stroke-linejoin:round; stroke-width:4; stroke-opacity:1; fill:none" points="
  1043.11,1820.26 1043.11,1801.36 
  "/>
<polyline clip-path="url(#clip830)" style="stroke:#000000; stroke-linecap:butt; stroke-linejoin:round; stroke-width:4; stroke-opacity:1; fill:none" points="
  1523.1,1820.26 1523.1,1801.36 
  "/>
<polyline clip-path="url(#clip830)" style="stroke:#000000; stroke-linecap:butt; stroke-linejoin:round; stroke-width:4; stroke-opacity:1; fill:none" points="
  2003.08,1820.26 2003.08,1801.36 
  "/>
<polyline clip-path="url(#clip830)" style="stroke:#000000; stroke-linecap:butt; stroke-linejoin:round; stroke-width:4; stroke-opacity:1; fill:none" points="
  2483.07,1820.26 2483.07,1801.36 
  "/>
<path clip-path="url(#clip830)" d="M553.015 1889.06 Q553.015 1888.15 553.089 1887.87 Q553.188 1887.6 553.584 1887.18 L563.292 1876.36 Q568.603 1870.38 568.603 1865.17 Q568.603 1861.79 566.825 1859.37 Q565.071 1856.95 561.834 1856.95 Q559.611 1856.95 557.734 1858.3 Q555.856 1859.66 554.992 1862.08 Q555.14 1862.03 555.659 1862.03 Q556.919 1862.03 557.61 1862.82 Q558.327 1863.62 558.327 1864.68 Q558.327 1866.04 557.437 1866.7 Q556.573 1867.35 555.708 1867.35 Q555.362 1867.35 554.893 1867.27 Q554.448 1867.2 553.732 1866.51 Q553.015 1865.79 553.015 1864.53 Q553.015 1861 555.683 1858.18 Q558.376 1855.36 562.477 1855.36 Q567.121 1855.36 570.16 1858.13 Q573.223 1860.87 573.223 1865.17 Q573.223 1866.68 572.753 1868.06 Q572.309 1869.42 571.691 1870.48 Q571.098 1871.55 569.468 1873.25 Q567.837 1874.95 566.528 1876.16 Q565.219 1877.38 562.279 1879.94 L556.919 1885.16 L566.034 1885.16 Q570.481 1885.16 570.826 1884.76 Q571.321 1884.05 571.938 1880.27 L573.223 1880.27 L571.79 1889.06 L553.015 1889.06 Z" fill="#000000" fill-rule="evenodd" fill-opacity="1" /><path clip-path="url(#clip830)" d="M1031.89 1880.71 L1031.89 1879.15 L1047.43 1855.41 Q1047.83 1854.8 1048.44 1854.82 Q1049.01 1854.82 1049.13 1855.04 Q1049.26 1855.27 1049.26 1856.13 L1049.26 1879.15 L1054.32 1879.15 L1054.32 1880.71 L1049.26 1880.71 L1049.26 1885.11 Q1049.26 1886.56 1049.85 1887.03 Q1050.47 1887.5 1053.09 1887.5 L1054.15 1887.5 L1054.15 1889.06 Q1052.07 1888.91 1047.28 1888.91 Q1042.51 1888.91 1040.44 1889.06 L1040.44 1887.5 L1041.5 1887.5 Q1044.12 1887.5 1044.74 1887.06 Q1045.36 1886.59 1045.36 1885.11 L1045.36 1880.71 L1031.89 1880.71 M1033.32 1879.15 L1045.65 1879.15 L1045.65 1860.28 L1033.32 1879.15 Z" fill="#000000" fill-rule="evenodd" fill-opacity="1" /><path clip-path="url(#clip830)" d="M1512.6 1873.08 Q1512.6 1865.12 1516.65 1860.26 Q1520.7 1855.36 1525.91 1855.36 Q1528.95 1855.36 1530.63 1856.92 Q1532.33 1858.45 1532.33 1860.82 Q1532.33 1862.13 1531.57 1862.7 Q1530.8 1863.27 1530.01 1863.27 Q1529.1 1863.27 1528.38 1862.65 Q1527.67 1862.03 1527.67 1860.92 Q1527.67 1858.65 1530.46 1858.65 Q1529.15 1856.62 1526.01 1856.62 Q1525.05 1856.62 1524.06 1856.92 Q1523.07 1857.19 1521.79 1858.13 Q1520.5 1859.07 1519.51 1860.55 Q1518.53 1862.03 1517.83 1864.83 Q1517.14 1867.62 1517.14 1871.25 L1517.14 1872.46 Q1519.22 1867.44 1523.47 1867.47 Q1527.72 1867.47 1530.65 1870.71 Q1533.59 1873.94 1533.59 1878.73 Q1533.59 1883.65 1530.53 1886.91 Q1527.47 1890.17 1523.17 1890.17 Q1521.24 1890.17 1519.49 1889.36 Q1517.76 1888.57 1516.13 1886.74 Q1514.52 1884.91 1513.56 1881.4 Q1512.6 1877.89 1512.6 1873.08 M1517.24 1877.62 Q1517.24 1882.59 1518.15 1884.96 Q1518.3 1885.35 1518.62 1885.9 Q1518.97 1886.44 1519.54 1887.16 Q1520.13 1887.85 1521.09 1888.32 Q1522.06 1888.76 1523.17 1888.76 Q1526.55 1888.76 1528.18 1885.48 Q1529.05 1883.65 1529.05 1878.68 Q1529.05 1873.62 1528.13 1871.77 Q1526.58 1868.63 1523.42 1868.63 Q1521.29 1868.63 1519.81 1870.09 Q1518.35 1871.55 1517.78 1873.5 Q1517.24 1875.45 1517.24 1877.62 Z" fill="#000000" fill-rule="evenodd" fill-opacity="1" /><path clip-path="url(#clip830)" d="M1992.58 1881.43 Q1992.58 1875.77 1999.87 1872.11 Q1996.73 1869.99 1996.17 1869.37 Q1993.94 1866.9 1993.94 1863.81 Q1993.94 1860.28 1996.61 1857.83 Q1999.3 1855.36 2003.11 1855.36 Q2006.74 1855.36 2009.48 1857.46 Q2012.22 1859.56 2012.22 1862.9 Q2012.22 1867.59 2006.1 1870.75 Q2010.15 1873.27 2011.11 1874.34 Q2013.58 1877.08 2013.58 1880.56 Q2013.58 1884.61 2010.47 1887.4 Q2007.36 1890.17 2003.06 1890.17 Q1998.86 1890.17 1995.72 1887.73 Q1992.58 1885.28 1992.58 1881.43 M1995.1 1881.43 Q1995.1 1884.56 1997.45 1886.66 Q1999.82 1888.76 2003.11 1888.76 Q2006.3 1888.76 2008.67 1886.94 Q2011.06 1885.11 2011.06 1882.39 Q2011.06 1881.33 2010.69 1880.41 Q2010.35 1879.5 2009.63 1878.78 Q2008.94 1878.04 2008.49 1877.72 Q2008.07 1877.38 2007.26 1876.81 L2001.03 1872.88 Q1995.1 1876.16 1995.1 1881.43 M1996.17 1861.84 Q1996.17 1864.26 1998.71 1865.94 L2004.99 1869.99 Q2010 1867.05 2010 1862.9 Q2010 1860.21 2007.95 1858.43 Q2005.9 1856.62 2003.06 1856.62 Q2000.27 1856.62 1998.22 1858.11 Q1996.17 1859.56 1996.17 1861.84 Z" fill="#000000" fill-rule="evenodd" fill-opacity="1" /><path clip-path="url(#clip830)" d="M2461.04 1860.18 L2461.04 1858.6 Q2467.11 1858.6 2470.25 1855.36 Q2471.12 1855.36 2471.26 1855.56 Q2471.41 1855.76 2471.41 1856.67 L2471.41 1885.06 Q2471.41 1886.56 2472.15 1887.03 Q2472.89 1887.5 2476.13 1887.5 L2477.74 1887.5 L2477.74 1889.06 Q2475.96 1888.91 2469.53 1888.91 Q2463.11 1888.91 2461.36 1889.06 L2461.36 1887.5 L2462.96 1887.5 Q2466.15 1887.5 2466.92 1887.06 Q2467.68 1886.59 2467.68 1885.06 L2467.68 1858.85 Q2465.04 1860.18 2461.04 1860.18 Z" fill="#000000" fill-rule="evenodd" fill-opacity="1" /><path clip-path="url(#clip830)" d="M2483.81 1872.88 Q2483.81 1865.44 2485.69 1861.39 Q2488.31 1855.36 2494.48 1855.36 Q2495.79 1855.36 2497.15 1855.74 Q2498.54 1856.08 2500.27 1857.44 Q2502.02 1858.8 2503.08 1861.02 Q2505.11 1865.32 2505.11 1872.88 Q2505.11 1880.27 2503.23 1884.29 Q2500.49 1890.17 2494.44 1890.17 Q2492.16 1890.17 2489.84 1889.01 Q2487.54 1887.85 2486.09 1885.06 Q2483.81 1880.88 2483.81 1872.88 M2488.01 1872.26 Q2488.01 1879.89 2488.56 1882.93 Q2489.17 1886.22 2490.85 1887.65 Q2492.56 1889.06 2494.44 1889.06 Q2496.46 1889.06 2498.14 1887.55 Q2499.85 1886.02 2500.36 1882.74 Q2500.93 1879.5 2500.91 1872.26 Q2500.91 1865.22 2500.41 1862.4 Q2499.75 1859.12 2497.97 1857.81 Q2496.21 1856.48 2494.44 1856.48 Q2493.77 1856.48 2493.05 1856.67 Q2492.36 1856.87 2491.35 1857.44 Q2490.33 1858.01 2489.54 1859.42 Q2488.78 1860.82 2488.41 1862.95 Q2488.01 1865.69 2488.01 1872.26 Z" fill="#000000" fill-rule="evenodd" fill-opacity="1" /><path clip-path="url(#clip830)" d="M1114.06 1987.16 L1114.06 1984.83 L1115.88 1984.83 Q1119.99 1984.83 1120.92 1984.16 Q1121.88 1983.45 1121.88 1981.23 L1121.88 1941.25 Q1121.88 1939.06 1120.92 1938.4 Q1119.96 1937.69 1115.88 1937.69 L1114.06 1937.69 L1114.06 1935.32 L1140.85 1935.32 Q1148.52 1935.32 1153.64 1939.54 Q1158.75 1943.77 1158.75 1949.44 Q1158.75 1955.07 1153.53 1959.15 Q1148.34 1963.19 1141.45 1963.19 L1128.63 1963.19 L1128.63 1981.23 Q1128.63 1983.42 1129.55 1984.12 Q1130.52 1984.83 1134.63 1984.83 L1136.44 1984.83 L1136.44 1987.16 Q1133.78 1986.94 1125.22 1986.94 Q1116.73 1986.94 1114.06 1987.16 M1128.4 1961.22 L1138.85 1961.22 Q1142.26 1961.22 1144.74 1960.26 Q1147.23 1959.29 1148.34 1958.15 Q1149.49 1956.96 1150.12 1955.07 Q1150.78 1953.14 1150.86 1952.11 Q1150.93 1951.03 1150.93 1949.44 Q1150.93 1947.77 1150.86 1946.73 Q1150.78 1945.66 1150.12 1943.77 Q1149.49 1941.84 1148.34 1940.69 Q1147.23 1939.51 1144.74 1938.62 Q1142.3 1937.69 1138.85 1937.69 L1132.11 1937.69 Q1129.52 1937.69 1128.96 1938.21 Q1128.4 1938.73 1128.4 1940.73 L1128.4 1961.22 Z" fill="#000000" fill-rule="evenodd" fill-opacity="1" /><path clip-path="url(#clip830)" d="M1165.09 1987.16 L1165.09 1984.83 Q1169.13 1984.83 1170.05 1984.34 Q1171.02 1983.83 1171.02 1981.38 L1171.02 1961.04 Q1171.02 1958.22 1170.02 1957.52 Q1169.05 1956.81 1165.09 1956.81 L1165.09 1954.44 L1175.65 1953.63 L1175.65 1961.96 Q1176.72 1958.7 1178.98 1956.18 Q1181.28 1953.63 1184.99 1953.63 Q1187.43 1953.63 1188.99 1955 Q1190.58 1956.37 1190.58 1958.26 Q1190.58 1959.92 1189.54 1960.78 Q1188.54 1961.59 1187.32 1961.59 Q1185.95 1961.59 1184.99 1960.74 Q1184.06 1959.85 1184.06 1958.33 Q1184.06 1957.41 1184.47 1956.7 Q1184.91 1955.96 1185.25 1955.7 Q1185.58 1955.44 1185.8 1955.37 Q1185.65 1955.29 1184.99 1955.29 Q1180.8 1955.29 1178.39 1959.48 Q1176.02 1963.63 1176.02 1969.56 L1176.02 1981.23 Q1176.02 1983.42 1176.91 1984.12 Q1177.84 1984.83 1181.8 1984.83 L1183.39 1984.83 L1183.39 1987.16 Q1180.35 1986.94 1173.76 1986.94 Q1172.83 1986.94 1171.39 1986.98 Q1169.94 1987.01 1168.05 1987.09 Q1166.16 1987.16 1165.09 1987.16 Z" fill="#000000" fill-rule="evenodd" fill-opacity="1" /><path clip-path="url(#clip830)" d="M1194.73 1970.45 Q1194.73 1963.3 1199.33 1958.22 Q1203.92 1953.14 1210.52 1953.14 Q1217.19 1953.14 1220.63 1957.48 Q1224.12 1961.81 1224.12 1968.04 Q1224.12 1969.19 1223.82 1969.41 Q1223.52 1969.63 1222.23 1969.63 L1201.03 1969.63 Q1201.03 1977.38 1203.33 1981.01 Q1206.52 1986.09 1211.89 1986.09 Q1212.63 1986.09 1213.52 1985.94 Q1214.41 1985.79 1216.22 1985.16 Q1218.04 1984.49 1219.63 1982.75 Q1221.23 1981.01 1222.15 1978.27 Q1222.38 1977.19 1223.12 1977.23 Q1224.12 1977.23 1224.12 1978.12 Q1224.12 1978.79 1223.38 1980.31 Q1222.67 1981.79 1221.3 1983.57 Q1219.93 1985.34 1217.26 1986.68 Q1214.63 1988.01 1211.44 1988.01 Q1204.77 1988.01 1199.73 1982.97 Q1194.73 1977.9 1194.73 1970.45 M1201.11 1968.04 L1219.11 1968.04 Q1219.11 1966.45 1218.82 1964.67 Q1218.56 1962.89 1217.74 1960.44 Q1216.97 1957.96 1215.11 1956.4 Q1213.26 1954.85 1210.52 1954.85 Q1209.29 1954.85 1207.96 1955.37 Q1206.66 1955.89 1205.07 1957.15 Q1203.48 1958.41 1202.37 1961.26 Q1201.25 1964.11 1201.11 1968.04 Z" fill="#000000" fill-rule="evenodd" fill-opacity="1" /><path clip-path="url(#clip830)" d="M1228.9 1970.86 Q1228.9 1963.63 1233.94 1958.63 Q1238.98 1953.63 1245.79 1953.63 Q1251.57 1953.63 1255.35 1958.33 L1255.35 1941.92 Q1255.35 1939.1 1254.35 1938.4 Q1253.39 1937.69 1249.46 1937.69 L1249.46 1935.32 L1260.39 1934.51 L1260.39 1980.56 Q1260.39 1983.38 1261.36 1984.12 Q1262.36 1984.83 1266.29 1984.83 L1266.29 1987.16 L1255.13 1988.01 L1255.13 1982.97 Q1251.2 1987.98 1244.98 1988.01 Q1238.46 1988.01 1233.68 1983.01 Q1228.9 1978.01 1228.9 1970.86 M1235.2 1970.93 Q1235.2 1977.97 1237.38 1981.45 Q1240.42 1986.31 1245.35 1986.31 Q1250.98 1986.31 1254.32 1981.01 Q1255.17 1979.71 1255.13 1978.19 L1255.13 1962.63 Q1255.13 1961.11 1254.32 1959.85 Q1251.2 1955.29 1246.13 1955.29 Q1240.83 1955.29 1237.53 1960.15 Q1235.2 1963.78 1235.2 1970.93 Z" fill="#000000" fill-rule="evenodd" fill-opacity="1" /><path clip-path="url(#clip830)" d="M1270.92 1987.16 L1270.92 1984.83 Q1274.96 1984.83 1275.88 1984.34 Q1276.81 1983.83 1276.81 1981.38 L1276.81 1960.96 Q1276.81 1958.15 1275.85 1957.48 Q1274.92 1956.81 1271.21 1956.81 L1271.21 1954.44 L1281.81 1953.63 L1281.81 1981.45 Q1281.81 1983.71 1282.63 1984.27 Q1283.44 1984.83 1287.15 1984.83 L1287.15 1987.16 Q1279.4 1986.94 1279.25 1986.94 Q1278.22 1986.94 1270.92 1987.16 M1274.1 1940.4 Q1274.1 1938.88 1275.25 1937.65 Q1276.44 1936.39 1278.11 1936.39 Q1279.77 1936.39 1280.96 1937.54 Q1282.14 1938.66 1282.14 1940.43 Q1282.14 1942.18 1280.96 1943.32 Q1279.77 1944.44 1278.11 1944.44 Q1276.36 1944.44 1275.22 1943.21 Q1274.1 1941.99 1274.1 1940.4 Z" fill="#000000" fill-rule="evenodd" fill-opacity="1" /><path clip-path="url(#clip830)" d="M1296.82 1983.01 Q1292 1977.97 1292 1970.78 Q1292 1963.56 1296.74 1958.37 Q1301.49 1953.14 1308.45 1953.14 Q1313.09 1953.14 1316.57 1955.37 Q1320.05 1957.55 1320.05 1961.3 Q1320.05 1962.96 1319.05 1963.93 Q1318.09 1964.85 1316.57 1964.85 Q1314.98 1964.85 1314.01 1963.89 Q1313.09 1962.89 1313.09 1961.37 Q1313.09 1960.7 1313.31 1960.04 Q1313.53 1959.37 1314.35 1958.67 Q1315.2 1957.96 1316.64 1957.85 Q1313.94 1955.07 1308.68 1955.07 Q1308.6 1955.07 1308.53 1955.07 Q1304.67 1955.07 1301.49 1958.7 Q1298.3 1962.33 1298.3 1970.63 Q1298.3 1974.97 1299.34 1978.16 Q1300.41 1981.31 1302.15 1982.94 Q1303.9 1984.57 1305.6 1985.34 Q1307.31 1986.09 1308.97 1986.09 Q1316.42 1986.09 1318.94 1978.12 Q1319.16 1977.38 1319.9 1977.38 Q1320.9 1977.38 1320.9 1978.12 Q1320.9 1978.49 1320.61 1979.45 Q1320.31 1980.42 1319.39 1981.94 Q1318.46 1983.45 1317.12 1984.79 Q1315.83 1986.09 1313.49 1987.05 Q1311.2 1988.01 1308.31 1988.01 Q1301.64 1988.01 1296.82 1983.01 Z" fill="#000000" fill-rule="evenodd" fill-opacity="1" /><path clip-path="url(#clip830)" d="M1324.54 1956.81 L1324.54 1955.14 Q1328.02 1955 1330.32 1952.55 Q1332.65 1950.07 1333.43 1947.03 Q1334.24 1943.99 1334.32 1940.47 L1336.21 1940.47 L1336.21 1954.44 L1347.07 1954.44 L1347.07 1956.81 L1336.21 1956.81 L1336.21 1977.9 Q1336.21 1986.09 1341.32 1986.09 Q1343.51 1986.09 1344.95 1983.86 Q1346.4 1981.6 1346.4 1977.6 L1346.4 1973.41 L1348.29 1973.41 L1348.29 1977.75 Q1348.29 1981.86 1346.4 1984.94 Q1344.51 1988.01 1340.77 1988.01 Q1339.4 1988.01 1338.02 1987.64 Q1336.69 1987.31 1334.91 1986.42 Q1333.17 1985.49 1332.06 1983.27 Q1330.98 1981.01 1330.98 1977.75 L1330.98 1956.81 L1324.54 1956.81 Z" fill="#000000" fill-rule="evenodd" fill-opacity="1" /><path clip-path="url(#clip830)" d="M1355.03 1987.16 L1355.03 1984.83 Q1359.07 1984.83 1360 1984.34 Q1360.92 1983.83 1360.92 1981.38 L1360.92 1960.96 Q1360.92 1958.15 1359.96 1957.48 Q1359.03 1956.81 1355.33 1956.81 L1355.33 1954.44 L1365.93 1953.63 L1365.93 1981.45 Q1365.93 1983.71 1366.74 1984.27 Q1367.56 1984.83 1371.26 1984.83 L1371.26 1987.16 Q1363.52 1986.94 1363.37 1986.94 Q1362.33 1986.94 1355.03 1987.16 M1358.22 1940.4 Q1358.22 1938.88 1359.37 1937.65 Q1360.55 1936.39 1362.22 1936.39 Q1363.89 1936.39 1365.07 1937.54 Q1366.26 1938.66 1366.26 1940.43 Q1366.26 1942.18 1365.07 1943.32 Q1363.89 1944.44 1362.22 1944.44 Q1360.48 1944.44 1359.33 1943.21 Q1358.22 1941.99 1358.22 1940.4 Z" fill="#000000" fill-rule="evenodd" fill-opacity="1" /><path clip-path="url(#clip830)" d="M1380.64 1983.08 Q1375.63 1978.12 1375.63 1970.93 Q1375.63 1963.7 1380.53 1958.44 Q1385.45 1953.14 1392.49 1953.14 Q1399.39 1953.14 1404.32 1958.41 Q1409.28 1963.63 1409.28 1970.93 Q1409.28 1978.08 1404.28 1983.05 Q1399.31 1988.01 1392.42 1988.01 Q1385.68 1988.01 1380.64 1983.08 M1381.93 1970.3 Q1381.93 1977.67 1383.86 1981.01 Q1386.83 1986.09 1392.49 1986.09 Q1395.31 1986.09 1397.65 1984.57 Q1400.02 1983.05 1401.31 1980.49 Q1402.98 1977.16 1402.98 1970.3 Q1402.98 1963 1400.98 1959.78 Q1398.02 1954.85 1392.42 1954.85 Q1389.98 1954.85 1387.57 1956.15 Q1385.2 1957.41 1383.75 1959.92 Q1381.93 1963.26 1381.93 1970.3 Z" fill="#000000" fill-rule="evenodd" fill-opacity="1" /><path clip-path="url(#clip830)" d="M1413.91 1987.16 L1413.91 1984.83 Q1417.95 1984.83 1418.88 1984.34 Q1419.8 1983.83 1419.8 1981.38 L1419.8 1961.04 Q1419.8 1958.22 1418.8 1957.52 Q1417.84 1956.81 1413.91 1956.81 L1413.91 1954.44 L1424.58 1953.63 L1424.58 1961.59 Q1428.14 1953.63 1435.81 1953.63 Q1441.52 1953.63 1443.78 1956.44 Q1445.45 1958.33 1445.78 1960.44 Q1446.15 1962.56 1446.15 1968.04 L1446.15 1982.53 Q1446.22 1984.12 1447.45 1984.49 Q1448.67 1984.83 1452.08 1984.83 L1452.08 1987.16 Q1444.33 1986.94 1443.56 1986.94 Q1442.96 1986.94 1435 1987.16 L1435 1984.83 Q1439.04 1984.83 1439.96 1984.34 Q1440.93 1983.83 1440.93 1981.38 L1440.93 1963.7 Q1440.93 1959.85 1439.74 1957.59 Q1438.55 1955.29 1435.29 1955.29 Q1431.37 1955.29 1428.22 1958.59 Q1425.07 1961.89 1425.07 1967.45 L1425.07 1981.38 Q1425.07 1983.83 1425.99 1984.34 Q1426.96 1984.83 1430.96 1984.83 L1430.96 1987.16 Q1423.21 1986.94 1422.47 1986.94 Q1421.88 1986.94 1413.91 1987.16 Z" fill="#000000" fill-rule="evenodd" fill-opacity="1" /><path clip-path="url(#clip830)" d="M1481.32 1987.16 L1481.32 1984.83 Q1485.35 1984.83 1486.28 1984.34 Q1487.21 1983.83 1487.21 1981.38 L1487.21 1941.92 Q1487.21 1939.1 1486.21 1938.4 Q1485.24 1937.69 1481.32 1937.69 L1481.32 1935.32 L1492.21 1934.51 L1492.21 1981.38 Q1492.21 1983.83 1493.17 1984.34 Q1494.14 1984.83 1498.14 1984.83 L1498.14 1987.16 Q1497.21 1987.16 1495.29 1987.09 Q1493.36 1987.01 1491.95 1986.98 Q1490.54 1986.94 1489.73 1986.94 Q1488.84 1986.94 1481.32 1987.16 Z" fill="#000000" fill-rule="evenodd" fill-opacity="1" /><path clip-path="url(#clip830)" d="M1502.99 1979.93 Q1502.99 1973.49 1510.59 1970.08 Q1515.15 1967.89 1524.56 1967.34 L1524.56 1964.56 Q1524.56 1959.85 1522.08 1957.37 Q1519.63 1954.85 1516.52 1954.85 Q1510.96 1954.85 1508.29 1958.33 Q1510.55 1958.41 1511.37 1959.55 Q1512.18 1960.67 1512.18 1961.81 Q1512.18 1963.33 1511.22 1964.33 Q1510.29 1965.3 1508.7 1965.3 Q1507.18 1965.3 1506.18 1964.37 Q1505.18 1963.41 1505.18 1961.74 Q1505.18 1958.04 1508.51 1955.59 Q1511.89 1953.14 1516.67 1953.14 Q1522.89 1953.14 1527.04 1957.33 Q1528.34 1958.63 1528.97 1960.3 Q1529.64 1961.96 1529.71 1963.07 Q1529.78 1964.15 1529.78 1966.3 L1529.78 1981.45 Q1529.78 1981.9 1529.93 1982.64 Q1530.08 1983.38 1530.75 1984.34 Q1531.45 1985.27 1532.6 1985.27 Q1535.34 1985.27 1535.31 1980.42 L1535.31 1976.15 L1537.23 1976.15 L1537.23 1980.42 Q1537.23 1984.46 1535.08 1986.05 Q1532.97 1987.61 1531.01 1987.61 Q1528.49 1987.61 1526.89 1985.75 Q1525.3 1983.9 1525.08 1981.38 Q1523.93 1984.27 1521.3 1986.16 Q1518.7 1988.01 1515.15 1988.01 Q1512.41 1988.01 1509.81 1987.31 Q1507.25 1986.64 1505.11 1984.75 Q1502.99 1982.82 1502.99 1979.93 M1508.85 1979.86 Q1508.85 1982.68 1510.85 1984.49 Q1512.85 1986.31 1515.67 1986.31 Q1518.85 1986.31 1521.71 1983.86 Q1524.56 1981.38 1524.56 1976.53 L1524.56 1968.93 Q1516.15 1969.23 1512.48 1972.6 Q1508.85 1975.93 1508.85 1979.86 Z" fill="#000000" fill-rule="evenodd" fill-opacity="1" /><path clip-path="url(#clip830)" d="M1539.86 1993.16 Q1539.86 1990.72 1541.72 1988.61 Q1543.61 1986.49 1546.87 1985.57 Q1543.53 1983.45 1543.53 1978.82 Q1543.53 1975.27 1545.87 1972.52 Q1542.31 1969.56 1542.31 1964.7 Q1542.31 1960.22 1545.87 1956.92 Q1549.42 1953.63 1554.61 1953.63 Q1559.17 1953.63 1562.65 1956.37 Q1566.28 1952.81 1570.69 1952.77 Q1572.66 1952.77 1573.58 1954 Q1574.55 1955.22 1574.55 1956.52 Q1574.55 1957.66 1573.81 1958.22 Q1573.1 1958.78 1572.36 1958.78 Q1571.43 1958.78 1570.77 1958.18 Q1570.14 1957.55 1570.14 1956.59 Q1570.14 1955 1571.36 1954.51 Q1571.14 1954.44 1570.62 1954.44 Q1566.91 1954.44 1563.76 1957.41 Q1566.88 1960.3 1566.88 1964.78 Q1566.88 1969.26 1563.32 1972.56 Q1559.76 1975.86 1554.61 1975.86 Q1550.35 1975.86 1547.09 1973.49 Q1545.79 1975.01 1545.79 1977.08 Q1545.79 1978.97 1546.94 1980.45 Q1548.09 1981.94 1549.83 1982.16 Q1550.35 1982.23 1555.5 1982.23 Q1558.54 1982.23 1560.21 1982.31 Q1561.87 1982.38 1564.25 1982.9 Q1566.65 1983.38 1568.54 1984.34 Q1573.47 1987.09 1573.51 1993.02 Q1573.51 1997.35 1568.51 2000.06 Q1563.54 2002.8 1556.65 2002.8 Q1549.68 2002.8 1544.75 2000.02 Q1539.86 1997.28 1539.86 1993.16 M1543.83 1993.16 Q1543.83 1996.28 1547.5 1998.65 Q1551.16 2001.06 1556.72 2001.06 Q1562.17 2001.06 1565.84 1998.68 Q1569.54 1996.35 1569.54 1993.16 Q1569.54 1990.9 1568.25 1989.46 Q1566.95 1988.01 1564.28 1987.42 Q1561.65 1986.86 1559.8 1986.75 Q1557.95 1986.64 1554.54 1986.64 L1550.05 1986.64 Q1547.46 1986.79 1545.64 1988.68 Q1543.83 1990.57 1543.83 1993.16 M1547.98 1964.78 Q1547.98 1974.12 1554.61 1974.12 Q1557.95 1974.12 1559.98 1971.08 Q1561.21 1969.04 1561.21 1964.7 Q1561.21 1955.37 1554.61 1955.37 Q1551.28 1955.37 1549.2 1958.41 Q1547.98 1960.44 1547.98 1964.78 Z" fill="#000000" fill-rule="evenodd" fill-opacity="1" /><path clip-path="url(#clip830)" d="M1600.93 1969.17 Q1600.93 1957.02 1605.46 1947.21 Q1607.39 1943.1 1610.1 1939.66 Q1612.8 1936.22 1614.6 1934.71 Q1616.39 1933.2 1616.88 1933.2 Q1617.58 1933.2 1617.62 1933.9 Q1617.62 1934.25 1616.67 1935.13 Q1605.08 1946.93 1605.11 1969.17 Q1605.11 1991.48 1616.39 2002.83 Q1617.62 2004.06 1617.62 2004.45 Q1617.62 2005.15 1616.88 2005.15 Q1616.39 2005.15 1614.67 2003.71 Q1612.95 2002.27 1610.28 1998.97 Q1607.6 1995.66 1605.67 1991.62 Q1600.93 1981.82 1600.93 1969.17 Z" fill="#000000" fill-rule="evenodd" fill-opacity="1" /><path clip-path="url(#clip830)" d="M1656.7 1963.06 Q1656.7 1965.03 1656.11 1967.24 L1647.92 1999.81 Q1647.18 2002.69 1644.97 2002.69 Q1644.06 2002.69 1643.49 2002.13 Q1642.97 2001.6 1642.97 2000.76 Q1642.97 2000.48 1643.18 1999.6 L1651.36 1966.5 Q1652.1 1963.48 1652.1 1961.97 Q1652.1 1956.95 1648.2 1956.95 Q1644.76 1956.95 1641.32 1959.48 Q1639.73 1960.74 1638.19 1963.02 Q1636.68 1965.27 1636.4 1966.08 Q1636.08 1967.91 1635.62 1969.31 Q1635.41 1970.3 1634.39 1974.13 L1632.81 1980.63 Q1631.69 1985.47 1631.44 1985.93 Q1631.09 1986.91 1630.32 1987.44 Q1629.55 1987.97 1628.77 1987.97 Q1627.89 1987.97 1627.3 1987.44 Q1626.7 1986.91 1626.7 1986 Q1626.7 1985.86 1626.8 1985.33 Q1626.91 1984.81 1627.09 1984.07 Q1627.26 1983.33 1627.33 1982.91 L1631.51 1966.29 Q1632.29 1963.27 1632.46 1962.32 Q1632.67 1961.34 1632.67 1960.25 Q1632.67 1958.35 1632.08 1957.65 Q1631.48 1956.95 1630.42 1956.95 Q1628.6 1956.95 1627.4 1959.12 Q1626.21 1961.3 1625.19 1965.52 Q1624.87 1966.68 1624.66 1966.92 Q1624.49 1967.17 1623.96 1967.17 Q1623.08 1967.13 1623.08 1966.43 Q1623.08 1966.26 1623.36 1965.13 Q1623.64 1963.97 1624.17 1962.29 Q1624.73 1960.56 1625.33 1959.48 Q1625.68 1958.74 1626 1958.25 Q1626.31 1957.75 1626.95 1956.98 Q1627.58 1956.21 1628.53 1955.79 Q1629.48 1955.36 1630.63 1955.36 Q1633.2 1955.36 1635.1 1957.02 Q1637.03 1958.67 1637.27 1961.62 Q1638.01 1960.53 1638.96 1959.55 Q1639.94 1958.56 1641.32 1957.58 Q1642.69 1956.56 1644.55 1955.96 Q1646.41 1955.36 1648.41 1955.36 Q1652.42 1955.36 1654.56 1957.44 Q1656.7 1959.48 1656.7 1963.06 Z" fill="#000000" fill-rule="evenodd" fill-opacity="1" /><path clip-path="url(#clip830)" d="M1664.51 2004.45 Q1664.51 2004.09 1665.42 2003.22 Q1677.02 1991.41 1677.02 1969.17 Q1677.02 1946.86 1665.88 1935.58 Q1664.51 1934.28 1664.51 1933.9 Q1664.51 1933.2 1665.21 1933.2 Q1665.7 1933.2 1667.43 1934.64 Q1669.18 1936.08 1671.82 1939.38 Q1674.49 1942.68 1676.46 1946.72 Q1681.2 1956.52 1681.2 1969.17 Q1681.2 1981.33 1676.67 1991.13 Q1674.73 1995.24 1672.03 1998.68 Q1669.32 2002.13 1667.53 2003.64 Q1665.74 2005.15 1665.21 2005.15 Q1664.51 2005.15 1664.51 2004.45 Z" fill="#000000" fill-rule="evenodd" fill-opacity="1" /><polyline clip-path="url(#clip833)" style="stroke:#000000; stroke-linecap:butt; stroke-linejoin:round; stroke-width:2; stroke-opacity:0.1; fill:none" points="
  258.327,1815.6 2547.87,1815.6 
  "/>
<polyline clip-path="url(#clip833)" style="stroke:#000000; stroke-linecap:butt; stroke-linejoin:round; stroke-width:2; stroke-opacity:0.1; fill:none" points="
  258.327,1501.2 2547.87,1501.2 
  "/>
<polyline clip-path="url(#clip833)" style="stroke:#000000; stroke-linecap:butt; stroke-linejoin:round; stroke-width:2; stroke-opacity:0.1; fill:none" points="
  258.327,1186.8 2547.87,1186.8 
  "/>
<polyline clip-path="url(#clip833)" style="stroke:#000000; stroke-linecap:butt; stroke-linejoin:round; stroke-width:2; stroke-opacity:0.1; fill:none" points="
  258.327,872.404 2547.87,872.404 
  "/>
<polyline clip-path="url(#clip833)" style="stroke:#000000; stroke-linecap:butt; stroke-linejoin:round; stroke-width:2; stroke-opacity:0.1; fill:none" points="
  258.327,558.007 2547.87,558.007 
  "/>
<polyline clip-path="url(#clip833)" style="stroke:#000000; stroke-linecap:butt; stroke-linejoin:round; stroke-width:2; stroke-opacity:0.1; fill:none" points="
  258.327,243.609 2547.87,243.609 
  "/>
<polyline clip-path="url(#clip830)" style="stroke:#000000; stroke-linecap:butt; stroke-linejoin:round; stroke-width:4; stroke-opacity:1; fill:none" points="
  258.327,1820.26 258.327,47.2441 
  "/>
<polyline clip-path="url(#clip830)" style="stroke:#000000; stroke-linecap:butt; stroke-linejoin:round; stroke-width:4; stroke-opacity:1; fill:none" points="
  258.327,1815.6 273.275,1815.6 
  "/>
<polyline clip-path="url(#clip830)" style="stroke:#000000; stroke-linecap:butt; stroke-linejoin:round; stroke-width:4; stroke-opacity:1; fill:none" points="
  258.327,1501.2 273.275,1501.2 
  "/>
<polyline clip-path="url(#clip830)" style="stroke:#000000; stroke-linecap:butt; stroke-linejoin:round; stroke-width:4; stroke-opacity:1; fill:none" points="
  258.327,1186.8 273.275,1186.8 
  "/>
<polyline clip-path="url(#clip830)" style="stroke:#000000; stroke-linecap:butt; stroke-linejoin:round; stroke-width:4; stroke-opacity:1; fill:none" points="
  258.327,872.404 273.275,872.404 
  "/>
<polyline clip-path="url(#clip830)" style="stroke:#000000; stroke-linecap:butt; stroke-linejoin:round; stroke-width:4; stroke-opacity:1; fill:none" points="
  258.327,558.007 273.275,558.007 
  "/>
<polyline clip-path="url(#clip830)" style="stroke:#000000; stroke-linecap:butt; stroke-linejoin:round; stroke-width:4; stroke-opacity:1; fill:none" points="
  258.327,243.609 273.275,243.609 
  "/>
<path clip-path="url(#clip830)" d="M144.739 1819.51 Q145.036 1819.81 145.036 1820.23 Q145.036 1820.65 144.739 1820.95 Q144.443 1821.24 144.023 1821.24 L112.353 1821.24 Q111.933 1821.24 111.637 1820.95 Q111.34 1820.65 111.34 1820.23 Q111.34 1819.81 111.637 1819.51 Q111.933 1819.22 112.353 1819.22 L144.023 1819.22 Q144.443 1819.22 144.739 1819.51 Z" fill="#000000" fill-rule="evenodd" fill-opacity="1" /><path clip-path="url(#clip830)" d="M149.828 1816.7 Q149.828 1809.26 151.705 1805.21 Q154.324 1799.18 160.5 1799.18 Q161.809 1799.18 163.168 1799.55 Q164.551 1799.9 166.28 1801.26 Q168.034 1802.62 169.097 1804.84 Q171.122 1809.14 171.122 1816.7 Q171.122 1824.08 169.245 1828.11 Q166.503 1833.99 160.45 1833.99 Q158.178 1833.99 155.856 1832.83 Q153.558 1831.67 152.101 1828.88 Q149.828 1824.7 149.828 1816.7 M154.028 1816.08 Q154.028 1823.71 154.571 1826.75 Q155.189 1830.04 156.868 1831.47 Q158.573 1832.88 160.45 1832.88 Q162.476 1832.88 164.156 1831.37 Q165.86 1829.84 166.379 1826.55 Q166.947 1823.32 166.923 1816.08 Q166.923 1809.04 166.429 1806.22 Q165.762 1802.94 163.983 1801.63 Q162.229 1800.29 160.45 1800.29 Q159.783 1800.29 159.067 1800.49 Q158.375 1800.69 157.363 1801.26 Q156.35 1801.83 155.559 1803.23 Q154.793 1804.64 154.423 1806.77 Q154.028 1809.51 154.028 1816.08 Z" fill="#000000" fill-rule="evenodd" fill-opacity="1" /><path clip-path="url(#clip830)" d="M178.212 1832.06 Q177.446 1831.25 177.446 1830.18 Q177.446 1829.12 178.212 1828.36 Q178.978 1827.57 180.139 1827.57 Q181.251 1827.57 181.992 1828.31 Q182.758 1829.02 182.758 1830.21 Q182.758 1831.37 181.942 1832.14 Q181.152 1832.88 180.139 1832.88 Q178.978 1832.88 178.212 1832.06 Z" fill="#000000" fill-rule="evenodd" fill-opacity="1" /><path clip-path="url(#clip830)" d="M189.329 1826.06 Q189.329 1824.55 190.193 1823.84 Q191.058 1823.12 192.17 1823.12 Q193.331 1823.12 194.146 1823.89 Q194.986 1824.63 194.986 1825.94 Q194.986 1827.34 193.998 1828.13 Q193.034 1828.92 191.651 1828.73 Q192.861 1830.75 195.085 1831.67 Q197.333 1832.58 199.408 1832.58 Q201.582 1832.58 203.335 1830.7 Q205.114 1828.83 205.114 1824.23 Q205.114 1820.33 203.583 1818.08 Q202.076 1815.83 199.086 1815.83 L196.863 1815.83 Q196.097 1815.83 195.875 1815.76 Q195.653 1815.68 195.653 1815.26 Q195.653 1814.77 196.419 1814.67 Q197.184 1814.67 198.395 1814.52 Q201.334 1814.42 202.891 1811.88 Q204.299 1809.51 204.299 1806.12 Q204.299 1803.04 202.817 1801.75 Q201.359 1800.44 199.457 1800.44 Q197.678 1800.44 195.727 1801.18 Q193.775 1801.92 192.713 1803.58 Q195.85 1803.58 195.85 1806.12 Q195.85 1807.24 195.134 1807.98 Q194.442 1808.69 193.281 1808.69 Q192.17 1808.69 191.428 1808 Q190.687 1807.28 190.687 1806.07 Q190.687 1803.18 193.256 1801.18 Q195.85 1799.18 199.655 1799.18 Q203.41 1799.18 206.176 1801.16 Q208.968 1803.13 208.968 1806.17 Q208.968 1809.16 206.992 1811.61 Q205.015 1814.05 201.878 1815.07 Q205.732 1815.83 208.029 1818.45 Q210.327 1821.04 210.327 1824.23 Q210.327 1828.18 207.214 1831.1 Q204.101 1833.99 199.556 1833.99 Q195.356 1833.99 192.342 1831.72 Q189.329 1829.44 189.329 1826.06 Z" fill="#000000" fill-rule="evenodd" fill-opacity="1" /><path clip-path="url(#clip830)" d="M145.134 1505.12 Q145.431 1505.41 145.431 1505.83 Q145.431 1506.25 145.134 1506.55 Q144.838 1506.84 144.418 1506.84 L112.748 1506.84 Q112.328 1506.84 112.032 1506.55 Q111.735 1506.25 111.735 1505.83 Q111.735 1505.41 112.032 1505.12 Q112.328 1504.82 112.748 1504.82 L144.418 1504.82 Q144.838 1504.82 145.134 1505.12 Z" fill="#000000" fill-rule="evenodd" fill-opacity="1" /><path clip-path="url(#clip830)" d="M150.223 1502.3 Q150.223 1494.86 152.101 1490.81 Q154.719 1484.78 160.895 1484.78 Q162.204 1484.78 163.563 1485.15 Q164.946 1485.5 166.676 1486.86 Q168.43 1488.22 169.492 1490.44 Q171.518 1494.74 171.518 1502.3 Q171.518 1509.69 169.64 1513.71 Q166.898 1519.59 160.846 1519.59 Q158.573 1519.59 156.251 1518.43 Q153.953 1517.27 152.496 1514.48 Q150.223 1510.3 150.223 1502.3 M154.423 1501.68 Q154.423 1509.31 154.966 1512.35 Q155.584 1515.64 157.264 1517.07 Q158.968 1518.48 160.846 1518.48 Q162.871 1518.48 164.551 1516.97 Q166.256 1515.44 166.774 1512.16 Q167.343 1508.92 167.318 1501.68 Q167.318 1494.64 166.824 1491.82 Q166.157 1488.54 164.378 1487.23 Q162.624 1485.9 160.846 1485.9 Q160.179 1485.9 159.462 1486.09 Q158.771 1486.29 157.758 1486.86 Q156.745 1487.43 155.954 1488.84 Q155.189 1490.24 154.818 1492.37 Q154.423 1495.11 154.423 1501.68 Z" fill="#000000" fill-rule="evenodd" fill-opacity="1" /><path clip-path="url(#clip830)" d="M178.607 1517.66 Q177.842 1516.85 177.842 1515.79 Q177.842 1514.72 178.607 1513.96 Q179.373 1513.17 180.534 1513.17 Q181.646 1513.17 182.387 1513.91 Q183.153 1514.63 183.153 1515.81 Q183.153 1516.97 182.338 1517.74 Q181.547 1518.48 180.534 1518.48 Q179.373 1518.48 178.607 1517.66 Z" fill="#000000" fill-rule="evenodd" fill-opacity="1" /><path clip-path="url(#clip830)" d="M190.119 1518.48 Q190.119 1517.57 190.193 1517.29 Q190.292 1517.02 190.687 1516.6 L200.396 1505.78 Q205.707 1499.8 205.707 1494.59 Q205.707 1491.21 203.928 1488.79 Q202.174 1486.37 198.938 1486.37 Q196.715 1486.37 194.838 1487.72 Q192.96 1489.08 192.095 1491.5 Q192.244 1491.45 192.762 1491.45 Q194.022 1491.45 194.714 1492.24 Q195.43 1493.04 195.43 1494.1 Q195.43 1495.46 194.541 1496.12 Q193.676 1496.77 192.812 1496.77 Q192.466 1496.77 191.997 1496.69 Q191.552 1496.62 190.836 1495.93 Q190.119 1495.21 190.119 1493.95 Q190.119 1490.42 192.787 1487.6 Q195.48 1484.78 199.581 1484.78 Q204.225 1484.78 207.263 1487.55 Q210.327 1490.29 210.327 1494.59 Q210.327 1496.1 209.857 1497.48 Q209.412 1498.84 208.795 1499.9 Q208.202 1500.97 206.572 1502.67 Q204.941 1504.37 203.632 1505.58 Q202.323 1506.79 199.383 1509.36 L194.022 1514.58 L203.138 1514.58 Q207.584 1514.58 207.93 1514.18 Q208.424 1513.46 209.042 1509.69 L210.327 1509.69 L208.894 1518.48 L190.119 1518.48 Z" fill="#000000" fill-rule="evenodd" fill-opacity="1" /><path clip-path="url(#clip830)" d="M146.666 1190.72 Q146.962 1191.01 146.962 1191.43 Q146.962 1191.85 146.666 1192.15 Q146.37 1192.45 145.95 1192.45 L114.28 1192.45 Q113.86 1192.45 113.563 1192.15 Q113.267 1191.85 113.267 1191.43 Q113.267 1191.01 113.563 1190.72 Q113.86 1190.42 114.28 1190.42 L145.95 1190.42 Q146.37 1190.42 146.666 1190.72 Z" fill="#000000" fill-rule="evenodd" fill-opacity="1" /><path clip-path="url(#clip830)" d="M151.755 1187.9 Q151.755 1180.47 153.632 1176.41 Q156.251 1170.39 162.427 1170.39 Q163.736 1170.39 165.095 1170.76 Q166.478 1171.1 168.207 1172.46 Q169.961 1173.82 171.023 1176.04 Q173.049 1180.34 173.049 1187.9 Q173.049 1195.29 171.172 1199.31 Q168.43 1205.19 162.377 1205.19 Q160.105 1205.19 157.782 1204.03 Q155.485 1202.87 154.028 1200.08 Q151.755 1195.91 151.755 1187.9 M155.954 1187.28 Q155.954 1194.92 156.498 1197.96 Q157.115 1201.24 158.795 1202.67 Q160.5 1204.08 162.377 1204.08 Q164.403 1204.08 166.083 1202.58 Q167.787 1201.04 168.306 1197.76 Q168.874 1194.52 168.85 1187.28 Q168.85 1180.24 168.356 1177.43 Q167.689 1174.14 165.91 1172.83 Q164.156 1171.5 162.377 1171.5 Q161.71 1171.5 160.994 1171.7 Q160.302 1171.89 159.289 1172.46 Q158.277 1173.03 157.486 1174.44 Q156.72 1175.85 156.35 1177.97 Q155.954 1180.71 155.954 1187.28 Z" fill="#000000" fill-rule="evenodd" fill-opacity="1" /><path clip-path="url(#clip830)" d="M180.139 1203.27 Q179.373 1202.45 179.373 1201.39 Q179.373 1200.33 180.139 1199.56 Q180.905 1198.77 182.066 1198.77 Q183.178 1198.77 183.919 1199.51 Q184.684 1200.23 184.684 1201.41 Q184.684 1202.58 183.869 1203.34 Q183.079 1204.08 182.066 1204.08 Q180.905 1204.08 180.139 1203.27 Z" fill="#000000" fill-rule="evenodd" fill-opacity="1" /><path clip-path="url(#clip830)" d="M193.627 1175.2 L193.627 1173.62 Q199.704 1173.62 202.841 1170.39 Q203.706 1170.39 203.854 1170.58 Q204.002 1170.78 204.002 1171.7 L204.002 1200.08 Q204.002 1201.59 204.744 1202.06 Q205.485 1202.53 208.721 1202.53 L210.327 1202.53 L210.327 1204.08 Q208.548 1203.93 202.125 1203.93 Q195.702 1203.93 193.948 1204.08 L193.948 1202.53 L195.554 1202.53 Q198.741 1202.53 199.506 1202.08 Q200.272 1201.61 200.272 1200.08 L200.272 1173.87 Q197.629 1175.2 193.627 1175.2 Z" fill="#000000" fill-rule="evenodd" fill-opacity="1" /><path clip-path="url(#clip830)" d="M149.68 873.504 Q149.68 866.068 151.557 862.017 Q154.176 855.989 160.352 855.989 Q161.661 855.989 163.02 856.36 Q164.403 856.705 166.132 858.064 Q167.886 859.423 168.948 861.646 Q170.974 865.944 170.974 873.504 Q170.974 880.89 169.097 884.917 Q166.355 890.796 160.302 890.796 Q158.03 890.796 155.707 889.635 Q153.41 888.474 151.952 885.682 Q149.68 881.508 149.68 873.504 M153.879 872.886 Q153.879 880.519 154.423 883.558 Q155.04 886.844 156.72 888.276 Q158.425 889.684 160.302 889.684 Q162.328 889.684 164.008 888.177 Q165.712 886.646 166.231 883.36 Q166.799 880.124 166.774 872.886 Q166.774 865.846 166.28 863.029 Q165.613 859.744 163.835 858.435 Q162.081 857.101 160.302 857.101 Q159.635 857.101 158.919 857.298 Q158.227 857.496 157.214 858.064 Q156.201 858.632 155.411 860.04 Q154.645 861.448 154.275 863.573 Q153.879 866.315 153.879 872.886 Z" fill="#000000" fill-rule="evenodd" fill-opacity="1" /><path clip-path="url(#clip830)" d="M178.064 888.869 Q177.298 888.054 177.298 886.992 Q177.298 885.929 178.064 885.164 Q178.83 884.373 179.991 884.373 Q181.102 884.373 181.844 885.114 Q182.609 885.831 182.609 887.016 Q182.609 888.177 181.794 888.943 Q181.004 889.684 179.991 889.684 Q178.83 889.684 178.064 888.869 Z" fill="#000000" fill-rule="evenodd" fill-opacity="1" /><path clip-path="url(#clip830)" d="M189.032 873.504 Q189.032 866.068 190.91 862.017 Q193.528 855.989 199.704 855.989 Q201.013 855.989 202.372 856.36 Q203.755 856.705 205.485 858.064 Q207.239 859.423 208.301 861.646 Q210.327 865.944 210.327 873.504 Q210.327 880.89 208.449 884.917 Q205.707 890.796 199.655 890.796 Q197.382 890.796 195.06 889.635 Q192.762 888.474 191.305 885.682 Q189.032 881.508 189.032 873.504 M193.232 872.886 Q193.232 880.519 193.775 883.558 Q194.393 886.844 196.073 888.276 Q197.777 889.684 199.655 889.684 Q201.68 889.684 203.36 888.177 Q205.065 886.646 205.583 883.36 Q206.152 880.124 206.127 872.886 Q206.127 865.846 205.633 863.029 Q204.966 859.744 203.187 858.435 Q201.433 857.101 199.655 857.101 Q198.988 857.101 198.271 857.298 Q197.58 857.496 196.567 858.064 Q195.554 858.632 194.763 860.04 Q193.998 861.448 193.627 863.573 Q193.232 866.315 193.232 872.886 Z" fill="#000000" fill-rule="evenodd" fill-opacity="1" /><path clip-path="url(#clip830)" d="M151.755 559.106 Q151.755 551.67 153.632 547.619 Q156.251 541.591 162.427 541.591 Q163.736 541.591 165.095 541.962 Q166.478 542.308 168.207 543.666 Q169.961 545.025 171.023 547.248 Q173.049 551.547 173.049 559.106 Q173.049 566.492 171.172 570.519 Q168.43 576.398 162.377 576.398 Q160.105 576.398 157.782 575.237 Q155.485 574.076 154.028 571.285 Q151.755 567.11 151.755 559.106 M155.954 558.488 Q155.954 566.122 156.498 569.16 Q157.115 572.446 158.795 573.879 Q160.5 575.287 162.377 575.287 Q164.403 575.287 166.083 573.78 Q167.787 572.248 168.306 568.963 Q168.874 565.727 168.85 558.488 Q168.85 551.448 168.356 548.632 Q167.689 545.346 165.91 544.037 Q164.156 542.703 162.377 542.703 Q161.71 542.703 160.994 542.901 Q160.302 543.098 159.289 543.666 Q158.277 544.235 157.486 545.643 Q156.72 547.051 156.35 549.175 Q155.954 551.917 155.954 558.488 Z" fill="#000000" fill-rule="evenodd" fill-opacity="1" /><path clip-path="url(#clip830)" d="M180.139 574.472 Q179.373 573.656 179.373 572.594 Q179.373 571.532 180.139 570.766 Q180.905 569.976 182.066 569.976 Q183.178 569.976 183.919 570.717 Q184.684 571.433 184.684 572.619 Q184.684 573.78 183.869 574.546 Q183.079 575.287 182.066 575.287 Q180.905 575.287 180.139 574.472 Z" fill="#000000" fill-rule="evenodd" fill-opacity="1" /><path clip-path="url(#clip830)" d="M193.627 546.409 L193.627 544.828 Q199.704 544.828 202.841 541.591 Q203.706 541.591 203.854 541.789 Q204.002 541.987 204.002 542.901 L204.002 571.285 Q204.002 572.792 204.744 573.261 Q205.485 573.73 208.721 573.73 L210.327 573.73 L210.327 575.287 Q208.548 575.139 202.125 575.139 Q195.702 575.139 193.948 575.287 L193.948 573.73 L195.554 573.73 Q198.741 573.73 199.506 573.286 Q200.272 572.816 200.272 571.285 L200.272 545.075 Q197.629 546.409 193.627 546.409 Z" fill="#000000" fill-rule="evenodd" fill-opacity="1" /><path clip-path="url(#clip830)" d="M150.223 244.708 Q150.223 237.273 152.101 233.221 Q154.719 227.194 160.895 227.194 Q162.204 227.194 163.563 227.564 Q164.946 227.91 166.676 229.269 Q168.43 230.628 169.492 232.851 Q171.518 237.149 171.518 244.708 Q171.518 252.095 169.64 256.121 Q166.898 262.001 160.846 262.001 Q158.573 262.001 156.251 260.84 Q153.953 259.679 152.496 256.887 Q150.223 252.712 150.223 244.708 M154.423 244.091 Q154.423 251.724 154.966 254.763 Q155.584 258.048 157.264 259.481 Q158.968 260.889 160.846 260.889 Q162.871 260.889 164.551 259.382 Q166.256 257.851 166.774 254.565 Q167.343 251.329 167.318 244.091 Q167.318 237.05 166.824 234.234 Q166.157 230.949 164.378 229.639 Q162.624 228.305 160.846 228.305 Q160.179 228.305 159.462 228.503 Q158.771 228.701 157.758 229.269 Q156.745 229.837 155.954 231.245 Q155.189 232.653 154.818 234.778 Q154.423 237.52 154.423 244.091 Z" fill="#000000" fill-rule="evenodd" fill-opacity="1" /><path clip-path="url(#clip830)" d="M178.607 260.074 Q177.842 259.259 177.842 258.196 Q177.842 257.134 178.607 256.368 Q179.373 255.578 180.534 255.578 Q181.646 255.578 182.387 256.319 Q183.153 257.035 183.153 258.221 Q183.153 259.382 182.338 260.148 Q181.547 260.889 180.534 260.889 Q179.373 260.889 178.607 260.074 Z" fill="#000000" fill-rule="evenodd" fill-opacity="1" /><path clip-path="url(#clip830)" d="M190.119 260.889 Q190.119 259.975 190.193 259.703 Q190.292 259.432 190.687 259.012 L200.396 248.192 Q205.707 242.213 205.707 237.001 Q205.707 233.617 203.928 231.196 Q202.174 228.775 198.938 228.775 Q196.715 228.775 194.838 230.133 Q192.96 231.492 192.095 233.913 Q192.244 233.864 192.762 233.864 Q194.022 233.864 194.714 234.654 Q195.43 235.445 195.43 236.507 Q195.43 237.866 194.541 238.533 Q193.676 239.175 192.812 239.175 Q192.466 239.175 191.997 239.101 Q191.552 239.027 190.836 238.335 Q190.119 237.619 190.119 236.359 Q190.119 232.826 192.787 230.01 Q195.48 227.194 199.581 227.194 Q204.225 227.194 207.263 229.961 Q210.327 232.703 210.327 237.001 Q210.327 238.508 209.857 239.891 Q209.412 241.25 208.795 242.312 Q208.202 243.374 206.572 245.079 Q204.941 246.784 203.632 247.994 Q202.323 249.204 199.383 251.774 L194.022 256.986 L203.138 256.986 Q207.584 256.986 207.93 256.591 Q208.424 255.874 209.042 252.095 L210.327 252.095 L208.894 260.889 L190.119 260.889 Z" fill="#000000" fill-rule="evenodd" fill-opacity="1" /><path clip-path="url(#clip830)" d="M51.2002 1043.33 Q51.7623 1043.33 52.2191 1043.75 Q52.6407 1044.14 52.6407 1044.77 Q52.6407 1045.23 52.3245 1045.61 Q52.0083 1045.96 51.7974 1046.07 Q51.5866 1046.18 51.0596 1046.42 L41.7844 1050.11 L41.7844 1067.36 L50.3218 1070.8 Q52.0083 1071.51 52.3245 1071.93 Q52.6407 1072.31 52.6407 1073.76 L52.6407 1080.75 Q52.6407 1081.31 52.6055 1081.66 Q52.5704 1081.98 52.465 1082.43 Q52.3596 1082.89 52.0434 1083.14 Q51.7272 1083.35 51.2002 1083.35 Q50.9191 1083.35 49.9002 1082.89 L5.13994 1064.97 Q3.48866 1064.41 3.48866 1063.32 Q3.48866 1062.62 3.87513 1062.3 Q4.2616 1061.99 5.13994 1061.67 L49.9705 1043.68 L51.2002 1043.33 M38.9034 1051.23 L20.2474 1058.72 L38.9034 1066.2 L38.9034 1051.23 M16.3827 1060.3 L8.89924 1063.32 L49.7597 1079.73 L49.7597 1073.61 L16.3827 1060.3 Z" fill="#000000" fill-rule="evenodd" fill-opacity="1" /><path clip-path="url(#clip830)" d="M34.6522 1039.82 Q22.496 1039.82 12.6937 1035.29 Q8.58304 1033.36 5.13994 1030.65 Q1.69684 1027.95 0.186093 1026.16 Q-1.32465 1024.37 -1.32465 1023.87 Q-1.32465 1023.17 -0.621982 1023.14 Q-0.270645 1023.14 0.607697 1024.08 Q12.4126 1035.68 34.6522 1035.64 Q56.9621 1035.64 68.3103 1024.37 Q69.54 1023.14 69.9264 1023.14 Q70.6291 1023.14 70.6291 1023.87 Q70.6291 1024.37 69.1886 1026.09 Q67.7481 1027.81 64.4456 1030.48 Q61.143 1033.15 57.1026 1035.08 Q47.3003 1039.82 34.6522 1039.82 Z" fill="#000000" fill-rule="evenodd" fill-opacity="1" /><path clip-path="url(#clip830)" d="M28.539 984.05 Q30.5064 984.05 32.7199 984.647 L65.2888 992.834 Q68.1697 993.571 68.1697 995.785 Q68.1697 996.698 67.6076 997.26 Q67.0806 997.787 66.2374 997.787 Q65.9563 997.787 65.078 997.577 L31.9821 989.39 Q28.9606 988.653 27.4498 988.653 Q22.4257 988.653 22.4257 992.552 Q22.4257 995.996 24.9553 999.439 Q26.2201 1001.02 28.5038 1002.57 Q30.7524 1004.08 31.5605 1004.36 Q33.3874 1004.67 34.7928 1005.13 Q35.7765 1005.34 39.6061 1006.36 L46.1058 1007.94 Q50.9542 1009.07 51.411 1009.31 Q52.3947 1009.66 52.9217 1010.44 Q53.4487 1011.21 53.4487 1011.98 Q53.4487 1012.86 52.9217 1013.46 Q52.3947 1014.05 51.4812 1014.05 Q51.3407 1014.05 50.8137 1013.95 Q50.2867 1013.84 49.5489 1013.67 Q48.8111 1013.49 48.3895 1013.42 L31.7713 1009.24 Q28.7498 1008.47 27.8012 1008.29 Q26.8174 1008.08 25.7283 1008.08 Q23.8311 1008.08 23.1284 1008.68 Q22.4257 1009.28 22.4257 1010.33 Q22.4257 1012.16 24.604 1013.35 Q26.7823 1014.55 30.9983 1015.57 Q32.1577 1015.88 32.4037 1016.09 Q32.6496 1016.27 32.6496 1016.79 Q32.6145 1017.67 31.9118 1017.67 Q31.7361 1017.67 30.6118 1017.39 Q29.4524 1017.11 27.766 1016.58 Q26.0445 1016.02 24.9553 1015.42 Q24.2175 1015.07 23.7256 1014.76 Q23.2338 1014.44 22.4608 1013.81 Q21.6879 1013.18 21.2663 1012.23 Q20.8447 1011.28 20.8447 1010.12 Q20.8447 1007.55 22.496 1005.66 Q24.1473 1003.72 27.0985 1003.48 Q26.0093 1002.74 25.0256 1001.79 Q24.0419 1000.81 23.0581 999.439 Q22.0392 998.068 21.442 996.206 Q20.8447 994.344 20.8447 992.342 Q20.8447 988.336 22.9176 986.193 Q24.9553 984.05 28.539 984.05 Z" fill="#000000" fill-rule="evenodd" fill-opacity="1" /><path clip-path="url(#clip830)" d="M69.9264 976.244 Q69.5751 976.244 68.6967 975.33 Q56.8918 963.736 34.6522 963.736 Q12.3423 963.736 1.06443 974.873 Q-0.235511 976.244 -0.621982 976.244 Q-1.32465 976.244 -1.32465 975.541 Q-1.32465 975.049 0.115825 973.327 Q1.55631 971.571 4.85887 968.936 Q8.16144 966.266 12.2018 964.298 Q22.0041 959.555 34.6522 959.555 Q46.8085 959.555 56.6108 964.087 Q60.7214 966.02 64.1645 968.725 Q67.6076 971.43 69.1183 973.222 Q70.6291 975.014 70.6291 975.541 Q70.6291 976.244 69.9264 976.244 Z" fill="#000000" fill-rule="evenodd" fill-opacity="1" /><path clip-path="url(#clip830)" d="M70.6291 929.612 L-1.32465 929.612 L-1.32465 918.756 L0.326627 918.756 L0.326627 924.799 L68.9778 924.799 L68.9778 918.756 L70.6291 918.756 L70.6291 929.612 Z" fill="#000000" fill-rule="evenodd" fill-opacity="1" /><path clip-path="url(#clip830)" d="M32.3334 889.374 Q37.3926 889.374 42.3465 891.938 Q47.2652 894.468 50.357 898.544 Q53.4487 902.584 53.4487 906.73 Q53.4487 910.77 50.357 913.335 Q47.2301 915.864 42.1357 915.864 Q40.3439 915.864 39.0791 915.654 Q37.8143 915.443 34.863 914.705 L11.3937 908.803 Q7.00202 907.784 6.96689 907.784 Q6.54529 907.784 6.33448 907.959 Q6.08855 908.1 5.91288 908.943 Q5.73721 909.786 5.73721 911.403 Q5.73721 912.07 5.70208 912.386 Q5.66694 912.667 5.49128 912.913 Q5.28047 913.124 4.85887 913.124 Q4.2616 913.124 3.9454 912.878 Q3.59406 912.597 3.52379 912.386 Q3.45352 912.175 3.41839 911.754 Q3.38326 911.157 3.20759 909.154 Q2.99679 907.151 2.85625 905.43 Q2.71572 903.708 2.71572 902.97 Q2.71572 902.549 2.92652 902.338 Q3.10219 902.092 3.31299 902.092 L3.48866 902.057 L25.1661 907.362 Q20.8447 903.181 20.8447 898.93 Q20.8447 894.679 24.1121 892.044 Q27.3796 889.374 32.3334 889.374 M29.1714 894.573 Q25.8337 894.573 24.1473 895.838 Q22.4257 897.068 22.4257 899.106 Q22.4257 900.827 23.7256 903.076 Q25.0256 905.324 28.1876 907.713 Q28.7849 908.17 29.1362 908.346 Q29.4876 908.486 30.6821 908.803 L37.3224 910.384 Q41.8546 911.543 44.595 911.543 Q48.3192 911.543 50.0759 910.173 Q51.8326 908.803 51.8326 906.73 Q51.8326 904.551 49.9002 902.268 Q47.9679 899.984 44.4545 898.227 Q42.1357 897.138 37.1467 895.873 Q32.1226 894.573 29.1714 894.573 Z" fill="#000000" fill-rule="evenodd" fill-opacity="1" /><path clip-path="url(#clip830)" d="M7.66956 868.672 Q9.21545 868.672 10.3749 869.937 Q11.4991 871.166 11.4991 872.502 Q11.4991 873.731 10.7613 874.504 Q9.98839 875.242 8.89924 875.242 Q7.45876 875.242 6.26422 874.012 Q5.06967 872.783 5.06967 871.342 Q5.06967 870.148 5.80748 869.41 Q6.54529 868.672 7.66956 868.672 M42.3465 868.04 Q42.6276 868.04 43.7518 868.356 Q44.841 868.672 46.5274 869.445 Q48.1787 870.183 49.7246 871.202 Q51.2704 872.22 52.3596 873.907 Q53.4487 875.558 53.4487 877.455 Q53.4487 880.02 51.7623 881.707 Q50.0759 883.358 47.5463 883.358 Q46.1761 883.358 41.7844 881.707 Q28.9957 876.928 28.4687 876.753 Q26.4661 875.945 24.7094 875.945 Q23.9013 875.945 23.4094 876.12 Q22.8824 876.296 22.7068 876.647 Q22.496 876.999 22.4608 877.209 Q22.4257 877.385 22.4257 877.736 Q22.4257 879.809 24.5337 881.742 Q26.6417 883.674 31.3497 885.009 Q32.228 885.29 32.4388 885.466 Q32.6496 885.641 32.6496 886.168 Q32.6145 887.047 31.9118 887.047 Q31.701 887.047 30.8929 886.801 Q30.0497 886.555 28.7849 886.098 Q27.485 885.641 26.1499 884.833 Q24.7797 884.025 23.5851 883.042 Q22.3906 882.023 21.6176 880.582 Q20.8447 879.142 20.8447 877.526 Q20.8447 874.891 22.5662 873.274 Q24.2527 871.623 26.7471 871.623 Q28.1174 871.623 30.5416 872.572 Q33.7036 873.731 34.7225 874.153 L42.2762 876.963 Q45.0167 877.982 45.8599 878.299 Q46.6679 878.58 47.6517 878.826 Q48.6003 879.036 49.4786 879.036 Q50.7083 879.036 51.2704 878.65 Q51.8326 878.228 51.8326 877.315 Q51.8326 874.785 49.3381 872.923 Q46.8085 871.061 42.9438 869.972 Q42.8384 869.937 42.6627 869.902 Q41.7844 869.621 41.679 869.339 Q41.6438 869.199 41.6438 868.918 Q41.6438 868.04 42.3465 868.04 Z" fill="#000000" fill-rule="evenodd" fill-opacity="1" /><path clip-path="url(#clip830)" d="M22.4257 839.81 Q23.4094 839.81 23.6554 840.267 Q23.8662 840.723 23.8662 841.988 L23.8662 848.734 L45.0869 854.074 Q46.949 854.496 48.53 854.496 Q50.2867 854.496 51.0596 853.969 Q51.8326 853.407 51.8326 852.247 Q51.8326 849.964 49.7597 847.504 Q47.6868 845.01 42.6276 842.902 Q41.96 842.621 41.8195 842.48 Q41.6438 842.304 41.6438 841.848 Q41.6438 840.969 42.3465 840.969 Q42.5924 840.969 43.7167 841.461 Q44.841 841.918 46.4923 842.937 Q48.1435 843.921 49.6894 845.221 Q51.2353 846.485 52.3596 848.418 Q53.4487 850.35 53.4487 852.423 Q53.4487 855.339 51.5866 857.201 Q49.7246 859.028 46.8085 859.028 Q45.8599 859.028 42.8384 858.29 Q39.7817 857.552 23.8662 853.547 L23.8662 859.906 Q23.8662 860.785 23.8311 861.136 Q23.7959 861.452 23.6202 861.698 Q23.4094 861.909 22.9878 861.909 Q22.3203 861.909 22.0392 861.628 Q21.723 861.347 21.6879 860.996 Q21.6176 860.609 21.6176 859.731 L21.6176 852.985 L10.1992 850.174 Q9.07491 849.893 8.4425 849.191 Q7.77496 848.453 7.7047 848.031 Q7.5993 847.61 7.5993 847.293 Q7.5993 846.345 8.1263 845.783 Q8.61817 845.221 9.53165 845.221 Q10.0235 845.221 21.6176 848.172 L21.6176 841.848 Q21.6176 841.04 21.6528 840.723 Q21.6879 840.372 21.8636 840.091 Q22.0392 839.81 22.4257 839.81 Z" fill="#000000" fill-rule="evenodd" fill-opacity="1" /><path clip-path="url(#clip830)" d="M27.0282 809.132 Q28.9957 809.132 30.0497 810.116 Q31.0686 811.1 31.0686 812.435 Q31.0686 813.524 30.4362 814.121 Q29.8038 814.684 28.9606 814.684 Q27.7309 814.684 26.7471 813.7 Q25.7634 812.681 25.7283 811.205 Q24.4283 811.697 23.6554 812.997 Q22.8473 814.297 22.6365 815.457 Q22.4257 816.581 22.4257 817.705 Q22.4257 819.918 23.1284 821.605 Q23.8311 823.291 24.9202 824.135 Q25.9742 824.978 26.9931 825.364 Q28.012 825.751 28.8903 825.751 Q29.6632 825.751 30.2956 825.575 Q30.8929 825.364 31.3497 824.872 Q31.7713 824.38 32.0523 824.029 Q32.3334 823.643 32.5793 822.799 Q32.8253 821.956 32.9307 821.605 Q33.0009 821.254 33.2117 820.27 Q33.6333 818.232 33.8793 817.319 Q34.0901 816.405 34.6874 815.211 Q35.2846 813.981 36.2332 813.067 Q38.4467 810.854 41.5033 810.854 Q42.6276 810.854 43.9978 811.24 Q45.368 811.592 47.0895 812.611 Q48.8111 813.63 50.1813 815.175 Q51.5515 816.721 52.5001 819.391 Q53.4487 822.027 53.4487 825.329 Q53.4487 829.932 51.5164 832.777 Q49.5489 835.623 46.4571 835.623 Q44.2086 835.623 42.9789 834.394 Q41.7141 833.164 41.7141 831.583 Q41.7141 830.388 42.3816 829.651 Q43.014 828.913 44.2086 828.913 Q45.8247 828.913 47.0544 830.213 Q48.2841 831.513 48.0381 833.445 Q51.8326 831.794 51.8326 825.259 Q51.8326 822.799 51.2002 820.902 Q50.5326 818.97 49.6192 817.916 Q48.6706 816.827 47.5111 816.124 Q46.3517 815.421 45.4734 815.211 Q44.595 814.965 43.9275 814.965 Q42.7681 814.965 41.8898 815.421 Q41.0114 815.878 40.5195 816.511 Q39.9925 817.108 39.5709 818.267 Q39.1142 819.391 38.9385 820.2 Q38.7629 821.008 38.4818 822.448 Q38.3413 823.116 38.271 823.537 Q38.1656 823.959 37.8845 824.837 Q37.5683 825.68 37.2521 826.278 Q36.9359 826.84 36.3738 827.578 Q35.8116 828.315 35.1441 828.772 Q34.4766 829.229 33.4928 829.545 Q32.5091 829.861 31.3497 829.861 Q30.2956 829.861 29.0308 829.545 Q27.766 829.194 26.2904 828.315 Q24.8148 827.402 23.6202 826.102 Q22.4257 824.802 21.6528 822.624 Q20.8447 820.41 20.8447 817.705 Q20.8447 813.77 22.6716 811.451 Q24.4635 809.132 27.0282 809.132 Z" fill="#000000" fill-rule="evenodd" fill-opacity="1" /><path clip-path="url(#clip830)" d="M68.9778 803.953 L68.9778 797.91 L0.326627 797.91 L0.326627 803.953 L-1.32465 803.953 L-1.32465 793.096 L70.6291 793.096 L70.6291 803.953 L68.9778 803.953 Z" fill="#000000" fill-rule="evenodd" fill-opacity="1" /><path clip-path="url(#clip833)" d="
M323.125 1031.34 L563.119 856.422 L803.113 750.257 L1043.11 733.377 L1283.1 737.965 L1523.1 752.391 L1763.09 768.936 L2003.08 806.476 L2243.08 846.958 L2483.07 868.913 
  L2483.07 270.406 L2243.08 230.839 L2003.08 197.425 L1763.09 134.548 L1523.1 112.918 L1283.1 104.048 L1043.11 97.4238 L803.113 133.066 L563.119 187.626 L323.125 234.227 
   Z
  " fill="#000000" fill-rule="evenodd" fill-opacity="0.3"/>
<polyline clip-path="url(#clip833)" style="stroke:#000000; stroke-linecap:butt; stroke-linejoin:round; stroke-width:4; stroke-opacity:1; fill:none" points="
  323.125,581.089 563.119,514.843 803.113,450.404 1043.11,428.619 1283.1,439.004 1523.1,451.219 1763.09,470.979 2003.08,510.15 2243.08,546.03 2483.07,584.182 
  
  "/>
<path clip-path="url(#clip833)" d="
M323.125 1636.01 L563.119 1660.92 L803.113 1697.31 L1043.11 1745.3 L1283.1 1768.92 L1523.1 1770.08 L1763.09 1743.77 L2003.08 1713.19 L2243.08 1688.13 L2483.07 1655.23 
  L2483.07 1058.72 L2243.08 1081.47 L2003.08 1113.52 L1763.09 1164.77 L1523.1 1158.31 L1283.1 1148.01 L1043.11 1135.72 L803.113 1087.25 L563.119 974.162 L323.125 813.063 
   Z
  " fill="#ff0000" fill-rule="evenodd" fill-opacity="0.3"/>
<polyline clip-path="url(#clip833)" style="stroke:#ff0000; stroke-linecap:butt; stroke-linejoin:round; stroke-width:4; stroke-opacity:1; fill:none" points="
  323.125,1212.31 563.119,1320.39 803.113,1384.47 1043.11,1420.72 1283.1,1438.73 1523.1,1440.41 1763.09,1420.49 2003.08,1388.47 2243.08,1366.39 2483.07,1334.74 
  
  "/>
<polyline clip-path="url(#clip833)" style="stroke:#000000; stroke-linecap:butt; stroke-linejoin:round; stroke-width:4; stroke-opacity:0.2; fill:none" points="
  -2031.22,872.404 4837.41,872.404 
  "/>
<path clip-path="url(#clip830)" d="
M2644.35 1011.51 L3152.76 1011.51 L3152.76 778.232 L2644.35 778.232  Z
  " fill="#ffffff" fill-rule="evenodd" fill-opacity="1"/>
<polyline clip-path="url(#clip830)" style="stroke:#000000; stroke-linecap:butt; stroke-linejoin:round; stroke-width:4; stroke-opacity:1; fill:none" points="
  2644.35,1011.51 3152.76,1011.51 3152.76,778.232 2644.35,778.232 2644.35,1011.51 
  "/>
<polyline clip-path="url(#clip830)" style="stroke:#000000; stroke-linecap:butt; stroke-linejoin:round; stroke-width:6; stroke-opacity:1; fill:none" points="
  2676.51,855.992 2869.47,855.992 
  "/>
<path clip-path="url(#clip830)" d="M2937.47 850.161 Q2937.47 852.129 2936.24 853.253 Q2935.01 854.342 2933.61 854.342 Q2932.27 854.342 2931.57 853.569 Q2930.87 852.796 2930.87 851.812 Q2930.87 850.477 2931.85 849.318 Q2932.83 848.159 2934.31 847.913 Q2932.87 846.999 2930.72 846.999 Q2929.32 846.999 2928.09 847.737 Q2926.9 848.475 2926.16 849.423 Q2925.45 850.372 2924.82 851.742 Q2924.22 853.077 2923.98 853.885 Q2923.77 854.658 2923.59 855.502 L2921.13 865.339 Q2919.94 870.012 2919.94 871.663 Q2919.94 873.701 2920.92 875.071 Q2921.91 876.406 2923.87 876.406 Q2924.65 876.406 2925.52 876.195 Q2926.4 875.949 2927.53 875.317 Q2928.69 874.649 2929.71 873.666 Q2930.76 872.647 2931.78 870.925 Q2932.8 869.204 2933.47 866.99 Q2933.68 866.217 2934.38 866.217 Q2935.26 866.217 2935.26 866.92 Q2935.26 867.517 2934.77 868.782 Q2934.31 870.012 2933.29 871.628 Q2932.31 873.209 2931.01 874.649 Q2929.71 876.055 2927.77 877.038 Q2925.84 878.022 2923.73 878.022 Q2920.71 878.022 2918.71 876.406 Q2916.71 874.79 2915.97 872.541 Q2915.79 872.858 2915.55 873.279 Q2915.3 873.701 2914.56 874.649 Q2913.86 875.563 2913.05 876.266 Q2912.24 876.933 2910.98 877.46 Q2909.75 878.022 2908.41 878.022 Q2906.73 878.022 2905.22 877.53 Q2903.74 877.038 2902.69 875.914 Q2901.63 874.79 2901.63 873.244 Q2901.63 871.522 2902.79 870.328 Q2903.99 869.098 2905.6 869.098 Q2906.62 869.098 2907.43 869.696 Q2908.27 870.293 2908.27 871.593 Q2908.27 873.033 2907.29 874.122 Q2906.31 875.212 2904.9 875.493 Q2906.34 876.406 2908.49 876.406 Q2910.8 876.406 2912.63 874.368 Q2914.46 872.331 2915.34 868.923 Q2917.51 860.736 2918.36 857.083 Q2919.2 853.394 2919.2 851.812 Q2919.2 850.337 2918.81 849.318 Q2918.43 848.299 2917.76 847.842 Q2917.13 847.351 2916.53 847.175 Q2915.97 846.999 2915.34 846.999 Q2914.28 846.999 2913.09 847.421 Q2911.93 847.842 2910.52 848.826 Q2909.15 849.775 2907.85 851.742 Q2906.55 853.71 2905.67 856.415 Q2905.5 857.223 2904.73 857.223 Q2903.88 857.188 2903.88 856.485 Q2903.88 855.888 2904.34 854.658 Q2904.83 853.394 2905.81 851.812 Q2906.83 850.231 2908.13 848.826 Q2909.47 847.386 2911.4 846.402 Q2913.37 845.418 2915.48 845.418 Q2916.43 845.418 2917.34 845.629 Q2918.29 845.805 2919.41 846.332 Q2920.57 846.859 2921.59 848.018 Q2922.61 849.177 2923.24 850.864 Q2923.66 850.056 2924.22 849.283 Q2924.82 848.51 2925.74 847.561 Q2926.68 846.578 2927.98 846.015 Q2929.32 845.418 2930.79 845.418 Q2932.24 845.418 2933.64 845.805 Q2935.05 846.156 2936.24 847.315 Q2937.47 848.44 2937.47 850.161 Z" fill="#000000" fill-rule="evenodd" fill-opacity="1" /><path clip-path="url(#clip830)" d="M3025.36 858.277 Q3025.99 858.523 3025.99 859.226 Q3025.99 859.928 3025.36 860.174 Q3020.09 861.931 3015.49 867.658 Q3012.22 871.909 3011.31 876.793 Q3011.2 877.284 3010.82 877.601 Q3010.43 877.917 3009.9 877.917 Q3009.31 877.917 3008.88 877.495 Q3008.46 877.109 3008.46 876.511 Q3008.46 876.476 3008.5 876.371 Q3008.53 876.23 3008.53 876.195 Q3009.59 870.504 3013.28 865.831 Q3015.59 862.88 3018.9 860.666 L2963.77 860.666 Q2963.18 860.666 2962.75 860.245 Q2962.33 859.823 2962.33 859.226 Q2962.33 858.628 2962.75 858.207 Q2963.18 857.785 2963.77 857.785 L3018.9 857.785 Q3015.59 855.572 3013.28 852.621 Q3009.59 847.948 3008.53 842.256 Q3008.53 842.221 3008.5 842.116 Q3008.46 841.975 3008.46 841.94 Q3008.46 841.343 3008.88 840.956 Q3009.31 840.535 3009.9 840.535 Q3010.43 840.535 3010.82 840.851 Q3011.2 841.167 3011.31 841.659 Q3012.22 846.542 3015.49 850.794 Q3020.09 856.52 3025.36 858.277 Z" fill="#000000" fill-rule="evenodd" fill-opacity="1" /><path clip-path="url(#clip830)" d="M3086.74 848.159 Q3086.74 848.65 3086.43 849.81 L3079.54 877.284 Q3078.03 883.398 3073.11 887.684 Q3068.23 891.97 3062.68 891.97 Q3059.34 891.97 3057.19 890.178 Q3055.05 888.422 3055.05 885.716 Q3055.05 883.327 3056.32 882.168 Q3057.58 881.044 3059.09 881.044 Q3059.58 881.044 3060.11 881.184 Q3060.64 881.325 3061.2 881.922 Q3061.76 882.519 3061.76 883.538 Q3061.76 885.189 3060.32 886.489 Q3059.62 887.087 3058.95 887.227 Q3058.32 887.368 3057.23 887.368 Q3057.65 888.352 3058.42 889.019 Q3059.2 889.687 3060.08 889.933 Q3060.95 890.214 3061.52 890.284 Q3062.11 890.389 3062.68 890.389 Q3067.17 890.389 3070.62 885.857 Q3071.63 884.487 3072.37 883.117 Q3073.15 881.782 3073.71 880.13 Q3074.27 878.514 3074.52 877.636 Q3074.8 876.757 3075.29 874.755 Q3072.02 878.022 3068.02 878.022 Q3066.33 878.022 3064.82 877.565 Q3063.34 877.109 3062.04 876.16 Q3060.74 875.176 3059.97 873.455 Q3059.23 871.733 3059.23 869.45 Q3059.23 867.025 3060.18 863.723 Q3061.13 860.42 3063.41 854.342 Q3064.64 850.934 3064.64 849.283 Q3064.64 848.475 3064.47 847.983 Q3064.29 847.456 3063.94 847.28 Q3063.59 847.069 3063.38 847.034 Q3063.2 846.999 3062.85 846.999 Q3060.78 846.999 3058.85 849.107 Q3056.91 851.215 3055.58 855.923 Q3055.3 856.801 3055.12 857.012 Q3054.95 857.223 3054.42 857.223 Q3053.54 857.188 3053.54 856.485 Q3053.54 856.204 3053.86 855.115 Q3054.17 853.991 3054.91 852.339 Q3055.68 850.653 3056.74 849.142 Q3057.79 847.596 3059.44 846.507 Q3061.13 845.418 3063.06 845.418 Q3065.7 845.418 3067.31 847.14 Q3068.96 848.826 3068.96 851.321 Q3068.96 852.339 3068.68 853.253 Q3068.44 854.131 3067.52 856.485 Q3063.84 865.971 3063.84 870.609 Q3063.84 871.733 3064.01 872.682 Q3064.22 873.595 3064.68 874.509 Q3065.13 875.387 3066.05 875.914 Q3067 876.406 3068.3 876.406 Q3069.95 876.406 3071.49 875.633 Q3073.08 874.825 3074.06 873.736 Q3075.08 872.647 3075.68 871.733 Q3076.31 870.785 3076.45 870.293 L3079.68 857.364 L3081.12 851.602 Q3081.79 848.475 3082.1 847.702 Q3082.53 846.964 3083.26 846.578 Q3084 846.191 3084.63 846.191 Q3085.51 846.191 3086.11 846.718 Q3086.74 847.245 3086.74 848.159 Z" fill="#000000" fill-rule="evenodd" fill-opacity="1" /><polyline clip-path="url(#clip830)" style="stroke:#ff0000; stroke-linecap:butt; stroke-linejoin:round; stroke-width:6; stroke-opacity:1; fill:none" points="
  2676.51,933.752 2869.47,933.752 
  "/>
<path clip-path="url(#clip830)" d="M2934.84 925.919 Q2934.84 926.41 2934.52 927.57 L2927.63 955.044 Q2926.12 961.158 2921.2 965.444 Q2916.32 969.73 2910.77 969.73 Q2907.43 969.73 2905.29 967.938 Q2903.14 966.182 2903.14 963.476 Q2903.14 961.087 2904.41 959.928 Q2905.67 958.804 2907.19 958.804 Q2907.68 958.804 2908.2 958.944 Q2908.73 959.085 2909.29 959.682 Q2909.86 960.279 2909.86 961.298 Q2909.86 962.949 2908.41 964.249 Q2907.71 964.847 2907.04 964.987 Q2906.41 965.128 2905.32 965.128 Q2905.74 966.112 2906.52 966.779 Q2907.29 967.447 2908.17 967.693 Q2909.05 967.974 2909.61 968.044 Q2910.21 968.149 2910.77 968.149 Q2915.27 968.149 2918.71 963.617 Q2919.73 962.247 2920.47 960.877 Q2921.24 959.542 2921.8 957.89 Q2922.36 956.274 2922.61 955.396 Q2922.89 954.517 2923.38 952.515 Q2920.11 955.782 2916.11 955.782 Q2914.42 955.782 2912.91 955.325 Q2911.44 954.869 2910.14 953.92 Q2908.84 952.936 2908.06 951.215 Q2907.33 949.493 2907.33 947.21 Q2907.33 944.785 2908.27 941.483 Q2909.22 938.18 2911.51 932.102 Q2912.74 928.694 2912.74 927.043 Q2912.74 926.235 2912.56 925.743 Q2912.38 925.216 2912.03 925.04 Q2911.68 924.829 2911.47 924.794 Q2911.3 924.759 2910.94 924.759 Q2908.87 924.759 2906.94 926.867 Q2905.01 928.975 2903.67 933.683 Q2903.39 934.561 2903.21 934.772 Q2903.04 934.983 2902.51 934.983 Q2901.63 934.948 2901.63 934.245 Q2901.63 933.964 2901.95 932.875 Q2902.27 931.751 2903 930.099 Q2903.78 928.413 2904.83 926.902 Q2905.89 925.356 2907.54 924.267 Q2909.22 923.178 2911.16 923.178 Q2913.79 923.178 2915.41 924.9 Q2917.06 926.586 2917.06 929.081 Q2917.06 930.099 2916.78 931.013 Q2916.53 931.891 2915.62 934.245 Q2911.93 943.731 2911.93 948.369 Q2911.93 949.493 2912.1 950.442 Q2912.31 951.355 2912.77 952.269 Q2913.23 953.147 2914.14 953.674 Q2915.09 954.166 2916.39 954.166 Q2918.04 954.166 2919.59 953.393 Q2921.17 952.585 2922.15 951.496 Q2923.17 950.407 2923.77 949.493 Q2924.4 948.545 2924.54 948.053 L2927.77 935.124 L2929.21 929.362 Q2929.88 926.235 2930.2 925.462 Q2930.62 924.724 2931.36 924.338 Q2932.09 923.951 2932.73 923.951 Q2933.61 923.951 2934.2 924.478 Q2934.84 925.005 2934.84 925.919 Z" fill="#000000" fill-rule="evenodd" fill-opacity="1" /><path clip-path="url(#clip830)" d="M3019.52 936.037 Q3020.15 936.283 3020.15 936.986 Q3020.15 937.688 3019.52 937.934 Q3014.25 939.691 3009.64 945.418 Q3006.38 949.669 3005.46 954.553 Q3005.36 955.044 3004.97 955.361 Q3004.59 955.677 3004.06 955.677 Q3003.46 955.677 3003.04 955.255 Q3002.62 954.869 3002.62 954.271 Q3002.62 954.236 3002.65 954.131 Q3002.69 953.99 3002.69 953.955 Q3003.74 948.264 3007.43 943.591 Q3009.75 940.64 3013.05 938.426 L2957.93 938.426 Q2957.33 938.426 2956.91 938.005 Q2956.49 937.583 2956.49 936.986 Q2956.49 936.388 2956.91 935.967 Q2957.33 935.545 2957.93 935.545 L3013.05 935.545 Q3009.75 933.332 3007.43 930.381 Q3003.74 925.708 3002.69 920.016 Q3002.69 919.981 3002.65 919.876 Q3002.62 919.735 3002.62 919.7 Q3002.62 919.103 3003.04 918.716 Q3003.46 918.295 3004.06 918.295 Q3004.59 918.295 3004.97 918.611 Q3005.36 918.927 3005.46 919.419 Q3006.38 924.302 3009.64 928.554 Q3014.25 934.28 3019.52 936.037 Z" fill="#000000" fill-rule="evenodd" fill-opacity="1" /><path clip-path="url(#clip830)" d="M3083.53 927.921 Q3083.53 929.889 3082.3 931.013 Q3081.07 932.102 3079.67 932.102 Q3078.33 932.102 3077.63 931.329 Q3076.93 930.556 3076.93 929.572 Q3076.93 928.237 3077.91 927.078 Q3078.89 925.919 3080.37 925.673 Q3078.93 924.759 3076.79 924.759 Q3075.38 924.759 3074.15 925.497 Q3072.96 926.235 3072.22 927.183 Q3071.52 928.132 3070.88 929.502 Q3070.29 930.837 3070.04 931.645 Q3069.83 932.418 3069.65 933.262 L3067.2 943.099 Q3066 947.772 3066 949.423 Q3066 951.461 3066.98 952.831 Q3067.97 954.166 3069.94 954.166 Q3070.71 954.166 3071.59 953.955 Q3072.47 953.709 3073.59 953.077 Q3074.75 952.409 3075.77 951.426 Q3076.82 950.407 3077.84 948.685 Q3078.86 946.964 3079.53 944.75 Q3079.74 943.977 3080.44 943.977 Q3081.32 943.977 3081.32 944.68 Q3081.32 945.277 3080.83 946.542 Q3080.37 947.772 3079.35 949.388 Q3078.37 950.969 3077.07 952.409 Q3075.77 953.815 3073.84 954.798 Q3071.9 955.782 3069.8 955.782 Q3066.77 955.782 3064.77 954.166 Q3062.77 952.55 3062.03 950.301 Q3061.85 950.618 3061.61 951.039 Q3061.36 951.461 3060.63 952.409 Q3059.92 953.323 3059.11 954.026 Q3058.31 954.693 3057.04 955.22 Q3055.81 955.782 3054.48 955.782 Q3052.79 955.782 3051.28 955.29 Q3049.8 954.798 3048.75 953.674 Q3047.7 952.55 3047.7 951.004 Q3047.7 949.282 3048.86 948.088 Q3050.05 946.858 3051.67 946.858 Q3052.69 946.858 3053.49 947.456 Q3054.34 948.053 3054.34 949.353 Q3054.34 950.793 3053.35 951.882 Q3052.37 952.972 3050.96 953.253 Q3052.4 954.166 3054.55 954.166 Q3056.87 954.166 3058.69 952.128 Q3060.52 950.091 3061.4 946.683 Q3063.58 938.496 3064.42 934.843 Q3065.26 931.154 3065.26 929.572 Q3065.26 928.097 3064.88 927.078 Q3064.49 926.059 3063.82 925.602 Q3063.19 925.111 3062.59 924.935 Q3062.03 924.759 3061.4 924.759 Q3060.34 924.759 3059.15 925.181 Q3057.99 925.602 3056.58 926.586 Q3055.21 927.535 3053.91 929.502 Q3052.61 931.47 3051.74 934.175 Q3051.56 934.983 3050.79 934.983 Q3049.94 934.948 3049.94 934.245 Q3049.94 933.648 3050.4 932.418 Q3050.89 931.154 3051.88 929.572 Q3052.9 927.991 3054.2 926.586 Q3055.53 925.146 3057.46 924.162 Q3059.43 923.178 3061.54 923.178 Q3062.49 923.178 3063.4 923.389 Q3064.35 923.565 3065.47 924.092 Q3066.63 924.619 3067.65 925.778 Q3068.67 926.937 3069.3 928.624 Q3069.72 927.816 3070.29 927.043 Q3070.88 926.27 3071.8 925.321 Q3072.75 924.338 3074.05 923.775 Q3075.38 923.178 3076.86 923.178 Q3078.3 923.178 3079.7 923.565 Q3081.11 923.916 3082.3 925.075 Q3083.53 926.2 3083.53 927.921 Z" fill="#000000" fill-rule="evenodd" fill-opacity="1" /></svg>
